<svg width="456" height="577" viewBox="0 0 456 577" fill="none" xmlns="http://www.w3.org/2000/svg">
<path d="M350.628 0.606197C351.227 0.323508 353.015 -0.206361 354.721 0.0847124C356.557 0.359656 357.922 1.23529 358.787 2.04467C359.649 2.8324 360.211 3.81063 360.376 4.14428C360.591 4.56289 360.733 4.92236 360.839 5.23608C360.943 5.54422 361.019 5.83776 361.065 6.04174C361.102 6.20803 361.131 6.35983 361.154 6.50073C361.202 6.78264 361.229 7.02226 361.247 7.23803C361.852 16.021 362.299 24.3372 363.191 31.4265C363.593 34.6593 364.112 37.9152 364.838 40.8972C365.2 42.3782 365.623 43.8033 366.085 44.9529C366.307 45.5084 366.557 46.0236 366.744 46.3318C366.786 46.4062 366.828 46.4693 366.863 46.5183C367.941 47.4354 369.016 48.3062 370.057 49.0798C370.87 49.6848 371.681 50.2369 372.368 50.6423C372.954 48.2076 373.436 44.582 374.096 41.3894C374.471 39.6108 375.074 37.3711 376.332 34.3552C377.021 32.7555 377.894 30.8967 379.391 28.8269C379.726 28.3965 380.08 27.9329 380.45 27.4441C385.874 19.4396 393.386 6.1018 409.498 6.82006C410.096 6.86986 410.764 6.96235 411.538 7.17456C412.529 7.42829 413.829 7.87789 415.188 9.05249C415.209 9.07093 415.231 9.08945 415.252 9.10815C417.719 11.1236 418.357 15.1244 417.775 17.1785C414.575 28.1539 409.72 37.0715 401.211 50.4792C401.031 50.7556 400.854 51.0258 400.68 51.2898C398.435 54.6708 396.77 56.5806 395.29 58.3249C393.716 60.1621 392.292 61.7602 390.522 64.1687C389.53 65.5243 388.498 67.038 387.633 68.533C387.457 68.8382 387.289 69.1452 387.133 69.4431C390.984 71.8153 395.359 74.3482 399.652 77.7273C400.064 78.0525 400.508 78.4094 400.965 78.7859C401.685 79.3783 402.454 80.0329 403.253 80.7458C406.699 83.8619 411.641 87.875 416.399 92.4001C420.692 96.5057 425.45 99.1613 428.903 107.809C433.567 120.008 445.483 133.935 448.76 151.783C448.908 152.689 449.058 153.614 449.205 154.54C450.223 161 451.151 167.522 451.576 174.29C451.773 177.68 451.873 181.123 451.522 184.829C451.328 186.692 451.051 188.628 450.3 190.821C449.549 192.846 448.194 196.11 444.175 197.711C437.358 200.433 425.558 201.942 418.862 193.367C408.557 177.566 409.372 161.931 408.4 146.544C408.375 145.423 408.309 144.559 408.199 144.166C408.098 143.774 407.949 143.449 407.474 142.837C406.701 141.881 405.591 140.827 404.343 139.747C404.399 141.472 404.37 143.077 404.379 144.577C404.371 145.612 404.361 146.596 404.357 147.537L404.353 147.494C404.339 151.506 404.988 154.52 405.927 156.713L405.839 156.587C407.472 159.626 409.471 161.697 408.871 162.256C408.432 162.697 406.098 162.437 402.434 159.112C402.422 159.096 402.388 159.049 402.377 159.032C400.29 156.705 398.498 152.811 397.728 148.109C397.727 148.103 397.725 148.083 397.725 148.076C397.564 147.097 397.414 146.088 397.268 145.056C396.599 139.918 395.915 134.742 393.167 130.845C390.948 129.115 388.769 127.416 386.648 125.761C380.515 122.459 373.985 119.152 367.346 117.278C363.963 116.334 360.535 115.889 357.798 116.381C357.74 116.841 357.689 117.443 357.673 118.028C357.833 133.343 351.762 149.551 348.74 162.5C346.596 173.626 345.347 184.615 349.993 193.129C349.973 193.095 350.144 193.368 350.358 193.642C350.573 193.923 350.847 194.254 351.127 194.579C351.705 195.248 352.356 195.954 353.026 196.666C354.381 198.101 355.792 199.541 357.218 201.005C363.514 207.431 369.79 214.108 375.674 221.122C384.76 231.899 395.324 241.975 405.419 252.566C415.161 262.753 424.784 272.825 434.089 283.814C437.521 288.485 441.749 291.354 444.338 299.949C444.888 302.562 445.508 305.292 445.316 308.907C445.204 310.424 444.929 312.19 443.961 314.108C440.645 319.773 436.909 320.773 433.884 322.653C430.747 324.319 427.655 325.758 424.561 327.158C408.537 334.365 392.493 341.398 376.892 348.99C371.008 351.871 365.181 354.857 359.575 358.035C356.805 359.612 354.073 361.238 351.581 362.931C351.139 363.243 350.703 363.56 350.293 363.871C352.274 367.366 352.301 369.342 353.278 371.813C354.199 374.636 355.131 377.354 356.129 380.043C361.52 394.21 368.321 407.369 373.536 417.978C373.869 418.645 374.203 419.311 374.538 419.976C381.493 433.69 386.681 443.82 390.975 452.538C393.946 458.542 396.551 463.871 399.234 469.273C400.673 472.179 402.629 476.124 404.914 481.005C406.518 484.44 408.294 488.343 410.062 492.685C412.357 498.344 414.82 504.568 417.266 511.353C418.483 514.746 419.689 518.239 420.812 521.975C421.365 523.834 421.909 525.769 422.365 527.861C422.594 528.937 422.808 530.014 422.942 531.402C422.995 532.099 423.075 532.853 422.926 534.152C422.879 534.501 422.828 534.834 422.681 535.373C422.61 535.626 422.522 535.894 422.405 536.182C422.262 536.534 422.077 536.915 421.824 537.314C421.375 538.058 420.311 539.267 418.838 539.882C417.306 540.534 415.966 540.489 414.973 540.312C413.093 539.913 412.409 539.293 411.831 538.901C411.282 538.485 410.943 538.152 410.651 537.856C410.071 537.26 409.702 536.796 409.349 536.348C408.661 535.464 408.126 534.694 407.598 533.939C406.559 532.444 405.608 531.052 404.632 529.733C399.442 522.756 393.815 515.575 388.669 508.265C384.722 502.049 379.971 497.568 377.136 486.505C376.216 479.269 372.759 470.766 369.325 463.007C366.833 457.446 364.147 452.046 361.473 446.929C353.909 432.203 348.444 419.359 344.847 412.03C342.595 407.346 340.278 402.474 337.912 397.518C333.353 388.23 329.292 376.838 324.006 371.099C322.377 369.422 318.096 368.741 313.918 368.418C304.646 367.783 295.372 367.534 287.583 366.915C280.222 366.383 273.939 365.951 269.357 365.675C258.392 364.941 249.034 364.201 235.24 361.3C234.898 361.222 234.555 361.146 234.213 361.068C229.887 360.087 225.1 358.959 219.731 357.665C217.037 357.018 214.2 356.324 211.219 355.634C209.739 355.293 208.194 354.945 206.693 354.662C205.949 354.522 205.2 354.398 204.544 354.328C204.228 354.294 203.918 354.274 203.728 354.275C203.718 354.274 203.708 354.275 203.698 354.275C203.599 354.341 203.497 354.443 203.39 354.628C203.333 354.738 203.362 354.663 203.316 354.81C202.997 356.103 202.823 358.903 202.667 361.04C201.63 376.39 199.966 388.021 197.261 397.93C195.924 402.803 194.342 407.274 192.314 411.507C188.033 420.99 180.809 429.159 176.428 439.145C176.36 439.342 176.297 439.538 176.241 439.727C174.777 451.75 183.435 467.874 189.274 479.802C191.032 483.224 192.586 486.596 193.939 489.832C196.906 496.913 199.811 505.235 202.03 514.081C203.282 519.05 204.327 524.187 205.115 529.348C205.413 531.305 205.667 533.253 205.896 535.184C210.025 546.815 214.053 557.655 216.419 572.473C216.36 573.099 216.106 574.009 215.475 574.793C214.852 575.583 214.02 576.031 213.445 576.224C212.256 576.597 211.711 576.478 211.251 576.447C210.385 576.332 209.95 576.154 209.509 575.986C208.665 575.639 208.037 575.279 207.325 574.754C203.528 571.66 202.62 568.106 201.657 565.03C199.083 554.558 198.792 544.769 197.606 535.207C197.08 533.857 196.531 532.454 195.959 530.994C194.718 527.83 193.376 524.408 191.922 520.709C188.283 511.515 184.965 502.925 181.255 494.964C178.939 490.001 176.472 485.446 174.01 479.998C173.483 478.779 172.985 477.475 172.577 476.139C169.454 466.975 164.655 456.823 159.86 445.565C157.449 439.983 154.84 433.869 152.27 427.547C150.901 424.17 149.429 420.801 147.992 417.266C147.231 415.363 146.469 413.445 145.862 411.21C145.396 409.061 144.354 405.996 146.609 402.231C149.511 398.319 152.254 397.135 152.634 396.021C157.183 388.727 161.102 383.207 163.308 378.26C164.799 375.063 165.588 372.102 165.272 370.636C165.263 370.6 165.254 370.562 165.245 370.525C165.242 370.512 165.239 370.499 165.236 370.486C165.188 370.287 165.137 370.087 165.084 369.886C163.089 364.004 159.605 358.137 155.896 352.596C149.635 342.736 141.232 335.796 134.965 322.929C132.495 314.62 132.06 306.578 134.499 298.031C135.164 295.844 136.133 293.607 137.585 291.538C137.768 291.276 137.975 290.982 138.163 290.716C144.824 281.24 152.97 273.332 158.633 268.596C160.682 266.863 163.879 264.359 168.108 261.656C178.553 255.512 191.607 256.35 202.512 252.421C202.62 252.38 202.844 252.286 203.096 252.165C213.024 246.011 227.815 240.483 239.258 239.841C239.816 239.789 240.363 239.739 240.9 239.688C247.395 239.076 253.56 238.754 259.85 238.318C264.92 237.928 270.907 237.564 275.401 236.41C275.294 234.939 275.181 233.368 275.114 231.7C274.963 228.139 275.093 224.145 275.787 220.101C275.802 220.014 275.817 219.927 275.832 219.84C276.42 216.267 278.153 208.428 280.905 198.736C282.589 192.737 284.61 186.009 286.669 178.98C286.833 178.39 286.994 177.805 287.157 177.215C290.778 163.484 294.802 149.279 299.588 135.624C301.054 131.388 302.572 127.159 304.111 122.96C305.397 119.089 306.478 115.718 307.253 113.019C307.81 111.083 308.232 109.414 308.671 107.7C309.269 105.368 309.891 102.958 310.927 99.699C311.736 97.153 312.837 94.2095 313.702 92.2781C314.105 91.378 314.453 90.7025 314.767 90.0945C315.132 89.3838 315.449 88.7711 315.775 87.9714C316.01 87.392 316.202 86.7961 316.452 86.031C316.845 84.828 317.358 83.2589 318.323 80.948C319.303 78.6064 320.341 76.1687 321.43 73.6912C322.622 70.9839 323.853 68.2436 325.255 65.3777C325.959 63.9506 326.695 62.487 327.641 60.8689C328.138 60.0373 328.628 59.2049 329.547 58.0369C330.042 57.4468 330.555 56.75 331.933 55.7292C332.655 55.2234 333.697 54.566 335.358 54.1873C337.003 53.7807 339.092 54.0396 340.255 54.488C340.824 54.7038 341.326 54.9122 341.776 55.114C341.571 53.0251 341.398 51.0088 341.268 49.0994C340.778 42.1015 340.609 32.9852 341.77 23.116C342.379 18.1367 343.332 13.3489 345.014 8.19018C345.26 7.46244 345.517 6.73499 345.893 5.84545C346.102 5.37025 346.262 4.95683 346.776 4.06713C346.9 3.85886 347.111 3.51974 347.388 3.15503C347.577 2.90689 347.811 2.61974 348.156 2.27417C348.404 2.03781 349.198 1.21626 350.628 0.606197ZM357.064 57.4109C357.379 60.316 357.746 63.2345 358.156 66.1648C358.229 66.7429 358.307 67.3841 358.269 68.3933C358.053 69.3693 358.653 71.0191 355.648 74.2126C354.054 75.7226 351.676 76.2491 350.409 76.1892C349.063 76.1612 348.324 75.9124 347.737 75.7263C346.609 75.3296 346.087 75.0037 345.639 74.7585C343.574 73.5808 341.586 72.3409 339.718 71.1677C339.558 71.066 339.393 70.9652 339.227 70.8611C339.063 71.1829 338.899 71.5097 338.737 71.8367C337.502 74.3444 336.299 76.9996 335.106 79.6872C326.563 99.29 318.535 119.549 311.248 139.721C306.415 153.111 302.485 166.451 298.63 180.448C295.119 192.71 291.398 204.789 288.745 216.826C288.465 218.157 288.196 219.507 287.942 220.873C287.857 221.327 287.772 221.785 287.692 222.242C286.742 227.274 287.047 232.324 287.419 238.901C287.504 240.483 286.949 242.108 286.285 243.127C285.632 244.15 284.994 244.725 284.423 245.19C283.37 246.016 282.522 246.402 281.856 246.702C280.459 247.302 279.371 247.597 278.29 247.878C276.185 248.405 274.24 248.733 272.338 249.026C268.53 249.6 264.85 249.991 261.204 250.351C253.919 251.058 246.873 251.596 240.225 252.106C232.796 252.655 226.213 254.333 220.853 256.466C215.801 258.37 212.805 260.629 206.308 263.396C191.74 267.802 179.811 267.201 173.781 270.838C170.565 272.76 167.671 274.75 164.993 276.788C157.545 282.582 150.902 289.467 145.307 297.125C141.557 302.296 141.461 312.703 143.645 320.022C147.285 327.967 156.819 337.698 163.21 347.715C167.273 353.981 171.139 360.351 173.555 368.205C174.789 384.66 164.992 391.557 160.269 400.43C157.621 404.525 154.557 405.903 153.932 406.913C153.924 406.961 153.914 407.052 153.915 407.179C153.913 407.566 154.012 408.234 154.193 408.959C154.557 410.432 155.176 412.137 155.831 413.842C157.167 417.287 158.667 420.84 160.077 424.453C162.386 430.49 164.867 436.375 167.402 442.264C167.454 440.656 167.684 438.961 168.177 437.14C173.893 423.603 180.884 416.536 184.47 407.832C184.808 407.098 185.129 406.356 185.432 405.617C190.787 392.361 192.389 376.107 193.464 360.454C193.559 359.046 193.657 357.641 193.803 356.159C194.033 354.678 193.853 353.104 195.272 350.247C196.359 348.206 198.301 346.396 200.638 345.551C203.112 344.777 204.027 345.089 205.093 345.114C206.097 345.203 206.955 345.34 207.791 345.485C209.425 345.774 210.96 346.112 212.448 346.446C215.425 347.12 218.305 347.816 221.103 348.479C226.712 349.815 232.103 351.063 237.192 352.183C238.014 352.365 238.849 352.538 239.677 352.702C243.915 353.535 248.021 354.14 251.832 354.641C263.825 356.08 275.998 356.875 288.235 357.686C297.674 358.381 306.793 358.331 316.853 359.113C318.404 359.322 320.01 359.579 321.731 360.002C324.319 360.646 327.512 361.738 330.181 364.233C338.058 373.051 340.536 382.63 345.978 393.682C350.69 403.651 355.958 415.161 362.364 428.473C364.56 433.001 366.898 437.734 369.515 442.564C375.064 453.053 381.376 464.524 385.632 479.235C386.181 481.307 386.601 483.301 386.838 485.281C388.916 492.141 393.543 498.072 395.86 501.903C396.781 503.306 397.658 504.616 398.568 505.932C401.643 510.39 405.277 514.812 409.568 520.08C409.353 519.398 409.136 518.706 408.912 518.004C406.303 509.892 403.61 502.703 401.122 496.275C390.068 469.661 381.7 456.494 375.946 445.844C373.792 441.998 371.831 438.494 369.895 434.875C367.973 431.282 365.847 427.165 363.709 422.804C358.883 412.946 353.784 401.866 350.099 392.478C349.129 390.002 347.918 386.928 346.675 383.424C345.758 380.844 344.816 378.029 343.885 375.111C343.419 373.661 342.954 372.172 342.476 370.778C342.032 369.432 341.382 367.986 341.185 367.85C341.264 367.853 340.705 367.664 339.666 365.956C339.158 365.088 338.883 363.572 339.102 362.511C339.29 361.449 339.658 360.787 339.958 360.281C341.193 358.416 342.111 357.8 343.063 356.96C348.359 352.767 353.544 349.881 358.375 347.073C362.147 344.921 366.869 342.436 372.348 339.734C375.196 338.329 378.255 336.863 381.485 335.341C391.229 330.747 402.561 325.648 414.613 320.103C416.54 319.215 418.41 318.353 420.207 317.519C423.519 315.979 426.6 314.485 429.307 312.98C431.996 311.524 434.337 309.768 434.36 309.197C434.719 308.835 434.45 305.085 433.709 302.305C433.038 299.332 428.425 294.34 425.587 290.85C422.765 287.524 420.045 284.539 417.5 281.762C414.762 278.783 412.178 276.025 409.581 273.281C405.848 269.337 401.67 264.969 397.235 260.404C391.908 254.911 386.193 249.164 380.407 243.225C375.786 238.476 371.136 233.54 366.862 228.474C359.781 220.076 352.522 212.72 346.223 206.342C344.171 204.025 342.456 202.847 339.759 198.43C333.124 185.617 335.549 171.666 337.768 160.358C341.818 144.075 346.807 132.414 346.988 117.567C347.089 116.084 347.095 114.651 347.809 112.317C348.179 111.184 348.965 109.441 350.611 108.095C352.261 106.763 353.787 106.422 354.659 106.201C357.268 105.623 359.743 105.509 362.096 105.675C357.903 101.828 356.123 99.4922 356.096 98.6785C357.208 98.0193 360.66 99.4457 367.253 103.038C369.468 104.25 372.014 105.714 374.842 107.404C377.514 109.01 380.392 110.778 383.429 112.697C386.678 114.402 389.717 116.227 392.614 118.016C394.488 119.106 396.274 120.549 397.84 122.206C400.603 124.11 403.424 126.102 406.276 128.177C409.291 130.486 412.25 132.389 415.624 136.267C416.664 137.519 417.818 139.387 418.352 141.4C418.892 143.405 418.905 144.964 418.97 146.179C419.707 160.496 421.039 177.151 427.597 186.244C429.542 188.878 433.95 189.078 439.224 187.195C439.379 186.764 439.562 186.032 439.679 185.226C439.964 183.313 440.011 180.977 439.936 178.621C439.874 177.194 439.769 175.751 439.634 174.287C438.98 167.354 437.705 160.572 436.354 153.899C435.697 150.796 434.485 147.582 432.992 144.38C432.048 142.355 430.986 140.323 429.85 138.284C426.51 131.666 420.781 125.059 415.556 111.722C415.692 111.795 414.235 109.541 412.558 107.901C410.846 106.13 408.801 104.311 406.701 102.531C402.477 98.953 397.997 95.5208 393.8 91.948C390.789 89.3651 387.704 87.2668 384.746 85.3376C384.448 85.143 384.146 84.9471 383.843 84.7507C381.44 83.1922 378.97 81.62 376.396 79.8357C373.391 78.1435 371.492 72.9766 371.936 70.4978C372.1 68.4146 372.55 67.0521 373.022 65.8894C369.717 66.0769 368.34 64.9991 366.933 64.4861C365.36 63.7287 364.172 62.9593 363.05 62.1902C360.83 60.6475 358.966 59.0903 357.156 57.5124C357.125 57.4787 357.095 57.4445 357.064 57.4109ZM386.349 71.2361C386.328 71.3055 386.313 71.3666 386.303 71.4158C386.267 71.5708 386.311 71.6221 386.348 71.2869C386.349 71.2715 386.348 71.2542 386.349 71.2361ZM373.414 51.1804C373.453 51.1962 373.486 51.2077 373.509 51.2156C373.488 51.2059 373.457 51.1942 373.414 51.1804ZM372.888 50.741C372.902 50.7306 372.878 50.7393 372.823 50.78C372.857 50.7618 372.88 50.7494 372.888 50.741ZM397.46 27.2048C395.589 29.4356 393.751 32.0741 392.027 34.8972C391.712 35.3871 391.393 35.883 391.07 36.3816C390.331 37.4795 389.832 38.9417 389.413 40.7253C391.81 36.8127 394.685 32.1307 397.46 27.2048ZM408.355 20.4958C408.371 20.4976 408.385 20.4987 408.397 20.4998C408.361 20.4937 408.325 20.4894 408.289 20.4841C408.316 20.4879 408.339 20.49 408.355 20.4958ZM408.209 20.4724C408.173 20.4677 408.138 20.4637 408.102 20.4597C408.142 20.4652 408.178 20.4689 408.209 20.4724Z" fill="black"/>
<path d="M405.44 325.573C406.444 324.753 408.089 324.835 410.038 325.569C411.995 326.315 414.144 327.682 416.144 329.352C419.403 332.081 422.892 334.579 426.501 336.84C426.698 336.945 426.898 337.052 427.097 337.159C428.567 337.95 430.057 338.485 431.556 338.985C431.896 339.097 432.239 339.209 432.584 339.323C434.257 339.876 436.644 341.198 438.841 342.395C440.367 343.22 441.772 344.111 442.845 344.846C442.899 344.883 442.954 344.92 443.009 344.957C443.723 345.45 444.39 345.904 445.183 346.483C446.12 347.172 447.224 348.005 448.674 349.393C450.116 350.923 451.952 352.32 454.073 356.975C454.415 357.755 454.777 358.623 455.009 360.04C455.397 362.651 455.007 364.756 454.587 366.428C452.87 372.263 450.609 375.675 450.237 377.879C449.829 379.685 449.578 379.95 449.339 380.545C449.093 381.077 448.883 381.486 448.667 381.894C448.24 382.696 447.832 383.402 447.416 384.107C446.6 385.483 445.769 386.805 444.941 388.093C443.282 390.671 441.603 393.161 439.899 395.644C436.494 400.6 433.027 405.454 429.518 410.298C428.95 411.089 428.38 411.845 427.779 412.606C427.64 412.799 427.502 412.989 427.354 413.19C424.592 417.048 420.355 421.345 417.302 423.443C413.452 426.144 410.681 427.502 408.479 428.599C404.497 430.845 400.661 432.75 397.38 434.958C391.666 438.703 387.406 443.61 381.754 449.346C379.866 451.144 377.588 452.308 375.264 452.936C373.548 453.359 372.05 453.659 369.702 453.351C368.904 453.197 367.98 453.045 366.715 452.079C365.433 451.146 364.662 449.168 364.698 447.977C364.741 445.642 365.401 444.765 365.846 443.806C366.83 442.008 367.811 440.774 368.824 439.498C371.491 436.225 374.218 433.395 376.987 430.533C378.516 428.8 379.957 427.158 381.298 425.645C383.188 423.514 384.877 421.641 386.346 420.159C386.731 419.771 387.13 419.375 387.54 418.976C390.729 415.873 394.216 412.619 396.795 410.053C397.264 409.588 397.717 409.134 398.121 408.722C400.234 406.263 402.256 403.757 404.121 401.199C404.292 401.063 404.463 400.929 404.635 400.794C405.606 400.022 406.52 399.068 407.44 397.855C407.891 397.261 408.346 396.594 408.753 395.905C408.961 395.551 409.145 395.21 409.292 394.894C409.35 394.769 409.403 394.638 409.435 394.551C409.459 394.184 409.472 393.803 409.467 393.406C409.446 391.778 409.17 389.883 408.48 387.693C408.398 387.428 408.315 387.206 408.216 386.987C407.754 386.002 407.263 385.123 406.921 384.437C406.815 384.234 406.702 384.035 406.583 383.85C406.158 383.2 405.419 382.775 404.525 382.288C403.363 381.656 401.931 380.916 400.452 379.367C400.168 379.073 399.914 378.809 399.639 378.538C395.309 374.24 392.626 372.981 390.676 372.09C390.036 371.79 389.466 371.526 388.929 371.213C387.204 370.213 384.981 368.268 383.466 366.76C382.19 365.507 379.281 363.713 376.968 362.48C376.084 362.006 374.992 361.244 373.721 360.374C372.388 359.462 370.83 358.412 369.098 357.443C366.927 356.228 365.237 355.33 363.839 354.597C363.139 354.229 362.528 353.915 361.861 353.54C361.513 353.341 361.195 353.164 360.708 352.823C360.256 352.467 359.526 352.068 358.614 350.579C358.349 350.125 358.119 349.571 357.982 349.067C357.753 348.333 357.895 346.538 358.124 345.804C359.014 343.473 360.169 342.708 360.855 342.08C363.462 340.07 365.524 339.271 367.835 338.202C368.469 337.922 369.101 337.651 369.729 337.385C371.748 336.533 373.671 335.761 375.194 335.109C380.562 333.432 385.881 331.905 391.199 330.36C393.932 329.568 396.699 329.276 398.91 329.568C401.12 329.86 402.593 330.708 403.012 331.957C403.428 333.207 402.759 334.772 401.157 336.331C399.555 337.89 397.149 339.309 394.48 340.3C389.112 342.295 383.731 344.275 378.452 346.279C376.922 346.861 375.399 347.447 373.924 348.041C377.154 350.143 380.274 352.323 383.372 354.566C383.773 354.856 384.182 355.155 384.601 355.462C388.198 357.629 391.685 359.837 394.073 361.49C396.027 362.843 397.352 364.064 398.434 365.072C399.2 365.782 399.883 366.416 400.606 366.951C401.001 367.244 401.549 367.639 402.224 368.129C403.198 368.834 404.359 369.675 405.728 370.704C408.163 372.56 410.962 374.687 413.643 377.651C414.963 379.115 416.909 381.727 417.606 384.686C417.78 385.42 417.929 386.165 418.05 386.909C418.581 390.076 418.483 393.223 418.206 395.468C418.069 396.648 417.854 397.082 417.695 397.562C417.535 397.995 417.387 398.347 417.274 398.625C415.744 402.202 413.503 404.84 411.442 407.299C409.488 409.584 407.705 411.47 406.899 412.728C405.933 414.23 404.845 415.282 403.215 416.8C402.086 417.848 400.684 419.13 398.844 420.91C396.716 422.965 395.084 424.278 393.687 425.391C393.676 425.4 393.664 425.409 393.653 425.418C391.739 426.935 390.3 428.084 388.555 430.19C388.287 430.512 388.016 430.833 387.745 431.154C387.996 431.019 388.248 430.903 388.5 430.789C388.502 430.788 388.505 430.787 388.508 430.786C388.544 430.77 388.58 430.754 388.616 430.738C389.761 429.714 390.947 428.725 392.173 427.779C394.372 426.081 396.63 424.601 398.819 423.193C399.1 422.977 399.388 422.761 399.667 422.549C401.04 421.511 402.332 420.521 403.075 419.747C403.885 418.907 406.171 417.304 408.308 415.487C409.718 414.297 411.069 413.006 412.065 411.861C412.649 411.192 413.361 410.725 414.081 410.225C414.76 409.75 415.448 409.244 416.012 408.53C416.299 408.166 416.56 407.748 416.837 407.289C417.085 406.88 417.326 406.464 417.609 406.024C417.869 405.618 418.579 404.826 419.45 403.742C419.486 403.698 419.523 403.653 419.559 403.607C420.12 402.893 420.731 402.114 421.368 401.273C422.927 398.758 424.49 396.229 426.036 393.714C426.25 393.126 426.394 392.563 426.42 392.082C426.438 391.738 426.409 391.403 426.378 391.065C426.336 390.602 426.285 390.136 426.369 389.572C426.435 389.13 426.63 388.696 426.864 388.476C426.975 388.371 427.095 388.311 427.203 388.257C427.327 388.195 427.437 388.14 427.506 388.031C427.555 387.953 427.565 387.845 427.579 387.713C427.601 387.503 427.627 387.233 427.83 386.911C428.568 385.738 429.457 384.423 430.311 383.143C431.26 381.723 432.173 380.331 432.815 379.197C433.518 377.952 434.807 376.159 435.677 374.825C435.788 374.656 435.883 374.507 435.934 374.448C435.96 374.418 435.976 374.408 435.963 374.48C435.953 374.553 435.903 374.688 435.817 375.18C436.148 373.81 436.557 372.669 436.917 371.707C437.495 370.172 438 368.737 438.441 367.47C438.975 365.949 439.401 364.687 439.868 363.875C439.963 363.71 440.227 363.566 440.545 363.396C440.77 363.274 441.022 363.138 441.256 362.983C441.298 362.828 441.327 362.69 441.349 362.571C440.639 362.564 439.553 362.284 438.648 360.768C438.398 360.356 438.323 359.972 438.251 359.624C438.173 359.278 438.1 358.969 437.825 358.703C437.511 358.401 437.018 358.199 436.469 357.992C435.697 357.701 434.826 357.408 434.14 356.759C434.093 356.714 434.041 356.666 433.989 356.617C433.565 356.223 432.95 355.674 432.33 354.992C432.189 354.854 432.049 354.709 431.914 354.561C428.764 352.78 425.705 350.84 422.752 348.742C417.837 345.251 413.21 341.328 408.999 337.002C406.947 334.897 405.416 332.417 404.781 330.234C404.149 328.053 404.422 326.363 405.44 325.573ZM372.307 447.402C372.193 447.631 372.118 447.813 372.099 447.913C372.129 447.956 372.181 447.971 372.236 447.873C372.277 447.804 372.32 447.651 372.307 447.402ZM379.59 439.77C378.59 440.844 377.577 441.943 376.609 442.917C377.423 442.177 378.281 441.297 379.179 440.257C379.314 440.1 379.45 439.936 379.59 439.77Z" fill="black"/>
<path d="M242.166 353.827C244.774 351.978 246.833 351.849 247.766 352.736C248.748 353.648 248.531 355.58 247.878 358.091C247.785 358.432 247.679 358.786 247.561 359.153C247.544 359.174 247.496 359.242 247.479 359.263C246.494 361.773 244.808 364.593 242.701 367.208C238.002 373.122 232.797 378.635 229.122 384.166C226.551 391.849 225.226 400.934 223.513 409.83C222.782 413.624 222.098 417.388 220.957 421.501C220.122 424.417 219.102 427.048 218.133 429.567C217.891 430.194 217.651 430.814 217.416 431.425C215.927 435.838 215.221 440.812 215.713 440.831C215.721 440.814 215.827 441.078 215.934 441.303C216.953 443.438 218 445.527 218.805 447.14C219.379 448.271 219.916 449.267 220.567 450.209C220.917 450.717 221.409 451.4 222.014 452.205C224.386 455.387 228.676 460.543 232.96 464.414C233.219 464.642 233.47 464.875 233.713 465.112C236.497 467.885 238.407 470.911 240.33 473.725C243.007 477.749 245.48 481.272 247.025 482.818C249.692 485.537 252.616 488.67 255.438 491.149C256.865 492.412 258.254 493.514 259.494 494.366C260.578 495.112 261.573 495.692 262.354 496.046C264.359 496.95 265.935 497.964 268.37 499.477C270.059 500.525 272.148 501.791 275.091 503.43C278.479 505.317 280.829 506.821 282.801 508.112C285.577 509.936 287.652 511.333 290.994 513.045C294.703 514.946 298.458 517.226 301.187 519.355C302.425 520.317 303.876 521.394 305.355 522.545C305.68 522.799 306.009 523.057 306.338 523.319C307.932 524.586 309.55 525.887 310.987 527.16C312.401 528.414 313.491 529.603 314.428 530.629C314.73 530.957 315.016 531.267 315.293 531.56C316.492 532.497 317.668 533.407 318.877 534.332C319.091 534.446 319.324 534.569 319.568 534.696C320.656 535.265 321.972 535.95 323.484 536.892C323.194 535.732 322.885 534.55 322.558 533.411C321.727 530.455 320.698 527.883 319.986 526.404C319.723 525.839 319.59 525.337 319.427 524.853C319.427 524.851 319.426 524.848 319.426 524.846C319.415 524.813 319.403 524.78 319.392 524.748C318.964 524.23 318.515 523.82 318.046 523.509C314.495 521.062 310.846 518.671 307.187 516.232C306.782 515.996 306.372 515.757 305.968 515.52C303.989 514.359 302.064 513.21 300.724 512.566C299.273 511.867 295.946 509.647 292.494 507.105C290.233 505.443 287.921 503.63 286.023 502.107C284.915 501.22 284.045 500.16 283.174 499.043C282.365 498.004 281.55 496.91 280.535 495.828C280.018 495.275 279.447 494.717 278.83 494.078C278.294 493.525 277.729 492.917 277.179 492.247C276.668 491.619 275.663 490.113 274.562 487.987C274.496 487.86 274.429 487.73 274.363 487.599C274.007 486.832 273.499 485.941 272.849 485.005C270.72 482.429 267.909 479.876 264.998 477.231C264.304 476.77 263.648 476.407 263.065 476.185C262.646 476.025 262.246 475.929 261.835 475.829C261.276 475.692 260.695 475.547 260.01 475.211C259.475 474.949 258.941 474.525 258.672 474.147C258.547 473.971 258.479 473.806 258.417 473.657C258.347 473.487 258.284 473.334 258.152 473.202C258.056 473.107 257.922 473.041 257.758 472.959C257.496 472.828 257.156 472.655 256.769 472.255C255.332 470.767 253.74 468.929 252.261 466.927C250.613 464.711 249.132 462.261 248.066 460.153C247.06 458.199 246.013 455.231 245.599 451.939C245.506 451.236 245.444 450.519 245.417 449.806C245.285 446.774 245.871 443.968 246.185 442.309C246.324 441.57 246.408 440.946 246.422 440.496C246.472 439.586 246.493 438.629 246.512 437.678C246.551 435.633 246.591 433.606 246.899 431.903C246.961 431.554 247.196 431.148 247.494 430.622C247.705 430.252 247.947 429.834 248.181 429.343C248.386 427.149 248.628 424.941 248.928 422.718C248.911 422.636 248.894 422.552 248.876 422.467L248.875 422.463C248.487 420.558 247.957 417.882 249.198 414.331C249.516 413.438 249.888 412.892 250.222 412.422C250.553 411.948 250.85 411.538 251.064 410.868C251.308 410.107 251.43 409.16 251.61 408.104C251.861 406.627 252.232 404.899 253.212 403.289C253.277 403.183 253.354 403.059 253.431 402.936C253.929 402.141 254.648 401.056 255.676 399.948C255.976 399.691 256.293 399.425 256.626 399.158C258.751 396.025 260.38 392.174 262.032 387.962C263.713 383.673 265.486 379.066 267.771 374.621C269.288 371.646 271.104 368.878 273.15 366.321C275.708 363.115 278.924 360.712 281.719 359.611C284.524 358.489 286.62 358.76 287.232 359.896C287.866 361.026 287.434 362.688 286.285 364.952C285.131 367.21 283.368 369.882 281.541 372.579C280.075 374.734 278.832 377.006 277.856 379.348C276.75 381.974 275.802 384.693 274.883 387.549C274.803 387.848 274.724 388.147 274.642 388.448C274.034 390.683 273.66 392.892 273.19 395.196C273.081 395.726 272.968 396.26 272.844 396.802C272.227 399.584 270.248 404.269 267.475 408.091C267.024 408.669 266.476 409.683 266.094 410.547C266.072 410.598 266.049 410.649 266.027 410.701C265.736 411.367 265.492 412.058 265.229 412.908C264.618 414.959 263.793 417.849 262.522 424.6C262.284 426.584 262.08 428.593 261.89 430.624C261.546 434.259 261.289 437.903 260.931 441.776C260.351 446.292 259.947 447.64 260.24 449.38C261.471 459.444 275.191 466.632 284.813 481.709C285.254 482.557 285.765 483.42 286.321 484.266C286.463 484.462 286.612 484.664 286.765 484.866C289.663 488.786 294.574 493.231 297.674 496.096C301.616 499.756 304.499 502.185 306.847 504.195C312.142 508.295 317.661 512.25 323.175 516.442C333.199 526.208 330.613 536.453 333.614 543.812C333.692 544.036 333.774 544.303 333.833 544.658C333.863 544.836 333.885 545.037 333.893 545.268C333.903 545.548 333.886 546.014 333.766 546.494C333.569 547.464 332.704 548.739 331.653 549.29C331.146 549.577 330.664 549.721 330.265 549.796C329.928 549.856 329.741 549.866 329.523 549.872C329.108 549.88 328.799 549.838 328.541 549.791C328.362 549.758 328.212 549.721 328.075 549.683C327.799 549.605 327.593 549.526 327.455 549.471C327.305 549.411 327.164 549.348 327.035 549.288C326.93 549.239 326.829 549.189 326.729 549.138C326.517 549.029 326.365 548.945 326.2 548.852C325.571 548.491 325.04 548.142 324.549 547.815C323.545 547.141 322.621 546.474 321.706 545.804C317.038 542.355 312.617 538.838 308.155 535.317C305.823 533.472 303.49 531.614 301.161 529.758C299.469 528.409 297.738 527.108 295.975 525.85C293.516 524.234 291.107 522.802 288.843 521.522C285.666 519.726 282.762 518.22 280.394 516.926C274.69 513.798 268.163 510.162 263.243 507.267C262.444 506.796 261.687 506.345 260.977 505.917C258.772 504.723 256.541 503.464 254.323 502.03C252.495 500.845 250.736 499.57 249.048 498.224C248.837 497.982 248.623 497.731 248.41 497.478C245.778 494.319 242.209 490.912 237.372 485.099C235.268 482.589 232.959 479.573 230.335 476.285C228.645 474.19 227.971 473.118 227.412 472.291C227.262 472.067 227.103 471.85 226.956 471.666C226.945 471.654 226.934 471.642 226.923 471.63C226.099 470.726 225.031 470.024 223.8 469.142C222.211 468.001 220.329 466.545 218.589 464.029C213.195 455.987 210.744 452.699 208.631 450.124C208.029 449.355 207.506 448.665 207.018 447.867C206.413 446.835 205.812 445.812 205.223 443.838C204.352 440.4 205.132 437.705 205.741 435.736C206.547 433.134 208.007 428.519 208.932 425.172C209.275 423.901 209.891 422.262 210.489 420.399C210.662 419.855 210.834 419.288 210.99 418.714C211.386 417.263 211.755 415.506 212.043 413.649C213.034 407.026 213.488 403.34 213.928 400.424C214.05 399.59 214.167 398.809 214.285 398.029C214.66 395.562 215.199 392.491 215.868 389.344C216.586 385.97 217.463 382.504 218.478 379.537C218.571 379.273 218.962 378.563 219.111 378.325C219.297 378.02 219.481 377.723 219.659 377.44C224.615 370.778 229.95 365.834 234.726 360.429C236.873 358.046 239.147 355.953 241.258 354.452L241.155 354.592C241.491 354.318 241.829 354.062 242.166 353.827Z" fill="black"/>
<path d="M136.684 252.974C147.263 252.822 157.702 253.189 168.016 253.305C169.615 253.322 171.193 253.355 172.725 253.398C177.985 253.539 182.853 253.933 186.697 254.555C191.673 255.366 194.539 256.481 194.551 257.774C194.668 259.063 191.872 260.446 186.928 261.58C183.108 262.455 178.241 263.124 172.973 263.523C171.377 263.642 169.753 263.723 168.119 263.772C157.616 264.071 147.256 264.126 137.074 264.656C136.012 264.712 134.986 264.77 133.932 264.832C133.346 264.883 132.752 264.935 132.159 264.986C127.779 265.365 123.735 265.979 119.731 266.669C118.812 266.828 117.898 266.99 116.972 267.156C112.584 267.957 105.271 268.77 99.5128 269.985C99.9234 270.536 100.169 271.113 100.319 271.653C100.545 272.557 100.511 272.951 100.504 273.4C100.485 273.831 100.424 274.224 100.351 274.57C100.243 275.075 100.1 275.534 99.9337 275.985C99.6477 276.754 99.3371 277.397 99.0304 277.989C98.7571 278.515 98.4556 279.047 98.132 279.583C98.0346 279.744 97.9327 279.904 97.8341 280.064C98.5126 279.71 99.1058 279.464 99.422 279.321C99.739 279.183 100.051 279.029 100.715 278.807C100.891 278.751 101.094 278.688 101.402 278.621C101.723 278.566 102.08 278.444 103.078 278.506C103.556 278.56 104.375 278.627 105.494 279.337C106.665 280.019 107.602 281.722 107.709 282.663C107.966 284.661 107.563 285.05 107.452 285.532C107.149 286.312 106.958 286.571 106.794 286.85C106.63 287.112 106.489 287.314 106.358 287.496C106.097 287.857 105.867 288.147 105.64 288.428C104.938 289.295 104.233 290.148 103.526 290.99C103.112 291.394 102.697 291.793 102.272 292.198C99.8027 294.582 97.1596 297.243 94.214 300.533C93.3986 301.752 92.5255 303.026 91.5529 304.444C91.7448 304.251 91.9368 304.057 92.132 303.864C93.4032 302.634 94.6458 301.44 96.4708 300.137C96.9261 299.819 97.466 299.467 98.1105 299.13C98.8368 298.783 99.6181 298.316 101.391 298.126C102.438 298.054 103.811 298.113 105.402 299.062C106.985 300.051 107.715 301.339 108.112 302.376C108.425 303.195 108.54 304.025 108.576 304.529C108.614 305.031 108.608 305.49 108.58 305.931C108.48 306.976 108.345 307.92 108.186 308.798C111.517 306.154 113.734 304.398 117.376 301.841C117.457 301.792 117.538 301.746 117.619 301.7C121.482 299.871 123.227 300.573 124.765 300.688C126.224 300.952 127.034 301.435 127.182 302.068C127.321 302.705 126.778 303.477 125.656 304.362C124.657 305.229 122.45 306.322 121.763 307.42C121.748 307.444 121.734 307.468 121.721 307.491C120.543 309.491 117.462 313.316 114.507 316.358C114.496 316.367 114.465 316.396 114.454 316.405C112.73 318.149 110.879 319.912 108.948 321.639C105.986 324.286 103.008 326.904 99.9835 329.491C97.144 334.434 93.8096 339.068 90.0626 343.363C88.6663 344.957 87.2818 346.553 85.8976 348.158C85.0764 349.111 84.254 350.069 83.4367 351.025C77.04 359.082 70.7677 367.239 66.1798 372.941C62.3582 377.661 59.5191 380.872 56.3361 383.905C55.9061 384.3 55.479 384.694 54.797 385.228C54.6166 385.367 54.4601 385.484 54.2179 385.651C53.9395 385.841 53.627 386.041 53.2003 386.256C53.0001 386.358 52.5442 386.573 52.0343 386.723C51.7696 386.802 51.4655 386.877 51.1056 386.93C50.9193 386.957 50.7524 386.976 50.5031 386.989C50.1813 387.006 49.8223 387 49.4298 386.953C47.8966 386.913 45.5934 385.35 45.0226 384.242C44.24 383.04 44.0756 382.036 44.0001 381.336C43.8953 379.737 43.8134 378.207 43.7248 376.662C43.6503 375.341 43.5597 373.534 43.5597 371.314C43.6156 368.323 43.5825 364.693 44.7296 360.15C43.3929 356.919 42.9415 353.895 42.7052 350.609C42.6101 350.695 42.5157 350.782 42.4201 350.868C42.2965 350.98 42.1722 351.091 42.048 351.203C40.3607 352.727 38.6324 354.313 36.9054 356.21C36.0413 357.16 35.1398 358.224 34.1798 359.36C33.3347 360.359 32.4368 361.422 31.4767 362.512C30.5815 363.525 28.4692 365.669 25.6925 368.42C23.9688 370.123 22.0096 372.044 19.8312 374.071C18.1254 375.749 16.4819 377.389 14.1632 379.119C13.1206 379.843 12.1328 380.606 10.0587 381.283C9.02447 381.57 7.47619 381.971 5.29116 381.281C3.06909 380.592 1.52592 378.608 1.00698 377.405C-0.0796132 374.876 0.0643249 373.551 0.000142411 372.234C-0.00414428 370.957 0.0889574 369.854 0.196431 368.808C0.364578 367.194 0.577332 365.589 0.813619 364.018C0.933581 362.377 1.00505 360.953 0.979635 359.806C0.962198 358.98 0.893523 358.272 0.828267 357.539C0.740286 356.541 0.654778 355.511 0.724752 354.122C0.777194 353.046 0.997866 351.793 1.2726 350.994C1.40043 350.622 1.53973 350.34 1.66518 350.09C1.80861 349.805 1.9378 349.549 2.02065 349.216C2.08057 348.975 2.09503 348.716 2.11538 348.397C2.14874 347.885 2.19385 347.22 2.45034 346.253C3.40038 342.666 4.64515 338.64 5.98745 334.74C6.77681 332.443 7.59695 330.187 8.38979 328.081C9.09016 326.22 9.76994 324.456 10.3986 322.862C11.9045 319.105 14.4371 313.475 18.6271 308.221C19.3515 307.314 20.1163 306.432 20.9035 305.593C22.8348 303.544 24.8702 301.402 26.6876 299.563C29.0617 297.149 31.5267 294.597 33.9943 292.22C36.9525 289.364 39.9361 286.74 42.6798 284.808C43.2442 284.41 44.0174 284.065 45.0206 283.622C45.7127 283.323 46.5403 282.96 47.4269 282.546C50.5929 280.241 53.8285 278.074 57.1564 276.017C57.4301 275.848 57.7026 275.68 57.9738 275.513C58.0823 275.414 58.1943 275.311 58.3058 275.209C58.3074 275.207 58.3091 275.206 58.3107 275.204C60.8392 272.893 64.3257 269.709 70.2511 266.864C71.7671 266.138 72.7935 265.836 73.7306 265.558C74.6464 265.288 75.4663 265.05 76.5568 264.495C77.7895 263.87 79.173 262.969 80.7101 262.008C82.8797 260.654 85.3388 259.176 88.1916 258.176C88.3885 258.107 88.5989 258.035 88.8156 257.961C90.3449 257.449 92.4049 256.753 95.0988 256.32C95.9823 256.196 96.8568 256.111 97.7218 256.058C106.805 254.399 115.557 253.783 124.372 253.344C128.483 253.153 132.573 253.036 136.684 252.974ZM69.5636 339.257C68.0968 341.851 66.6696 344.565 65.0226 347.929C62.065 353.302 60.83 358.326 54.549 363.886C54.3468 364.015 54.1234 364.145 53.879 364.27C53.219 367.049 52.9906 369.707 52.9816 372.14C53.6777 371.174 54.3417 370.254 55.0568 369.318C58.13 365.286 62.9548 359.761 66.7277 355.709C68.6999 353.585 71.7291 349.854 74.7443 346.045C74.7039 346.04 74.6626 346.037 74.6222 346.031C74.2193 345.973 73.7935 345.88 73.2794 345.679C72.6867 345.447 72.041 345.069 71.4826 344.546C70.32 343.459 69.8588 342.143 69.7189 341.146C69.6272 340.489 69.5781 339.861 69.5636 339.257ZM75.4025 281.338C72.5693 282.938 69.1652 284.887 64.9777 287.318C64.7903 287.435 64.602 287.553 64.4132 287.671C61.3728 289.58 58.4202 291.575 55.5314 293.678C46.8375 299.995 39.1335 307.096 31.9025 315.362C27.8324 319.785 25.1022 326.27 22.4152 333.283C18.698 343.107 15.5692 353.392 13.6056 363.563C16.1284 361.083 18.7273 358.347 21.2052 355.804C21.5717 355.407 21.9442 355.004 22.3205 354.596C25.8336 350.788 29.7722 346.491 33.6818 342.437C36.985 339.01 40.1904 335.784 42.9621 333.093C43.3128 330.274 43.8511 327.841 44.4425 325.672C44.6724 324.829 44.911 324.025 45.1515 323.249C45.8338 320.285 46.762 317.347 47.964 314.518C48.123 314.041 48.2928 313.548 48.4826 313.029C49.2138 311.032 50.2027 308.715 51.7287 306.153C52.1581 305.426 52.7166 304.571 53.2326 303.826C57.0228 298.462 60.9728 294.559 65.2003 290.54C68.321 287.606 71.628 284.657 75.4025 281.338ZM56.7042 336.172C54.6757 338.274 52.6267 340.418 50.7267 342.444C50.7336 343.715 50.7562 344.994 50.7902 346.278C52.6539 342.837 54.6602 339.496 56.7042 336.172ZM84.6027 284.331C83.6834 285.072 82.7684 285.827 81.8595 286.589C75.3921 292.056 69.1089 297.983 63.5558 304.244C61.7079 306.347 59.9318 308.515 58.4748 310.664C55.6961 314.74 53.7536 319.281 52.5314 324.108C56.5795 320.379 59.8337 317.454 62.6134 314.897C65.1964 312.386 68.2062 309.475 69.6095 307.487C74.6493 299.824 79.6897 292.076 84.6027 284.331ZM93.3126 319.45C92.2008 320.81 91.0754 322.228 89.9601 323.669C90.6978 323.085 91.4336 322.498 92.1681 321.908C92.2223 321.798 92.2785 321.688 92.3322 321.577C92.679 320.856 93.0035 320.145 93.3126 319.45ZM97.5939 305.219C97.593 305.205 97.5804 305.213 97.5841 305.323C97.5869 305.288 97.5915 305.253 97.5939 305.219Z" fill="black"/>
<path d="M248.969 52.7376C251.842 51.5492 254.987 50.6074 259.233 51.1038C260.297 51.2342 260.982 51.4832 261.566 51.7073C262.162 51.9279 262.669 52.1264 263.449 52.178C264.304 52.2361 265.353 52.1224 266.458 52.0022C267.153 51.9296 267.838 51.8537 268.594 51.8137C269.527 51.7601 270.516 51.765 271.504 51.9104C271.62 51.9278 271.745 51.9468 271.877 51.9661C273.144 52.1493 274.981 52.42 276.822 52.9163C282.318 53.1866 287.789 53.4829 293.273 53.7922C302.411 54.3073 311.54 54.8638 320.67 55.3977C321.221 55.4307 321.825 55.4723 322.364 55.5198C326.194 55.8459 329.723 56.5002 332.445 57.3889C335.574 58.4225 337.142 59.6015 337.355 60.846C337.557 62.1687 335.469 63.5126 332.336 64.4163C329.533 65.2185 325.954 65.7029 322.096 65.8294C321.552 65.8487 320.944 65.858 320.39 65.8616C313.106 65.8957 305.862 65.916 298.597 65.9192C298.217 65.9351 297.834 65.9498 297.453 65.9631C294.62 66.0629 291.988 66.3508 289.352 66.6399C288.745 66.7062 288.144 66.773 287.533 66.8372C285.054 67.0985 281.355 67.0719 277.706 66.9534C281.945 67.9931 286.234 68.9456 290.273 69.8391C290.44 69.788 290.652 69.7229 290.929 69.6438C291.279 69.5502 291.713 69.423 292.503 69.3206C293.275 69.2542 294.574 69.055 296.599 69.8713C298.74 70.6887 300.483 73.0187 300.911 74.5413C301.426 76.1195 301.383 77.17 301.333 78.0335C301.18 79.7277 300.786 80.797 300.276 81.9143C300.033 82.4329 299.788 82.8228 299.558 83.1506C299.363 83.428 299.195 83.636 299.024 83.8362C298.685 84.23 298.461 84.4481 298.206 84.6926C297.76 85.1122 297.383 85.4206 297.013 85.7122C296.309 86.2604 295.698 86.6835 295.072 87.1057C293.865 87.9149 292.711 88.6272 291.561 89.3206C289.26 90.704 287.011 91.9825 284.755 93.2522C281.344 95.1672 277.943 97.0347 274.549 98.8967C281.86 96.5995 289.166 94.1586 296.433 91.6936C298.635 91.0043 300.123 90.27 303.618 89.8401C303.913 89.8241 304.215 89.8102 304.702 89.8538C305.186 89.9488 305.883 89.8407 307.349 90.8792C308.127 91.4516 308.893 92.6213 309.055 93.7258C309.225 94.7252 309.038 95.4952 308.917 95.9065C308.612 96.8428 308.357 97.1448 308.155 97.4622C307.353 98.5576 306.898 98.8861 306.392 99.3567C305.421 100.205 304.544 100.861 303.652 101.519C301.992 102.736 300.348 103.95 298.716 105.177C293.389 109.198 288.154 113.295 283.892 117.897C283.005 118.861 282.162 119.852 281.392 120.862C278.482 124.678 275.64 128.501 272.853 132.371C270.845 135.356 268.988 138.237 267.32 140.903C265.243 144.22 263.415 147.264 261.904 149.803C264.104 149.451 266.174 149.082 268.055 148.699C269.082 148.49 270.066 148.274 270.936 148.072C272.235 147.709 273.527 147.32 274.798 146.905C279.689 143.659 284.379 140.809 286.726 139.183C287.827 138.427 288.931 137.669 290.556 136.859C290.732 136.774 291.033 136.633 291.34 136.514C291.495 136.453 291.66 136.393 291.845 136.335C292.091 136.258 292.455 136.152 292.941 136.091C293.19 136.061 293.482 136.039 293.854 136.057C294.429 136.089 295.638 136.227 296.818 137.234C297.396 137.725 297.881 138.421 298.144 139.098C298.381 139.717 298.429 140.072 298.471 140.488C298.531 141.279 298.413 141.83 298.302 142.246C298.013 143.171 297.93 143.196 297.799 143.47C297.675 143.694 297.557 143.881 297.439 144.056C297.308 144.249 297.237 144.345 297.161 144.447C297.084 144.548 297.007 144.648 296.928 144.746C296.779 144.932 296.572 145.176 296.458 145.305C296.205 145.592 295.929 145.89 295.623 146.207C293.57 148.385 291.018 150.031 288.763 151.207C285.301 152.994 282.122 154.093 279.815 154.931C278.741 155.744 277.623 156.597 276.462 157.493C273.835 159.526 272.363 160.393 271.142 161.115C270.785 161.327 270.458 161.521 270.126 161.736C268.993 162.467 268.044 163.516 266.957 164.764C265.567 166.377 263.847 168.352 261.47 170.436C261.103 170.76 260.739 171.102 260.444 171.388C254.166 177.993 253.264 182.85 252.366 185.964C252.113 186.967 251.901 187.881 251.64 188.797C250.781 191.763 249.27 195.905 248.167 199.104C247.264 201.61 246.429 206.955 246.327 210.917C246.283 212.404 246.077 214.48 246.097 216.605C246.104 217.226 246.146 217.878 246.211 218.235C246.222 218.3 246.236 218.365 246.249 218.43C249.966 218.04 252.843 214.039 254.467 211.889C254.977 211.178 255.439 210.491 255.89 209.781C257.322 207.547 258.957 204.596 260.606 201.357C260.921 200.748 261.225 200.152 261.58 199.489C261.673 199.316 261.759 199.157 261.856 198.982C261.966 198.785 262.076 198.593 262.192 198.399C262.325 198.178 262.488 197.917 262.698 197.621C262.846 197.417 263.014 197.191 263.272 196.905C263.338 196.832 263.406 196.76 263.492 196.673C263.629 196.535 263.791 196.383 264.003 196.21C264.433 195.877 265.024 195.395 266.282 195.027C267.259 194.726 269.643 194.415 271.802 195.896C273.843 197.373 274.216 198.861 274.493 199.662C274.93 201.324 274.828 202.008 274.833 202.712C274.781 204.031 274.627 204.913 274.48 205.777C274.177 207.465 273.833 208.857 273.522 210.107C273.409 210.468 273.293 210.824 273.179 211.173C271.453 216.355 268.37 220.041 265.364 223.151C264.451 224.083 263.521 224.957 262.604 225.792C263.231 225.987 263.846 226.176 264.409 226.353C264.436 226.354 264.516 226.363 264.544 226.365C265.407 226.627 266.298 226.941 267.091 227.311C270.609 229.058 271.648 230.898 271.32 232.136C270.966 233.432 268.676 233.924 265.775 234.315C265.144 234.414 264.486 234.525 263.721 234.627L263.83 234.636C260.674 234.935 257.035 235.282 252.206 232.881C251.188 232.298 250.016 231.529 248.945 230.026C248.767 229.749 248.581 229.297 248.429 228.807C246.33 229.107 244.131 229.019 242.073 228.352C238.225 226.971 237.575 224.621 236.952 223.413C236.402 222.061 236.178 220.978 236 219.924C235.44 215.155 235.967 212.164 236.369 208.649C236.484 207.793 236.611 206.951 236.747 206.117C237.484 199.217 238.996 192.484 240.472 187.8C241.686 183.933 243.001 181.233 244.197 178.961C245.025 177.398 245.804 176.035 246.552 174.618C246.951 173.863 247.508 172.819 248.234 171.584C249.334 169.719 250.832 167.383 252.864 164.947C254.453 163.09 256.171 161.349 257.96 159.7C256.846 159.834 255.79 159.964 254.059 159.687C253.546 159.58 252.937 159.448 252.098 158.968C251.286 158.538 250.187 157.374 249.87 156.15C249.333 153.707 250.015 153.01 250.136 152.449C251.048 150.35 251.656 149.643 252.342 148.537C254.622 145.112 256.373 142.759 258.624 138.88C261.111 134.613 263.935 130.296 266.416 127.081C267.53 125.637 268.795 123.904 270.085 122.157C271.633 120.058 273.268 117.872 274.892 115.889C275.088 115.649 275.288 115.412 275.487 115.182C277.127 113.294 278.7 112.012 280.096 110.926C280.532 110.59 280.952 110.272 281.357 109.964C282.72 108.649 284.117 107.392 285.529 106.171C285.734 105.941 285.943 105.704 286.167 105.453C286.539 105.036 286.944 104.59 287.386 104.118C286.49 104.438 285.659 104.721 284.917 104.948C283.957 105.24 283.112 105.36 282.264 105.482C282.261 105.482 282.257 105.482 282.253 105.483C282.195 105.491 282.136 105.501 282.078 105.509C276.031 107.704 269.974 109.864 263.818 111.93C263.284 112.139 262.777 112.338 262.242 112.544C259.666 113.54 257.134 114.475 255.492 115.204C254.771 115.526 253.549 115.966 251.972 116.437C251.149 116.678 250.32 116.913 249.231 117.153C248.698 117.267 248.135 117.384 247.342 117.471C247.181 117.489 246.888 117.512 246.625 117.521C246.488 117.525 246.346 117.528 246.193 117.526C246.017 117.523 245.765 117.51 245.507 117.481C245.375 117.466 245.234 117.446 245.081 117.419C245.004 117.406 244.924 117.389 244.841 117.371C244.761 117.354 244.666 117.333 244.514 117.291C243.953 117.128 243.192 116.877 242.271 116.121C241.76 115.711 240.997 114.828 240.624 113.832C240.214 112.877 240.182 111.566 240.265 111.064C240.43 109.781 240.869 109.029 241.199 108.502C241.816 107.498 242.521 106.56 243.244 105.709C245.904 102.616 248.803 100.367 251.134 98.5383C252.502 97.4781 253.948 96.7428 255.437 96.0227C256.46 95.53 257.505 95.0445 258.573 94.468C258.937 94.2723 259.3 94.0651 259.662 93.843C260.351 93.4196 261.099 92.907 261.869 92.3762C262.564 91.899 263.277 91.4074 264.061 90.9055C264.782 90.4441 266.474 89.5699 268.639 88.4504C269.98 87.7575 271.503 86.9687 273.08 86.1301C274.992 84.9615 276.908 83.7923 278.802 82.6213C278.301 82.5115 277.819 82.407 277.362 82.3108C274.912 81.7969 271.482 80.7929 268.046 79.6858C265.649 78.9153 263.248 78.0934 261.167 77.3909C259.125 76.7024 256.946 76.0829 254.799 75.3772C252.24 74.5362 249.667 73.5518 247.504 72.1565C247.087 71.8849 246.577 71.3608 246 70.6848C245.558 70.182 245.095 69.6179 244.491 68.885C243.199 67.7298 241.416 66.4196 240.35 62.886C239.778 61.1386 240.328 58.336 241.328 57.0247C242.284 55.6335 243.136 55.0915 243.782 54.6624C245.083 53.8708 245.91 53.6347 246.696 53.387C247.217 53.2325 247.912 53.0422 248.591 52.9016C248.709 52.8486 248.838 52.7934 248.963 52.7405C248.965 52.7395 248.967 52.7386 248.969 52.7376ZM246.524 219.401C246.559 219.483 246.596 219.505 246.515 219.378C246.519 219.386 246.521 219.394 246.524 219.401ZM263.346 202.132C263.346 202.146 263.345 202.174 263.349 202.234C263.353 202.157 263.352 202.117 263.346 202.132ZM246.49 106.198C246.42 106.204 246.399 106.211 246.408 106.216C246.426 106.226 246.518 106.229 246.644 106.223C246.703 106.221 246.769 106.214 246.844 106.208C246.64 106.189 246.528 106.196 246.49 106.198ZM287.927 74.0754C287.869 74.1095 287.79 74.1699 287.615 74.3782C287.472 74.5541 287.163 74.9416 286.83 75.6702C286.815 75.7147 286.804 75.7576 286.799 75.7991C286.78 75.9397 286.809 76.0672 286.836 76.2004C286.862 76.3311 286.883 76.4551 286.869 76.6467C287.047 76.3549 287.194 76.0628 287.322 75.7766C287.544 75.2689 287.802 74.7122 287.96 74.2737C288.001 74.1372 288.032 74.0221 287.927 74.0754ZM250.631 66.5491C250.58 66.5576 250.548 66.5879 250.649 66.5432C250.643 66.5451 250.637 66.5472 250.631 66.5491Z" fill="black"/>
<path d="M346.96 95.4524C348.035 94.8644 349.331 94.7557 350.542 95.1624C351.754 95.5698 352.784 96.4442 353.449 97.5803C354.114 98.7185 354.371 100.037 354.227 101.263C354.078 102.49 353.548 103.516 352.749 104.173C351.865 104.897 351.015 105.643 350.137 106.429L350.193 106.386C349.402 107.102 348.593 107.806 347.762 108.494C345.67 110.226 343.427 111.857 340.988 113.25C341.392 113.614 341.8 114.001 342.187 114.375C343.254 115.4 344.248 116.365 344.883 116.601C346 117.015 347.113 117.836 348.068 118.552C348.993 119.243 349.798 119.85 350.39 119.942C350.711 119.993 350.98 120.1 351.241 120.256C351.547 120.439 351.84 120.694 352.205 121.009C352.665 121.406 353.215 121.884 354.04 122.43C354.989 123.058 355.589 123.624 356.104 124.107C356.825 124.784 357.371 125.296 358.452 125.578C359.662 125.897 360.852 126.347 361.651 126.942C362.012 127.211 362.465 127.464 362.935 127.727C363.55 128.071 364.208 128.44 364.731 128.891C365.162 129.262 365.432 129.72 365.672 130.125C365.747 130.252 365.818 130.373 365.89 130.485C366.275 130.71 366.663 130.934 367.053 131.157C367.136 131.159 367.225 131.159 367.318 131.159C367.782 131.161 368.35 131.162 368.947 131.351C369.893 131.65 370.543 132.204 371.231 132.794C371.764 133.252 372.32 133.731 373.052 134.121C373.551 134.387 374.156 134.63 374.755 134.872C375.645 135.232 376.524 135.589 377.029 136.011C377.219 136.169 377.313 136.415 377.406 136.659L377.407 136.663C377.414 136.68 377.421 136.697 377.427 136.713C378.843 137.436 380.263 138.153 381.686 138.87C381.825 138.908 381.965 138.948 382.103 138.987C382.777 139.176 383.433 139.361 383.94 139.361C384.486 139.358 385.568 139.837 386.698 140.343C387.446 140.679 388.209 141.024 388.873 141.258C389.262 141.396 389.491 141.741 389.723 142.095C389.936 142.423 390.167 142.768 390.53 142.957C390.713 143.052 390.935 143.116 391.171 143.183C391.378 143.242 391.599 143.304 391.817 143.398C392.018 143.484 392.369 143.824 392.81 144.255C393.084 144.523 393.404 144.833 393.739 145.138C394.783 145.716 395.835 146.315 396.872 146.926C397.157 146.947 397.448 146.922 397.731 146.824C397.933 146.755 398.141 146.647 398.353 146.537C398.641 146.388 398.939 146.233 399.249 146.162C399.492 146.107 399.691 146.159 399.759 146.302C399.789 146.368 399.788 146.451 399.788 146.527C399.788 146.612 399.789 146.689 399.833 146.719C399.866 146.741 399.928 146.725 400.004 146.705C400.125 146.674 400.282 146.634 400.412 146.723C400.887 147.046 401.426 147.49 401.923 147.91C401.971 147.951 402.018 147.991 402.066 148.032C402.546 148.441 403.005 148.824 403.407 149.082C403.899 149.397 404.489 150.067 405.041 150.706C405.448 151.168 405.847 151.623 406.217 151.961C406.583 152.296 407.072 152.53 407.529 152.741C408.068 152.99 408.627 153.255 408.919 153.669C408.979 153.754 408.96 153.988 408.935 154.28C408.916 154.485 408.899 154.725 408.907 154.962C409.426 155.34 409.9 155.694 410.414 156.085C410.448 156.076 410.483 156.067 410.518 156.058L410.52 156.057C411.31 155.843 412.385 155.545 412.879 156.539C413.002 156.79 412.985 157.077 412.977 157.341C412.966 157.599 412.957 157.83 413.082 157.969C413.225 158.127 413.499 158.16 413.795 158.194C414.218 158.246 414.696 158.309 414.909 158.717C414.924 158.745 414.94 158.775 414.956 158.806C415.112 159.099 415.366 159.549 415.468 160.164C416.489 161.026 417.493 161.892 418.495 162.759C420.165 164.202 421.841 165.664 423.486 167.023C424.3 167.694 424.802 168.693 424.939 169.868C425.065 171.043 424.869 172.31 424.397 173.513C423.939 174.724 422.86 175.631 421.609 176.058C420.353 176.485 419.053 176.423 417.978 175.924C416.249 175.123 414.576 174.297 412.943 173.453C412.848 173.422 412.753 173.389 412.658 173.355C411.967 173.107 411.208 173.03 410.462 172.959C410.289 172.942 410.113 172.924 409.938 172.902C408.633 172.758 406.94 171.265 406.029 170.447C406.012 170.432 405.995 170.416 405.978 170.402C405.761 170.208 405.528 170.032 405.281 169.845C404.678 169.387 403.837 168.752 402.331 167.175C401.8 166.809 401.315 166.466 400.796 166.088C398.15 164.159 395.599 162.115 393.095 159.993C390.664 157.914 388.053 155.779 385.435 153.666C385.364 153.623 385.292 153.58 385.219 153.535C383.822 152.689 382.052 151.641 381.1 150.765C379.876 149.643 379.075 148.823 378.424 148.143C374.243 144.934 369.963 141.816 365.525 138.948C364.132 138.048 362.726 137.175 361.299 136.329C359.992 135.555 358.66 134.791 357.328 134.049C356.493 133.713 355.686 133.424 354.932 133.154C353.876 132.775 352.933 132.436 352.207 132.08C350.446 131.216 348.647 129.896 347.311 128.914C347.091 128.753 346.886 128.602 346.697 128.465C346.627 128.43 346.556 128.395 346.487 128.36C345.379 127.803 344.307 127.276 343.198 126.738C343.149 126.65 343.1 126.56 343.052 126.469C342.432 125.321 341.257 124.655 339.381 123.615C338.577 123.169 337.618 122.641 336.532 121.986C335.839 121.567 335.597 121.124 335.4 120.763C335.341 120.656 335.285 120.556 335.225 120.467C335.023 120.165 334.62 120.153 334.162 120.151C333.558 120.141 332.838 120.135 332.236 119.466C331.758 118.937 331.315 118.539 330.9 118.24C330.666 118.352 330.441 118.457 330.226 118.551L330.382 117.909C329.368 117.334 328.538 117.317 327.811 117.267C327.485 117.247 327.164 117.21 326.854 117.102C326.406 116.92 325.981 116.745 325.089 115.848C322.062 113.384 323.38 109.691 326.97 108.157C327.475 108.056 328.033 108.035 328.524 108.061C329.198 108.099 330.288 107.419 331.024 106.755C331.303 106.505 331.74 106.314 332.253 106.075C332.783 105.83 333.395 105.533 333.979 105.081C335.45 103.936 336.197 103.287 336.805 102.771C336.978 102.623 337.137 102.484 337.296 102.344C337.798 101.901 338.44 101.38 339.083 100.837C339.852 100.189 340.623 99.5062 341.166 98.9241C341.919 98.4697 342.674 98.0053 343.432 97.5305C343.444 97.5191 343.486 97.4921 343.498 97.4807C344.604 96.793 345.778 96.0984 346.96 95.4524Z" fill="black"/>
<path d="M358.975 125.865C360.267 125.873 361.513 126.378 362.488 127.333C363.462 128.263 364.077 129.52 364.235 130.849C364.49 133.011 364.758 135.189 365.017 137.349C365.046 137.46 365.074 137.573 365.101 137.685C365.301 138.543 365.682 139.292 366.066 140.088C366.155 140.273 366.243 140.449 366.329 140.624C366.983 141.991 366.805 144.63 366.714 146.124C366.712 146.151 366.71 146.179 366.709 146.205C366.687 146.545 366.689 146.869 366.692 147.255C366.701 148.185 366.709 149.426 366.409 152.018C366.452 152.783 366.488 153.527 366.517 154.279C366.832 162.428 366.713 170.61 366.553 178.784C366.562 178.888 366.572 178.993 366.581 179.1C366.683 180.269 366.8 181.588 366.859 182.838C366.901 183.734 366.915 184.561 366.866 185.22C366.721 187.205 366.577 188.554 366.454 189.681C366.567 196.008 367.083 202.357 368.286 208.553C368.658 210.473 369.112 212.438 369.628 214.316C370.116 216.094 370.643 217.786 371.246 219.514C371.702 220.475 372.17 221.344 372.629 222.182C373.256 223.311 373.843 224.32 374.254 225.181C375.224 227.223 376.079 229.653 376.776 231.376C376.892 231.662 377.008 231.939 377.107 232.175C377.841 233.38 378.731 234.722 379.407 235.503C379.42 235.518 379.433 235.534 379.446 235.55C379.463 235.659 379.479 235.771 379.495 235.885C379.703 237.314 380.695 238.582 382.362 240.538C383.09 241.392 383.952 242.379 384.944 243.585C385.584 244.362 385.726 244.934 385.841 245.4C385.874 245.537 385.906 245.666 385.948 245.788C386.092 246.207 386.514 246.409 387.015 246.651C387.662 246.963 388.444 247.344 388.913 248.349C390.401 251.551 391.846 252.341 392.967 252.98C393.294 253.168 393.589 253.341 393.846 253.564C394.671 254.274 395.377 255.7 395.728 256.906C396.01 257.848 397.189 259.422 398.069 260.919C398.33 261.355 398.565 261.98 398.757 262.766C398.767 262.796 398.776 262.826 398.786 262.856C398.977 263.438 399.198 263.989 399.659 264.595C400.819 266.085 401.704 267.012 402.341 267.714C402.357 267.731 402.374 267.75 402.391 267.767C402.579 267.971 402.757 268.161 402.935 268.347C403.503 268.942 404.18 269.689 404.894 270.443C405.744 271.34 406.645 272.241 407.388 272.87C408.888 274.874 410.472 276.883 412.117 278.861C412.961 279.878 413.445 281.193 413.438 282.551C413.434 283.913 412.937 285.198 412.024 286.148C411.107 287.094 409.834 287.634 408.444 287.636C407.059 287.642 405.682 287.106 404.621 286.168C402.487 284.277 400.383 282.313 398.37 280.207C396.552 278.303 394.8 276.272 393.208 274.072C392.652 273.304 392.108 272.508 391.577 271.648C390.554 270.017 389.444 267.815 388.855 265.707C388.834 265.606 388.738 265.313 388.726 265.211C388.682 264.95 388.594 264.61 388.466 264.243C388.416 264.1 388.362 263.958 388.302 263.807C387.469 262.732 386.319 261.522 385.539 260.614C384.895 259.865 384.565 259.159 384.279 258.556C384.077 258.136 383.896 257.768 383.622 257.455C383.474 257.286 383.269 257.068 383.013 256.799C381.977 255.701 380.129 253.838 378.725 251.771C378.105 250.857 377.461 249.707 376.847 248.596C375.967 247.01 375.157 245.498 374.534 244.908C373.458 243.894 372.518 242.461 371.723 241.136C371.703 241.105 371.684 241.073 371.664 241.041C370.756 239.521 370.246 238.351 369.683 237.812C369.014 237.159 368.742 236.432 368.376 235.363C368.123 234.621 367.815 233.693 367.343 232.534C366.786 231.165 366.559 230.151 366.362 229.266C366.102 228.053 365.922 227.145 365.15 225.943C364.31 224.652 363.577 223.176 363.294 221.959C363.166 221.41 362.946 220.755 362.741 220.131C362.463 219.282 362.174 218.362 362.059 217.508C361.96 216.792 362.05 216.152 362.137 215.602C362.163 215.429 362.189 215.262 362.208 215.101C362.061 214.557 361.913 214.001 361.772 213.469C361.711 213.392 361.643 213.311 361.573 213.225C361.225 212.803 360.79 212.241 360.479 211.545C359.984 210.426 359.89 209.333 359.811 208.216C359.747 207.325 359.692 206.426 359.455 205.411C359.292 204.71 359.047 203.944 358.809 203.175C358.452 202.019 358.119 200.897 358.091 200.072C358.08 199.763 358.2 199.477 358.319 199.193L358.321 199.189C358.329 199.17 358.338 199.151 358.346 199.132C357.938 197.206 357.55 195.257 357.186 193.286C357.126 193.115 357.067 192.952 357.009 192.787C356.724 191.983 356.452 191.185 356.132 190.674C355.782 190.1 355.481 188.712 355.182 187.165C354.987 186.169 354.795 185.154 354.579 184.303C354.516 184.054 354.519 183.806 354.557 183.557C354.594 183.319 354.663 183.08 354.734 182.839C354.867 182.385 355.004 181.922 354.935 181.432C354.901 181.187 354.818 180.925 354.728 180.647C354.65 180.4 354.568 180.151 354.51 179.868C354.456 179.608 354.513 179.02 354.587 178.277C354.632 177.818 354.685 177.299 354.722 176.76C354.539 175.301 354.366 173.916 354.199 172.456C354.039 172.161 353.837 171.911 353.585 171.717C353.404 171.579 353.191 171.463 352.973 171.345C352.676 171.185 352.369 171.02 352.119 170.784C351.924 170.598 351.839 170.379 351.908 170.214C351.94 170.138 352.005 170.078 352.063 170.024C352.13 169.962 352.19 169.907 352.185 169.843C352.182 169.798 352.129 169.752 352.066 169.696C351.966 169.607 351.836 169.491 351.822 169.306C351.772 168.617 351.775 167.853 351.777 167.09C351.78 166.227 351.784 165.399 351.717 164.75C351.642 164.027 351.777 162.93 351.915 161.887C352.011 161.161 352.106 160.389 352.132 159.763C352.157 159.146 352.028 158.513 351.902 157.881C351.752 157.125 351.609 156.435 351.746 155.804C351.774 155.677 351.967 155.513 352.21 155.308C352.382 155.163 352.579 154.997 352.759 154.81C352.729 154.033 352.707 153.26 352.693 152.468C352.665 152.442 352.636 152.415 352.607 152.387L352.605 152.386C351.946 151.772 351.043 150.925 351.52 149.67C351.642 149.354 351.879 149.152 352.093 148.97C352.303 148.797 352.49 148.622 352.523 148.39C352.561 148.126 352.418 147.821 352.264 147.494C352.047 147.034 351.804 146.529 351.998 145.983C352.011 145.946 352.025 145.907 352.04 145.866C352.178 145.474 352.383 144.919 352.811 144.342C352.881 142.653 352.977 141.022 353.089 139.329C353.277 136.566 353.513 133.769 353.768 130.971C353.895 129.613 354.492 128.313 355.46 127.354C356.429 126.369 357.682 125.858 358.975 125.865Z" fill="black"/>
<path d="M375.018 217.872C376.31 217.619 377.628 217.72 378.712 218.195C379.795 218.667 380.55 219.515 380.8 220.491C381.302 222.457 381.698 224.392 382.014 226.296C382.099 226.814 382.178 227.328 382.252 227.848C382.505 229.636 382.686 231.389 382.787 233.132C382.878 234.703 382.94 236.259 382.986 237.814C382.991 237.973 382.995 238.132 383 238.292C383.412 239.572 383.803 240.836 383.981 241.732C384.128 242.471 384.003 243.027 383.896 243.504C383.824 243.833 383.76 244.123 383.801 244.408C383.823 244.561 383.863 244.767 383.911 245.017C384.108 246.038 384.457 247.755 384.345 249.362C384.315 249.78 384.246 250.244 384.164 250.717L384.114 250.419C384.077 250.769 384.034 251.128 383.991 251.483C383.844 252.705 383.705 253.85 383.913 254.366C384.282 255.288 384.33 256.409 384.369 257.405C384.406 258.351 384.437 259.185 384.735 259.605C385.093 260.111 385.071 260.601 385.038 261.325C385.015 261.831 384.987 262.449 385.071 263.267C385.17 264.22 385.097 264.902 385.035 265.494C384.948 266.327 384.879 266.939 385.319 267.788C385.806 268.718 386.175 269.732 386.188 270.561C386.193 270.939 386.267 271.371 386.341 271.808C386.439 272.39 386.542 273.01 386.497 273.59C386.46 274.067 386.256 274.484 386.075 274.854C386.019 274.969 385.965 275.08 385.919 275.187C385.97 275.56 386.02 275.923 386.073 276.293C386.121 276.348 386.174 276.406 386.229 276.466C386.503 276.767 386.84 277.145 387.042 277.63C387.361 278.398 387.298 279.127 387.226 279.878C387.169 280.465 387.108 281.084 387.219 281.765C387.294 282.23 387.45 282.755 387.601 283.279C387.825 284.052 388.04 284.82 387.987 285.373C387.967 285.58 387.821 285.766 387.675 285.95L387.673 285.953C387.663 285.966 387.652 285.978 387.643 285.991C387.866 287.3 388.089 288.613 388.305 289.933C388.352 290.045 388.399 290.159 388.445 290.272C388.671 290.823 388.888 291.363 389.174 291.71C389.484 292.084 389.697 293.053 389.909 294.083C390.049 294.755 390.189 295.453 390.363 296.025C390.465 296.358 390.305 296.679 390.14 297.008C389.985 297.315 389.826 297.63 389.869 297.972C389.891 298.143 389.962 298.329 390.036 298.526C390.102 298.699 390.17 298.882 390.213 299.074C390.252 299.253 390.164 299.653 390.047 300.165C389.975 300.482 389.892 300.839 389.822 301.215C389.915 302.212 389.994 303.212 390.057 304.213C390.195 304.426 390.378 304.613 390.615 304.765C390.785 304.874 390.989 304.969 391.197 305.067C391.481 305.2 391.775 305.338 392.006 305.524C392.186 305.668 392.254 305.834 392.173 305.941C392.135 305.99 392.065 306.027 392.002 306.06C391.93 306.097 391.866 306.131 391.866 306.175C391.866 306.207 391.915 306.243 391.974 306.286C392.067 306.356 392.187 306.446 392.186 306.575C392.18 307.059 392.114 307.605 392.045 308.139C391.969 308.732 391.89 309.314 391.896 309.781C391.904 310.303 391.666 311.032 391.423 311.76C391.253 312.267 391.082 312.772 390.989 313.211C390.92 313.54 390.938 313.889 390.975 314.236C390.986 314.34 390.999 314.445 391.012 314.548C391.079 315.077 391.145 315.569 390.939 315.979C390.898 316.06 390.687 316.144 390.425 316.248C390.239 316.322 390.026 316.407 389.827 316.507C389.769 317.05 389.704 317.56 389.627 318.104C389.652 318.126 389.676 318.149 389.702 318.171L389.704 318.172C390.287 318.677 391.082 319.39 390.463 320.17C390.305 320.372 390.046 320.478 389.812 320.572C389.584 320.664 389.378 320.746 389.318 320.894C389.25 321.069 389.354 321.299 389.467 321.545C389.626 321.886 389.801 322.288 389.543 322.617C389.525 322.64 389.506 322.664 389.486 322.689C389.303 322.921 389.027 323.297 388.532 323.61C388.249 324.739 387.933 325.861 387.584 326.993C387.001 328.874 386.336 330.757 385.551 332.663C385.168 333.587 384.306 334.368 383.164 334.731C382.021 335.095 380.714 335.012 379.504 334.562C378.29 334.117 377.238 333.368 376.483 332.547C375.733 331.72 375.355 330.86 375.412 330.062C375.51 328.757 375.56 327.397 375.601 326.016C375.587 325.942 375.575 325.867 375.563 325.792C375.481 325.232 375.206 324.686 374.929 324.133C374.866 324.003 374.8 323.882 374.738 323.756C374.268 322.802 374.764 321.165 375.025 320.247C375.03 320.23 375.034 320.214 375.039 320.197C375.102 319.972 375.137 319.773 375.179 319.526C375.278 318.93 375.411 318.155 375.996 316.516C376.039 316.014 376.083 315.54 376.137 315.038C376.216 314.3 376.303 313.556 376.396 312.799C376.951 308.372 377.604 303.913 378.129 299.369C378.126 299.303 378.122 299.235 378.118 299.166C378.052 297.843 377.944 296.202 378.14 295.16C378.39 293.84 378.618 292.926 378.814 292.181C379.116 287.926 379.206 283.634 378.908 279.354C378.815 278.017 378.684 276.678 378.509 275.34C378.349 274.116 378.159 272.89 377.943 271.663C377.706 270.971 377.445 270.312 377.202 269.706C376.862 268.862 376.552 268.092 376.389 267.459C375.992 265.912 375.918 264.113 375.852 262.755C375.841 262.535 375.832 262.328 375.821 262.137C375.551 261.098 375.271 260.068 374.986 259.037C375.024 258.958 375.064 258.878 375.104 258.797C375.612 257.77 375.396 256.671 375.05 254.936C374.9 254.185 374.724 253.306 374.573 252.278C374.559 252.235 374.548 252.098 374.536 252.054C374.536 252.048 374.535 252.041 374.534 252.035C374.47 251.333 374.694 250.939 374.877 250.619C374.931 250.525 374.981 250.437 375.02 250.35C375.152 250.05 374.935 249.779 374.679 249.457C374.347 249.041 373.95 248.535 374.175 247.787C374.895 245.414 374.163 244.489 373.601 243.773C373.436 243.563 373.288 243.373 373.198 243.173C372.906 242.523 373.065 241.554 373.334 240.814C373.546 240.226 373.213 239.11 372.835 238.272C372.692 237.954 372.66 237.514 372.625 236.998C372.588 236.462 372.548 235.845 372.372 235.193C371.929 233.549 371.712 232.674 371.537 231.979C371.487 231.778 371.442 231.596 371.395 231.41C371.245 230.828 371.107 230.104 370.966 229.383C370.916 229.131 370.864 228.867 370.812 228.622C370.689 228.03 370.558 227.469 370.413 227.019C370.441 225.309 370.479 223.633 370.445 222.028C370.43 221.202 370.873 220.333 371.712 219.535C372.552 218.741 373.724 218.126 375.018 217.872Z" fill="black"/>
<path d="M382.211 318.92C382.978 318.845 383.843 319.253 384.559 320.086C385.277 320.919 385.79 322.094 386.043 323.361C386.3 324.628 386.3 325.9 386.129 326.936C385.953 327.973 385.61 328.686 385.129 328.973C384.343 329.44 383.576 329.947 382.817 330.472C382.782 330.515 382.747 330.556 382.713 330.595C382.456 330.893 382.296 331.354 382.147 331.815C382.113 331.921 382.079 332.027 382.044 332.132C381.785 332.918 380.713 333.15 380.109 333.308C380.098 333.311 380.086 333.314 380.075 333.317C379.932 333.354 379.809 333.409 379.662 333.476C379.312 333.639 378.848 333.846 377.693 334.065C377.425 334.24 377.145 334.417 376.872 334.585C375.248 335.585 373.566 336.569 371.841 337.586L372.81 336.689C371.514 337.841 370.216 338.967 368.949 340.116C368.923 340.155 368.896 340.194 368.868 340.234C368.345 341 367.728 341.958 367.132 342.404C366.371 342.972 365.805 343.331 365.331 343.627C363.306 345.77 361.496 348.122 360.148 350.749C359.726 351.569 359.347 352.419 359.023 353.286C358.723 354.087 358.462 354.902 358.235 355.731C358.211 356.246 358.225 356.749 358.244 357.211C358.269 357.866 358.305 358.435 358.247 358.89C358.108 359.98 357.603 361.128 357.241 362.009C357.183 362.15 357.128 362.285 357.078 362.411C357.06 362.61 357.043 362.811 357.027 363.013L357.098 362.53C357.108 363.09 357.121 363.673 357.138 364.239C357.082 364.286 357.024 364.334 356.964 364.383C356.221 364.982 356.158 365.804 356.063 367.092C356.021 367.653 355.974 368.311 355.863 369.068C355.79 369.567 355.499 369.79 355.261 369.983C355.191 370.039 355.125 370.093 355.072 370.147C354.887 370.334 355.053 370.554 355.248 370.82C355.502 371.168 355.807 371.572 355.464 372.063C354.373 373.614 354.975 374.377 355.429 374.96C355.562 375.131 355.683 375.282 355.744 375.435C355.944 375.933 355.659 376.592 355.299 377.088C355.014 377.474 355.207 378.313 355.483 378.957C355.587 379.203 355.567 379.516 355.542 379.89C355.517 380.28 355.487 380.723 355.588 381.215C355.845 382.448 355.966 383.102 356.063 383.631C356.09 383.78 356.115 383.92 356.142 384.059C356.225 384.501 356.28 385.045 356.336 385.596C356.403 386.256 356.472 386.928 356.59 387.44C356.334 388.733 356.039 390.025 355.744 391.315C355.592 391.978 354.957 392.58 353.952 392.984C352.946 393.389 351.659 393.566 350.345 393.472C349.031 393.379 347.782 393.023 346.843 392.48C345.905 391.938 345.36 391.251 345.303 390.573C345.19 389.207 345.078 387.84 345.008 386.476C344.923 384.815 344.902 383.159 345.022 381.51C345.105 380.358 345.22 379.203 345.362 378.054C345.376 377.936 345.391 377.818 345.406 377.7C345.155 376.706 344.933 375.716 344.879 375.026C344.835 374.455 345.039 374.059 345.213 373.718C345.333 373.483 345.439 373.279 345.442 373.058C345.443 372.941 345.434 372.78 345.425 372.587C345.387 371.795 345.325 370.452 345.738 369.26C345.921 368.732 346.246 368.127 346.559 367.55C347.005 366.729 347.424 365.954 347.351 365.543C347.222 364.816 347.452 364.021 347.659 363.309C347.857 362.636 348.032 362.039 347.846 361.681C347.839 361.668 347.833 361.655 347.826 361.642C347.851 361.555 347.859 361.28 347.893 361.195C347.746 360.743 347.921 360.409 348.181 359.93C348.369 359.581 348.597 359.163 348.793 358.563C349.02 357.869 349.324 357.419 349.584 357.035C349.95 356.501 350.23 356.098 350.124 355.359C350.01 354.528 350.042 353.691 350.338 353.12C350.473 352.861 350.566 352.539 350.664 352.21C350.794 351.776 350.94 351.308 351.203 350.94C351.421 350.635 351.766 350.442 352.071 350.279C352.166 350.228 352.257 350.18 352.339 350.131C352.439 349.864 352.539 349.595 352.638 349.329C352.617 349.271 352.593 349.208 352.569 349.143C352.445 348.821 352.299 348.415 352.32 347.998C352.353 347.337 352.707 346.891 353.085 346.432C353.381 346.075 353.69 345.71 353.886 345.213C354.019 344.874 354.112 344.457 354.209 344.044C354.353 343.431 354.511 342.824 354.799 342.504C354.907 342.384 355.113 342.344 355.318 342.306H355.322C355.335 342.304 355.349 342.301 355.363 342.299C355.756 341.354 356.165 340.411 356.591 339.474C356.604 339.378 356.617 339.281 356.631 339.184C356.7 338.714 356.772 338.258 356.7 337.878C356.623 337.466 356.904 336.743 357.217 335.989C357.422 335.495 357.64 334.986 357.772 334.535C357.849 334.271 358.128 334.173 358.414 334.077C358.682 333.987 358.956 333.896 359.083 333.665C359.146 333.549 359.178 333.396 359.212 333.232C359.242 333.088 359.275 332.936 359.332 332.795C359.386 332.663 359.645 332.48 359.976 332.251C360.18 332.109 360.415 331.946 360.645 331.769C361.039 331.124 361.443 330.487 361.86 329.859C361.85 329.647 361.797 329.422 361.684 329.182C361.603 329.011 361.489 328.826 361.373 328.635C361.216 328.377 361.054 328.109 360.962 327.852C360.891 327.652 360.915 327.512 361.027 327.502C361.079 327.497 361.149 327.519 361.212 327.54C361.285 327.563 361.35 327.584 361.37 327.558C361.384 327.539 361.364 327.488 361.339 327.426C361.299 327.325 361.248 327.196 361.309 327.121C361.413 326.991 361.534 326.862 361.663 326.733C361.907 326.544 362.5 325.843 362.776 325.704C362.958 325.581 363.15 325.462 363.339 325.346C363.726 325.11 364.122 324.872 364.386 324.635C364.69 324.363 365.258 324.184 365.839 324.004C366.239 323.882 366.645 323.76 366.958 323.612C367.262 323.47 367.505 323.187 367.735 322.919C368.011 322.596 368.29 322.282 368.658 322.242C368.734 322.233 368.914 322.357 369.136 322.513C369.293 322.624 369.473 322.752 369.654 322.86C370.009 322.641 370.385 322.425 370.756 322.224C370.755 322.193 370.755 322.161 370.754 322.129V322.127C370.733 321.401 370.731 320.395 371.584 320.516C371.803 320.546 372.018 320.707 372.209 320.852C372.397 320.995 372.565 321.125 372.694 321.101C372.838 321.076 372.929 320.877 373.025 320.664C373.159 320.365 373.318 320.028 373.676 320.083C373.7 320.086 373.726 320.091 373.753 320.094C374.007 320.134 374.394 320.188 374.865 320.455C375.745 320.16 376.644 319.905 377.557 319.689C379.079 319.329 380.637 319.076 382.211 318.92Z" fill="black"/>
</svg>
