<svg width="578" height="575" viewBox="0 0 578 575" fill="none" xmlns="http://www.w3.org/2000/svg">
<path d="M130.572 0.295152C131.918 -0.27013 134.483 0.00295103 135.71 0.888902C138.11 2.62583 137.987 3.51761 138.336 4.12621C138.754 5.30187 138.774 5.84566 138.842 6.40648C138.935 7.47366 138.891 8.26321 138.819 9.05394C137.346 16.538 135.484 23.4368 132.78 29.8957C132.777 30.7209 132.801 31.5093 132.85 32.2444C132.982 32.2653 133.119 32.2857 133.261 32.3039C135.471 32.7778 138.391 32.3317 143.217 34.7678C143.502 34.7795 143.91 34.7842 144.334 34.7746C145.59 34.7481 147.075 34.6605 148.51 34.5842C151.411 34.4241 154.232 34.2942 156.826 34.2209C157.298 34.207 157.776 34.1943 158.256 34.1828C159.069 34.1639 159.878 34.1482 160.701 34.136C166.049 34.0677 171.107 34.1614 176.891 34.2766C183.77 34.4055 191.736 34.6894 201.894 34.7854C213.712 34.9003 232.75 34.0213 254.312 42.2258C256.399 42.932 258.45 43.7962 260.454 44.7981C265.376 47.2144 269.759 50.2678 273.747 53.7346C275.741 55.4745 277.631 57.3168 279.433 59.3264C280.335 60.3348 281.215 61.3816 282.092 62.55C282.515 63.1152 282.976 63.7626 283.418 64.4573C283.887 65.2492 284.328 65.7788 285.011 67.6692C286.589 72.5841 286.509 77.1406 286.076 81.2678C283.557 98.8388 275.911 112.556 268.509 126.289C265.01 132.555 261.164 138.724 256.832 144.579C253.355 149.421 249.203 153.859 247.147 157.485C247.824 157.824 248.536 158.172 249.258 158.526C251.141 159.445 253.057 160.384 254.979 161.35C254.976 160.522 254.721 158.639 256.689 156.229C257.791 154.861 259.946 154.027 260.976 153.965C262.053 153.842 262.643 153.947 263.064 154.005C263.912 154.149 264.302 154.295 264.668 154.414C265.368 154.659 265.801 154.856 266.228 155.047C267.072 155.432 267.764 155.784 268.46 156.143C269.835 156.857 271.13 157.566 272.414 158.277C274.989 159.704 277.486 161.127 280.016 162.576C292.716 169.874 305.322 177.274 317.908 184.713C319.447 185.611 320.988 186.511 322.568 187.436C325.482 189.142 328.477 190.902 331.495 192.69C343.12 198.813 352.545 210.691 360.203 220.277C360.745 220.608 361.349 220.98 362.296 221.76C362.456 221.895 362.623 222.043 362.8 222.212C362.991 222.398 363.115 222.514 363.439 222.88C363.725 223.21 364.044 223.61 364.385 224.174C364.59 224.511 365.092 225.405 365.38 226.625C366.174 227.559 366.946 228.437 367.696 229.244C377.834 237.243 391.596 241.595 402.349 246.154C403.794 246.747 405.171 247.36 406.491 247.989C425.905 257.115 436.729 272.16 445.258 281.606C447.036 283.48 448.532 284.07 452.546 285.459C455.752 286.594 457.862 289.601 458.669 291.422C459.58 293.366 460.01 294.896 460.463 296.355C461.313 299.214 462.042 301.713 462.902 304.101C463.876 306.759 464.991 309.325 466.277 311.855C474.254 327.416 482.808 342.89 490.838 358.773C494.214 366.333 498.803 372.753 498.848 383.866C494.884 399.023 485.068 403.462 476.159 410.108C468.81 414.637 461.425 419.248 452.652 422.352C452.952 422.613 453.258 422.875 453.567 423.134C455.959 425.128 458.616 427.1 461.272 429.083C466.603 433.119 472.142 436.946 477.292 442.43C481.903 447.396 481.876 454.597 479.662 459.834C474.622 469.718 465.639 472.118 461.987 476.591C455.568 485.38 447.918 495.292 440.262 504.005C433.066 512.978 423.429 520.582 414.264 527.125C403.616 535.263 388.173 541.158 374.837 539.302C374.075 539.292 373.39 539.317 372.879 539.392C367.367 540.185 361.726 540.559 355.942 540.022C355.047 539.883 353.588 539.847 351.944 538.061C350.342 536.093 350.681 534.092 350.859 533.209C351.35 531.271 351.954 530.467 352.515 529.512C353.654 527.728 354.8 526.313 355.943 524.902C358.203 522.127 360.585 519.481 362.353 517.012C364.801 513.955 366.874 513.433 368.798 512.456C370.739 511.599 372.595 510.919 374.448 510.261C378.152 508.957 381.807 507.788 385.471 506.612C398.912 502.249 412.954 498.834 426.256 495.59C426.613 495.492 426.952 495.394 427.236 495.304C427.391 495.255 427.515 495.213 427.619 495.175C427.644 495.166 427.667 495.155 427.686 495.148C427.732 495.117 427.822 495.04 427.976 494.784C428.166 494.468 428.382 493.921 428.547 493.27C428.884 491.954 429.048 490.28 429.134 488.553C429.368 484.998 428.979 481.489 429.888 476.688C431.064 471.311 427.795 463.754 424.568 457.056C420.197 447.703 412.444 440.185 406.01 430.319C403.197 425.935 400.699 421.323 398.608 416.523C397.996 415.142 397.422 413.747 396.881 412.351C385.656 416.276 375.799 427.926 365.537 436.586C365.505 436.612 365.474 436.639 365.443 436.664C362.705 438.882 359.526 438.829 357.52 438.558C355.41 438.259 353.738 437.671 352.254 437.154C351.801 436.987 351.4 436.794 351.044 436.592C347.72 446.368 354.228 460.649 359.228 469.005C359.643 469.639 360.053 470.273 360.455 470.903C364.045 476.521 367.465 482.487 370.425 488.828C371.239 490.728 373.435 494.058 373.131 498.581C371.74 507.421 366.165 509.708 362.647 512.878C358.793 515.793 354.979 518.418 351.256 521.093C343.796 526.414 336.64 531.836 329.878 537.394C318.737 546.394 307.501 553.376 297.5 559.673C297.245 559.833 296.99 559.99 296.736 560.145C291.578 563.294 286.311 565.598 281.381 567.273C272.754 570.275 263.985 571.881 255.392 573.295C241.125 575.84 225.231 574.875 211.794 571.078C210.613 570.864 208.784 569.913 207.839 568.395C206.885 566.91 206.779 565.627 206.747 564.739C206.746 562.945 207.099 561.941 207.407 560.96C208.064 559.069 208.827 557.627 209.729 556.135C211.017 554.04 212.605 552.186 214.331 550.597C215.995 549.142 217.783 547.91 219.633 546.839C223.582 544.551 227.866 542.964 232.086 541.559C243.057 538.674 253.372 539.856 263.472 536.371C274.841 530.826 287.585 518.048 305.635 507.384C305.996 507.182 306.352 506.984 306.714 506.784C312.426 503.504 320.871 499.716 323.546 496.51C325.734 493.095 327.296 488.009 326.666 485.334C325.786 481.756 318.816 477.633 312.775 472.381C309.685 469.573 307.409 466.296 305.45 462.886C302.399 457.469 300.67 452.694 299.392 448.509C297.443 439.926 298.631 436.177 296.944 433.156C296.531 432.257 296.167 431.396 295.832 430.576C294.998 428.527 294.314 426.739 293.506 425.014C290.845 419.234 286.358 413.91 280.469 408.083C280.358 407.974 280.247 407.865 280.137 407.757C274.964 402.42 268.395 398.214 259.767 391.861C257.124 390.106 251.346 388.128 246.09 386.276C235.368 382.565 225.607 379.645 216.914 376.354C211.701 374.589 206.123 372.205 201.811 369.226C185.751 350.648 180.078 339.027 172.683 329.628C171.322 327.753 170.085 325.937 168.934 324.101C165.813 319.169 163.493 314.042 161.857 308.946C161.624 308.239 161.397 307.527 161.171 306.814C160.655 307.085 160.091 307.412 159.539 307.758C157.199 309.218 154.727 311.088 152.068 313.018C140.739 320.882 127.368 323.154 116.263 323.929C114.365 324.034 112.214 324.113 109.83 324.056C93.3838 319.734 76.8721 310.236 60.0428 303.296C58.1241 302.457 56.2368 301.638 54.4051 300.838C52.2139 299.877 49.8066 298.82 47.1346 297.51C45.7828 296.837 44.3832 296.131 42.8065 295.118C41.3439 294.086 39.0435 292.772 37.7781 289.268C37.4726 288.323 37.2715 287.584 37.0985 287.103C36.9583 287.122 36.7698 287.162 36.5408 287.241C35.7898 287.491 34.7215 288.127 33.6776 288.976C33.3587 289.233 33.0349 289.513 32.7127 289.807C28.0225 294.705 26.4621 308.89 22.5526 321.079C21.8064 323.534 21.2993 326.077 21.0985 328.641C20.9274 330.821 20.9854 332.96 21.2645 334.888C21.2758 334.891 21.2868 334.895 21.2987 334.898C22.0352 335.08 23.413 335.113 24.7821 334.999C26.1728 334.89 27.6428 334.668 29.1414 334.415C29.8984 334.288 30.6634 334.152 31.4862 334.019C32.3824 333.901 32.95 333.703 34.7889 333.724C38.6806 333.815 41.8709 336.566 43.2821 338.625C44.8319 340.779 45.6399 342.743 46.3543 344.568C47.7259 348.205 48.5376 351.416 49.4608 354.116C52.3001 363.152 54.9068 372.341 50.325 381.394C47.033 387.313 41.259 388.543 37.4764 389.058C31.1761 389.726 26.0387 388.845 20.9256 387.706C19.0152 387.248 17.1474 386.761 14.953 385.943C12.5494 384.894 11.9297 383.785 11.2694 383.003C10.6664 382.19 10.2705 381.483 9.92463 380.824C9.24282 379.505 8.75961 378.299 8.31135 377.097C7.43434 374.715 6.74718 372.377 6.10334 370.008C4.82774 365.271 3.76384 360.434 2.75276 355.475C1.43155 348.978 0.58345 342.221 0.219554 335.432C-0.471831 323.665 0.577574 311.554 1.86506 300.99C3.11578 289.693 5.39844 279.577 7.35334 270.898C7.98091 268.277 8.65088 265.616 9.19905 263.181C10.3254 258.11 13.544 254.615 16.2508 252.201C22.6964 247.086 28.5143 248.008 33.2928 248.178C38.1654 248.602 42.6085 249.541 46.9725 250.548C55.6663 252.59 63.9613 255.071 72.1385 256.921C79.9443 258.69 87.885 258.705 98.0613 261.22C98.7052 261.43 99.3756 261.664 100.231 262.09C100.881 262.487 101.76 262.77 102.85 264.052C102.912 262.687 102.924 261.204 102.93 259.708C102.935 255.749 102.902 251.637 103.012 247.499C103.04 246.373 103.076 245.319 103.124 244.196C103.748 229.165 106.466 213.58 113.496 201.718C113.859 201.003 115.153 199.79 115.884 199.46C125.611 196.792 131.466 197.517 137.921 197.164C147.683 197 154.898 197.237 159.235 197.646L158.984 197.679C161.777 197.668 163.289 197.3 163.565 197.822C163.785 198.261 162.673 199.686 159.598 200.809C159.571 200.814 159.489 200.826 159.461 200.827C155.221 201.864 148.046 202.975 138.471 204.271C133.142 205.075 125.871 205.757 120.771 207.256C115.844 217.778 114.055 230.884 113.584 244.595C113.548 245.656 113.524 246.654 113.506 247.722C113.436 251.666 113.502 255.607 113.533 259.691C113.541 261.749 113.555 263.804 113.406 266.089C113.319 267.249 113.224 268.414 112.856 269.927C112.657 270.685 112.419 271.529 111.783 272.626C111.197 273.675 109.774 275.244 107.797 275.775C105.584 276.363 104.041 276.421 102.291 276.46C101.426 276.466 100.565 276.441 99.5936 276.334C99.1021 276.278 98.5909 276.207 97.9354 276.05C97.6132 275.97 97.2335 275.868 96.7401 275.668C96.2324 275.406 95.58 275.331 94.3201 273.902C93.7293 273.244 93.334 272.152 93.1942 271.194C86.5636 269.838 77.9794 269.445 69.7508 267.716C61.0515 265.819 52.7005 263.395 44.453 261.534C36.7498 259.692 26.3074 258.335 23.9071 260.749C21.9295 262.508 20.7496 264.22 20.4823 265.628C19.5186 269.99 18.5118 274.033 17.5916 278.167C15.7881 286.228 14.17 294.312 13.2918 302.267C12.4246 308.823 11.8188 315.302 11.5789 321.718C11.8661 320.456 12.2006 319.209 12.5799 317.978C16.8226 306.987 15.0718 295.912 25.7508 282.168C27.4306 280.659 29.3057 279.156 31.9119 277.976C34.3632 276.814 38.6465 276.001 42.2948 277.991C45.0874 279.506 46.0493 281.777 46.5906 283.06C47.056 284.249 47.2977 285.177 47.4871 285.796C47.5054 285.814 47.5253 285.834 47.5487 285.855C47.811 286.093 48.3561 286.48 48.9891 286.859C50.2721 287.63 51.8698 288.425 53.4754 289.197C56.7252 290.748 60.1474 292.277 63.5457 293.825C63.7616 293.924 63.9805 294.022 64.201 294.122C67.7635 295.743 71.3202 297.376 74.8651 299.011C86.8857 304.296 101.921 311.585 110.009 313.938C123.603 313.795 137.599 310.11 145.642 304.215C148.102 302.395 150.602 300.466 153.344 298.705C154.932 297.711 156.491 296.728 158.87 295.862C160.112 295.482 161.503 294.897 164.256 295.265C165.607 295.465 167.39 296.211 168.64 297.463C169.901 298.703 170.485 300.011 170.822 301.064C173.636 311.291 176.821 317.513 181.101 323.817C183.036 326.683 184.846 329.403 186.571 332.014C191.23 339.056 195.286 345.351 199.508 351.466C200.554 352.975 201.788 354.743 203.183 356.635C203.884 357.582 204.625 358.562 205.389 359.494C205.759 359.947 206.161 360.415 206.509 360.785C206.69 360.979 206.855 361.145 206.982 361.262C207.035 361.312 207.085 361.353 207.114 361.377C207.47 361.613 207.831 361.844 208.202 362.073C211.513 364.124 214.977 365.575 220.273 367.342C232.851 372.312 247.161 374.148 265.978 383.747C272.454 388.665 281.038 394.228 287.482 401.332C293.998 408.047 300.691 416.604 304.08 425.603C304.58 426.775 305.052 427.869 305.551 428.902C308.894 435.615 307.54 442.508 308.736 445.585C310.949 452.815 314.411 460.663 319.201 465.234C322.537 468.361 327.14 471.101 331.497 475.697C333.121 477.489 334.859 479.742 335.705 482.911C337.11 491.198 334.243 496.276 331.357 501.317C326.942 507 323.335 507.771 319.816 509.942C316.326 511.807 313.047 513.489 309.977 515.168C300.852 520.319 293.42 526.276 288.3 530.125C281.758 534.93 276.042 540.299 266.722 544.71C255.331 548.785 243.457 547.947 235.169 550.206C228.655 552.428 222.808 555.089 219.277 559.147C218.721 559.781 218.226 560.442 217.795 561.127C217.473 561.639 217.161 562.197 216.897 562.732C232.14 566.627 244.998 565.737 253.93 564.148C254.768 564.002 255.558 563.86 256.314 563.72C268.93 561.242 279.825 559.455 292.513 551.783C293.566 551.131 294.64 550.465 295.737 549.78C303.742 544.717 313.328 538.846 323.997 530.284C327.282 527.592 330.827 524.777 334.644 521.865C341.394 516.707 347.672 512.353 353.237 508.409C358.584 504.659 364.265 500.243 364.112 497.99C364.292 496.775 363.479 495.109 362.306 492.608C361.515 490.858 360.702 489.169 359.873 487.533C357.349 482.556 354.699 478.053 351.947 473.725C348.247 467.627 345.71 461.633 343.679 454.757C342.008 447.992 339.584 439.791 344.516 430.493C344.544 430.447 344.573 430.401 344.601 430.355C345.694 428.859 347.239 426.267 351.636 426.876C354.024 427.605 354.442 428.597 354.906 428.914C355.054 429.058 355.163 429.145 355.228 429.194C356.549 429.656 357.768 430.021 358.741 430.137C359.229 430.198 359.634 430.184 359.852 430.138C360.08 430.088 360.076 430.053 360.082 430.043C370.93 421.011 379.96 409.04 395.213 404.068C396.115 403.874 397.04 403.693 398.319 403.699C398.969 403.719 399.72 403.75 400.79 404.143C401.816 404.47 403.458 405.727 403.961 407.341C404.95 410.15 406.033 412.814 407.193 415.329C408.778 418.773 410.707 422.315 412.973 425.862C416.008 430.659 420.08 435.382 424.11 440.761C426.999 444.619 429.779 448.867 431.996 453.437C435.274 460.758 439.683 468.415 437.884 478.515C437.522 480.071 437.465 482.487 437.397 484.777C437.314 487.522 437.259 490.299 436.77 493.212C436.572 494.195 436.35 495.326 435.96 496.481C437.417 494.77 438.883 493.025 440.343 491.247C445.412 485.185 449.932 478.774 455.557 471.179C459.347 466.917 463.326 464.875 466.578 462.221C468.971 460.354 470.961 458.329 471.686 456.477C472.889 453.415 472.577 450.104 470.805 448.36C463.699 441.149 454.554 435.669 448.098 430.204C446.589 428.938 445.16 427.663 443.794 426.107C443.108 425.306 442.435 424.482 441.78 423.23C441.214 422.101 440.242 419.792 441.553 417.178C442.167 415.855 443.689 415.108 444.301 415.008C444.988 414.851 445.303 414.882 445.555 414.883C446.025 414.905 446.201 414.946 446.358 414.969C446.65 415.019 446.761 415.042 446.848 415.057C447.011 415.085 446.995 415.09 446.982 415.115C447.137 415.079 447.292 415.041 447.449 415.002C447.466 414.998 447.483 414.994 447.5 414.99C447.76 414.925 448.013 414.859 448.272 414.787C456.184 412.134 463.922 407.448 471.451 402.67C479.173 397.57 488.68 389.584 489.822 383.212C490.036 377.612 485.941 369.734 482.585 362.95C480.034 357.975 477.371 353 474.7 348.031C473.319 345.526 471.919 342.997 470.53 340.489C465.784 331.913 461.097 323.513 457.29 316.476C455.57 313.285 454.212 310.262 453.153 307.637C452.395 305.778 451.522 303.287 450.625 300.513C450.177 299.153 449.7 297.673 449.213 296.587C449.01 296.129 448.795 295.773 448.675 295.616C446.238 294.86 440.7 293.091 437.249 289.285C430.342 281.959 424.112 273.996 415.962 267.692C410.44 263.335 404.278 259.79 397.862 257.277C389.585 254.027 381.267 251.005 373.924 247.492C369.015 245.138 364.283 242.418 359.903 238.737C359.147 238.086 358.462 237.434 357.832 236.782C357.794 236.786 357.757 236.793 357.72 236.796C356.906 236.832 353.905 237.805 351.187 238.789C349.74 239.294 348.272 239.836 346.289 240.368C345.223 240.616 344.301 240.949 341.989 240.992C340.855 240.865 338.95 241.264 335.703 238.697C334.474 237.656 333.59 236.103 333.153 234.786C333.018 234.646 332.874 234.498 332.724 234.348C331.95 233.573 331.089 232.764 330.205 231.956C323.414 225.861 316.16 220.076 309.441 214.968C308.298 214.532 307.156 214.095 306.013 213.661C292.883 208.513 279.923 203.222 267.85 193.339C263.687 189.237 261.327 184.888 259.803 180.629C256.01 178.472 252.194 176.406 248.382 174.453C246.337 173.404 244.331 172.409 242.259 171.377C241.217 170.856 240.181 170.341 239.037 169.729C238.47 169.423 237.86 169.088 237.143 168.639C236.408 168.125 235.619 167.806 234.07 166.031C231.019 162.446 231.391 157.359 232.406 154.898C232.957 153.36 233.645 151.868 234.395 150.518C241.717 139.437 247.72 133.293 252.844 123.975C253.798 122.339 254.692 120.749 255.597 119.09C260.579 109.97 264.834 101.105 267.785 93.4221C268.488 91.5861 269.471 89.3648 270.482 86.5598C271.191 84.5773 271.918 82.2932 272.391 79.7522C272.715 76.9016 272.614 74.1697 271.993 72.1594C271.945 72.0732 271.872 71.952 271.782 71.8108C271.58 71.4945 271.306 71.1052 271.018 70.7239C270.431 69.9448 269.754 69.1371 269.045 68.3508C267.624 66.7765 266.041 65.2426 264.4 63.8293C261.102 60.9914 257.479 58.5463 253.713 56.7854C253.339 56.6411 252.953 56.4995 252.566 56.3655C252.56 56.3636 252.554 56.3615 252.548 56.3596C251.697 56.0656 250.816 55.7974 249.905 55.5647C239.571 52.8273 228.03 49.9069 209.321 49.967C206.331 49.8891 203.945 49.7834 201.876 49.6584C200.268 49.5628 198.876 49.4504 197.552 49.3391C194.553 49.0857 191.886 48.841 187.999 48.717C183.586 48.5773 178.382 48.5798 172.754 48.634C168.965 48.6743 164.96 48.7288 160.984 48.8577C156.578 48.997 152.191 49.241 147.465 49.4182C146.841 49.4385 146.15 49.46 145.392 49.4729C144.512 49.4843 143.541 49.5008 142.264 49.4153C141 49.2657 139.164 49.3201 136.409 47.6633C136.833 47.6656 134.497 47.0295 131.515 46.6379C129.974 46.3648 128.157 46.1223 125.747 45.0764C125.366 44.9356 124.96 44.7348 124.543 44.4846C122.265 47.5649 119.655 50.5557 116.642 53.4758C114.193 55.4466 112.175 56.7106 110.139 58.1516C104.667 61.953 99.4294 66.0839 96.9969 70.552C96.9597 70.7689 96.8246 71.6127 96.9403 72.3293C97.6707 76.7335 101.052 82.9271 104.743 87.72C107.555 91.4204 110.444 95.042 113.34 98.9182C116.027 102.927 119.859 106.607 120.548 114.264C120.524 117.033 119.623 118.175 119.086 119.179C118.484 120.157 117.902 120.888 117.344 121.565C116.225 122.903 115.157 124.012 114.12 125.099C112.051 127.254 110.103 129.266 108.435 131.323C105.012 135.471 103.294 139.518 104.7 142.347C108.328 150.249 116.423 160.595 121.963 161.048C122.453 161.059 122.82 160.986 123.254 160.789C125.224 159.904 127.551 157.069 129.301 154.064C139.501 139.137 149.274 127.185 157.347 117.421C159.436 114.928 161.368 112.676 163.138 110.665C170.058 102.544 175.401 98.8507 176.046 100.081C176.378 100.771 173.397 104.963 167.784 114.134C166.363 116.397 164.766 118.887 162.996 121.604C156.302 131.982 146.766 145.571 138.109 159.066C135.895 162.87 133.467 167.122 127.827 170.148C126.002 171.064 123.828 171.551 121.803 171.515C112.661 170.763 108.547 165.541 104.486 161.384C100.592 156.904 97.4479 152.395 94.7752 146.745C90.694 137.744 95.9718 129.148 99.7908 124.407C101.847 121.811 104.014 119.542 106.002 117.416C106.987 116.361 107.943 115.329 108.671 114.431C108.845 114.217 109.006 114.005 109.14 113.821C108.593 112.023 106.458 108.699 104.188 105.799C101.459 102.231 98.4646 98.5586 95.5496 94.8147C91.756 89.8988 88.4178 84.6127 86.2274 78.1448C85.8035 76.8405 85.415 75.597 85.1571 73.7659C84.9928 72.4796 84.9387 71.2005 85.0672 69.7649C85.2087 68.3676 85.4786 66.8001 86.4149 64.968C92.6971 53.7766 102.606 48.7367 108.494 43.7219C110.412 41.9982 112.279 39.575 113.945 36.9328C115.399 34.6281 116.727 32.1305 117.943 29.5403C118.247 28.8896 118.561 28.1953 118.884 27.4661C119.102 18.7324 120.744 9.63382 128.169 1.76683C128.606 1.36771 129.176 0.7918 130.572 0.295152ZM430.965 502.306C424.399 504.482 420.631 504.773 416.052 505.886C413.431 506.459 410.947 507.02 408.534 507.592C401.541 509.431 394.613 511.439 387.729 513.654C385.735 514.295 383.757 514.935 381.786 515.588C380.37 516.1 378.884 516.647 377.368 517.23C375.716 517.866 374.01 518.544 372.346 519.316C370.776 520.005 368.834 521.229 368.791 521.542C366.977 524.202 365 526.526 363.013 529.028C362.245 529.992 361.47 530.975 360.755 531.953C364.419 531.964 368.083 531.623 371.66 531.093C386.8 531.941 395.994 529.436 406.87 522.181C407.752 521.598 408.552 521.05 409.426 520.43C416.943 515.056 424.267 509.671 430.965 502.306ZM12.0242 340.353C12.4194 344.68 13.0334 348.984 13.9041 353.27C14.8135 357.799 15.7839 362.296 16.9207 366.643C17.4916 368.812 18.1067 370.953 18.8006 372.907C19.1453 373.875 19.5187 374.808 19.8768 375.525C19.9222 375.617 19.9682 375.705 20.0125 375.787C23.7098 377.009 28.2583 377.905 32.1981 378.1C36.5591 378.459 40.5444 377.068 40.5701 376.157C42.9202 372.278 41.3887 364.415 39.1033 357.528C37.7864 353.482 36.8787 349.719 35.6043 346.874C35.1405 345.823 34.5947 344.947 34.2547 344.594C34.2102 344.546 34.1712 344.508 34.1395 344.479C34.0912 344.484 34.0388 344.489 33.9862 344.495C33.6897 344.531 33.3232 344.586 32.953 344.644C32.1924 344.763 31.3612 344.903 30.5067 345.037C28.7889 345.306 26.9783 345.561 25.0037 345.67C23.0156 345.752 20.9015 345.82 18.1512 345.046C16.7903 344.637 15.1462 343.936 13.6453 342.482C13.0022 341.875 12.4579 341.136 12.0242 340.353ZM21.3494 335.446C21.3577 335.45 21.3538 335.43 21.3416 335.394C21.3445 335.411 21.3465 335.428 21.3494 335.446ZM448.624 295.552C448.555 295.49 448.589 295.524 448.634 295.565C448.63 295.561 448.627 295.555 448.624 295.552ZM347.624 232.717C347.635 232.623 347.648 232.521 347.659 232.406C347.649 232.508 347.638 232.611 347.624 232.717ZM289.01 181.624C294.68 185.538 300.216 189.547 305.768 193.561C310.409 196.94 315.008 200.37 319.56 203.874C321.764 204.492 324.153 205.191 327.111 206.156C329.141 206.818 331.385 207.621 333.378 208.392C332.016 207.331 330.578 206.294 329.062 205.294C327.878 204.513 326.649 203.753 325.355 203.01C322.916 201.606 320.341 200.129 317.73 198.623C313.924 196.427 305.525 191.394 294.72 184.997C292.881 183.91 290.974 182.783 289.01 181.624ZM109.272 114.657C109.277 114.608 109.276 114.554 109.273 114.497C109.273 114.549 109.271 114.602 109.272 114.657ZM143.71 35.0227C143.879 35.1124 144.049 35.2061 144.222 35.303C144.039 35.1877 143.866 35.0958 143.71 35.0227ZM137.834 11.6897C137.698 11.7996 137.565 11.921 137.434 12.051C137.587 11.9184 137.715 11.796 137.834 11.6897Z" fill="black"/>
<path d="M160.301 112.857C161.593 112.832 162.844 112.988 163.844 113.289C164.841 113.592 165.505 114.121 165.719 114.704C166.068 115.691 166.439 116.704 166.801 117.722C166.835 117.773 166.869 117.826 166.901 117.878C167.142 118.27 167.556 118.58 167.976 118.918C168.071 118.992 168.168 119.065 168.262 119.14C168.975 119.716 168.928 121.042 168.907 121.778C168.907 121.791 168.907 121.805 168.907 121.819C168.903 121.996 168.92 122.156 168.941 122.343C168.993 122.793 169.061 123.401 168.887 124.734C168.963 125.096 169.035 125.469 169.098 125.834C169.783 129.807 170.014 133.877 170.203 137.953C170.216 138.003 170.23 138.053 170.243 138.103C170.505 139.081 170.837 140.294 170.777 141.104C170.703 142.141 170.587 142.863 170.48 143.449C170.53 144.224 170.584 144.993 170.646 145.746C171.323 150.509 169.042 153.893 167.379 156.2C166.648 157.187 165.905 158.087 165.187 158.946C164.524 159.737 163.861 160.504 163.221 161.25C162.927 161.766 162.675 162.265 162.438 162.729C162.108 163.378 161.815 163.949 161.51 164.352C160.773 165.323 159.683 166.119 158.9 166.706C158.772 166.803 158.652 166.893 158.542 166.978C158.086 167.593 157.652 168.209 157.253 168.814C157.182 168.817 157.11 168.819 157.036 168.821C156.118 168.842 155.617 169.442 154.97 170.354C154.689 170.753 154.386 171.208 154.037 171.703C153.816 172.02 153.491 172.06 153.219 172.104C153.173 172.111 153.128 172.121 153.087 172.129C153.113 172.201 153.144 172.277 153.178 172.356C153.348 172.747 153.555 173.214 153.113 173.616C151.707 174.897 152.13 175.792 152.451 176.455C152.545 176.652 152.631 176.827 152.659 176.991C152.75 177.521 152.332 178.115 151.878 178.527C151.518 178.853 151.534 179.719 151.675 180.409C151.728 180.67 151.644 180.978 151.546 181.341C151.444 181.718 151.327 182.151 151.332 182.652C151.346 183.914 151.347 184.572 151.348 185.101C151.348 185.253 151.348 185.394 151.35 185.532C151.352 185.782 151.341 186.06 151.326 186.347C151.314 186.574 151.299 186.802 151.288 187.027C151.255 187.647 151.248 188.222 151.332 188.617C150.987 189.587 150.795 189.926 150.66 190.288C150.592 190.487 150.118 190.954 149.35 191.643C148.576 192.324 147.543 193.107 146.352 193.669C145.161 194.229 143.889 194.535 142.758 194.353C141.634 194.182 140.731 193.458 140.406 192.393C139.724 190.217 139.788 187.932 139.942 186.303C140.036 185.311 140.166 184.435 140.315 183.587C140.474 182.69 140.666 181.812 140.897 180.948C141.21 179.781 141.56 178.633 141.94 177.495C141.979 177.379 142.019 177.262 142.059 177.145C142.021 176.089 142.017 175.041 142.115 174.331C142.196 173.745 142.484 173.385 142.73 173.077C142.9 172.865 143.05 172.676 143.101 172.456C143.127 172.34 143.157 172.173 143.191 171.977C143.318 171.255 143.527 170.08 144.067 169.028C144.141 168.89 144.26 168.433 144.351 168.305C144.453 168.141 144.562 167.983 144.676 167.831C145.151 167.197 145.818 166.601 146.448 166.111C147.358 165.393 148.198 164.868 148.398 164.428C148.751 163.654 149.464 163.043 150.093 162.534C150.688 162.052 151.211 161.653 151.295 161.236C151.398 160.734 151.728 160.535 152.218 160.244C152.557 160.044 152.971 159.803 153.437 159.394C153.976 158.923 154.454 158.693 154.858 158.499C155.427 158.227 155.853 158.024 156.086 157.342C156.343 156.586 156.694 155.901 157.165 155.548C157.379 155.388 157.57 155.162 157.769 154.923C158.029 154.609 158.296 154.281 158.637 154.071C158.915 153.9 159.279 153.863 159.599 153.83C159.698 153.82 159.794 153.809 159.882 153.795C160.034 153.603 160.188 153.4 160.33 153.203C160.322 153.147 160.31 153.086 160.299 153.024C160.24 152.712 160.169 152.325 160.227 151.994C160.322 151.463 160.657 151.209 161 150.927C161.263 150.714 161.531 150.478 161.64 150.14C161.713 149.911 161.715 149.632 161.688 149.387C161.653 149.016 161.552 148.742 161.669 148.6C161.713 148.547 161.878 148.514 162.041 148.473L162.044 148.472C162.055 148.469 162.066 148.467 162.077 148.464C162.018 148.19 161.913 147.985 161.78 147.803C161.657 147.482 161.532 147.156 161.406 146.825C161.347 146.748 161.288 146.673 161.23 146.6C160.949 146.24 160.674 145.878 160.353 145.675C160.006 145.466 159.682 144.78 159.35 144.082C159.13 143.617 158.906 143.14 158.661 142.761C158.518 142.54 158.632 142.273 158.751 142.007C158.862 141.757 158.976 141.5 158.887 141.262C158.842 141.143 158.747 141.023 158.646 140.895C158.558 140.784 158.464 140.666 158.395 140.536C158.332 140.416 158.362 140.112 158.401 139.722C158.425 139.48 158.454 139.21 158.465 138.927C158.222 138.232 157.987 137.54 157.76 136.842C157.589 136.721 157.379 136.627 157.122 136.57C156.938 136.529 156.721 136.505 156.501 136.481C156.201 136.447 155.891 136.412 155.634 136.331C155.433 136.268 155.338 136.166 155.399 136.075C155.428 136.032 155.489 135.992 155.544 135.955C155.607 135.914 155.665 135.876 155.657 135.845C155.651 135.823 155.598 135.808 155.533 135.79C155.43 135.762 155.297 135.725 155.275 135.634C155.195 135.296 155.161 134.903 155.129 134.516C155.093 134.086 155.06 133.666 154.963 133.344C154.854 132.982 154.941 132.426 155.027 131.868C155.087 131.477 155.148 131.088 155.144 130.766C155.139 130.448 154.981 130.142 154.828 129.849C154.645 129.499 154.468 129.156 154.574 128.823C154.596 128.755 154.781 128.644 155.011 128.505C155.174 128.407 155.36 128.295 155.529 128.174C155.463 127.789 155.403 127.391 155.353 127.003C155.324 126.994 155.294 126.985 155.264 126.976L155.262 126.975C154.581 126.769 153.645 126.461 154.057 125.767C154.161 125.591 154.385 125.448 154.587 125.324C154.785 125.201 154.962 125.09 154.983 124.969C155.007 124.832 154.852 124.701 154.683 124.559C154.446 124.364 154.179 124.127 154.345 123.832C154.356 123.812 154.369 123.79 154.381 123.768C154.498 123.551 154.672 123.245 155.066 122.886C155.051 122.03 155.062 121.186 155.085 120.314C155.126 118.872 155.215 117.447 155.325 115.948C155.384 115.247 155.909 114.437 156.837 113.837C157.764 113.23 159.008 112.857 160.301 112.857Z" fill="black"/>
<path d="M165.362 7.71411C166.006 7.77906 166.998 7.7571 168.43 8.96118C169.291 9.70192 169.806 11.0095 169.83 11.8401C169.794 12.0329 169.782 12.2423 169.83 12.4583C169.882 12.6824 170.012 12.969 170.136 13.2112C170.321 13.5969 170.498 13.9627 170.42 14.2415C170.391 14.3482 170.235 14.4361 170.081 14.5295L170.078 14.5315C170.068 14.5377 170.057 14.5438 170.047 14.5501C170.209 15.1897 170.376 15.8055 170.547 16.4319C170.591 16.4849 170.634 16.5414 170.677 16.593C170.884 16.8464 171.085 17.0985 171.362 17.259C171.662 17.4304 171.85 17.8847 172.047 18.3616C172.176 18.6706 172.309 19.0018 172.48 19.2581C172.579 19.4101 172.419 19.5638 172.253 19.7219C172.098 19.8706 171.94 20.0183 171.984 20.1751C172.007 20.2535 172.077 20.3375 172.153 20.427C172.22 20.5058 172.292 20.5894 172.336 20.678C172.377 20.7616 172.292 20.9465 172.184 21.1858C172.117 21.3334 172.042 21.5015 171.98 21.678C172.096 22.1314 172.206 22.5925 172.309 23.0461C172.456 23.1382 172.647 23.2165 172.89 23.2766C173.064 23.3197 173.272 23.3555 173.484 23.3918C173.774 23.4413 174.074 23.4925 174.314 23.5667C174.501 23.6248 174.576 23.6971 174.5 23.7483C174.465 23.7721 174.398 23.7914 174.337 23.8088C174.267 23.8288 174.205 23.8466 174.207 23.8665C174.209 23.8809 174.259 23.8952 174.319 23.9124C174.416 23.9397 174.541 23.9751 174.547 24.0334C174.568 24.251 174.534 24.4999 174.5 24.7424C174.462 25.0123 174.425 25.2763 174.467 25.4846C174.513 25.7181 174.336 26.0553 174.159 26.3928C174.036 26.6285 173.913 26.8643 173.864 27.0647C173.817 27.2605 173.924 27.4637 174.027 27.6584C174.152 27.893 174.272 28.1156 174.114 28.3137C174.082 28.3536 173.883 28.4068 173.634 28.4729C173.457 28.5198 173.255 28.5737 173.069 28.634C173.074 28.8797 173.072 29.1231 173.062 29.3704C173.089 29.3784 173.117 29.3874 173.146 29.3958H173.147C173.788 29.5855 174.664 29.8362 174.154 30.2376C174.024 30.3389 173.782 30.4066 173.564 30.467C173.349 30.5264 173.157 30.5795 173.118 30.6516C173.074 30.7338 173.208 30.8248 173.355 30.927C173.56 31.0704 173.789 31.2293 173.583 31.3977C173.569 31.4091 173.553 31.4211 173.538 31.4338C173.391 31.5563 173.174 31.7342 172.733 31.9231C172.627 32.4457 172.501 32.9701 172.363 33.4866C172.134 34.3533 171.871 35.224 171.615 36.0823C171.489 36.4901 170.9 36.9157 169.944 37.2542C168.987 37.5963 167.749 37.8208 166.458 37.8909C165.167 37.9596 163.91 37.8637 162.924 37.592C161.939 37.3256 161.314 36.9141 161.155 36.4895C160.898 35.774 160.646 35.0766 160.414 34.3704C160.386 34.3345 160.359 34.2981 160.334 34.262C160.145 33.993 159.774 33.7397 159.403 33.4983C159.318 33.4421 159.232 33.3863 159.149 33.3293C159.1 33.2952 159.058 33.257 159.019 33.218C159.012 33.6351 159.009 34.0606 159.068 34.4026C158.683 35.145 158.262 35.8848 157.844 36.6301C157.627 37.0155 156.948 37.2512 155.929 37.2844C154.909 37.3165 153.636 37.1482 152.366 36.7991C151.096 36.4503 149.916 35.9443 149.059 35.3879C148.202 34.8314 147.744 34.2684 147.762 33.8127C147.799 32.9018 147.842 31.9869 147.932 31.0803C148.042 29.9731 148.222 28.8777 148.553 27.8167C148.784 27.0754 149.054 26.3358 149.357 25.6047C149.389 25.5295 149.42 25.4546 149.452 25.3801C149.356 24.6468 149.301 23.9126 149.365 23.4251C149.418 23.023 149.682 22.81 149.907 22.6301C150.062 22.5067 150.2 22.3953 150.241 22.2483C150.263 22.1696 150.286 22.0553 150.313 21.9202C150.42 21.3686 150.624 20.4137 151.267 19.7336C151.359 19.6352 151.468 19.5373 151.587 19.4407C151.834 19.2391 152.125 19.0425 152.408 18.8557C153.01 18.4569 153.575 18.1047 153.608 17.7981C153.666 17.2593 154.083 16.8115 154.458 16.4251C154.816 16.0553 155.137 15.7378 155.075 15.4114C155.003 15.0192 155.23 14.8525 155.569 14.6096C155.806 14.4413 156.094 14.2381 156.393 13.8948C156.738 13.4985 157.111 13.302 157.428 13.1418C157.877 12.9145 158.208 12.7614 158.318 12.1653C158.435 11.5357 158.724 10.9275 159.168 10.6145C159.192 10.5975 159.216 10.5809 159.24 10.5657C159.467 10.4236 159.684 10.22 159.918 10.0178C160.228 9.74974 160.572 9.48236 160.972 9.36939C161.302 9.27565 161.667 9.35939 161.98 9.44556C162.077 9.47294 162.173 9.49824 162.26 9.51978C162.484 9.39954 162.716 9.28365 162.967 9.17017C162.992 9.11495 163.017 9.05495 163.047 8.99243C163.197 8.67992 163.406 8.28739 163.876 8.0188C164.256 7.80969 164.705 7.69558 165.362 7.71411ZM159.32 27.5637C159.23 27.6265 159.13 27.6842 159.026 27.7336C158.703 27.8853 158.778 28.4502 158.964 28.9133C159.033 29.0916 158.975 29.2746 158.905 29.4983C158.835 29.7247 158.752 29.9918 158.792 30.3167C158.847 30.7624 158.885 31.0934 158.914 31.3586C158.92 31.3015 158.924 31.243 158.928 31.1799C158.943 30.8877 158.965 30.4812 159.342 29.6448C159.322 29.4015 159.309 29.1625 159.304 28.9211C159.294 28.4683 159.301 28.0158 159.32 27.5637ZM159.564 24.9739C158.755 25.4664 159.088 26.0176 159.396 26.4407C159.439 25.9513 159.496 25.4623 159.564 24.9739ZM159.787 23.5676C159.704 23.6032 159.706 23.6782 159.75 23.7766C159.762 23.7069 159.775 23.6373 159.787 23.5676ZM165.851 15.9934C165.792 16.004 165.699 16.042 165.6 16.094C165.614 16.0922 165.628 16.0901 165.642 16.0891C165.981 16.0164 165.911 15.9781 165.851 15.9934Z" fill="black"/>
<path d="M263.459 9.90257C263.875 9.9143 264.308 9.92435 265.011 10.0071C265.363 10.0545 265.79 10.1025 266.543 10.3157C266.909 10.4275 267.396 10.5708 268.152 10.9797C268.87 11.3879 270.048 12.128 271.008 13.8049C271.906 15.325 272.1 17.4473 271.75 18.843C271.49 19.9735 271.111 20.6602 270.76 21.2229C270.591 21.4897 270.387 21.7603 270.27 21.9045C270.157 22.0458 270.047 22.1732 269.941 22.2893C269.729 22.5212 269.532 22.7114 269.347 22.8782C269.151 23.0551 269.017 23.1634 268.894 23.261C268.769 23.3601 268.648 23.451 268.53 23.5364C268.292 23.7088 268.071 23.8545 267.909 23.9573C267.171 24.4223 266.623 24.7007 266.093 24.967C265.008 25.5031 264.104 25.8888 263.136 26.2942C261.272 27.0677 259.461 27.7516 257.652 28.4182C254.04 29.744 250.475 30.9732 246.904 32.1907C246.701 32.2713 246.493 32.354 246.282 32.4377C242.184 34.0627 237.155 36.0363 233.886 37.0266C229.746 38.2782 226.888 39.0726 224.566 39.7073C221.55 40.7289 218.535 41.7599 215.523 42.8039C213.554 43.4869 211.615 44.176 209.761 44.8996C209.713 44.9186 209.664 44.9372 209.616 44.9563C212.162 47.1822 216.093 49.031 220.071 50.4651C223.999 51.9368 228.149 53.0732 232.607 54.9944C234.449 55.8481 236.414 56.7223 238.443 58.7854C239.887 60.3084 241.399 61.7646 242.969 63.1545C244.698 64.5331 246.427 65.7533 248.055 66.8274C250.347 68.3396 252.456 69.5784 254.174 70.6399C258.303 73.213 263.062 76.0961 266.771 78.2356C267.381 78.59 267.962 78.9262 268.495 79.2356C269.585 79.7842 270.677 80.3309 271.863 80.9973C272.434 81.3208 273.088 81.7042 273.788 82.2024C274.182 82.4896 274.542 82.7565 275.053 83.2551C275.493 83.7418 276.264 84.3526 276.821 86.1975C277.377 88.14 277.249 90.2498 276.808 91.8791C276.659 92.226 276.495 92.5536 276.322 92.8655C275.377 94.5764 274.108 96.1949 273.413 97.2629C273.688 97.6217 274.151 98.1393 274.718 98.6702C276.257 100.13 278.463 101.874 281.046 103.99C282.714 105.355 283.422 106.268 283.997 107.013C284.163 107.23 284.321 107.435 284.491 107.635C285.067 108.315 285.908 108.761 286.881 109.277C288.158 109.96 289.69 110.787 291.212 112.477C292.418 113.816 293.47 114.914 294.442 115.86C297.516 118.872 299.479 120.536 301.01 122.696C301.59 123.547 302.101 124.507 302.362 125.761C302.401 125.954 302.435 126.158 302.46 126.366C302.514 126.784 302.546 127.22 302.545 127.674C302.544 127.901 302.535 128.134 302.515 128.37C302.492 128.648 302.451 128.966 302.391 129.274C302.185 130.375 301.56 132.248 299.777 133.569C298.015 134.852 296.222 134.909 295.087 134.808C293.942 134.695 293.045 134.389 292.407 134.124C290.059 133.206 286.583 131.534 284.002 130.239C283.012 129.748 281.802 128.941 280.428 127.972C278.988 126.957 277.388 125.781 275.607 124.595C271.133 121.6 268.859 119.947 267.014 118.647C266.483 118.269 265.991 117.919 265.515 117.583C265.121 117.305 264.703 117.006 264.27 116.694C263.882 119.86 263.954 123.233 264.499 126.153C264.544 126.382 264.587 126.607 264.625 126.816L264.575 126.656C265.14 128.988 265.448 131.442 265.259 133.462C265.052 135.727 264.257 137.259 263.018 137.708C261.78 138.156 260.193 137.513 258.567 135.914C257.118 134.48 255.733 132.386 254.713 129.855C254.705 129.828 254.679 129.749 254.672 129.721C254.545 129.366 254.43 129.001 254.331 128.641C252.632 121.925 252.46 115.486 254.122 108.614C254.444 107.373 254.849 106.125 255.367 104.88C255.95 103.695 257.715 102.066 259.009 101.796C260.685 101.417 261.528 101.718 262.138 101.863C262.491 101.967 262.561 101.997 262.715 102.053C262.852 102.105 262.978 102.156 263.095 102.207C263.33 102.309 263.534 102.41 263.727 102.511C263.915 102.61 264.009 102.661 264.144 102.737C264.396 102.879 264.643 103.028 264.88 103.177C265.071 103.296 265.263 103.421 265.457 103.549C265.868 103.822 266.19 104.044 266.539 104.289C266.896 104.542 267.222 104.778 267.541 105.01C268.691 105.853 269.755 106.667 270.824 107.493C268.774 105.43 266.876 103.419 265.568 101.358C265.089 100.589 264.577 99.5721 264.369 98.1828C264.145 96.8035 264.429 95.1616 264.983 94.0051C266.461 91.1544 267.407 90.0522 267.659 89.2141C267.305 89.0109 266.925 88.8275 266.603 88.7092C265.092 88.1509 263.796 87.3579 261.911 86.1789C260.587 85.3511 258.949 84.3342 256.676 82.9895C254.044 81.4291 252.286 80.1304 250.818 79.011C248.748 77.4222 247.231 76.1999 244.695 74.7112C241.877 73.0533 239.086 71.0181 237.16 69.1145C236.286 68.2549 235.252 67.2937 234.202 66.26C233.606 65.6734 233.01 65.0689 232.424 64.4397C232.157 64.1394 231.576 63.6833 230.933 63.2483C229.989 62.6067 229.075 61.9451 228.238 61.3684C227.98 61.1904 227.709 61.0143 227.463 60.8586C226.421 60.4721 225.36 60.1118 224.262 59.7522C224.075 59.7327 223.875 59.7145 223.666 59.6946C222.613 59.593 221.315 59.4756 219.741 59.1018C217.248 58.5067 215.118 57.6045 212.888 56.4993C211.151 55.6296 209.35 54.6602 207.238 53.4065C205.803 52.5489 204.137 51.4738 202.604 50.0608C201.267 48.8379 200.059 47.3348 199.248 45.7952C199.032 45.3741 198.735 44.6502 198.699 43.7317C198.654 42.8138 198.922 41.9251 199.212 41.3577C199.804 40.2402 200.287 39.891 200.64 39.5608C201.358 38.9611 201.801 38.73 202.228 38.4963C202.97 38.1105 203.596 37.9847 204.204 37.8694C204.206 37.8691 204.209 37.8686 204.212 37.8684C204.253 37.8609 204.294 37.8536 204.336 37.8459C207.051 36.4882 209.63 35.4009 212.249 34.2864C213.482 33.7651 214.681 33.2578 215.915 32.7375C216.234 32.5712 216.557 32.4039 216.876 32.2395C218.441 31.433 219.946 30.6579 220.898 30.008C221.487 29.603 222.666 29.0191 224.119 28.3489C224.105 28.3431 224.091 28.3379 224.077 28.3323C223.68 28.1683 223.327 28.0212 222.849 28.0452C222.315 28.0715 221.68 28.2925 221.011 28.5305C220.078 28.8635 219.018 29.2403 217.893 29.1887C217.817 29.1852 217.734 29.1807 217.649 29.177C216.85 29.1403 215.647 29.0912 214.42 28.8244C210.994 29.2202 207.514 29.6229 204.242 30.1282C203.556 30.2347 202.848 30.355 202.23 30.4739C201.903 30.538 201.622 30.5963 201.365 30.6555C201.138 30.7024 200.884 30.7853 201 30.718C197.014 32.2882 194.044 33.4565 191.996 35.3899C191.82 35.5566 191.649 35.7256 191.479 35.8996C189.89 37.5215 188.249 39.1882 186.679 40.4192C185.098 41.6576 183.744 42.2775 182.461 42.1702C181.162 42.024 180.173 40.2333 180.205 37.6838C180.223 35.1295 181.323 31.8655 183.541 29.0774C183.776 28.781 184.016 28.4895 184.265 28.1994C187.929 23.9546 192.783 21.793 196.076 20.0793C196.399 19.9219 196.72 19.7877 196.975 19.6868C197.212 19.5927 197.445 19.5074 197.678 19.426C197.978 19.3028 198.326 19.1754 198.601 19.0754C200.746 18.3207 202.332 17.6644 204.04 16.9748C204.442 16.8164 204.796 16.6683 205.194 16.5159C208.132 15.3614 213.912 14.7523 217.062 14.4543C217.12 14.4485 217.178 14.4426 217.235 14.4368C217.987 14.3641 218.693 14.2753 219.517 14.1711C221.483 13.9241 224.154 13.5871 229.724 13.2688C231.342 13.0464 232.95 12.835 234.544 12.635C240.094 11.9388 245.621 11.3217 251.182 10.7512C253.388 10.5253 255.585 10.3141 257.845 10.1409C258.99 10.0543 260.128 9.97658 261.377 9.92796C262.012 9.90514 262.636 9.88637 263.459 9.90257ZM291.611 127.293C291.605 127.317 291.6 127.336 291.596 127.35C291.643 127.588 291.689 127.49 291.636 127.314C291.632 127.296 291.625 127.278 291.62 127.258C291.617 127.27 291.614 127.282 291.611 127.293ZM295.498 124.251C295.404 124.235 295.249 124.223 295.014 124.246C295.171 124.28 295.309 124.303 295.425 124.311C295.599 124.326 295.678 124.288 295.498 124.251ZM258.319 112.629C258.289 112.619 258.298 112.641 258.487 112.73C258.549 112.755 258.582 112.775 258.663 112.806C258.509 112.719 258.356 112.636 258.319 112.629ZM263.426 24.8586C263.526 24.8625 263.461 24.856 263.346 24.8508C263.379 24.8534 263.404 24.8562 263.426 24.8586ZM259.846 11.717C259.809 11.6366 259.857 11.4165 259.417 11.7717C259.402 11.7841 259.388 11.7981 259.372 11.8118C259.448 11.813 259.525 11.8262 259.587 11.845C259.682 11.8722 259.763 11.8986 259.809 11.8694C259.838 11.8503 259.856 11.7815 259.846 11.717Z" fill="black"/>
<path d="M158.294 316.723C160.169 314.244 162.193 313.401 163.273 314.1C164.369 314.8 164.79 316.44 164.937 319.021C165.065 321.601 164.826 325.055 164.261 328.676C163.337 334.586 162.733 340.692 162.232 346.789C162.221 347.115 162.208 347.452 162.197 347.761C162.109 350.141 162.234 352.431 162.382 354.643C162.415 355.156 162.446 355.708 162.481 356.203C162.53 356.962 162.532 357.868 162.502 358.884C162.379 363.443 161.09 369.385 160.174 372.805C160.154 372.883 160.134 372.962 160.113 373.04C159.848 374.054 159.611 375.009 159.327 376.12C158.679 378.745 157.605 382.348 155.532 389.131C155.073 391.131 154.666 393.084 154.348 394.992C154.063 396.7 153.855 398.369 153.744 400.002C152.447 414.673 146.537 423.774 144.457 435.008C142.24 445.07 137.272 455.721 130.261 463.39C130.068 463.632 129.88 463.866 129.683 464.111C128.252 465.889 126.791 467.662 125.866 469.152C124.148 471.905 122.601 475.235 121.433 477.606C119.029 482.545 117.563 486.091 116.401 488.961C115.967 490.214 115.55 491.48 115.179 492.71C114.269 496.211 111.359 498.844 109.27 500.074C107.094 501.409 105.173 502.202 103.288 503.013C99.5703 504.569 96.0495 505.987 92.5919 507.598C85.6779 510.791 79.0672 514.593 72.712 518.919C71.6511 519.639 70.6222 520.406 69.9337 521.069C69.57 521.412 69.3474 521.716 69.3185 521.771C69.2992 521.833 69.2944 521.63 69.2013 522.447C69.1152 523.183 69.081 523.91 69.1134 524.494C69.1212 525.061 69.3269 525.551 69.1817 525.249C69.3324 525.663 70.4959 526.356 72.4728 526.575C76.7604 527.059 82.1041 526.202 87.3146 525.43C90.3691 524.851 93.3255 524.253 96.1856 523.81C96.2887 523.794 96.3919 523.778 96.4942 523.763C97.5532 523.561 99.8144 521.534 101.299 519.76C105.223 515.249 109.453 508.683 113.252 503.937C113.877 503.151 114.492 502.406 115.083 501.726C116.269 500.256 117.54 498.754 119.358 497.289C122.596 494.766 125.935 493.777 128.717 492.85C129.032 492.809 129.344 492.771 129.657 492.735C132.409 492.403 135.552 491.721 137.466 489.869C138.493 488.848 139.475 487.665 140.343 486.21C141.726 483.938 142.714 480.902 143.654 476.61C144.271 473.843 144.855 472.37 145.353 471.205C145.498 470.864 145.637 470.537 145.767 470.207C146.098 469.367 146.259 468.449 146.412 467.401C146.461 467.052 146.508 466.687 146.559 466.304C146.812 464.386 147.142 462.086 148.349 459.298C152.224 450.457 153.138 446.349 153.775 443.172C153.968 442.243 154.146 441.405 154.388 440.567C155.17 437.849 156.863 434.199 158.307 431.517C159.446 429.387 161.06 424.86 162.225 421.388C162.368 420.959 162.544 420.488 162.746 419.983C163.149 418.969 163.64 417.81 164.168 416.494C164.976 414.483 165.857 412.131 166.583 409.54C168.39 402.988 169.053 399.392 169.673 396.489C169.845 395.656 170.004 394.878 170.161 394.099C170.669 391.628 171.309 388.521 172.246 385.181C172.383 384.696 172.531 384.199 172.684 383.708C173.68 380.475 174.694 377.302 175.488 374.782C178.334 367.577 181.763 360.125 186.287 353.416C187.115 352.172 188.008 351.009 188.92 349.957C189.017 349.804 189.362 349.398 189.484 349.263C191.478 347.38 194.807 346.054 196.72 346.073C197.032 346.056 197.333 346.052 197.621 346.058C200.884 346.18 202.526 347.228 202.824 348.491C203.127 349.79 201.723 351.311 199.587 352.908C199.404 353.05 199.218 353.192 199.033 353.334C197.809 354.257 197.438 354.898 196.603 356.095L197.069 355.521C196.477 356.673 195.827 357.839 195.146 358.993C191.327 365.367 188.617 372.273 186.111 379.563C185.217 382.161 184.363 384.76 183.508 387.406C181.717 393.174 180.44 400.119 178.455 406.805C176.756 412.675 174.665 418.489 172.143 424.111C171.823 424.823 171.503 425.545 171.186 426.26C170.909 426.884 170.635 427.503 170.361 428.128C168.476 433.359 166.683 438.608 165.373 442.278C164.29 445.308 163.309 447.44 162.478 449.272C161.905 450.534 161.406 451.649 161.005 452.82C160.791 453.445 160.508 454.308 160.173 455.346C159.035 458.873 157.302 464.465 155.636 469.956C155.315 471.007 155.008 472.075 154.705 473.149C153.89 475.973 153.029 479.493 151.731 483.181C149.994 488.559 146.331 493.278 144.525 495.241C144.278 495.531 144.024 495.816 143.755 496.103C139.706 500.266 134.491 501.107 131.054 502.092C128.016 502.864 125.922 503.727 124.996 504.597C124.792 504.778 124.576 505.002 124.419 505.198C123.29 506.603 122.054 507.934 120.249 510.105C118.989 511.626 117.477 513.589 115.46 516.417C113.124 519.689 111.234 521.955 109.483 523.828C106.908 526.417 105.241 528.507 100.858 531.078C99.8487 531.607 98.6538 532.05 97.3351 532.237C94.1419 532.783 90.869 533.41 88.1026 533.72C86.5321 533.897 84.7275 534.168 82.8077 534.411C80.2749 534.731 77.5161 535.007 74.8556 534.868C72.6545 534.751 70.7417 534.297 69.0226 533.601C68.4927 533.385 67.9729 533.142 67.4689 532.871C65.8056 532.212 63.9753 530.949 62.8634 529.098C62.6194 528.698 62.4428 528.313 62.3038 527.948C62.1109 527.552 61.9515 527.152 61.8175 526.754C61.2836 525.136 61.0688 523.47 61.1056 521.582C61.1098 521.221 61.1236 520.657 61.2648 519.928C62.9656 514.43 65.8361 513.732 67.9366 512.078C68.4661 511.741 68.9938 511.412 69.5216 511.088C71.6312 509.792 73.8397 508.489 76.339 506.902C78.0325 505.826 79.9646 504.567 81.9064 503.37C84.7915 501.586 87.7116 499.947 89.8468 499.031C90.6581 498.682 91.3806 498.52 92.128 498.35C92.1313 498.349 92.1346 498.349 92.1378 498.349C92.1882 498.337 92.239 498.325 92.2892 498.314C97.0784 495.88 103.305 493.548 105.415 491.278C105.542 491.085 105.619 490.916 105.666 490.766C105.729 490.562 105.745 490.386 105.752 490.156C106.061 488.465 106.368 486.943 106.518 485.822C106.739 484.139 107.885 480.119 109.36 475.938C110.322 473.196 111.428 470.374 112.406 468.027C112.978 466.653 113.792 465.46 114.692 464.244C115.051 463.76 115.424 463.272 115.805 462.771C116.362 462.028 116.924 461.307 117.458 460.556C117.918 459.908 118.383 459.21 118.862 458.503C119.284 457.881 119.724 457.244 120.186 456.617C120.617 456.028 121.699 454.879 122.942 453.426C123.71 452.526 124.54 451.498 125.336 450.374C127.214 447.254 128.668 443.945 129.81 440.421C129.932 439.635 129.955 438.954 129.886 438.367C129.832 437.96 129.727 437.592 129.618 437.212C129.473 436.686 129.308 436.183 129.247 435.497C129.202 434.953 129.269 434.392 129.441 434.018C129.52 433.846 129.62 433.721 129.71 433.608C129.813 433.479 129.903 433.37 129.938 433.213C129.962 433.1 129.942 432.971 129.916 432.813C129.879 432.58 129.831 432.283 129.899 431.869C129.906 431.827 129.914 431.784 129.923 431.74C130.334 429.761 130.897 427.515 131.498 425.331C132.166 422.897 132.889 420.519 133.424 418.639C134.017 416.522 135.183 413.602 136.277 410.898C137.038 409.011 137.719 407.249 138.141 405.783C138.56 404.342 138.74 402.858 138.821 401.394C138.866 400.602 138.883 399.832 138.904 399.061C138.952 397.78 139.078 396.58 139.299 395.517C139.38 395.127 139.642 394.666 139.978 394.101C140.215 393.7 140.49 393.247 140.766 392.731C141.162 390.352 141.668 388.05 142.217 385.811C142.209 385.726 142.201 385.638 142.193 385.55L142.192 385.546C142.011 383.562 141.816 380.84 143.205 377.615C143.558 376.795 143.932 376.327 144.27 375.901C144.601 375.484 144.897 375.114 145.093 374.51C145.314 373.827 145.392 372.976 145.468 372.054C145.574 370.762 145.675 369.337 146.175 368.005C146.209 367.915 146.246 367.817 146.283 367.715C146.642 366.746 147.151 365.324 147.84 363.929C148.257 361.832 148.601 359.738 148.859 357.642C149.156 355.157 149.464 352.764 149.802 350.301C150.896 342.417 152.153 334.588 153.991 326.651C154.89 322.808 156.416 319.16 158.294 316.723Z" fill="black"/>
<path d="M361.07 306.081C361.172 304.766 366.203 303.344 375.437 302.036C377.65 301.723 380.043 301.425 382.6 301.143C390.664 300.252 400.271 299.533 410.202 299.095C430.273 298.232 450.306 297.351 470.526 297.001C471.82 296.983 473.066 296.968 474.329 296.96C475.473 296.938 476.599 296.92 477.756 296.912C482.037 296.899 486.099 296.837 490.667 297.288C492.958 297.546 495.481 297.91 498.331 299.118C501.24 300.325 503.657 302.468 505.114 303.806C505.233 303.915 505.352 304.023 505.469 304.131C506.69 305.244 507.905 306.363 509.113 307.492C515.09 313.301 523.842 321.47 531.419 333.255C535.792 340.628 539.205 348.825 540.738 355.197C540.81 355.48 540.882 355.767 540.951 356.052C541.838 359.739 542.428 363.216 542.953 367.124C543.686 372.504 544.206 378.654 545.374 387.543C545.445 388.092 545.525 388.811 545.355 389.929C545.085 391.026 545.037 392.582 542.496 394.796C540.171 396.712 537.083 396.474 536.733 396.388C535.928 396.283 535.386 396.108 534.959 395.953C534.047 395.595 533.895 395.465 533.608 395.308C533.355 395.16 533.146 395.021 532.983 394.908C532.728 394.731 532.522 394.573 532.331 394.421C532.167 394.29 532.037 394.182 531.899 394.064C531.385 393.624 531.019 393.28 530.631 392.914C529.892 392.214 529.225 391.554 528.538 390.877C528.326 390.667 528.112 390.457 527.898 390.246C532.179 401.046 536.879 411.874 541.532 422.685C548.801 439.826 557.482 456.327 564.757 474.409C570.992 491.859 577.914 505.902 577.97 529.342C577.693 530.365 577.466 531.417 576.429 533.145C575.866 533.985 575.073 535.23 572.983 536.31C570.867 537.467 567.787 537.165 566.404 536.474C562.336 534.473 561.497 532.516 560.255 530.921C559.15 529.286 558.336 527.782 557.569 526.291C556.058 523.317 554.824 520.458 553.624 517.589C551.25 511.873 549.105 506.225 546.949 500.563C541.506 485.742 538.93 470.997 535.142 457.121C534.799 455.889 534.46 454.707 534.097 453.493C533.811 452.574 533.506 451.623 533.195 450.689C532.864 449.693 532.518 448.692 532.158 447.694C531.361 456.239 532.389 465.38 532.628 472.458C532.915 478.58 533.074 484.311 532.539 489.79C531.391 501.188 530.172 510.024 529.041 517.676C528.004 525.656 526.525 534.188 525.774 541.432C525.287 545.599 524.935 549.765 519.681 553.979C518.93 554.474 517.556 555.089 515.797 554.783C514.18 554.494 513.196 553.568 512.815 553.164C512.584 552.92 512.388 552.664 512.267 552.487C512.151 552.32 512.055 552.165 511.972 552.019C511.797 551.708 511.714 551.522 511.628 551.326C511.317 550.579 511.228 550.177 511.118 549.76C510.926 548.975 510.817 548.338 510.715 547.731C510.513 546.495 510.368 545.379 510.221 544.244C509.935 541.985 509.679 539.791 509.409 537.574C508.878 533.184 508.313 528.783 507.696 524.412C505.741 511.271 502.636 498.002 499.858 484.535C497.843 491.294 495.688 498.095 493.311 504.707C489.95 514.201 485.102 524.083 477.156 531.353C475.91 532.528 474.637 533.627 473.398 534.674C464.634 542.184 455.804 550.246 449.28 559.07C448.695 559.889 448.295 560.445 447.602 561.291C447.434 561.491 447.337 561.607 447.103 561.867C446.881 562.111 446.658 562.343 446.407 562.573C446.343 562.632 446.282 562.687 446.209 562.749C446.096 562.846 445.977 562.943 445.843 563.042C445.574 563.241 445.26 563.453 444.789 563.663C444.663 563.757 442.492 564.612 440.641 563.409C438.964 562.257 438.826 561.187 438.628 560.509C438.347 558.586 438.623 558.314 438.682 557.688C438.806 557.041 438.891 556.711 439.021 556.204C439.253 555.32 439.519 554.452 439.767 553.676C440.823 550.408 441.94 547.416 443.08 544.354C447.314 532.783 452.609 520.682 455.021 509.984C455.756 504.467 456.317 498.464 457.006 492.652C457.521 487.74 458.061 482.945 458.634 478.272C459.291 472.901 459.841 467.727 460.199 462.792C461.187 449.904 460.568 438.656 458.45 429.865C458.347 429.424 458.24 428.983 458.128 428.543C455.04 415.537 448.82 403.051 444.479 388.66C442.779 381.714 440.047 375.726 436.459 371.072C435.27 370.216 434.091 369.37 432.918 368.544C427.706 364.851 422.561 361.55 417.65 358.826C409.588 354.341 402.662 350.73 398.271 348.632C395.494 347.305 392.627 345.937 389.706 344.557C388.651 344.159 387.594 343.763 386.533 343.369C385.573 342.946 384.598 342.514 383.616 342.074C380.578 340.666 377.433 339.468 373.654 337.275C373.652 337.274 373.65 337.273 373.648 337.273C373.613 337.259 373.567 337.243 373.6 337.253C373.607 337.256 373.619 337.258 373.635 337.263C373.293 337.065 372.945 336.86 372.593 336.644C372.458 336.552 372.328 336.499 371.895 336.116C371.678 335.873 371.312 335.704 370.761 334.475C370.514 333.868 370.22 332.697 370.692 331.341C371.197 329.938 372.161 329.217 372.836 328.862C374.219 328.219 374.695 328.384 375.059 328.357C375.405 328.37 375.579 328.403 375.721 328.428C375.976 328.474 376.163 328.531 376.171 328.533C376.334 328.58 376.433 328.614 376.533 328.649C376.724 328.717 376.782 328.743 376.911 328.793C377.135 328.882 377.3 328.951 377.496 329.034C377.549 329.056 377.605 329.08 377.663 329.105C377.522 329 377.452 328.957 377.392 328.918C377.551 329.013 377.715 329.106 377.88 329.199C377.931 329.221 377.981 329.243 378.03 329.264C378.193 329.335 378.368 329.411 378.555 329.494C379.22 329.788 379.96 330.121 380.623 330.424C382.017 331.059 383.433 331.715 384.893 332.397C385.177 332.53 385.463 332.665 385.75 332.8C387.634 333.554 389.547 334.288 391.352 335.016C404.006 339.89 415.026 344.999 421.19 348.096C422.663 348.818 424.079 349.553 425.473 350.319C430.992 353.434 436.537 356.87 442.351 363.578C445.03 365.394 447.764 367.256 450.558 369.12C450.764 369.252 450.967 369.383 451.168 369.511C459.038 374.505 463.166 377.246 466.509 379.641C467.522 380.362 468.468 381.045 469.432 381.745C471.527 383.284 473.799 384.789 476.203 386.631C475.797 385.875 475.399 385.131 475.005 384.404C473.594 381.796 471.909 378.548 470.006 374.876C468.915 372.772 467.746 370.544 466.478 368.211C462.833 361.706 458.591 353.578 452.569 348.117C451.918 347.539 451.23 346.977 450.495 346.386C433.243 335.906 420.812 330.82 412.31 326.441C411.953 326.267 411.597 326.094 411.242 325.921C409.086 324.869 407.036 323.94 404.943 323.054C403.743 322.545 402.508 322.044 401.146 321.488C400.455 321.204 399.761 320.925 398.887 320.52C398.439 320.303 397.979 320.1 397.204 319.599C396.827 319.334 396.315 319.038 395.529 318.115C395.155 317.651 394.641 316.95 394.308 315.78C393.973 314.655 394.048 313.194 394.399 312.207C394.658 311.329 395.063 310.481 395.567 309.692C391.082 309.669 386.812 309.586 382.898 309.437C380.327 309.339 377.92 309.213 375.69 309.06C366.385 308.424 361.27 307.349 361.07 306.081ZM571.442 522.864C571.81 523.212 572.17 523.508 572.456 523.668C572.612 523.754 572.746 523.792 572.754 523.716C572.75 523.643 572.646 523.425 572.022 523.089C571.861 523.014 571.666 522.938 571.442 522.864ZM452.099 381.724C452.572 383.201 453.011 384.741 453.407 386.344C453.706 387.533 454.099 388.809 454.55 390.143C459.061 402.512 462.811 411.861 464.953 419.922C465.578 422.171 466.124 424.328 466.61 426.443C468.573 435.199 469.18 443.162 469.099 453.774C468.998 462.485 468.097 471.291 467.054 479.432C466.343 484.968 465.701 490.242 465.106 494.997C464.477 499.86 463.985 505.213 463.192 511.199C463.1 511.834 462.94 512.627 462.812 513.189C460.556 522.114 457.236 530.185 454.264 537.839C453.277 540.324 452.326 542.621 451.431 544.768C454.416 541.307 458.147 537.309 462.955 532.822C464.64 531.251 466.315 529.749 467.983 528.306C474.565 522.865 478.87 517.141 482.358 509.737C483.525 507.279 484.584 504.713 485.578 501.992C487.486 496.756 489.343 491.208 491.155 485.08C493.079 478.677 494.814 471.542 496.888 463.912C496.907 463.849 496.932 463.778 496.963 463.691C496.993 463.611 497.037 463.49 497.134 463.288C497.204 463.149 497.235 463.07 497.423 462.781C497.647 462.477 497.879 462.066 498.766 461.519C499.358 461.159 500.361 460.869 501.316 461.008C501.769 461.061 502.28 461.244 502.514 461.36C502.766 461.479 502.981 461.611 503.162 461.742C503.524 462.006 503.756 462.256 503.927 462.464C504.013 462.568 504.082 462.665 504.142 462.752C504.183 462.813 504.211 462.856 504.241 462.904C504.678 463.673 504.628 463.739 504.709 463.945C504.791 464.216 504.816 464.34 504.847 464.473C504.898 464.696 504.933 464.877 504.963 465.031C505.025 465.351 505.08 465.648 505.132 465.931C505.238 466.511 505.338 467.061 505.442 467.623C505.648 468.737 505.86 469.843 506.076 470.947C506.509 473.159 506.95 475.309 507.397 477.438C508.673 483.456 509.971 489.067 510.885 493.536C511.47 496.374 511.845 498.852 512.207 501.303C512.208 501.314 512.209 501.326 512.21 501.336C512.235 501.503 512.261 501.67 512.285 501.836C513.821 508.851 515.339 515.864 516.484 523.11C516.818 525.257 517.138 527.413 517.45 529.568C518.016 524.395 518.521 519.755 518.759 516.319C519.104 511.625 520.269 500.907 521.113 488.838C521.235 487.075 521.268 485.224 521.242 483.326C521.128 476.682 520.403 469.555 519.933 462.893C519.382 463.47 518.621 464.029 517.547 464.468C516.944 464.693 516.34 464.81 515.801 464.847C515.348 464.878 514.959 464.859 514.605 464.817C513.909 464.734 513.349 464.545 513.001 464.405C512.398 464.163 511.991 463.904 511.729 463.728C511.254 463.401 510.996 463.159 510.803 462.98C510.592 462.78 510.473 462.655 510.341 462.512C509.457 461.517 509.123 460.972 508.682 460.33C508.4 459.907 508.138 459.484 507.902 459.081C505.064 453.908 503.856 450.285 501.961 446.427C500.99 444.378 499.64 441.607 497.931 438.302C497.345 437.167 496.724 435.986 496.052 434.724C491.123 425.617 484.529 412.903 476.917 401.214C473.549 396.128 467.998 392.037 461.966 388.071C458.907 386.059 455.562 383.944 452.099 381.724ZM517.654 455.598C517.7 455.644 517.764 455.683 517.608 455.537C517.589 455.526 517.576 455.512 517.56 455.498C517.596 455.537 517.627 455.572 517.654 455.598ZM412.713 314.246C413.906 314.803 415.092 315.377 416.263 315.965C424.426 320.064 432.578 324.168 440.716 328.468C446.18 331.464 451.157 333.75 457.235 338.265C468.316 347.487 473.252 359.315 479.173 370.159C481.28 374.275 483.38 378.426 485.468 382.575C486.524 384.674 487.59 386.802 488.641 388.904C497.59 405.969 506.356 423.058 512.33 435.269C513.644 437.957 514.842 440.469 515.935 442.833C517.316 445.822 518.505 448.509 519.582 451.173C519.711 447.914 520.091 444.649 520.795 441.288C521.264 439.083 521.881 436.832 522.733 434.541C523.144 433.438 523.604 432.389 524.303 431.199C524.671 430.594 525.05 429.973 525.828 429.126C526.24 428.709 526.69 428.204 527.801 427.595C526.258 424.103 524.649 420.544 523.098 417.085C520.111 410.428 517.273 403.977 515.173 398.341C514.744 397.191 514.369 395.719 513.906 393.857C513.577 392.536 513.204 391.018 512.75 389.288C511.62 386.29 510.527 383.294 509.513 380.084C509.02 378.5 508.531 376.863 508.122 374.959C507.933 374.004 507.705 372.995 507.672 371.374C507.67 371.081 507.678 370.773 507.706 370.438C506.779 368.155 505.841 365.844 504.889 363.529C502.543 357.912 500.045 352.285 497.002 347.603C493.272 342.767 489.526 337.984 485.676 333.343C483.741 331.015 481.765 328.704 479.771 326.557C478.778 325.491 477.76 324.444 476.782 323.543C476.29 323.09 475.808 322.676 475.389 322.359C475.178 322.199 474.989 322.071 474.866 321.998C474.859 321.994 474.852 321.991 474.846 321.988C467.524 319.665 459.786 318.218 452.001 317.372C448.917 317.04 445.826 316.805 442.71 316.659C434.795 316.265 427.265 315.155 419.979 314.567C417.505 314.371 415.028 314.224 412.713 314.246ZM527.305 437.485C527.286 437.459 527.267 437.452 527.312 437.493C527.309 437.49 527.308 437.487 527.305 437.485ZM469.644 308.732C472.605 309.456 475.55 310.293 478.469 311.268C480.618 312.051 481.387 312.781 482.282 313.431C483.12 314.087 483.806 314.707 484.467 315.331C485.765 316.564 486.915 317.79 488.014 319.005C490.209 321.439 492.243 323.896 494.224 326.351C498.189 331.279 501.949 336.237 505.684 341.238C505.735 341.304 505.879 341.511 505.926 341.582C509.705 347.588 512.182 353.612 514.59 359.599C515.134 360.983 515.658 362.363 516.167 363.734C517.338 363.968 517.912 364.292 518.531 364.616C519.893 365.38 521.147 366.189 522.348 367.023C522.608 367.17 522.877 367.325 523.143 367.481C523.148 367.483 523.152 367.486 523.156 367.489C525.041 368.59 527.042 369.886 529.153 371.426C528.929 370.001 528.661 368.509 528.357 366.988C527.515 362.744 526.357 358.408 525.004 354.061C524.913 353.766 524.813 353.448 524.704 353.114C523.698 349.965 521.764 345.335 519.52 340.644C519.463 340.543 519.404 340.443 519.346 340.342C513.624 331.308 504.593 322.036 496.218 313.372C493.58 310.683 493.152 310.461 489.934 309.757C484.261 308.787 477.269 308.809 470.579 308.734C470.267 308.733 469.956 308.733 469.644 308.732Z" fill="black"/>
</svg>
