<svg width="532" height="392" viewBox="0 0 532 392" fill="none" xmlns="http://www.w3.org/2000/svg">
<path d="M377.855 10.5664C378.583 10.5635 379.299 10.5708 380.01 10.5879C385.598 10.7319 390.425 11.3169 395.149 11.9356C395.173 11.9389 395.196 11.9419 395.22 11.9453C395.58 11.9933 395.947 12.0432 396.303 12.0918C401.924 12.673 407.469 13.3561 413.039 14.0674C431.659 16.4844 450.237 18.7885 468.927 21.917C476.731 23.5984 483.995 23.4874 492.925 28.1211C500.112 32.5372 507.709 37.2829 513.809 44.21C516.173 46.8401 518.276 49.7529 520.07 52.7627C520.19 52.9628 520.315 53.1661 520.442 53.3701C522.386 56.9836 526.204 59.8887 526.697 67.3457C526.559 70.252 525.845 72.002 525.497 73.5557C525.338 74.1353 525.242 74.6665 525.187 75.0967C525.442 75.3735 525.693 75.6999 525.916 76.0859C527.125 78.5902 526.658 79.4569 526.667 80.3164C526.578 81.1283 526.442 81.736 526.307 82.3057C524.666 88.9174 522.883 94.4218 521.462 99.0068C520.529 101.976 519.157 106.101 517.383 111.066C517.056 112.025 516.936 112.914 516.963 114.658C516.962 115.226 516.989 115.956 516.977 116.801C518.318 123.02 519.483 129.245 520.548 135.428C522.041 143.445 521.942 151.857 520.789 159.384C520.032 164.214 519.6 168.688 518.417 173.837C518.189 174.731 517.944 175.656 517.437 176.861C517.166 177.475 516.863 178.153 516.174 179.085C515.513 179.933 514.155 181.544 511.44 182.036C501.709 182.478 496.644 180.345 489.884 178.23C487.961 177.549 485.999 176.841 483.946 175.98C480.698 174.428 475.809 172.939 472.875 166.773C473.13 166.803 471.249 164.932 469.316 162.999C467.373 161.007 465.526 158.692 463.963 156.266C462.923 154.654 462.258 153.055 461.739 151.532C459.782 145.601 459.521 139.585 457.896 135.615C457.636 134.99 457.35 134.501 457.13 134.232C456.902 133.956 456.802 133.921 456.724 133.891C453.719 132.398 450.628 130.905 447.305 129.094C446.122 128.433 444.59 127.597 442.616 126.175C440.731 124.838 437.834 122.211 436.41 118.587C435.626 116.67 434.806 114.526 434.205 111.854C433.828 109.681 433.117 106.971 434.217 103.435C432.772 104.242 431.332 105.205 430.049 106.249C429.215 106.927 428.44 107.659 427.896 108.306C427.686 108.553 427.515 108.79 427.413 108.949C427.423 110.14 427.473 111.404 427.542 112.697C427.877 118.547 428.685 124.57 428.132 131.521C427.327 143.343 422.335 154.898 421.477 164.033C421.738 169.004 423.86 178.601 424.249 186.382C424.588 190.868 424.733 195.871 425.085 199.791C425.212 199.832 425.34 199.875 425.47 199.915C426.563 200.254 427.721 200.573 428.831 200.863C431.07 201.447 433.181 201.939 435.064 202.353C438.063 203.01 440.639 203.494 443.289 203.993C445.394 204.389 447.548 204.792 449.992 205.283C451.693 205.622 453.562 205.994 455.681 206.432C459.655 207.251 464.371 208.343 467.534 209.235C469.006 209.65 470.134 210.014 471.161 210.35C471.698 210.525 472.218 210.697 472.74 210.863C473.336 211.054 473.944 211.237 474.63 211.421C475.545 211.667 476.513 211.875 477.733 212.147C479.751 212.68 482.038 212.847 487.074 215.147C487.476 215.347 487.891 215.567 488.312 215.812C496.077 220.249 503.636 226.771 509.576 234.365C513.824 239.61 518.339 246.187 521.283 252.883C523.466 257.686 525.152 262.381 526.711 266.971C529.061 274.084 532.271 282.077 531.704 291.438C531.327 297.847 528.244 303.157 525.85 306.67C522.625 311.374 518.907 315.699 514.971 320.446C510.427 326.752 504.75 338.963 499.439 349.652C498.28 351.958 497.356 354.117 495.437 357.139C494.516 358.6 492.755 360.622 490.98 361.814C486.556 365.051 481.18 368.994 475.21 371.804C472.153 373.208 468.888 374.52 464.639 374.909C460.593 375.462 454.211 373.686 451.122 369.545C449.751 367.872 448.416 366.233 447.122 364.626C444.038 360.784 440.896 356.863 437.838 352.521C436.313 350.324 434.795 348.082 433.368 345.195C432.669 343.705 431.928 342.14 431.506 339.605C431.323 338.348 431.209 336.723 431.749 334.726C432.251 332.736 433.715 330.602 435.257 329.433C438.391 327.156 439.901 326.915 441.468 326.191C442.965 325.58 444.202 325.046 445.199 324.499C446.346 323.877 447.113 323.26 447.522 322.77C449.116 320.955 450.503 317.454 451.267 313.862C451.591 308.284 452.033 297.143 453.887 289.768C454.459 287.215 455.39 284.119 456.81 280.397C456.9 280.164 456.991 279.929 457.083 279.694C458.135 276.984 459.388 273.866 460.776 270.385C462.399 265.581 464.548 259.64 464.474 257.343C464.381 254.341 464.306 251.36 464.201 248.439C464.147 246.983 464.085 245.536 463.991 244.188C463.981 244.048 463.968 243.911 463.958 243.774C460.99 242.893 457.496 242.161 454.104 241.501C453.563 241.425 452.983 241.344 452.415 241.269C452.406 241.268 452.397 241.266 452.387 241.265C446.538 240.485 439.624 239.771 431.462 238.974C423.174 238.088 413.591 237.79 401.387 235.25C399.372 234.787 397.323 234.297 395.243 233.787C388.897 232.228 385.064 231.144 381.735 230.384C380.115 230.016 378.611 229.721 377.177 229.576C376.466 229.505 375.777 229.478 375.225 229.51C375.222 229.51 375.217 229.51 375.214 229.51C375.225 230.141 375.323 230.963 375.513 231.851C376.002 234.184 376.741 236.607 377.73 239.063C379.791 244.212 382.986 249.453 386.871 254.723C389.11 257.83 391.222 260.582 393.602 263.437C394.05 263.975 394.551 264.567 395.066 265.164C396.584 266.923 398.387 268.914 400.42 271.04C405.11 275.991 410.85 281.643 416.354 288.242C419.16 291.687 422.345 294.59 424.259 301.119C425.796 311.635 425.461 319.062 426.406 327.678C427.306 335.171 428.814 344.313 428.306 353.111C428.067 358.251 427.876 363.462 427.531 368.75C427.354 371.402 427.148 374.059 426.801 376.833C426.622 378.223 426.417 379.631 426.076 381.186C425.904 381.954 425.701 382.778 425.359 383.742C424.886 384.733 424.953 385.788 422.515 387.969C417.86 391.05 413.378 392.226 407.702 390.519C406.537 390.119 405.423 389.555 404.429 388.882C403.097 387.989 402.24 386.855 401.707 386.004C401.165 385.981 400.55 385.952 399.967 385.902C398.443 385.779 396.826 385.51 395.293 385.092C392.204 384.255 389.448 382.891 386.986 381.335C386.176 380.797 385.156 380.175 384.025 378.63C382.819 377.093 382.412 374.408 382.654 373.067C382.889 371.321 383.315 370.451 383.601 369.684C383.899 368.951 384.133 368.388 384.201 368.162C385.854 361.701 386.649 352.541 385.196 346.373C383.559 339.881 382.021 333.681 381.065 326.605C380.771 325.158 381.651 322.891 382.375 322.191C382.413 322.148 382.45 322.106 382.486 322.066C383.495 313.516 382.942 298.571 376.869 293.862C376.042 293.173 371.629 291.667 368.395 290.052C358.794 284.07 352.346 278.374 344.587 272.752C342.041 271.403 339.134 269.73 335.873 267.624C335.846 267.604 335.766 267.541 335.74 267.519C333.297 265.677 330.727 263.537 328.059 261.109C323.7 257.137 319.169 252.502 314.637 247.229C309.031 242.473 296.836 239.268 285.77 237.607C277.359 236.382 269.791 233.342 262.153 230.607C262.121 230.596 262.089 230.584 262.057 230.572C244.753 224.104 227.668 217.382 210.579 210.385C207.853 209.252 205.204 208.169 202.352 206.835C201.628 206.49 200.912 206.144 200.059 205.657C199.62 205.395 199.194 205.17 198.435 204.55C198.406 204.525 198.375 204.496 198.341 204.466C189.274 205.368 180.226 206.488 171.512 208.069C168.028 208.736 164.558 209.415 161.204 210.176C158.839 210.69 155.97 211.485 154.42 212.109C154.603 213.635 154.982 215.014 155.596 216.438C159.353 223.614 164.956 232.885 168.899 241.555C174.284 253.082 179 264.603 184.606 275.356C188.692 283.252 193.59 290.329 198.934 298.156C203.571 305.212 211.172 314.449 211.343 325.862C211.661 332.629 211.562 339.19 210.748 346.083C210.564 347.544 210.337 349.032 210.007 350.582C209.553 352.666 209.283 354.858 208.835 357.497C208.583 358.835 208.364 360.264 207.557 362.233C207.136 363.207 206.515 364.421 205.288 365.615C204.081 366.824 202.198 367.701 200.652 367.918C197.267 368.489 192.928 368.648 188.774 366.89C184.466 365.179 180.934 361.977 178.527 360.351C174.636 357.655 165.022 357.163 157.164 355.998C156.66 355.922 156.194 355.888 155.155 355.552C154.615 355.293 153.884 355.327 152.269 353.624C151.462 352.785 150.669 350.764 150.869 349.268C151.021 347.771 151.493 347.028 151.794 346.513C152.437 345.531 152.812 345.255 153.124 344.955C153.433 344.68 153.665 344.5 153.878 344.341C154.301 344.027 154.627 343.814 154.94 343.609C161.997 339.334 167.511 334.945 169.257 329.28C170.37 325.821 170.293 324.344 169.275 321.053C165.829 310.698 162.769 300.085 157.254 292.705C155.234 290.07 152.828 287.776 150.051 285.725C146.377 282.866 142.325 281.339 136.97 276.972C135.681 275.816 134.171 274.178 133.287 271.783C132.301 268.575 132.511 267.481 132.233 266.123C132.035 264.859 131.766 263.794 131.374 262.764C127.818 254.957 121.846 245.465 117.493 236.567C117.313 236.205 117.143 235.842 116.98 235.48C114.436 241.823 112.257 245.712 110.398 250.859C108.694 255.265 107.381 259.343 107.027 262.74C106.829 264.58 106.887 266.237 107.178 267.855C107.884 271.765 110.156 277.689 110.419 283.155C110.967 297.884 106.608 307.379 104.174 316.457C103.891 317.378 103.609 318.278 103.325 319.164C101.925 323.55 100.487 327.627 99.4168 331.357C98.8874 333.212 98.4555 335.01 98.3025 336.418C98.243 336.933 98.2355 337.389 98.2508 337.668C98.7144 338.069 99.3243 338.546 99.9754 339.04C102.124 340.962 105.985 342.422 109.248 349.048C109.685 350.072 110.278 352.236 109.475 354.529C108.675 356.801 107.16 357.977 106.175 358.621C104.104 359.875 102.76 360.092 101.431 360.396C100.243 360.635 99.0182 360.872 97.7586 361.105C90.1033 362.397 81.8691 364.142 70.8328 363.797C69.3657 363.683 67.808 363.583 65.8181 363.16C64.0481 362.674 60.4662 362.102 58.1443 357.698C55.3231 351.475 52.0837 346.338 49.6726 337.067C48.8604 331.763 46.8418 325.908 46.6531 318.609C46.531 311.916 46.4407 305.244 47.3631 297.836C48.256 291.375 49.2461 284.895 50.451 278.349C51.0638 275.065 51.7055 271.812 52.5799 268.389C53.0492 266.646 53.4433 265.014 54.4344 262.759C54.772 262.078 54.9826 261.487 55.9783 260.277C56.1617 260.061 56.6748 259.511 57.2908 259.086C57.6101 258.862 57.987 258.637 58.4363 258.438C58.884 258.235 59.6604 257.986 60.4119 257.919C64.0275 257.708 65.5695 259.719 66.2351 260.507C66.7774 261.211 67.1087 261.918 67.2849 262.332C67.4526 262.727 67.5832 263.1 67.698 263.471C67.9032 264.146 68.0109 264.617 68.1375 265.223C68.3585 266.31 68.5411 267.344 68.7127 268.248C69.1322 268.205 69.4604 268.182 69.7703 268.161C70.4672 268.115 71.0312 268.081 71.5711 268.029C72.642 267.928 73.5769 267.768 74.4617 267.519C77.998 266.546 80.3985 265.073 81.0584 263.482C82.1289 260.809 82.7726 254.845 82.8133 250.005C83.1104 242.997 82.0357 235.534 84.6414 226.971C86.016 222.543 87.9809 218.088 90.7263 214.131C92.0189 212.235 93.5694 210.428 94.6629 209.075C96.7589 206.743 97.2438 199.438 99.1707 193.264C101.976 184.07 106.273 176.038 109.319 169.285C109.445 169.099 109.697 167.606 109.817 166.252C109.963 164.835 110.084 163.279 110.407 161.548C110.78 159.833 111.134 157.767 113.105 155.472C113.376 155.149 113.676 154.86 113.996 154.602C113.597 151.312 113.356 147.919 113.562 144.888C113.775 137.644 113.91 130.449 114.528 123.053C111.718 125.248 108.823 127.111 106.089 128.652C93.2513 136.025 81.9968 141.56 73.8084 144.896C73.8057 144.898 73.8032 144.899 73.8006 144.9C64.2603 148.749 55.2232 151.457 44.6053 152.875C37.2229 153.688 28.6819 154.756 18.7517 151.938C18.5848 151.889 18.4159 151.839 18.2459 151.788C15.899 151.079 13.5076 150.289 10.9822 149.287C9.71774 148.778 8.42942 148.236 6.99979 147.464C6.2677 147.05 5.54709 146.674 4.50663 145.764C4.03303 145.215 3.16992 144.878 2.57499 142.446C2.45628 141.909 2.48404 141.273 2.61209 140.655C2.42115 140.579 2.18371 140.474 1.85038 140.258C1.74786 140.19 1.63563 140.11 1.51346 140.011C1.45236 139.961 1.38902 139.906 1.32303 139.845C1.29011 139.814 1.25648 139.783 1.22245 139.749C1.18688 139.713 1.16273 139.691 1.07596 139.597C0.49684 139.044 -0.274289 137.451 0.0974459 135.976C0.250924 135.27 0.561039 134.732 0.84061 134.365C1.01227 134.145 1.0426 134.121 1.11307 134.043C1.17704 133.975 1.23967 133.913 1.29959 133.856C1.53969 133.632 1.74251 133.49 1.91385 133.38C2.25616 133.165 2.4846 133.071 2.67264 132.995C11.3966 130.717 16.992 131.124 23.5086 129.987C31.6543 128.75 39.813 127.994 45.5652 125.814C46.1855 125.566 46.764 125.292 47.2537 125.001C54.471 120.963 60.2675 114.227 70.0828 108.199C72.0729 107.145 74.0688 105.75 76.0799 104.203C82.5313 99.7793 88.1756 91.5806 100.216 91.1055C110.373 91.1389 121.563 94.5928 127.607 91.8037C127.665 91.7774 127.723 91.7515 127.781 91.7256C132.951 89.7119 137.067 88.4391 140.775 86.8506C139.864 85.5999 139.963 84.3739 140.069 83.7266C140.198 83.0204 140.408 82.565 140.619 82.1553C141.053 81.3551 141.529 80.7698 142.219 80.1826C142.392 80.0341 142.571 79.8786 142.757 79.7188C146.406 76.372 151.454 73.7545 156.612 71.5039C164.879 68.2755 172.507 69.4007 181.307 69.4844C182.39 69.5272 183.441 69.5734 184.533 69.627C207.925 70.8253 228.639 72.4398 250.47 74.2998C251.389 74.3799 252.344 74.4639 253.25 74.5449C260.842 74.887 270.296 77.3949 276.967 77.6865C275.638 74.957 274.907 71.7741 275.439 68.3525C275.565 67.6271 275.726 67.1169 276.013 66.4717C276.172 66.1424 276.32 65.8109 276.751 65.2617C276.997 64.9849 277.237 64.6207 278.118 64.1299C278.552 63.9022 279.277 63.6296 280.185 63.6797C281.095 63.7189 281.945 64.1378 282.42 64.5254C283.893 65.8855 283.724 66.4022 283.933 66.8252C284.059 67.2452 284.107 67.5118 284.155 67.7734C284.241 68.2716 284.282 68.646 284.324 69.001C284.326 69.0177 284.328 69.0342 284.33 69.0508C286.925 67.1631 290.139 64.3736 293.803 62.3037C301.709 57.6949 309.679 52.7654 315.177 45.4971C316.541 43.7606 317.96 41.9746 319.414 40.2334C323.943 34.7979 328.839 29.6591 334.05 25.0791C338.298 21.3315 343.401 16.743 349.781 15.0488C359.79 12.06 369.71 10.5342 377.855 10.5664ZM403.15 386.072C403.207 386.083 403.26 386.091 403.311 386.095C403.283 386.087 403.228 386.079 403.15 386.072ZM379.882 19.5098C370.573 19.3132 361.426 20.9084 352.194 23.5664C347.821 24.6869 344.127 27.8839 339.775 31.6631C333.196 37.3489 327.341 43.7987 321.81 50.791C315.345 59.1476 306.269 64.681 297.906 69.4736C293.985 71.4696 291.994 74.4642 285.872 77.54C286.064 78.4143 286.041 79.0919 286.081 79.4492C286.089 79.8381 286.168 80.3337 285.988 81.4102C285.88 81.9465 285.694 82.7295 285.029 83.6397C284.382 84.5602 283.177 85.285 282.303 85.4932C275.263 86.957 271.073 84.9521 266.389 84.4619C261.8 83.726 257.217 83.1738 252.569 82.7832C236.904 81.4808 221.141 80.3396 205.414 79.2598C198.302 78.7762 191.163 78.3066 184.062 77.8926C182.129 77.8192 180.12 77.7056 178.098 77.6016C178.674 78.5045 178.847 80.3792 178.233 81.4941C177.668 82.6378 176.995 83.0297 176.834 83.167C175.735 83.877 175.603 83.7888 175.239 83.9346C174.201 84.2354 173.723 84.2948 173.082 84.4199C171.887 84.636 170.776 84.8168 169.667 85.0137C168.988 85.1333 168.314 85.2578 167.645 85.3857C165.924 86.7584 163.947 88.1843 161.661 89.1006C159.304 90.0881 156.829 91.0771 154.03 91.7012C152.62 92.001 151.121 92.238 149.354 92.1016C149.046 92.0811 148.714 92.0387 148.369 91.9727C143.064 95.0345 136.742 96.9367 132.012 98.8047C132.01 98.994 131.998 99.1509 131.986 99.2871C131.924 99.8624 131.829 100.165 131.754 100.424C131.594 100.935 131.458 101.231 131.328 101.517C130.974 102.264 130.688 102.738 130.4 103.229C129.194 105.234 127.997 106.978 127.076 108.554C126.619 109.433 126.126 110.288 125.603 111.119C124.965 113.743 124.493 116.682 124.075 119.683C123.131 127.151 122.856 135.805 122.559 145.105C122.384 148.161 122.571 150.829 122.928 153.694C123.524 154.1 123.933 154.562 124.154 154.871C124.62 155.52 124.76 155.917 124.887 156.236C125.119 156.874 125.179 157.234 125.244 157.573C125.355 158.213 125.391 158.671 125.427 159.107C125.491 159.966 125.517 160.687 125.55 161.39C125.61 162.78 125.679 164.03 125.803 165.182C125.801 165.163 125.792 165.115 125.767 165.004C125.753 164.945 125.735 164.865 125.679 164.696C125.651 164.612 125.617 164.51 125.54 164.333C125.503 164.25 125.457 164.149 125.371 163.99C125.278 163.829 125.212 163.695 124.947 163.355C124.922 163.324 124.895 163.294 124.868 163.263C125.461 164.334 125.656 164.957 125.633 166.367C125.609 166.604 125.62 166.801 125.438 167.433C125.397 167.567 125.309 167.829 125.163 168.115C125.103 168.235 124.959 168.496 124.777 168.737C124.763 168.755 124.748 168.772 124.734 168.79C124.651 169.449 124.533 170.029 124.396 170.621C124.294 171.052 124.179 171.475 124.037 171.928C123.965 172.155 123.887 172.389 123.786 172.655C123.671 172.94 123.605 173.168 123.263 173.774C122.87 174.341 122.86 174.736 121.424 175.905C120.966 176.2 120.518 176.582 119.192 176.774C118.126 176.927 116.888 176.535 116.1 175.995C113.094 182.563 110.045 188.867 107.993 195.823C106.11 201.019 107.129 207.102 102.06 214.826C98.0109 219.556 95.5414 223.861 93.7849 229.729C92.1165 234.806 92.6378 241.237 92.5594 248.122C92.5587 248.766 92.5561 249.399 92.5525 250.038C92.4031 256.615 92.1938 261.704 89.9783 267.521C86.6652 274.188 80.8585 275.693 77.2019 276.829C75.4899 277.304 73.852 277.529 72.3865 277.643C71.8578 277.684 71.3468 277.71 70.8806 277.732C70.7471 277.975 70.5615 278.262 70.2957 278.604C69.9359 279.022 69.4318 279.414 68.8982 279.66C67.0113 280.445 65.9177 279.926 65.2332 279.698C64.5309 279.409 64.0681 279.088 63.6433 278.749C62.2696 277.619 61.4096 276.292 60.8348 274.988C60.2709 277.929 59.7748 281.046 59.2898 284.328C58.6169 288.916 57.9678 293.884 57.326 299.189C56.7052 304.737 56.7181 311.284 56.8709 318.362C56.9008 323.077 58.4885 328.423 59.5252 334.829C59.5539 335.005 59.5828 335.183 59.6111 335.362C60.924 340.882 64.3101 347.61 66.907 353.302C67.0924 353.4 67.4775 353.541 67.9314 353.645C68.9374 353.88 70.2364 354.014 71.5476 354.123C81.399 354.518 91.2522 352.662 99.5721 351.115C97.8004 348.951 94.395 346.895 91.2801 344.104C87.4856 339.765 88.8884 336.068 89.117 333.398C89.6054 330.631 90.2952 328.23 90.9549 325.942C92.2941 321.398 93.5771 317.39 94.615 313.624C96.2912 307.577 97.6759 302.241 98.6346 297.327C99.5754 292.472 100.057 288.107 99.6414 284.026C99.5057 282.647 99.297 281.307 99.0047 279.963C98.4455 277.181 97.1575 273.952 96.3846 269.773C94.8463 261.715 97.5884 253.7 100.274 246.891C102.535 240.825 106.273 233.948 108.025 229.257C109.751 223.877 111.77 219.276 113.828 214.735C114.093 214.269 113.955 214.113 115.094 212.817C115.178 212.733 115.272 212.645 115.379 212.555C115.434 212.508 115.481 212.47 115.556 212.411C115.646 212.342 115.744 212.271 115.851 212.201C116.277 211.923 116.887 211.627 117.666 211.514C118.488 211.372 119.607 211.562 120.325 211.953C120.51 212.048 120.678 212.15 120.83 212.255C120.958 212.344 121.052 212.417 121.15 212.498C121.342 212.657 121.499 212.814 121.633 212.962C121.891 213.248 122.093 213.559 122.182 213.712C122.279 213.875 122.355 214.022 122.418 214.156C122.48 214.29 122.53 214.412 122.574 214.525C122.609 214.616 122.636 214.695 122.663 214.773C123.017 215.937 123.021 216.352 123.117 216.937C123.261 217.999 123.355 218.928 123.463 219.837C123.908 223.576 124.563 228.099 126.501 232.121C130.305 240.205 135.666 248.388 140.676 259.339C141.335 261.087 141.77 262.936 142.034 264.664C142.283 266.31 142.485 268.258 142.604 268.409C142.697 269.411 147.224 272.102 150.867 274.232C154.683 276.509 158.494 279.2 161.657 282.33C162.906 283.557 164.155 284.935 165.353 286.471C171.66 294.621 175.136 305.816 179.084 317.812C179.309 318.493 179.518 319.198 179.703 319.932C180.821 323.639 180.401 328.94 179.125 332.377C177.255 338.468 173.069 343.171 168.429 346.913C171.077 347.277 173.821 347.726 176.742 348.382C179.25 348.988 182.053 349.967 184.497 351.645C188.169 354.21 190.26 356.085 192.898 357.09C194.252 357.645 195.921 357.761 197.863 357.523C198.006 357 198.161 356.24 198.285 355.462C198.634 353.288 198.94 350.784 199.458 348.322C200.818 340.866 200.752 332.989 200.424 326.435C200.12 317.526 194.319 311.434 189.684 304.272C187.971 301.726 186.165 299.192 184.467 296.689C180.833 291.365 177.622 286.135 174.764 280.759C174.729 280.692 174.693 280.626 174.657 280.559C169.245 270.361 164.242 258.392 158.617 246.381C154.902 238.403 150.705 231.262 145.865 222.561C145.611 222.059 145.357 221.534 145.104 220.951C143.721 217.835 142.959 214.182 142.87 210.915C142.816 209.872 142.993 208.14 143.79 206.644C144.572 205.149 145.556 204.269 146.281 203.686C151.782 199.988 155.023 200.037 158.767 198.976C162.394 198.15 165.907 197.459 169.388 196.785C185.569 193.882 200.463 192.549 213.33 191.525C213.489 191.514 213.648 191.503 213.805 191.491C224.002 190.875 234.309 190.704 244.821 191.913C248.802 192.394 253.152 193.079 257.38 194.672C257.985 194.909 258.384 194.994 259.676 195.635C259.86 195.733 260.064 195.842 260.392 196.058C260.725 196.307 261.109 196.465 261.986 197.521C262.199 197.792 262.477 198.197 262.713 198.689C262.986 199.269 263.226 199.94 263.31 200.888C263.378 201.539 263.311 202.182 263.169 202.779C267.114 203.399 272.621 204.475 279.526 206.026C281.812 206.543 284.259 207.156 286.807 207.836C298.066 210.885 311.325 215.034 325.684 220.543C328.109 221.497 330.533 222.498 333.076 223.761C334.35 224.403 335.639 225.084 337.071 226.065C337.788 226.567 338.551 227.134 339.405 228.021C339.829 228.466 340.287 229.02 340.698 229.687C341.109 230.335 341.451 231.163 341.585 231.53C344.203 238.865 344.265 245.679 344.296 252.394C344.284 254.166 344.241 255.914 344.197 257.62C344.18 258.321 344.163 259.036 344.153 259.703C344.537 259.931 344.965 260.186 345.384 260.44C346.856 261.331 348.334 262.309 349.737 263.318C357.729 268.949 366.587 276.112 373.169 280.183C374.533 280.834 375.972 281.42 377.581 282.059C379.234 282.785 380.845 283.117 383.678 285.139C390.794 290.982 392.465 298.731 393.555 305.372C394.043 308.77 394.23 312.128 394.222 315.456C394.217 317.121 394.161 318.782 394.047 320.465C393.991 321.281 393.916 322.166 393.823 323.008C393.771 323.473 393.719 323.898 393.65 324.373C393.619 324.586 393.569 324.895 393.525 325.138C393.435 325.539 393.501 325.559 393.116 326.72C393.017 326.992 392.902 327.247 392.78 327.487C393.653 332.578 395.047 338.15 396.434 343.39C398.354 351.463 397.729 358.171 396.857 365.181C396.557 367.253 396.285 369.139 395.571 371.654C395.507 371.865 395.442 372.059 395.381 372.24C396.436 372.742 397.468 373.118 398.466 373.355C399.285 373.551 400.069 373.66 400.971 373.71C401.948 373.791 402.708 373.647 405.161 373.921C406.889 374.1 409.136 375.33 410.178 376.526C411.106 377.525 411.518 378.258 411.783 378.719C411.99 378.76 412.234 378.752 412.674 378.695C412.925 378.655 413.223 378.578 413.537 378.469C413.638 377.928 413.734 377.285 413.815 376.626C414.033 374.857 414.174 372.919 414.282 370.96C414.48 367.321 414.568 363.567 414.646 359.767C414.692 357.53 414.741 355.113 414.811 352.54C415.065 345.821 413.979 338.871 412.65 329.037C411.716 320.861 411.529 310.338 410.659 304.315C410.687 304.024 409.316 301.614 407.712 299.701C406.08 297.675 404.151 295.588 402.178 293.529C398.202 289.398 394.03 285.329 390.093 281.348C384.093 275.336 378.729 268.908 374.911 263.419C374.769 263.223 374.628 263.025 374.487 262.826C374.138 262.336 373.788 261.84 373.441 261.337C369.001 254.836 365.067 247.987 362.532 238.938C362.143 237.52 361.797 236.047 361.508 234.517C361.202 232.876 360.969 231.106 361.017 228.983C361.209 226.807 360.966 224.538 363.657 220.559C368.011 215.236 373.311 215.335 376.444 215.23C379.836 215.263 382.765 215.732 385.767 216.265C391.702 217.357 397.786 218.866 404.616 220.374C412.124 222.014 421.898 222.78 433.321 224.261C440.795 225.263 448.881 226.438 457.816 228.242C461.383 228.957 464.848 229.664 468.773 230.879C469.399 231.081 470.023 231.276 470.924 231.635C471.38 231.823 471.92 232.043 472.695 232.497C473.445 232.926 474.598 233.806 475.392 234.853C476.524 236.408 476.581 236.976 476.815 237.566C476.989 238.098 477.083 238.497 477.159 238.841C477.308 239.53 477.384 240.06 477.45 240.553C477.579 241.548 477.647 242.379 477.708 243.211C477.824 244.857 477.889 246.398 477.948 247.929C478.061 250.982 478.137 253.947 478.231 256.914C477.825 265.733 475.362 269.538 473.807 274.83C472.672 278.154 471.564 281.453 470.515 284.754C467.173 295.064 466.903 303.055 465.767 317.124C464.567 322.168 462.922 327.493 458.584 332.558C455.756 335.722 452.487 337.411 449.749 338.645C448.774 339.078 447.839 339.455 446.992 339.795C447.006 339.82 447.02 339.846 447.034 339.871C448.178 341.948 449.778 344.26 451.45 346.538C454.82 351.105 458.562 355.683 462.335 360.256C462.367 360.288 462.382 360.307 462.387 360.315C462.458 360.346 462.88 360.426 463.575 360.346C464.983 360.204 467.129 359.461 469.222 358.428C473.563 356.293 477.61 353.364 482.413 349.79C482.519 350.201 484.552 346.476 486.057 343.238C491.452 332.524 495.181 322.686 503.394 310.874C509.375 303.486 516.772 295.606 516.768 290.403C517.177 285.276 514.96 278.794 512.556 271.79C508.962 260.954 505.042 252.194 497.885 243.683C493.085 237.576 487.428 232.538 480.834 228.701C478.713 227.454 473.413 226.181 468.917 224.923C461.581 222.919 453.97 221.123 446.29 219.043C441.539 217.749 436.764 216.451 431.985 215.106C429.591 214.431 427.194 213.746 424.738 212.989C423.501 212.606 422.273 212.215 420.932 211.734C420.266 211.493 419.577 211.236 418.758 210.873C418.321 210.676 417.907 210.485 417.292 210.133C417.15 210.051 416.98 209.947 416.796 209.827C416.615 209.709 416.425 209.58 416.178 209.391C415.75 209.03 415.064 208.594 414.163 207.137C413.193 205.329 413.226 204.742 413.049 204.071C412.924 203.448 412.857 202.95 412.802 202.495C412.693 201.582 412.634 200.798 412.58 200.025C412.477 198.497 412.409 197.063 412.338 195.636C412.199 192.786 412.06 189.997 411.884 187.196C411.579 179.382 409.716 174.086 409.273 163.054C410.922 149.725 415.451 140.766 416.165 130.363C416.743 124.141 415.597 116.689 415.498 108.431C415.784 103.861 417.48 102.44 418.598 100.839C419.822 99.3513 421.045 98.2214 422.291 97.1768C424.786 95.1158 427.35 93.4628 430.206 92.0313C435.707 89.5153 440.919 89.1596 447.22 92.0889C448.412 92.7313 449.488 93.9355 449.997 94.9981C450.529 96.0698 450.671 96.9494 450.734 97.627C450.83 98.9761 450.644 99.7398 450.484 100.417C450.124 101.734 449.721 102.579 449.024 103.642C448.003 105.149 446.807 106.162 446.085 106.773C445.958 106.88 445.845 106.975 445.748 107.058C445.727 107.436 445.719 108.127 445.911 108.915C446.205 110.387 446.811 112.141 447.548 113.916C447.751 114.402 447.925 114.693 448.196 115.031C448.73 115.707 450.072 116.712 451.764 117.706C454.81 119.498 458.49 121.307 462.17 123.182C470.333 128.248 469.905 134.886 471.086 139.173C471.876 143.664 472.669 148.123 473.865 149.842C475.008 151.6 476.23 153.133 477.69 154.618C479.042 156.251 481.331 157.154 483.808 161.989C483.292 162.424 488.947 165.21 493.766 166.654C496.617 167.61 499.501 168.399 502.337 168.98C503.752 169.269 505.163 169.506 506.5 169.664C506.575 169.673 506.651 169.678 506.725 169.687C506.948 168.662 507.153 167.53 507.345 166.396C507.837 163.465 508.278 160.445 508.756 157.486C509.934 150.167 509.828 143.486 508.774 137.36C508.771 137.343 508.769 137.325 508.766 137.308C508.166 133.653 507.562 130.007 506.935 126.472C504.968 125.649 503.659 124.168 502.887 122.159C501.234 117.96 497.369 111.579 495.883 104.099C495.66 102.972 495.432 101.776 495.41 100.146C495.413 99.3224 495.443 98.3761 495.807 97.1006C496.147 95.8757 497.099 94.0011 498.906 92.8438C500.053 92.0593 501.745 91.6469 503.067 91.7754C504.405 91.884 505.352 92.3052 506.05 92.6846C507.426 93.4736 508.086 94.2081 508.683 94.8633C509.543 95.9003 510.249 96.795 510.893 97.7695C511.158 97.0294 511.422 96.2951 511.679 95.5645C513.393 90.5707 515.099 85.4564 516.424 80.5713C516.114 80.1238 515.819 79.5701 515.641 78.9404C514.694 75.239 515.581 72.8333 516.01 70.9658C516.519 69.1376 516.962 67.546 516.952 67.0479C517.267 66.1528 514.389 61.7562 511.826 57.5684C506.703 48.2431 497.997 42.0335 488.095 35.9746C483.658 33.3394 474.68 32.3132 467.341 30.8389C449.11 27.66 430.452 25.214 411.908 22.6914C401.132 21.2903 390.306 19.7464 379.882 19.5098ZM414.723 377.902C414.715 377.909 414.707 377.915 414.699 377.922C414.738 377.897 414.775 377.877 414.802 377.858C414.847 377.828 414.918 377.763 414.723 377.902ZM198.942 357.362C198.908 357.364 198.866 357.371 198.818 357.383C198.859 357.376 198.901 357.37 198.942 357.362ZM390.58 330.104C390.498 330.157 390.499 330.178 390.634 330.058C390.611 330.076 390.594 330.092 390.58 330.104ZM261.459 205.844C260.309 206.977 259.846 206.988 259.432 207.224C258.604 207.567 258.285 207.613 257.952 207.696C257.631 207.768 257.406 207.806 257.177 207.844C250.015 208.595 245.082 208.053 239.292 207.806C236.731 207.656 234.17 207.483 231.614 207.303C242.949 211.913 254.354 216.423 265.728 220.769C265.76 220.78 265.791 220.793 265.822 220.805C273.325 223.575 280.616 226.548 287.403 227.678C299.714 230.312 310.895 232.01 321.334 241.834C325.322 247.112 329.328 251.903 333.099 256.07C333.301 256.293 333.502 256.513 333.702 256.731C333.755 255.222 333.804 253.747 333.828 252.274C333.919 246.093 333.706 239.803 332.083 235.034C332.677 235.345 330.511 233.532 328.52 232.554C326.458 231.443 324.238 230.421 322.003 229.44C308.334 223.566 295.346 218.571 284.668 214.531C282.246 213.623 279.933 212.773 277.802 212.017C270.715 209.514 265.181 207.443 261.459 205.844ZM153.374 212.664C153.378 212.661 153.393 212.647 153.42 212.623C153.403 212.637 153.387 212.651 153.374 212.664ZM425.269 201.439C425.29 201.532 425.307 201.599 425.315 201.614C425.32 201.622 425.321 201.603 425.29 201.497C425.284 201.48 425.277 201.462 425.269 201.439ZM114.583 100.861C114.647 101.073 114.695 101.289 114.716 101.507C114.804 102.303 114.62 102.977 114.427 103.419C114.012 104.304 113.654 104.553 113.435 104.764C112.991 105.131 112.836 105.183 112.699 105.262C112.623 105.301 112.612 105.305 112.607 105.308C112.6 105.311 112.592 105.315 112.585 105.318C112.57 105.325 112.557 105.332 112.544 105.338C112.441 105.385 112.377 105.41 112.323 105.432C112.098 105.518 112.086 105.517 112.01 105.543C111.947 105.563 111.869 105.588 111.833 105.599C111.759 105.621 111.68 105.645 111.595 105.67C110.625 105.931 109.678 106.223 108.752 106.541C108.979 106.646 109.172 106.719 109.313 106.775C110.018 107.007 110.36 107.017 110.625 107.042C110.684 107.046 110.764 107.05 110.785 107.051C110.796 107.051 110.807 107.051 110.817 107.052C110.838 107.052 110.858 107.053 110.878 107.054C110.955 107.055 111.021 107.055 111.079 107.054C111.195 107.051 111.281 107.046 111.352 107.041C111.493 107.03 111.578 107.019 111.644 107.01C111.902 106.972 111.88 106.971 111.911 106.966C111.93 106.962 111.937 106.961 111.937 106.961C111.932 106.962 111.916 106.966 111.891 106.972C111.834 106.986 111.777 107 111.704 107.019C111.426 107.09 111.091 107.18 110.781 107.267C110.137 107.446 109.485 107.637 108.835 107.833C107.532 108.226 106.223 108.644 104.927 109.083C102.377 109.95 99.8317 110.903 97.5603 111.97C95.0353 113.513 92.5851 115.182 90.1209 116.875C82.8656 122.07 75.5743 129.331 65.4256 134.083C60.4077 136.461 55.0416 137.85 49.2771 138.888C44.6794 139.698 40.0498 140.175 35.406 140.436C31.6942 140.643 27.9805 140.814 24.2752 140.947C23.3098 141.124 22.3947 141.297 21.5428 141.469C20.6794 141.733 19.8196 141.995 18.9656 142.258C19.7541 142.51 20.5431 142.752 21.326 142.981C22.7832 143.408 24.2591 143.723 25.7498 143.944C31.6347 144.808 37.7223 144.264 43.4295 143.58C43.5766 143.562 43.726 143.543 43.8767 143.523C52.8158 142.261 61.8192 139.63 70.4119 136.245C80.989 132.007 91.345 126.447 101.445 120.608C107.724 116.952 112.988 112.888 116.802 107.295C117.316 105.247 118.045 103.192 119.178 101.159C117.602 101.14 116.076 101.025 114.583 100.861ZM99.8992 99.3565C94.7673 99.2679 89.5913 104.009 83.4939 108.885C86.9672 107.041 90.3285 105.325 93.6121 103.836C94.3465 103.497 95.0721 103.181 95.7898 102.883C98.0041 101.62 100.36 100.426 102.78 99.3926C101.825 99.3401 100.866 99.3224 99.8992 99.3565ZM129.58 102.913C129.524 102.951 129.468 102.992 129.412 103.036C129.541 102.954 129.564 102.929 129.58 102.913ZM165.614 77.5469C163.39 77.7489 161.355 78.1294 159.633 78.7852C158.496 79.2634 157.401 79.7336 156.341 80.2149C158.606 79.5684 160.821 79.0616 162.967 78.6221C163.535 78.5061 164.105 78.3975 164.674 78.294C164.975 78.0525 165.287 77.8028 165.614 77.5469Z" fill="black"/>
<path d="M521.254 0.330375C521.662 0.20055 523.293 -0.396878 525.258 0.429008C526.304 0.861493 527.172 1.70155 527.623 2.42803C527.991 3.00636 528.179 3.52859 528.296 3.96416C528.638 5.50474 528.448 5.9476 528.411 6.44463C528.333 6.97618 528.259 7.23907 528.165 7.60577C527.809 8.87138 527.434 9.75266 527.055 10.6839C526.288 12.5228 525.524 14.1874 524.781 15.889C524.224 17.1601 523.68 18.4355 523.167 19.7015C522.694 20.8705 522.233 22.0452 521.792 23.219C521.64 23.9461 521.524 24.6486 521.418 25.2991C521.269 26.2125 521.136 27.0279 520.945 27.6565C520.48 29.1842 519.599 30.756 518.961 31.9212C518.86 32.1036 518.757 32.2942 518.669 32.4593C518.511 32.9935 518.351 33.5505 518.21 34.0687C518.116 34.4391 518.04 34.8058 517.977 35.1722C517.912 35.21 517.845 35.2484 517.776 35.2874C516.93 35.7799 516.713 36.6718 516.578 38.1185C516.521 38.7539 516.482 39.5034 516.429 40.431C516.395 41.0287 516.132 41.3528 515.917 41.6214C515.854 41.7005 515.795 41.7752 515.748 41.8509C515.587 42.1108 515.781 42.3751 516.012 42.6858C516.311 43.0897 516.675 43.5711 516.414 44.2728C515.59 46.5271 516.3 47.5313 516.824 48.2991C516.978 48.5263 517.117 48.7346 517.195 48.9515C517.452 49.6537 517.222 50.6992 516.875 51.473C516.633 52.0203 516.76 53.0787 516.939 54.0198L516.952 53.8401C516.979 53.9315 517.008 54.0224 517.037 54.1116C517.142 54.4258 517.124 54.8466 517.104 55.346C517.082 55.8613 517.058 56.465 517.168 57.1165C517.446 58.7675 517.579 59.6567 517.683 60.3714C517.712 60.5749 517.739 60.7648 517.768 60.9554C517.857 61.5573 517.918 62.3052 517.976 63.0735C518.012 63.5671 518.047 64.0688 518.087 64.5452C518.121 64.9573 518.159 65.3465 518.207 65.6858C517.911 67.5634 517.549 69.2637 517.233 70.9564C517.068 71.8284 516.428 72.6368 515.421 73.2171C514.413 73.7951 513.126 74.0918 511.81 74.0276C510.494 73.9593 509.242 73.533 508.305 72.8255C507.368 72.1173 506.83 71.1859 506.79 70.2405C506.708 68.3343 506.675 66.4428 506.626 64.7044C506.618 64.424 506.61 64.144 506.603 63.8626C506.551 62.0019 506.52 60.0641 506.6 58.1204C506.664 56.5509 506.758 54.9751 506.904 53.3431C506.906 53.3206 506.908 53.2981 506.91 53.2757C506.919 53.2309 506.917 53.0925 506.928 53.0481C506.944 52.9346 506.96 52.8208 506.975 52.7073C506.742 51.6076 506.46 50.5085 506.343 49.7083C506.246 49.0486 506.398 48.5431 506.526 48.098C506.614 47.7922 506.691 47.5156 506.661 47.2386C506.645 47.0903 506.612 46.8851 506.573 46.636C506.418 45.6264 506.11 43.8043 506.372 41.9398C506.489 41.1192 506.758 40.1371 507.057 39.1956C507.479 37.8459 507.979 36.6037 507.97 35.9417C507.947 34.7694 508.395 33.4635 508.871 32.3773C509.117 31.8114 509.366 31.2983 509.546 30.8489C509.672 30.5377 509.748 30.2533 509.732 30.012C509.69 29.3848 509.966 28.9683 510.371 28.3675C510.654 27.9473 510.998 27.4368 511.355 26.6927C511.761 25.8454 512.184 25.2921 512.54 24.8314C513.002 24.2297 513.354 23.7742 513.453 22.9856C513.076 23.2546 512.723 23.5144 512.461 23.7737C512.111 24.1199 511.469 24.4156 510.814 24.7249C510.358 24.9392 509.91 25.1481 509.555 25.3782C509.208 25.6028 508.949 25.9543 508.701 26.2933C508.401 26.7028 508.11 27.0991 507.7 27.2337C507.617 27.2609 507.411 27.1736 507.153 27.0638C506.971 26.9859 506.759 26.8994 506.548 26.8333C506.152 27.1688 505.762 27.4881 505.358 27.8118C505.362 27.8443 505.366 27.8777 505.37 27.9114L505.371 27.9134C505.457 28.6764 505.599 29.6999 504.638 29.8382C504.396 29.8716 504.139 29.7703 503.908 29.679C503.682 29.5893 503.479 29.5081 503.34 29.5735C503.182 29.648 503.112 29.8841 503.04 30.136C502.937 30.4909 502.829 30.8821 502.433 30.9466C502.405 30.9513 502.375 30.9558 502.345 30.9612C502.056 31.0131 501.631 31.0883 501.064 30.9896C500.159 31.6169 499.252 32.2255 498.337 32.8294C496.809 33.84 495.288 34.8119 493.79 35.8138C493.076 36.2854 492.07 36.4116 490.975 36.136C489.893 35.8427 488.737 35.2547 487.794 34.3704C486.83 33.5096 486.209 32.337 485.997 31.1731C485.799 29.9961 486.066 28.8985 486.646 28.1634C487.614 26.9465 488.575 25.7724 489.549 24.6233C489.59 24.5506 489.633 24.4779 489.677 24.4065C489.981 23.8947 490.161 23.2504 490.316 22.6292C490.353 22.4856 490.391 22.3409 490.431 22.1976C490.741 21.1011 492.272 20.1065 493.122 19.5579C493.137 19.5478 493.153 19.5378 493.168 19.5276C493.367 19.3992 493.543 19.2601 493.749 19.095C494.241 18.7017 494.899 18.1755 496.493 17.3372C496.875 16.993 497.253 16.662 497.647 16.3284C501.853 12.7652 506.416 9.64473 511.056 6.64092C511.107 6.59454 511.16 6.547 511.213 6.49932C512.238 5.57698 513.514 4.4352 514.488 3.93487C515.731 3.29579 516.618 2.92049 517.355 2.62139C517.97 2.23067 518.594 1.83219 519.206 1.44073C519.707 1.10745 519.916 0.855227 521.254 0.330375ZM519.601 5.80401C519.604 5.6492 519.579 5.49383 519.544 5.6585C519.537 5.7109 519.531 5.79573 519.539 5.92901C519.543 5.98318 519.549 6.07233 519.571 6.19561C519.587 6.05204 519.597 5.92515 519.601 5.80401Z" fill="black"/>
<path d="M177.487 43.7829C183.24 43.4807 189.71 43.7087 194.508 43.9255C195.293 43.9606 196.032 43.9959 196.716 44.0271C200.526 43.9892 204.333 43.9739 208.136 43.9744C208.388 44.032 208.642 44.0916 208.9 44.1531C212.126 44.9212 216.103 45.0228 222.362 45.2146C225.089 45.2979 228.245 45.3994 231.952 45.573C234.339 45.6846 235.555 45.996 236.553 46.2497C236.844 46.3243 237.114 46.394 237.389 46.4519C238.368 46.6512 239.346 46.4979 240.566 46.3162C241.413 46.1836 242.414 46.0362 243.484 45.991C244.404 45.9568 245.336 45.9894 246.455 46.156C254.325 47.3571 257.854 46.9667 260.627 46.7273C261.451 46.661 262.189 46.6092 262.97 46.6365C264.125 46.6807 265.509 46.867 267.086 47.321C268.593 47.7088 270.746 48.8109 271.749 49.7019C271.863 49.7694 272.166 50.0129 272.267 50.0964C272.412 50.259 272.554 50.4196 272.692 50.5779C273.983 52.0649 277.09 54.4341 279.559 56.0945C280.493 56.724 281.649 57.6912 283.027 58.8308C284.446 60.0044 286.109 61.3673 287.967 62.6999C292.68 66.0781 295.205 67.859 297.228 69.2956C297.818 69.7142 298.336 70.0801 298.885 70.4675C298.929 70.499 298.974 70.5312 299.019 70.5632C299.036 70.575 299.082 70.6137 299.098 70.6257C300.768 71.8515 302.785 73.4008 304.82 74.9763C307.311 76.9034 309.839 78.8758 311.792 80.3191C316.503 84.5025 321.166 88.7275 325.822 92.9529C328.214 95.1254 330.187 97.5821 331.293 99.8035C332.397 102.024 332.548 103.823 331.694 104.826C330.84 105.829 329.04 105.965 326.672 105.229C324.303 104.491 321.565 102.937 319.04 100.926C313.957 96.878 308.87 92.8334 303.806 88.7868L292.055 79.3757C289.785 77.6233 287.554 75.872 285.316 74.0769C280.973 70.5911 276.665 67.0367 272.42 63.3601C271.985 62.9837 271.549 62.6038 271.112 62.2214C269.376 60.9314 267.65 59.6132 266.056 58.366C265.705 58.1732 265.555 58.1203 265.415 58.0788C265.269 58.0368 265.106 57.9971 264.881 57.947C264.429 57.8459 263.804 57.7428 263.192 57.6589C261.032 57.3727 259.101 57.0535 257.544 56.781C256.434 56.5955 255.477 56.4451 254.448 56.4021C253.925 56.3807 253.163 56.3613 252.272 56.3445C249.992 56.2988 246.791 56.2739 243.245 56.1755C241.004 56.1128 238.673 55.9942 236.422 55.8015C233.835 55.5799 230.832 55.2017 227.989 54.8415C223.912 54.3254 220.11 53.8482 218.192 53.8972C214.811 53.9817 210.948 53.7106 207.537 53.4861C204.283 53.2711 201.438 53.0994 199.815 53.2927C197.878 53.524 196.236 53.3937 193.785 53.2146C192.092 53.0914 190 52.9447 187.179 52.8992C183.918 52.848 181.596 52.6998 179.645 52.5837C176.879 52.4246 174.797 52.3201 171.74 52.7693C168.918 53.1865 166.012 53.5834 163.544 53.824C163.018 53.8749 162.516 53.9148 162.04 53.9441C160.77 54.0215 159.279 54.1845 157.742 54.3572C155.743 54.5818 153.575 54.8333 151.644 54.9343C150.03 55.0201 148.689 54.9264 147.498 54.8503C147.122 54.8272 146.765 54.8057 146.426 54.7908C145.161 54.9608 143.89 55.1435 142.657 55.3376C142.459 55.4092 142.247 55.488 142.031 55.5691C140.973 55.9732 139.632 56.4838 138.024 56.9402C135.463 57.672 133.231 58.0535 131.094 58.6599C129.468 59.1201 127.831 59.8011 127.019 60.7605C126.737 61.0927 126.555 61.4375 126.438 61.8523C126.158 62.6772 125.878 63.5244 125.6 64.3747C124.759 66.9398 123.988 69.4562 123.291 71.1452C123.027 71.7837 122.686 72.2774 122.344 72.7839C122.342 72.7861 122.34 72.7886 122.338 72.7908C122.315 72.825 122.292 72.8599 122.268 72.8943C120.949 77.1432 119.813 81.4495 118.892 85.78C118.84 86.1638 118.79 86.5445 118.74 86.9285C118.496 88.7948 118.304 90.6199 118.339 91.824C118.371 93.1383 117.938 96.3132 117.66 99.6745C117.474 101.871 117.35 104.142 117.356 105.999C117.358 106.455 117.316 106.9 117.25 107.342C117.159 107.954 117.017 108.571 116.875 109.2C116.645 110.204 116.411 111.252 116.377 112.406C116.36 112.979 116.388 113.614 116.419 114.28C116.446 114.876 116.475 115.494 116.476 116.15C116.478 116.754 116.305 118.097 116.086 119.817C115.95 120.88 115.796 122.089 115.653 123.361C115.552 126.739 115.446 130.122 115.316 133.515C115.415 134.236 115.562 134.857 115.77 135.362C115.92 135.722 116.106 136.032 116.297 136.354C116.556 136.791 116.824 137.239 117.019 137.853C117.172 138.325 117.206 138.889 117.102 139.248C117.054 139.415 116.977 139.543 116.907 139.66C116.827 139.793 116.755 139.913 116.746 140.062C116.739 140.17 116.78 140.285 116.83 140.426C116.909 140.65 117.011 140.958 116.981 141.392C116.912 142.415 116.811 143.519 116.69 144.659C116.614 145.387 116.527 146.112 116.432 146.837C116.153 148.977 115.796 151.078 115.538 152.747C115.254 154.624 114.523 157.229 113.71 159.721C113.146 161.464 112.556 163.156 112.102 164.601C111.658 166.017 111.342 167.511 111.042 168.943C110.68 170.666 110.344 172.302 109.814 173.62C109.707 173.888 109.422 174.17 109.062 174.538C108.806 174.804 108.519 175.088 108.23 175.442C107.824 176.956 107.423 178.467 107.025 179.987C106.968 180.208 106.909 180.431 106.85 180.656C106.861 180.725 106.871 180.796 106.882 180.868L106.884 180.872C107.135 182.48 107.484 184.659 106.299 187.315C105.998 187.991 105.652 188.377 105.342 188.726C105.036 189.072 104.764 189.376 104.6 189.883C104.414 190.461 104.378 191.179 104.34 191.967C104.285 193.072 104.229 194.302 103.75 195.44C103.717 195.518 103.683 195.601 103.646 195.688C103.303 196.513 102.796 197.735 102.079 198.904C101.125 202.633 100.193 206.368 99.3475 210.075C98.7701 212.616 98.2308 215.146 97.7987 217.621C97.1583 221.36 96.5602 225.083 96.0692 228.789C95.6599 231.852 94.8979 234.708 93.8827 236.861C92.8665 239.004 91.6365 240.29 90.3397 240.282C89.0518 240.281 87.7808 239.047 86.8554 236.704C85.9316 234.354 85.4981 231.147 85.6395 227.891C85.8097 223.948 86.0854 220.056 86.4159 216.169C86.54 214.752 86.6915 213.368 86.8602 211.995C86.88 211.707 86.9 211.43 86.9227 211.149C87.0921 209.058 87.0887 207.102 87.1005 205.152C87.1028 204.707 87.1075 204.252 87.1142 203.806C87.1592 200.383 88.7971 194.154 89.7401 190.766C89.757 190.704 89.774 190.641 89.7909 190.579C90.0131 189.773 90.2028 189.005 90.4257 188.109C90.9608 185.968 91.6772 183.084 93.577 177.171C93.6229 176.983 93.6685 176.796 93.7138 176.612C94.105 175.021 94.5109 173.442 94.9325 171.872C97.6526 161.652 100.89 152.662 101.798 143.335C102.753 134.533 103.499 125.412 104.356 116.351C104.368 116.106 104.38 115.857 104.392 115.606C104.533 112.732 104.698 109.442 104.938 106.432C105.109 104.278 105.354 102.292 105.636 100.7C106.52 95.7413 107.408 92.4547 108.173 89.7732C110.655 79.0373 114.462 68.6146 118.676 58.7898C122.454 51.1454 129.023 50.7395 133.596 49.4158C138.59 48.3407 143.442 47.7303 148.268 47.1296C152.715 46.5884 157.147 46.1095 161.553 45.6345C161.942 45.5753 162.332 45.5157 162.722 45.4558C164.905 45.1209 167.017 44.8338 168.973 44.5915C172.223 44.1909 175.1 43.9077 177.487 43.7829Z" fill="black"/>
</svg>
