<svg xmlns="http://www.w3.org/2000/svg" width="532" height="392" fill="none" viewBox="0 0 532 392"><path fill="#000" d="M377.855 10.566q1.09-.004 2.155.022c5.588.144 10.415.729 15.139 1.348l.071.01c.36.047.727.097 1.083.146 5.621.581 11.166 1.264 16.736 1.975 18.62 2.417 37.198 4.721 55.888 7.85 7.804 1.681 15.068 1.57 23.998 6.204 7.187 4.416 14.784 9.162 20.884 16.089 2.364 2.63 4.467 5.543 6.261 8.553a43 43 0 0 0 .372.607c1.944 3.614 5.762 6.519 6.255 13.976-.138 2.906-.852 4.656-1.2 6.21-.159.58-.255 1.11-.31 1.54.255.278.506.604.729.99 1.209 2.504.742 3.37.751 4.23-.089.812-.225 1.42-.36 1.99-1.641 6.611-3.424 12.116-4.845 16.7-.933 2.97-2.305 7.095-4.079 12.06-.327.959-.447 1.848-.42 3.592-.001.568.026 1.298.014 2.143 1.341 6.219 2.506 12.444 3.571 18.627 1.493 8.017 1.394 16.429.241 23.956-.757 4.83-1.189 9.304-2.372 14.453-.228.894-.473 1.819-.98 3.024-.271.614-.574 1.292-1.263 2.224-.661.848-2.019 2.459-4.734 2.951-9.731.442-14.796-1.691-21.556-3.806-1.923-.681-3.885-1.389-5.938-2.25-3.248-1.552-8.137-3.041-11.071-9.207.255.03-1.626-1.841-3.559-3.774a43.6 43.6 0 0 1-5.353-6.733c-1.04-1.612-1.705-3.211-2.224-4.734-1.957-5.931-2.218-11.947-3.843-15.917-.26-.625-.546-1.114-.766-1.383-.228-.276-.328-.311-.406-.341-3.005-1.493-6.096-2.986-9.419-4.797-1.183-.661-2.715-1.497-4.689-2.919-1.885-1.337-4.782-3.964-6.206-7.588-.784-1.917-1.604-4.061-2.205-6.733-.377-2.173-1.088-4.883.012-8.419a29.4 29.4 0 0 0-4.168 2.814c-.834.678-1.609 1.41-2.153 2.057a6 6 0 0 0-.483.643c.01 1.191.06 2.455.129 3.748.335 5.85 1.143 11.873.59 18.824-.805 11.822-5.797 23.377-6.655 32.512.261 4.971 2.383 14.568 2.772 22.349.339 4.486.484 9.489.836 13.409q.19.063.385.124c1.093.339 2.251.658 3.361.948 2.239.584 4.35 1.076 6.233 1.49 2.999.657 5.575 1.141 8.225 1.64 2.105.396 4.259.799 6.703 1.29 1.701.339 3.57.711 5.689 1.149 3.974.819 8.69 1.911 11.853 2.803 1.472.415 2.6.779 3.627 1.115.537.175 1.057.347 1.579.513a40 40 0 0 0 1.89.558c.915.246 1.883.454 3.103.726 2.018.533 4.305.7 9.341 3q.605.299 1.238.665c7.765 4.437 15.324 10.959 21.264 18.553 4.248 5.245 8.763 11.822 11.707 18.518 2.183 4.803 3.869 9.498 5.428 14.088 2.35 7.113 5.56 15.106 4.993 24.467-.377 6.409-3.46 11.719-5.854 15.232-3.225 4.704-6.943 9.029-10.879 13.776-4.544 6.306-10.221 18.517-15.532 29.206-1.159 2.306-2.083 4.465-4.002 7.487-.921 1.461-2.682 3.483-4.457 4.675-4.424 3.237-9.8 7.18-15.77 9.99-3.057 1.404-6.322 2.716-10.571 3.105-4.046.553-10.428-1.223-13.517-5.364a740 740 0 0 1-4-4.919c-3.084-3.842-6.226-7.763-9.284-12.105-1.525-2.197-3.043-4.439-4.47-7.326-.699-1.49-1.44-3.055-1.862-5.59-.183-1.257-.297-2.882.243-4.879.502-1.99 1.966-4.124 3.508-5.293 3.134-2.277 4.644-2.518 6.211-3.242 1.497-.611 2.734-1.145 3.731-1.692 1.147-.622 1.914-1.239 2.323-1.729 1.594-1.815 2.981-5.316 3.745-8.908.324-5.578.766-16.719 2.62-24.094.572-2.553 1.503-5.649 2.923-9.371l.273-.703c1.052-2.71 2.305-5.828 3.693-9.309 1.623-4.804 3.772-10.745 3.698-13.042-.093-3.002-.168-5.983-.273-8.904a133 133 0 0 0-.21-4.251q-.016-.21-.033-.414c-2.968-.881-6.462-1.613-9.854-2.273-.541-.076-1.121-.157-1.689-.232l-.028-.004c-5.849-.78-12.763-1.494-20.925-2.291-8.288-.886-17.871-1.184-30.075-3.724a434 434 0 0 1-6.144-1.463c-6.346-1.559-10.179-2.643-13.508-3.403-1.62-.368-3.124-.663-4.558-.808a13 13 0 0 0-1.952-.066h-.011c.011.631.109 1.453.299 2.341.489 2.333 1.228 4.756 2.217 7.212 2.061 5.149 5.256 10.39 9.141 15.66 2.239 3.107 4.351 5.859 6.731 8.714.448.538.949 1.13 1.464 1.727a157 157 0 0 0 5.354 5.876c4.69 4.951 10.43 10.603 15.934 17.202 2.806 3.445 5.991 6.348 7.905 12.877 1.537 10.516 1.202 17.943 2.147 26.559.9 7.493 2.408 16.635 1.9 25.433-.239 5.14-.43 10.351-.775 15.639-.177 2.652-.383 5.309-.73 8.083-.179 1.39-.384 2.798-.725 4.353a21 21 0 0 1-.717 2.556c-.473.991-.406 2.046-2.844 4.227-4.655 3.081-9.137 4.257-14.813 2.55a14 14 0 0 1-3.273-1.637c-1.332-.893-2.189-2.027-2.722-2.878a41 41 0 0 1-1.74-.102 26 26 0 0 1-4.674-.81c-3.089-.837-5.845-2.201-8.307-3.757-.81-.538-1.83-1.16-2.961-2.705-1.206-1.537-1.613-4.222-1.371-5.563.235-1.746.661-2.616.947-3.383.298-.733.532-1.296.6-1.522 1.653-6.461 2.448-15.621.995-21.789-1.637-6.492-3.175-12.692-4.131-19.768-.294-1.447.586-3.714 1.31-4.414l.111-.125c1.009-8.55.456-23.495-5.617-28.204-.827-.689-5.24-2.195-8.474-3.81-9.601-5.982-16.049-11.678-23.808-17.3a117 117 0 0 1-8.714-5.128l-.133-.105c-2.443-1.842-5.013-3.982-7.681-6.41-4.359-3.972-8.89-8.607-13.422-13.88-5.606-4.756-17.801-7.961-28.867-9.622-8.411-1.225-15.979-4.265-23.617-7l-.096-.035c-17.304-6.468-34.389-13.19-51.478-20.187-2.726-1.133-5.375-2.216-8.227-3.55a33 33 0 0 1-2.293-1.178c-.439-.262-.865-.487-1.624-1.107l-.094-.084c-9.067.902-18.115 2.022-26.829 3.603-3.484.667-6.954 1.346-10.308 2.107-2.365.514-5.234 1.309-6.784 1.933a15.2 15.2 0 0 0 1.176 4.329c3.757 7.176 9.36 16.447 13.303 25.117 5.385 11.527 10.101 23.048 15.707 33.801 4.086 7.896 8.984 14.973 14.328 22.8 4.637 7.056 12.238 16.293 12.409 27.706.318 6.767.219 13.328-.595 20.221a54 54 0 0 1-.741 4.499c-.454 2.084-.724 4.276-1.172 6.915-.252 1.338-.471 2.767-1.278 4.736-.421.974-1.042 2.188-2.269 3.382-1.207 1.209-3.09 2.086-4.636 2.303-3.385.571-7.724.73-11.878-1.028-4.308-1.711-7.84-4.913-10.247-6.539-3.891-2.696-13.505-3.188-21.363-4.353-.504-.076-.97-.11-2.009-.446-.54-.259-1.271-.225-2.886-1.928-.807-.839-1.6-2.86-1.4-4.356.152-1.497.624-2.24.925-2.755.643-.982 1.018-1.258 1.33-1.558.309-.275.541-.455.754-.614.423-.314.749-.527 1.062-.732 7.057-4.275 12.571-8.664 14.317-14.329 1.113-3.459 1.036-4.936.018-8.227-3.446-10.355-6.506-20.968-12.021-28.348-2.02-2.635-4.426-4.929-7.203-6.98-3.674-2.859-7.726-4.386-13.081-8.753-1.289-1.156-2.799-2.794-3.683-5.189-.986-3.208-.776-4.302-1.054-5.66-.198-1.264-.467-2.329-.859-3.359-3.556-7.807-9.528-17.299-13.881-26.197q-.27-.543-.513-1.087c-2.544 6.343-4.723 10.232-6.582 15.379-1.704 4.406-3.017 8.484-3.371 11.881-.198 1.84-.14 3.497.151 5.115.706 3.91 2.978 9.834 3.241 15.3.548 14.729-3.811 24.224-6.245 33.302q-.424 1.38-.849 2.707c-1.4 4.386-2.838 8.463-3.908 12.193-.53 1.855-.962 3.653-1.115 5.061-.059.515-.067.971-.051 1.25.463.401 1.073.878 1.724 1.372 2.149 1.922 6.01 3.382 9.273 10.008.437 1.024 1.03 3.188.227 5.481-.8 2.272-2.315 3.448-3.3 4.092-2.071 1.254-3.415 1.471-4.744 1.775q-1.783.359-3.672.709c-7.656 1.292-15.89 3.037-26.926 2.692-1.467-.114-3.025-.214-5.015-.637-1.77-.486-5.352-1.058-7.674-5.462-2.82-6.223-6.06-11.36-8.471-20.631-.813-5.304-2.831-11.159-3.02-18.458-.122-6.693-.212-13.365.71-20.773.893-6.461 1.883-12.941 3.088-19.487.613-3.284 1.255-6.537 2.129-9.96.47-1.743.863-3.375 1.854-5.63.338-.681.549-1.272 1.544-2.482a7.4 7.4 0 0 1 1.313-1.191c.32-.224.696-.449 1.145-.648a6.6 6.6 0 0 1 1.976-.519c3.616-.211 5.158 1.8 5.823 2.588a8.4 8.4 0 0 1 1.05 1.825c.168.395.298.768.413 1.139.205.675.313 1.146.44 1.752.22 1.087.403 2.121.575 3.025.42-.043.747-.066 1.057-.087.697-.046 1.261-.08 1.801-.132 1.071-.101 2.006-.261 2.89-.51 3.537-.973 5.938-2.446 6.597-4.037 1.07-2.673 1.715-8.637 1.755-13.477.297-7.008-.777-14.471 1.828-23.034 1.375-4.428 3.34-8.883 6.085-12.84 1.293-1.896 2.843-3.703 3.937-5.056 2.096-2.332 2.58-9.637 4.508-15.811 2.805-9.194 7.102-17.226 10.148-23.979.126-.186.378-1.679.498-3.033.146-1.417.267-2.973.59-4.704.373-1.715.727-3.781 2.698-6.076.271-.323.571-.612.891-.87-.399-3.29-.64-6.683-.434-9.714.213-7.244.348-14.439.966-21.835-2.81 2.195-5.705 4.058-8.439 5.599-12.838 7.373-24.092 12.908-32.28 16.244l-.008.004c-9.54 3.849-18.578 6.557-29.196 7.975-7.382.813-15.923 1.881-25.853-.937l-.506-.15c-2.347-.709-4.738-1.499-7.264-2.501-1.264-.509-2.553-1.051-3.982-1.823-.732-.414-1.453-.79-2.493-1.7-.474-.549-1.337-.886-1.932-3.318-.119-.537-.091-1.173.037-1.791a4.1 4.1 0 0 1-1.289-.81q-.05-.046-.1-.096c-.036-.036-.06-.058-.147-.152-.58-.553-1.35-2.146-.979-3.621a4.1 4.1 0 0 1 .744-1.611c.171-.22.202-.244.272-.322q.097-.102.187-.187a4.328 4.328 0 0 1 1.373-.861c8.724-2.278 14.319-1.871 20.836-3.008 8.145-1.237 16.304-1.993 22.056-4.173a12 12 0 0 0 1.689-.813c7.217-4.038 13.014-10.774 22.829-16.802 1.99-1.054 3.986-2.449 5.997-3.996 6.451-4.424 12.096-12.622 24.136-13.097 10.157.033 21.347 3.487 27.391.698l.174-.078c5.17-2.014 9.286-3.287 12.994-4.875-.911-1.251-.812-2.477-.706-3.124a5.2 5.2 0 0 1 .55-1.572 6.5 6.5 0 0 1 1.6-1.972l.538-.464c3.649-3.347 8.697-5.965 13.855-8.215 8.267-3.229 15.895-2.103 24.695-2.02 1.083.043 2.134.09 3.226.143 23.392 1.198 44.106 2.813 65.937 4.673.919.08 1.874.164 2.78.245 7.592.342 17.046 2.85 23.717 3.141-1.329-2.729-2.06-5.912-1.528-9.333a7.3 7.3 0 0 1 .574-1.881c.159-.33.307-.661.738-1.21.246-.277.486-.641 1.367-1.132a4 4 0 0 1 2.067-.45c.91.039 1.76.458 2.235.845 1.473 1.36 1.304 1.877 1.513 2.3.126.42.174.687.222.948.086.499.127.873.169 1.228l.006.05c2.595-1.888 5.809-4.677 9.473-6.747 7.906-4.61 15.876-9.539 21.374-16.807a227 227 0 0 1 4.237-5.264c4.529-5.435 9.425-10.574 14.636-15.154 4.248-3.748 9.351-8.336 15.731-10.03 10.009-2.989 19.929-4.515 28.074-4.483m25.295 375.506q.085.017.161.023a1 1 0 0 0-.161-.023M379.882 19.51c-9.309-.197-18.456 1.398-27.688 4.056-4.373 1.12-8.067 4.318-12.419 8.097-6.579 5.686-12.434 12.136-17.965 19.128-6.465 8.357-15.541 13.89-23.904 18.683-3.921 1.996-5.912 4.99-12.034 8.066.192.874.169 1.552.209 1.91.008.388.087.884-.093 1.96-.108.537-.294 1.32-.959 2.23-.647.92-1.852 1.645-2.726 1.853-7.04 1.464-11.23-.54-15.914-1.031a185 185 0 0 0-13.82-1.679c-15.665-1.302-31.428-2.443-47.155-3.523-7.112-.484-14.251-.953-21.352-1.367-1.933-.074-3.942-.187-5.964-.291.576.902.749 2.777.135 3.892-.565 1.144-1.238 1.536-1.399 1.673-1.099.71-1.231.622-1.595.768-1.038.3-1.516.36-2.157.485-1.195.216-2.306.397-3.415.594q-1.018.18-2.022.372c-1.721 1.372-3.698 2.798-5.984 3.715-2.357.987-4.832 1.976-7.631 2.6-1.41.3-2.909.537-4.676.4a8 8 0 0 1-.985-.128c-5.305 3.061-11.627 4.964-16.357 6.832a6 6 0 0 1-.026.482c-.062.575-.157.878-.232 1.137-.16.511-.296.807-.426 1.093-.354.747-.64 1.221-.928 1.712-1.206 2.005-2.403 3.749-3.324 5.325q-.687 1.319-1.473 2.565c-.638 2.624-1.11 5.563-1.528 8.564-.944 7.468-1.219 16.122-1.516 25.422-.175 3.056.012 5.724.369 8.589a5 5 0 0 1 1.226 1.177c.466.649.606 1.046.733 1.365.232.638.292.998.357 1.337.111.64.147 1.098.183 1.534.064.859.09 1.58.123 2.283.06 1.39.129 2.64.253 3.792a2 2 0 0 0-.036-.178c-.014-.059-.032-.139-.088-.308-.028-.084-.062-.186-.139-.363a5 5 0 0 0-.169-.343c-.093-.161-.159-.295-.424-.635q-.038-.046-.079-.092c.593 1.071.788 1.694.765 3.104-.024.237-.013.434-.195 1.066a4.3 4.3 0 0 1-.661 1.304l-.043.053a18 18 0 0 1-.338 1.831c-.102.431-.217.854-.359 1.307-.072.227-.15.461-.251.727-.115.285-.181.513-.523 1.119-.393.567-.403.962-1.839 2.131-.458.295-.906.677-2.232.869-1.066.153-2.304-.239-3.092-.779-3.006 6.568-6.055 12.872-8.107 19.828-1.883 5.196-.864 11.279-5.933 19.003-4.05 4.73-6.519 9.035-8.275 14.903-1.668 5.077-1.147 11.508-1.226 18.393 0 .644-.003 1.277-.007 1.916-.149 6.577-.358 11.666-2.574 17.483-3.313 6.667-9.12 8.172-12.776 9.308-1.712.475-3.35.7-4.815.814-.53.041-1.04.067-1.506.089-.134.243-.32.53-.585.872a4.3 4.3 0 0 1-1.398 1.056c-1.887.785-2.98.266-3.665.038a6.2 6.2 0 0 1-1.59-.949c-1.373-1.13-2.233-2.457-2.808-3.761-.564 2.941-1.06 6.058-1.545 9.34a600 600 0 0 0-1.964 14.861c-.62 5.548-.608 12.095-.455 19.173.03 4.715 1.617 10.061 2.654 16.467l.086.533c1.313 5.52 4.7 12.248 7.296 17.94.185.098.57.239 1.024.343 1.006.235 2.305.369 3.617.478 9.851.395 19.704-1.461 28.024-3.008-1.772-2.164-5.177-4.22-8.292-7.011-3.794-4.339-2.392-8.036-2.163-10.706.488-2.767 1.178-5.168 1.838-7.456 1.34-4.544 2.622-8.552 3.66-12.318 1.676-6.047 3.06-11.383 4.02-16.297.94-4.855 1.422-9.22 1.006-13.301a35 35 0 0 0-.636-4.063c-.56-2.782-1.847-6.011-2.62-10.19-1.539-8.058 1.203-16.073 3.889-22.882 2.261-6.066 5.999-12.943 7.751-17.634 1.726-5.38 3.745-9.981 5.803-14.522.265-.466.127-.622 1.266-1.918a4.5 4.5 0 0 1 .462-.406q.135-.104.295-.21a4.5 4.5 0 0 1 1.815-.687c.822-.142 1.941.048 2.659.439a4.5 4.5 0 0 1 1.308 1.009 4.9 4.9 0 0 1 .785 1.194q.091.2.156.369c.035.091.062.17.089.248.354 1.164.358 1.579.454 2.164.144 1.062.238 1.991.346 2.9.445 3.739 1.1 8.262 3.038 12.284 3.804 8.084 9.165 16.267 14.175 27.218.659 1.748 1.094 3.597 1.358 5.325.249 1.646.451 3.594.57 3.745.093 1.002 4.62 3.693 8.263 5.823 3.816 2.277 7.627 4.968 10.79 8.098a42 42 0 0 1 3.696 4.141c6.307 8.15 9.783 19.345 13.731 31.341q.34 1.02.619 2.12c1.118 3.707.698 9.008-.578 12.445-1.87 6.091-6.056 10.794-10.696 14.536 2.648.364 5.392.813 8.313 1.469 2.508.606 5.311 1.585 7.755 3.263 3.672 2.565 5.763 4.44 8.401 5.445 1.354.555 3.023.671 4.965.433.143-.523.298-1.283.422-2.061.349-2.174.655-4.678 1.173-7.14 1.36-7.456 1.294-15.333.966-21.887-.304-8.909-6.105-15.001-10.74-22.163-1.713-2.546-3.519-5.08-5.217-7.583-3.634-5.324-6.845-10.554-9.703-15.93l-.107-.2c-5.412-10.198-10.415-22.167-16.04-34.178-3.715-7.978-7.912-15.119-12.752-23.82a30 30 0 0 1-.761-1.61c-1.383-3.116-2.145-6.769-2.234-10.036-.054-1.043.123-2.775.92-4.271.782-1.495 1.766-2.375 2.491-2.958 5.501-3.698 8.742-3.649 12.486-4.71 3.627-.826 7.14-1.517 10.621-2.191 16.181-2.903 31.075-4.236 43.942-5.26l.475-.034c10.197-.616 20.504-.787 31.016.422 3.981.481 8.331 1.166 12.559 2.759.605.237 1.004.322 2.296.963.184.098.388.207.716.423.333.249.717.407 1.594 1.463.213.271.491.676.727 1.168.273.58.513 1.251.597 2.199a5.7 5.7 0 0 1-.141 1.891c3.945.62 9.452 1.696 16.357 3.247 2.286.517 4.733 1.13 7.281 1.81a404 404 0 0 1 38.877 12.707c2.425.954 4.849 1.955 7.392 3.218 1.274.642 2.563 1.323 3.995 2.304.717.502 1.48 1.069 2.334 1.956.424.445.882.999 1.293 1.666.411.648.753 1.476.887 1.843 2.618 7.335 2.68 14.149 2.711 20.864-.012 1.772-.055 3.52-.099 5.226-.017.701-.034 1.416-.044 2.083.384.228.812.483 1.231.737a67 67 0 0 1 4.353 2.878c7.992 5.631 16.85 12.794 23.432 16.865 1.364.651 2.803 1.237 4.412 1.876 1.653.726 3.264 1.058 6.097 3.08 7.116 5.843 8.787 13.592 9.877 20.233.488 3.398.675 6.756.667 10.084a77 77 0 0 1-.175 5.009 63 63 0 0 1-.224 2.543c-.052.465-.104.89-.173 1.365-.031.213-.081.522-.125.765-.09.401-.024.421-.409 1.582a7 7 0 0 1-.336.767c.873 5.091 2.267 10.663 3.654 15.903 1.92 8.073 1.295 14.781.423 21.791-.3 2.072-.572 3.958-1.286 6.473q-.097.315-.19.586c1.055.502 2.087.878 3.085 1.115.819.196 1.603.305 2.505.355.977.081 1.737-.063 4.19.211 1.728.179 3.975 1.409 5.017 2.605.928.999 1.34 1.732 1.605 2.193.207.041.451.033.891-.024a5 5 0 0 0 .863-.226c.101-.541.197-1.184.278-1.843.218-1.769.359-3.707.467-5.666.198-3.639.286-7.393.364-11.193.046-2.237.095-4.654.165-7.227.254-6.719-.832-13.669-2.161-23.503-.934-8.176-1.121-18.699-1.991-24.722.028-.291-1.343-2.701-2.947-4.614-1.632-2.026-3.561-4.113-5.534-6.172-3.976-4.131-8.148-8.2-12.085-12.181-6-6.012-11.364-12.44-15.182-17.929l-.424-.593q-.524-.735-1.046-1.489c-4.44-6.501-8.374-13.35-10.909-22.399a56 56 0 0 1-1.024-4.421c-.306-1.641-.539-3.411-.491-5.534.192-2.176-.051-4.445 2.64-8.424 4.354-5.323 9.654-5.224 12.787-5.329 3.392.033 6.321.502 9.323 1.035 5.935 1.092 12.019 2.601 18.849 4.109 7.508 1.64 17.282 2.406 28.705 3.887 7.474 1.002 15.56 2.177 24.495 3.981 3.567.715 7.032 1.422 10.957 2.637.626.202 1.25.397 2.151.756.456.188.996.408 1.771.862.75.429 1.903 1.309 2.697 2.356 1.132 1.555 1.189 2.123 1.423 2.713.174.532.268.931.344 1.275.149.689.225 1.219.291 1.712.129.995.197 1.826.258 2.658.116 1.646.181 3.187.24 4.718.113 3.053.189 6.018.283 8.985-.406 8.819-2.869 12.624-4.424 17.916a490 490 0 0 0-3.292 9.924c-3.342 10.31-3.612 18.301-4.748 32.37-1.2 5.044-2.845 10.369-7.183 15.434-2.828 3.164-6.097 4.853-8.835 6.087-.975.433-1.91.81-2.757 1.15l.042.076c1.144 2.077 2.744 4.389 4.416 6.667 3.37 4.567 7.112 9.145 10.885 13.718a.4.4 0 0 1 .052.059c.071.031.493.111 1.188.031 1.408-.142 3.554-.885 5.647-1.918 4.341-2.135 8.388-5.064 13.191-8.638.106.411 2.139-3.314 3.644-6.552 5.395-10.714 9.124-20.552 17.337-32.364 5.981-7.388 13.378-15.268 13.374-20.471.409-5.127-1.808-11.609-4.212-18.613-3.594-10.836-7.514-19.596-14.671-28.107-4.8-6.107-10.457-11.145-17.051-14.982-2.121-1.247-7.421-2.52-11.917-3.778-7.336-2.004-14.947-3.8-22.627-5.88-4.751-1.294-9.526-2.592-14.305-3.937a310 310 0 0 1-7.247-2.117 88 88 0 0 1-3.806-1.255 32 32 0 0 1-2.174-.861 15 15 0 0 1-1.466-.74 11 11 0 0 1-1.114-.742c-.428-.361-1.114-.797-2.015-2.254-.97-1.808-.937-2.395-1.114-3.066a20 20 0 0 1-.247-1.576 48 48 0 0 1-.222-2.47c-.103-1.528-.171-2.962-.242-4.389-.139-2.85-.278-5.639-.454-8.44-.305-7.814-2.168-13.11-2.611-24.142 1.649-13.329 6.178-22.288 6.892-32.691.578-6.222-.568-13.674-.667-21.932.286-4.57 1.982-5.991 3.1-7.592 1.224-1.488 2.447-2.618 3.693-3.662a41 41 0 0 1 7.915-5.146c5.501-2.516 10.713-2.871 17.014.058 1.192.642 2.268 1.847 2.777 2.91a7.1 7.1 0 0 1 .737 2.628c.096 1.35-.09 2.113-.25 2.79-.36 1.317-.763 2.162-1.46 3.225-1.021 1.507-2.217 2.52-2.939 3.131l-.337.285a6.4 6.4 0 0 0 .163 1.857c.294 1.472.9 3.226 1.637 5.001.203.486.377.777.648 1.115.534.676 1.876 1.681 3.568 2.675 3.046 1.792 6.726 3.601 10.406 5.476 8.163 5.066 7.735 11.704 8.916 15.991.79 4.491 1.583 8.95 2.779 10.669a30 30 0 0 0 3.825 4.776c1.352 1.633 3.641 2.536 6.118 7.371-.516.435 5.139 3.221 9.958 4.665a74 74 0 0 0 8.571 2.326 51 51 0 0 0 4.163.684q.113.011.225.023c.223-1.025.428-2.157.62-3.291.492-2.931.933-5.951 1.411-8.91 1.178-7.319 1.072-14 .018-20.126l-.008-.052c-.6-3.655-1.204-7.301-1.831-10.836-1.967-.823-3.276-2.304-4.048-4.313-1.653-4.199-5.518-10.58-7.004-18.06-.223-1.127-.451-2.323-.473-3.953.003-.824.033-1.77.397-3.045.34-1.225 1.292-3.1 3.099-4.257 1.147-.785 2.839-1.197 4.161-1.069 1.338.109 2.285.53 2.983.91 1.376.789 2.036 1.523 2.633 2.178.86 1.037 1.566 1.932 2.21 2.906q.399-1.11.786-2.205c1.714-4.993 3.42-10.108 4.745-14.993a5.5 5.5 0 0 1-.783-1.63c-.947-3.702-.06-6.108.369-7.975.509-1.828.952-3.42.942-3.918.315-.895-2.563-5.292-5.126-9.48-5.123-9.325-13.829-15.535-23.731-21.593-4.437-2.636-13.415-3.662-20.754-5.136-18.231-3.179-36.889-5.625-55.433-8.148-10.776-1.4-21.602-2.945-32.026-3.181m34.841 358.392-.024.02c.039-.025.076-.045.103-.064.045-.03.116-.095-.079.044m-215.781-20.54a1 1 0 0 0-.124.021q.062-.01.124-.021m191.638-27.258c-.082.053-.081.074.054-.046q-.034.027-.054.046m-129.121-124.26c-1.15 1.133-1.613 1.144-2.027 1.38-.828.343-1.147.389-1.48.472-.321.072-.546.11-.775.148-7.162.751-12.095.209-17.885-.038-2.561-.15-5.122-.323-7.678-.503 11.335 4.61 22.74 9.12 34.114 13.466q.048.017.094.036c7.503 2.77 14.794 5.743 21.581 6.873 12.311 2.634 23.492 4.332 33.931 14.156a210 210 0 0 0 11.765 14.236q.303.334.603.661c.053-1.509.102-2.984.126-4.457.091-6.181-.122-12.471-1.745-17.24.594.311-1.572-1.502-3.563-2.48-2.062-1.111-4.282-2.133-6.517-3.114-13.669-5.874-26.657-10.869-37.335-14.909a417 417 0 0 0-6.866-2.514c-7.087-2.503-12.621-4.574-16.343-6.173m-108.085 6.82.046-.041zm271.895-11.225c.021.093.038.16.046.175.005.008.006-.011-.025-.117zM114.583 100.861c.064.212.112.428.133.646a3.8 3.8 0 0 1-.289 1.912c-.415.885-.773 1.134-.992 1.345-.444.367-.599.419-.736.498l-.092.046-.022.01-.041.02c-.103.047-.167.072-.221.094-.225.086-.237.085-.313.111l-.177.056-.238.071q-1.454.393-2.843.871c.227.105.42.178.561.234.705.232 1.047.242 1.312.267l.16.009.032.001.061.002h.201a4.672 4.672 0 0 0 .565-.044c.258-.038.236-.039.267-.044l.026-.005-.046.011-.187.047c-.278.071-.613.161-.923.248-.644.179-1.296.37-1.946.566-1.303.393-2.612.811-3.908 1.25-2.55.867-5.095 1.82-7.367 2.887-2.525 1.543-4.975 3.212-7.44 4.905-7.254 5.195-14.546 12.456-24.694 17.208-5.018 2.378-10.384 3.767-16.149 4.805-4.598.81-9.227 1.287-13.871 1.548a562 562 0 0 1-11.13.511c-.966.177-1.881.35-2.733.522q-1.296.395-2.577.789 1.184.379 2.36.723c1.457.427 2.933.742 4.424.963 5.885.864 11.972.32 17.68-.364l.447-.057c8.939-1.262 17.942-3.893 26.535-7.278 10.577-4.238 20.933-9.798 31.033-15.637 6.279-3.656 11.543-7.72 15.357-13.313.514-2.048 1.243-4.103 2.376-6.136a47 47 0 0 1-4.595-.298m-14.684-1.505c-5.132-.088-10.308 4.653-16.405 9.529 3.473-1.844 6.835-3.56 10.118-5.049q1.102-.507 2.178-.953a69 69 0 0 1 6.99-3.49 32 32 0 0 0-2.88-.037m29.681 3.557a3 3 0 0 0-.168.123c.129-.082.152-.107.168-.123m36.034-25.366c-2.224.202-4.259.582-5.981 1.238-1.137.478-2.232.949-3.292 1.43 2.265-.647 4.48-1.153 6.626-1.593a81 81 0 0 1 1.707-.328q.45-.363.94-.747"/><path fill="#000" d="M521.254.33c.408-.13 2.039-.727 4.004.099 1.046.432 1.914 1.273 2.365 1.999.368.578.556 1.1.673 1.536.342 1.54.152 1.984.115 2.48-.078.532-.152.795-.246 1.162-.356 1.265-.731 2.147-1.11 3.078-.767 1.839-1.531 3.503-2.274 5.205a148 148 0 0 0-1.614 3.813 151 151 0 0 0-1.375 3.517c-.152.727-.268 1.43-.374 2.08-.149.913-.282 1.729-.473 2.358-.465 1.527-1.346 3.099-1.984 4.264-.101.183-.204.373-.292.538a78 78 0 0 0-.459 1.61q-.14.554-.233 1.103l-.201.115c-.846.493-1.063 1.385-1.198 2.831-.057.636-.096 1.385-.149 2.313-.034.598-.297.922-.512 1.19q-.096.118-.169.23c-.161.26.033.524.264.835.299.404.663.885.402 1.587-.824 2.254-.114 3.258.41 4.026.154.227.293.436.371.653.257.702.027 1.747-.32 2.521-.242.547-.115 1.606.064 2.547l.013-.18q.041.137.085.272c.105.314.087.735.067 1.234-.022.515-.046 1.119.064 1.77.278 1.651.411 2.54.515 3.255.029.204.056.394.085.584.089.602.15 1.35.208 2.119.036.493.071.995.111 1.471.034.412.072.802.12 1.14-.296 1.878-.658 3.579-.974 5.271-.165.872-.805 1.68-1.812 2.261-1.008.578-2.295.875-3.611.81-1.316-.068-2.568-.494-3.505-1.201-.937-.709-1.475-1.64-1.515-2.585-.082-1.907-.115-3.798-.164-5.537l-.023-.841c-.052-1.861-.083-3.799-.003-5.743a98 98 0 0 1 .304-4.777l.006-.067c.009-.045.007-.184.018-.228l.047-.34c-.233-1.1-.515-2.2-.632-3-.097-.66.055-1.165.183-1.61.088-.306.165-.582.135-.86-.016-.148-.049-.353-.088-.602-.155-1.01-.463-2.832-.201-4.696.117-.82.386-1.803.685-2.744.422-1.35.922-2.592.913-3.254-.023-1.173.425-2.478.901-3.565.246-.566.495-1.079.675-1.528.126-.311.202-.596.186-.837-.042-.627.234-1.044.639-1.645.283-.42.627-.93.984-1.674.406-.848.829-1.4 1.185-1.862.462-.601.814-1.057.913-1.845-.377.269-.73.528-.992.788-.35.346-.992.642-1.647.95-.456.215-.904.424-1.259.654-.347.225-.606.576-.854.915-.3.41-.591.806-1.001.94-.083.028-.289-.06-.547-.17a7 7 0 0 0-.605-.23c-.396.336-.786.655-1.19.979l.012.1.001.001c.086.763.228 1.787-.733 1.925-.242.034-.499-.068-.73-.159-.226-.09-.429-.17-.568-.105-.158.074-.228.31-.3.562-.103.355-.211.746-.607.81l-.088.015a3.4 3.4 0 0 1-1.281.029c-.905.627-1.812 1.235-2.727 1.84-1.528 1.01-3.049 1.982-4.547 2.984-.714.471-1.72.598-2.815.322a7.65 7.65 0 0 1-3.181-1.766 5.73 5.73 0 0 1-1.797-3.197c-.198-1.177.069-2.274.649-3.01a147 147 0 0 1 2.903-3.54q.062-.109.128-.216c.304-.512.484-1.157.639-1.778q.055-.215.115-.431c.31-1.097 1.841-2.091 2.691-2.64l.046-.03c.199-.129.375-.268.581-.433.492-.393 1.15-.92 2.744-1.758.382-.344.76-.675 1.154-1.009 4.206-3.563 8.769-6.683 13.409-9.687l.157-.142c1.025-.922 2.301-2.064 3.275-2.564a33 33 0 0 1 2.867-1.314c.615-.39 1.239-.789 1.851-1.18.501-.334.71-.586 2.048-1.11m-1.653 5.474c.003-.155-.022-.31-.057-.146a1.4 1.4 0 0 0-.005.271c.004.054.01.143.032.267.016-.144.026-.27.03-.392M177.487 43.783c5.753-.302 12.223-.074 17.021.142l2.208.102c3.81-.038 7.617-.053 11.42-.053q.377.087.764.18c3.226.767 7.203.869 13.462 1.06 2.727.084 5.883.185 9.59.359 2.387.112 3.603.423 4.601.677.291.074.561.144.836.202.979.2 1.957.046 3.177-.136.847-.132 1.848-.28 2.918-.325a15.6 15.6 0 0 1 2.971.165c7.87 1.201 11.399.81 14.172.571.824-.066 1.562-.118 2.343-.09 1.155.044 2.539.23 4.116.684 1.507.388 3.66 1.49 4.663 2.38.114.068.417.312.518.395l.425.482c1.291 1.487 4.398 3.856 6.867 5.516.934.63 2.09 1.597 3.468 2.737 1.419 1.173 3.082 2.536 4.94 3.869 4.713 3.378 7.238 5.159 9.261 6.596l1.791 1.267c.017.012.063.05.079.063 1.67 1.225 3.687 2.775 5.722 4.35 2.491 1.927 5.019 3.9 6.972 5.343 4.711 4.183 9.374 8.409 14.03 12.634 2.392 2.172 4.365 4.63 5.471 6.85 1.104 2.221 1.255 4.02.401 5.023s-2.654 1.139-5.022.403c-2.369-.738-5.107-2.292-7.632-4.303-5.083-4.048-10.17-8.093-15.234-12.14l-11.751-9.41a459 459 0 0 1-6.739-5.3c-4.343-3.485-8.651-7.04-12.896-10.716q-.652-.564-1.308-1.139a259 259 0 0 1-5.056-3.855c-.351-.193-.501-.246-.641-.287a9 9 0 0 0-.534-.132 22 22 0 0 0-1.689-.288c-2.16-.286-4.091-.605-5.648-.878-1.11-.185-2.067-.336-3.096-.379-.523-.021-1.285-.04-2.176-.058-2.28-.045-5.481-.07-9.027-.169a120 120 0 0 1-6.823-.373c-2.587-.222-5.59-.6-8.433-.96-4.077-.517-7.879-.994-9.797-.945-3.381.085-7.244-.186-10.655-.41-3.254-.216-6.099-.388-7.722-.194-1.937.231-3.579.1-6.03-.078-1.693-.124-3.785-.27-6.606-.316-3.261-.051-5.583-.2-7.534-.315-2.766-.16-4.848-.264-7.905.185-2.822.418-5.728.814-8.196 1.055q-.79.075-1.504.12c-1.27.078-2.761.24-4.298.413-1.999.225-4.167.476-6.098.577-1.614.086-2.955-.008-4.146-.084a63 63 0 0 0-1.072-.06c-1.265.17-2.536.354-3.769.548-.198.071-.41.15-.626.231-1.058.404-2.399.915-4.007 1.371-2.561.732-4.793 1.114-6.93 1.72-1.626.46-3.263 1.141-4.075 2.1a2.8 2.8 0 0 0-.581 1.092c-.28.825-.56 1.672-.838 2.523-.841 2.565-1.612 5.081-2.309 6.77-.264.639-.605 1.132-.947 1.639l-.006.007-.07.103a146 146 0 0 0-3.376 12.886c-.052.384-.102.764-.152 1.148-.244 1.867-.436 3.692-.401 4.896.032 1.314-.401 4.49-.679 7.85-.186 2.197-.31 4.468-.304 6.325.002.456-.04.901-.106 1.343-.091.612-.233 1.229-.375 1.858-.23 1.004-.464 2.052-.498 3.206-.017.573.011 1.208.042 1.874.027.596.056 1.214.057 1.87.002.604-.171 1.947-.39 3.667-.136 1.063-.29 2.272-.433 3.544-.101 3.378-.207 6.761-.337 10.154.099.721.246 1.342.454 1.847.15.36.336.67.527.992.259.437.527.885.722 1.499.153.472.187 1.036.083 1.395-.048.167-.125.295-.195.412-.08.133-.152.253-.161.402-.007.108.034.223.084.364.079.224.181.532.151.966a87 87 0 0 1-.291 3.267 83 83 0 0 1-.258 2.178c-.279 2.14-.636 4.241-.894 5.91-.284 1.877-1.015 4.482-1.828 6.974-.564 1.743-1.154 3.435-1.608 4.88-.444 1.416-.76 2.91-1.06 4.342-.362 1.723-.698 3.359-1.228 4.677-.107.268-.392.55-.752.918-.256.266-.543.55-.832.904a795 795 0 0 0-1.205 4.545l-.175.669.032.212.002.004c.251 1.608.6 3.787-.585 6.443-.301.676-.647 1.062-.957 1.411-.306.346-.578.65-.742 1.157-.186.578-.222 1.296-.26 2.084-.055 1.105-.111 2.335-.59 3.473l-.104.248c-.343.825-.85 2.047-1.567 3.216-.954 3.729-1.886 7.464-2.731 11.171-.578 2.541-1.117 5.071-1.55 7.546-.64 3.739-1.238 7.462-1.729 11.168-.41 3.063-1.171 5.919-2.186 8.072-1.016 2.143-2.246 3.429-3.543 3.421-1.288-.001-2.56-1.235-3.485-3.578-.923-2.35-1.357-5.557-1.216-8.813.17-3.943.446-7.835.777-11.722.124-1.417.276-2.801.444-4.174.02-.288.04-.565.063-.846.17-2.091.166-4.047.177-5.997.003-.445.008-.9.014-1.346.045-3.423 1.683-9.652 2.626-13.04l.05-.187c.223-.806.413-1.574.636-2.47.535-2.141 1.251-5.025 3.151-10.938l.137-.559q.586-2.386 1.219-4.74c2.72-10.22 5.957-19.21 6.865-28.537.955-8.802 1.701-17.923 2.558-26.984l.036-.745c.141-2.874.306-6.164.546-9.174.171-2.154.416-4.14.698-5.732a103 103 0 0 1 2.537-10.927c2.482-10.736 6.289-21.158 10.503-30.983 3.778-7.645 10.347-8.05 14.92-9.374 4.994-1.075 9.846-1.686 14.672-2.286 4.447-.542 8.879-1.02 13.285-1.495l1.169-.18c2.183-.334 4.295-.621 6.251-.863 3.25-.401 6.127-.684 8.514-.81"/></svg>