<svg xmlns="http://www.w3.org/2000/svg" width="578" height="575" fill="none" viewBox="0 0 578 575"><path fill="#000" d="M130.572.295c1.346-.565 3.911-.292 5.138.594 2.4 1.737 2.277 2.629 2.626 3.237.418 1.176.438 1.72.506 2.28a14 14 0 0 1-.023 2.648c-1.473 7.484-3.335 14.383-6.039 20.842-.003.825.021 1.613.07 2.348q.198.032.411.06c2.21.474 5.13.028 9.956 2.464.285.011.693.016 1.117.007 1.256-.027 2.741-.114 4.176-.19a315 315 0 0 1 9.746-.402c.813-.02 1.622-.035 2.445-.047 5.348-.068 10.406.025 16.19.14 6.879.13 14.845.413 25.003.51 11.818.114 30.856-.765 52.418 7.44a48.6 48.6 0 0 1 6.142 2.572c4.922 2.416 9.305 5.47 13.293 8.937a65 65 0 0 1 5.686 5.591 48 48 0 0 1 2.659 3.224c.423.565.884 1.213 1.326 1.907.469.792.91 1.322 1.593 3.212 1.578 4.915 1.498 9.472 1.065 13.599-2.519 17.57-10.165 31.288-17.567 45.021-3.499 6.266-7.345 12.435-11.677 18.29-3.477 4.842-7.629 9.28-9.685 12.906.677.339 1.389.687 2.111 1.041 1.883.919 3.799 1.858 5.721 2.824-.003-.828-.258-2.711 1.71-5.121 1.102-1.368 3.257-2.202 4.287-2.264 1.077-.123 1.667-.018 2.088.04.848.144 1.238.29 1.604.409.7.245 1.133.442 1.56.633.844.385 1.536.737 2.232 1.096 1.375.714 2.67 1.423 3.954 2.134a616 616 0 0 1 7.602 4.299c12.7 7.298 25.306 14.698 37.892 22.137 1.539.898 3.08 1.798 4.66 2.723 2.914 1.706 5.909 3.466 8.927 5.254 11.625 6.123 21.05 18.001 28.708 27.587.542.331 1.146.703 2.093 1.483.16.135.327.283.504.452.191.186.315.302.639.668a8.662 8.662 0 0 1 1.941 3.745 80 80 0 0 0 2.316 2.619c10.138 7.999 23.9 12.351 34.653 16.91a82 82 0 0 1 4.142 1.835c19.414 9.126 30.238 24.171 38.767 33.617 1.778 1.874 3.274 2.464 7.288 3.853 3.206 1.135 5.316 4.142 6.123 5.963.911 1.944 1.341 3.474 1.794 4.933.85 2.859 1.579 5.358 2.439 7.746a71 71 0 0 0 3.375 7.754c7.977 15.561 16.531 31.035 24.561 46.918 3.376 7.56 7.965 13.98 8.01 25.093-3.964 15.157-13.78 19.596-22.689 26.242-7.349 4.529-14.734 9.14-23.507 12.244q.45.393.915.782c2.392 1.994 5.049 3.966 7.705 5.949 5.331 4.036 10.87 7.863 16.02 13.347 4.611 4.966 4.584 12.167 2.37 17.404-5.04 9.884-14.023 12.284-17.675 16.757-6.419 8.789-14.069 18.701-21.725 27.414-7.196 8.973-16.833 16.577-25.998 23.12-10.648 8.138-26.091 14.033-39.427 12.177-.762-.01-1.447.015-1.958.09-5.512.793-11.153 1.167-16.937.63-.895-.139-2.354-.175-3.998-1.961-1.602-1.968-1.263-3.969-1.085-4.852.491-1.938 1.095-2.742 1.656-3.697 1.139-1.784 2.285-3.199 3.428-4.61 2.26-2.775 4.642-5.421 6.41-7.89 2.448-3.057 4.521-3.579 6.445-4.556 1.941-.857 3.797-1.537 5.65-2.195 3.704-1.304 7.359-2.473 11.023-3.649 13.441-4.363 27.483-7.778 40.785-11.022.357-.098.696-.196.98-.286.155-.049.279-.091.383-.129l.067-.027c.046-.031.136-.108.29-.364.19-.316.406-.863.571-1.514.337-1.316.501-2.99.587-4.717.234-3.555-.155-7.064.754-11.865 1.176-5.377-2.093-12.934-5.32-19.632-4.371-9.353-12.124-16.871-18.558-26.737-2.813-4.384-5.311-8.996-7.402-13.796a95 95 0 0 1-1.727-4.172c-11.225 3.925-21.082 15.575-31.344 24.235l-.094.078c-2.738 2.218-5.917 2.165-7.923 1.894-2.11-.299-3.782-.887-5.266-1.404a8 8 0 0 1-1.21-.562c-3.324 9.776 3.184 24.057 8.184 32.413q.623.952 1.227 1.898c3.59 5.618 7.01 11.584 9.97 17.925.814 1.9 3.01 5.23 2.706 9.753-1.391 8.84-6.966 11.127-10.484 14.297-3.854 2.915-7.668 5.54-11.391 8.215-7.46 5.321-14.616 10.743-21.378 16.301-11.141 9-22.377 15.982-32.378 22.279q-.383.24-.764.472c-5.158 3.149-10.425 5.453-15.355 7.128-8.627 3.002-17.396 4.608-25.989 6.022-14.267 2.545-30.161 1.58-43.598-2.217-1.181-.214-3.01-1.165-3.955-2.683-.954-1.485-1.06-2.768-1.092-3.656-.001-1.794.352-2.798.66-3.779.657-1.891 1.42-3.333 2.322-4.825 1.288-2.095 2.876-3.949 4.602-5.538 1.664-1.455 3.452-2.687 5.302-3.758 3.949-2.288 8.233-3.875 12.453-5.28 10.971-2.885 21.286-1.703 31.386-5.188 11.369-5.545 24.113-18.323 42.163-28.987.361-.202.717-.4 1.079-.6 5.712-3.28 14.157-7.068 16.832-10.274 2.188-3.415 3.75-8.501 3.12-11.176-.88-3.578-7.85-7.701-13.891-12.953-3.09-2.808-5.366-6.085-7.325-9.495-3.051-5.417-4.78-10.192-6.058-14.377-1.949-8.583-.761-12.332-2.448-15.353a65 65 0 0 1-1.112-2.58c-.834-2.049-1.518-3.837-2.326-5.562-2.661-5.78-7.148-11.104-13.037-16.931l-.332-.326c-5.173-5.337-11.742-9.543-20.37-15.896-2.643-1.755-8.421-3.733-13.677-5.585-10.722-3.711-20.483-6.631-29.176-9.922-5.213-1.765-10.791-4.149-15.103-7.128-16.06-18.578-21.733-30.199-29.128-39.598a98 98 0 0 1-3.749-5.527 66.1 66.1 0 0 1-7.077-15.155q-.348-1.062-.686-2.132c-.516.271-1.08.598-1.632.944-2.34 1.46-4.812 3.33-7.471 5.26-11.329 7.864-24.7 10.136-35.805 10.911a80 80 0 0 1-6.433.127c-16.446-4.322-32.958-13.82-49.787-20.76-1.919-.839-3.806-1.658-5.638-2.458-2.191-.961-4.598-2.018-7.27-3.328-1.352-.673-2.752-1.379-4.328-2.392-1.463-1.032-3.764-2.346-5.029-5.85-.305-.945-.506-1.684-.68-2.165-.14.019-.328.059-.557.138-.751.25-1.82.886-2.863 1.735-.32.257-.643.537-.965.831-4.69 4.898-6.25 19.083-10.16 31.272-.747 2.455-1.254 4.998-1.454 7.562-.172 2.18-.114 4.319.166 6.247l.034.01c.736.182 2.114.215 3.483.101 1.39-.109 2.86-.331 4.36-.584.756-.127 1.521-.263 2.344-.396.896-.118 1.464-.316 3.303-.295 3.892.091 7.082 2.842 8.493 4.901 1.55 2.154 2.358 4.118 3.072 5.943 1.372 3.637 2.184 6.848 3.107 9.548 2.84 9.036 5.446 18.225.864 27.278-3.292 5.919-9.066 7.149-12.849 7.664-6.3.668-11.437-.213-16.55-1.352-1.91-.458-3.779-.945-5.973-1.763-2.404-1.049-3.023-2.158-3.684-2.94a16 16 0 0 1-1.344-2.179c-.682-1.319-1.165-2.525-1.614-3.727-.877-2.382-1.564-4.72-2.208-7.089-1.275-4.737-2.34-9.574-3.35-14.533-1.321-6.497-2.17-13.254-2.533-20.043-.692-11.767.358-23.878 1.645-34.442 1.25-11.297 3.533-21.413 5.488-30.092.628-2.621 1.298-5.282 1.846-7.717 1.126-5.071 4.345-8.566 7.052-10.98 6.445-5.115 12.263-4.193 17.042-4.023 4.872.424 9.316 1.363 13.68 2.37 8.693 2.042 16.988 4.523 25.165 6.373 7.806 1.769 15.747 1.784 25.923 4.299.644.21 1.315.444 2.17.87.65.397 1.529.68 2.619 1.962.062-1.365.074-2.848.08-4.344.005-3.959-.028-8.071.082-12.209.028-1.126.064-2.18.112-3.303.624-15.031 3.342-30.616 10.372-42.478.363-.715 1.657-1.928 2.388-2.258 9.727-2.668 15.582-1.943 22.037-2.296 9.762-.164 16.977.073 21.314.482l-.251.033c2.793-.011 4.305-.379 4.581.143.22.439-.892 1.864-3.967 2.987a2 2 0 0 1-.137.018c-4.24 1.037-11.415 2.148-20.99 3.444-5.329.804-12.6 1.486-17.7 2.985-4.927 10.522-6.716 23.628-7.187 37.339-.036 1.061-.06 2.059-.078 3.127-.07 3.944-.004 7.885.027 11.969.008 2.058.022 4.113-.127 6.398-.087 1.16-.182 2.325-.55 3.838-.199.758-.437 1.602-1.073 2.699-.586 1.049-2.009 2.618-3.986 3.149-2.213.588-3.756.646-5.506.685a23 23 0 0 1-2.697-.126 13 13 0 0 1-1.659-.284 8 8 0 0 1-1.195-.382c-.508-.262-1.16-.337-2.42-1.766-.59-.658-.986-1.75-1.126-2.708-6.63-1.356-15.215-1.749-23.443-3.478-8.7-1.897-17.05-4.321-25.298-6.182-7.703-1.842-18.146-3.199-20.546-.785-1.977 1.759-3.157 3.471-3.425 4.879-.963 4.362-1.97 8.405-2.89 12.539-1.804 8.061-3.422 16.145-4.3 24.1-.867 6.556-1.473 13.035-1.713 19.451a52 52 0 0 1 1-3.74c4.244-10.991 2.493-22.066 13.172-35.81 1.68-1.509 3.555-3.012 6.16-4.192 2.452-1.162 6.736-1.975 10.384.015 2.792 1.515 3.754 3.786 4.296 5.069.465 1.189.707 2.117.896 2.736q.026.027.062.059c.262.238.807.625 1.44 1.004 1.283.771 2.88 1.566 4.486 2.338 3.25 1.551 6.672 3.08 10.07 4.628l.656.297c3.563 1.621 7.12 3.254 10.664 4.889 12.02 5.285 27.056 12.574 35.144 14.927 13.594-.143 27.59-3.828 35.633-9.723 2.46-1.82 4.96-3.749 7.702-5.51 1.588-.994 3.147-1.977 5.526-2.843 1.242-.38 2.633-.965 5.386-.597 1.351.2 3.134.946 4.384 2.198 1.261 1.24 1.845 2.548 2.182 3.601 2.814 10.227 5.999 16.449 10.279 22.753a976 976 0 0 1 5.47 8.197c4.659 7.042 8.715 13.337 12.937 19.452a214 214 0 0 0 3.675 5.169 74 74 0 0 0 2.206 2.859c.37.453.772.921 1.12 1.291.181.194.346.36.473.477.053.05.103.091.132.115q.533.353 1.088.696c3.311 2.051 6.775 3.502 12.071 5.269 12.578 4.97 26.888 6.806 45.705 16.405 6.476 4.918 15.06 10.481 21.504 17.585 6.516 6.715 13.209 15.272 16.598 24.271.5 1.172.972 2.266 1.471 3.299 3.343 6.713 1.989 13.606 3.185 16.683 2.213 7.23 5.675 15.078 10.465 19.649 3.336 3.127 7.939 5.867 12.296 10.463 1.624 1.792 3.362 4.045 4.208 7.214 1.405 8.287-1.462 13.365-4.348 18.406-4.415 5.683-8.022 6.454-11.541 8.625-3.49 1.865-6.769 3.547-9.839 5.226-9.125 5.151-16.557 11.108-21.677 14.957-6.542 4.805-12.258 10.174-21.578 14.585-11.391 4.075-23.265 3.237-31.553 5.496-6.514 2.222-12.361 4.883-15.892 8.941a15.6 15.6 0 0 0-1.482 1.98c-.322.512-.634 1.07-.898 1.605 15.243 3.895 28.101 3.005 37.033 1.416.838-.146 1.628-.288 2.384-.428 12.616-2.478 23.511-4.265 36.199-11.937a998 998 0 0 0 3.224-2.003c8.005-5.063 17.591-10.934 28.26-19.496a390 390 0 0 1 10.647-8.419c6.75-5.158 13.028-9.512 18.593-13.456 5.347-3.75 11.028-8.166 10.875-10.419.18-1.215-.633-2.881-1.806-5.382a126 126 0 0 0-2.433-5.075c-2.524-4.977-5.174-9.48-7.926-13.808-3.7-6.098-6.237-12.092-8.268-18.968-1.671-6.765-4.095-14.966.837-24.264l.085-.138c1.093-1.496 2.638-4.088 7.035-3.479 2.388.729 2.806 1.721 3.27 2.038.148.144.257.231.322.28 1.321.462 2.54.827 3.513.943.488.061.893.047 1.111.001.228-.05.224-.085.23-.095 10.848-9.032 19.878-21.003 35.131-25.975.902-.194 1.827-.375 3.106-.369.65.02 1.401.051 2.471.444 1.026.327 2.668 1.584 3.171 3.198a92 92 0 0 0 3.232 7.988 88 88 0 0 0 5.78 10.533c3.035 4.797 7.107 9.52 11.137 14.899 2.889 3.858 5.669 8.106 7.886 12.676 3.278 7.321 7.687 14.978 5.888 25.078-.362 1.556-.419 3.972-.487 6.262-.083 2.745-.138 5.522-.627 8.435-.198.983-.42 2.114-.81 3.269a382 382 0 0 0 4.383-5.234c5.069-6.062 9.589-12.473 15.214-20.068 3.79-4.262 7.769-6.304 11.021-8.958 2.393-1.867 4.383-3.892 5.108-5.744 1.203-3.062.891-6.373-.881-8.117-7.106-7.211-16.251-12.691-22.707-18.156-1.509-1.266-2.938-2.541-4.304-4.097-.686-.801-1.359-1.625-2.014-2.877-.566-1.129-1.538-3.438-.227-6.052.614-1.323 2.136-2.07 2.748-2.17.687-.157 1.002-.126 1.254-.125.47.022.646.063.803.086.292.05.403.073.49.088.163.028.147.033.134.058q.232-.054.467-.113l.051-.012c.26-.065.513-.131.772-.203 7.912-2.653 15.65-7.339 23.179-12.117 7.722-5.1 17.229-13.086 18.371-19.458.214-5.6-3.881-13.478-7.237-20.262-2.551-4.975-5.214-9.95-7.885-14.919a4461 4461 0 0 0-4.17-7.542c-4.746-8.576-9.433-16.976-13.24-24.013a88 88 0 0 1-4.137-8.839c-.758-1.859-1.631-4.35-2.528-7.124-.448-1.36-.925-2.84-1.412-3.926a5.4 5.4 0 0 0-.538-.971c-2.437-.756-7.975-2.525-11.426-6.331-6.907-7.326-13.137-15.289-21.287-21.593-5.522-4.357-11.684-7.902-18.1-10.415-8.277-3.25-16.595-6.272-23.938-9.785-4.909-2.354-9.641-5.074-14.021-8.755a31 31 0 0 1-2.071-1.955q-.057.008-.112.014c-.814.036-3.815 1.009-6.533 1.993-1.447.505-2.915 1.047-4.898 1.579-1.066.248-1.988.581-4.3.624-1.134-.127-3.039.272-6.286-2.295-1.229-1.041-2.113-2.594-2.55-3.911q-.203-.212-.429-.438a78 78 0 0 0-2.519-2.392c-6.791-6.095-14.045-11.88-20.764-16.988q-1.714-.655-3.428-1.307c-13.13-5.148-26.09-10.439-38.163-20.322-4.163-4.102-6.523-8.451-8.047-12.71a298 298 0 0 0-11.421-6.176c-2.045-1.049-4.051-2.044-6.123-3.076-1.042-.521-2.078-1.036-3.222-1.648a32 32 0 0 1-1.894-1.09c-.735-.514-1.524-.833-3.073-2.608-3.051-3.585-2.679-8.672-1.664-11.133a30 30 0 0 1 1.989-4.38c7.322-11.081 13.325-17.225 18.449-26.543a194 194 0 0 0 2.753-4.885c4.982-9.12 9.237-17.985 12.188-25.668.703-1.836 1.686-4.057 2.697-6.862.709-1.983 1.436-4.267 1.909-6.808.324-2.85.223-5.582-.398-7.593a7 7 0 0 0-.211-.348 18 18 0 0 0-.764-1.087 36 36 0 0 0-1.973-2.373 52 52 0 0 0-4.645-4.522c-3.298-2.838-6.921-5.283-10.687-7.044-.374-.144-.76-.285-1.147-.42l-.018-.005a33 33 0 0 0-2.643-.795c-10.334-2.738-21.875-5.658-40.584-5.598a215 215 0 0 1-7.445-.309c-1.608-.095-3-.208-4.324-.319-2.999-.253-5.666-.498-9.553-.622-4.413-.14-9.617-.137-15.245-.083-3.789.04-7.794.095-11.77.224-4.406.139-8.793.383-13.519.56-.624.02-1.315.042-2.073.055-.88.011-1.851.028-3.128-.058-1.264-.15-3.1-.095-5.855-1.752.424.003-1.912-.633-4.894-1.025-1.541-.273-3.358-.516-5.768-1.562a7.3 7.3 0 0 1-1.204-.591c-2.278 3.08-4.888 6.07-7.901 8.99-2.449 1.972-4.467 3.236-6.503 4.677-5.472 3.801-10.71 7.932-13.142 12.4-.037.217-.172 1.06-.057 1.777.73 4.405 4.112 10.598 7.803 15.391 2.812 3.7 5.701 7.322 8.597 11.198 2.687 4.009 6.519 7.689 7.208 15.346-.024 2.769-.925 3.911-1.462 4.915-.602.978-1.184 1.709-1.742 2.386-1.119 1.338-2.187 2.447-3.224 3.534-2.069 2.155-4.017 4.167-5.685 6.224-3.423 4.148-5.141 8.195-3.735 11.024 3.628 7.902 11.723 18.248 17.263 18.701.49.011.857-.062 1.291-.259 1.97-.885 4.297-3.72 6.047-6.725 10.2-14.927 19.973-26.879 28.046-36.643a368 368 0 0 1 5.791-6.756c6.92-8.121 12.263-11.814 12.908-10.584.332.69-2.649 4.882-8.262 14.053a536 536 0 0 1-4.788 7.47c-6.694 10.378-16.23 23.967-24.887 37.462-2.214 3.804-4.642 8.056-10.282 11.082a13.26 13.26 0 0 1-6.024 1.367c-9.142-.752-13.256-5.974-17.317-10.131-3.894-4.48-7.038-8.989-9.71-14.639-4.082-9.001 1.196-17.597 5.015-22.338 2.056-2.596 4.223-4.865 6.211-6.991.985-1.055 1.941-2.087 2.669-2.985.174-.214.335-.426.469-.61-.547-1.798-2.682-5.122-4.952-8.022-2.729-3.568-5.723-7.24-8.638-10.984-3.794-4.916-7.132-10.202-9.323-16.67-.424-1.304-.812-2.548-1.07-4.38a18 18 0 0 1-.09-4c.142-1.397.412-2.965 1.348-4.797 6.282-11.191 16.191-16.231 22.079-21.246 1.918-1.724 3.785-4.147 5.451-6.79 1.454-2.304 2.782-4.802 3.998-7.392.304-.65.618-1.345.941-2.074.218-8.734 1.86-17.832 9.285-25.7.437-.398 1.007-.974 2.403-1.47m300.393 502.011c-6.566 2.176-10.334 2.467-14.913 3.58a440 440 0 0 0-7.518 1.706 400 400 0 0 0-20.805 6.062 703 703 0 0 0-5.943 1.934 233 233 0 0 0-4.418 1.642c-1.652.636-3.358 1.314-5.022 2.086-1.57.689-3.512 1.913-3.555 2.226-1.814 2.66-3.791 4.984-5.778 7.486a90 90 0 0 0-2.258 2.925c3.664.011 7.328-.33 10.905-.86 15.14.848 24.334-1.657 35.21-8.912a91 91 0 0 0 2.556-1.751c7.517-5.374 14.841-10.759 21.539-18.124M12.025 340.353c.394 4.327 1.008 8.631 1.88 12.917.909 4.529 1.879 9.026 3.016 13.373.57 2.169 1.186 4.31 1.88 6.264.344.968.718 1.901 1.076 2.618q.068.139.136.262c3.697 1.222 8.245 2.118 12.185 2.313 4.361.359 8.346-1.032 8.372-1.943 2.35-3.879.819-11.742-1.467-18.629-1.317-4.046-2.224-7.809-3.499-10.654-.463-1.051-1.01-1.927-1.35-2.28a2 2 0 0 0-.114-.115l-.154.016c-.296.036-.663.091-1.033.149-.76.119-1.592.259-2.446.393-1.718.269-3.529.524-5.503.633-1.988.082-4.103.15-6.853-.624-1.36-.409-3.005-1.11-4.506-2.564-.643-.607-1.187-1.346-1.62-2.129m9.324-4.907c.009.004.005-.016-.007-.052zm427.275-39.894c-.069-.062-.035-.028.01.013zm-101-62.835q.017-.14.035-.311-.014.153-.035.311m-58.614-51.093c5.67 3.914 11.206 7.923 16.758 11.937a645 645 0 0 1 13.792 10.313c2.204.618 4.593 1.317 7.551 2.282a128 128 0 0 1 6.267 2.236 68 68 0 0 0-4.316-3.098 70 70 0 0 0-3.707-2.284c-2.439-1.404-5.014-2.881-7.625-4.387-3.806-2.196-12.205-7.229-23.01-13.626zm-179.738-66.967a1 1 0 0 0 .001-.16q-.001.078-.001.16m34.438-79.634q.253.135.512.28a5 5 0 0 0-.512-.28m-5.876-23.333q-.204.165-.4.361c.153-.133.281-.255.4-.361"/><path fill="#000" d="M160.301 112.857c1.292-.025 2.543.131 3.543.432.997.303 1.661.832 1.875 1.415.349.987.72 2 1.082 3.018q.052.077.1.156c.241.392.655.702 1.075 1.04q.144.11.286.222c.713.576.666 1.902.645 2.638v.041c-.004.177.013.337.034.524.052.45.12 1.058-.054 2.391.076.362.148.735.211 1.1.685 3.973.916 8.043 1.105 12.119l.04.15c.262.978.594 2.191.534 3.001a20 20 0 0 1-.297 2.345c.05.775.104 1.544.166 2.297.677 4.763-1.604 8.147-3.267 10.454a59 59 0 0 1-2.192 2.746c-.663.791-1.326 1.558-1.966 2.304-.294.516-.546 1.015-.783 1.479-.33.649-.623 1.22-.928 1.623-.737.971-1.827 1.767-2.61 2.354q-.192.145-.358.272a41 41 0 0 0-1.289 1.836l-.217.007c-.918.021-1.419.621-2.066 1.533-.281.399-.584.854-.933 1.349-.221.317-.546.357-.818.401q-.07.012-.132.025.04.108.091.227c.17.391.377.858-.065 1.26-1.406 1.281-.983 2.176-.662 2.839.094.197.18.372.208.536.091.53-.327 1.124-.781 1.536-.36.326-.344 1.192-.203 1.882.053.261-.031.569-.129.932-.102.377-.219.81-.214 1.311.014 1.262.015 1.92.016 2.449 0 .152 0 .293.002.431.002.25-.009.528-.024.815q-.02.341-.038.68c-.033.62-.04 1.195.044 1.59-.345.97-.537 1.309-.672 1.671-.068.199-.542.666-1.31 1.355-.774.681-1.807 1.464-2.998 2.026-1.191.56-2.463.866-3.594.684-1.124-.171-2.027-.895-2.352-1.96-.682-2.176-.618-4.461-.464-6.09a34 34 0 0 1 .955-5.355 60 60 0 0 1 1.043-3.453l.119-.35c-.038-1.056-.042-2.104.056-2.814.081-.586.369-.946.615-1.254.17-.212.32-.401.371-.621.026-.116.056-.283.09-.479.127-.722.336-1.897.876-2.949.074-.138.193-.595.284-.723q.154-.246.325-.474c.475-.634 1.142-1.23 1.772-1.72.91-.718 1.75-1.243 1.95-1.683.353-.774 1.066-1.385 1.695-1.894.595-.482 1.118-.881 1.202-1.298.103-.502.433-.701.923-.992.339-.2.753-.441 1.219-.85.539-.471 1.017-.701 1.421-.895.569-.272.995-.475 1.228-1.157.257-.756.608-1.441 1.079-1.794.214-.16.405-.386.604-.625.26-.314.527-.642.868-.852.278-.171.642-.208.962-.241q.15-.014.283-.035c.152-.192.306-.395.448-.592q-.013-.085-.031-.179c-.059-.312-.13-.699-.072-1.03.095-.531.43-.785.773-1.067.263-.213.531-.449.64-.787.073-.229.075-.508.048-.753-.035-.371-.136-.645-.019-.787.044-.053.209-.086.372-.127l.003-.001.033-.008a1.7 1.7 0 0 0-.297-.661l-.374-.978-.176-.225c-.281-.36-.556-.722-.877-.925-.347-.209-.671-.895-1.003-1.593-.22-.465-.444-.942-.689-1.321-.143-.221-.029-.488.09-.754.111-.25.225-.507.136-.745-.045-.119-.14-.239-.241-.367-.088-.111-.182-.229-.251-.359-.063-.12-.033-.424.006-.814.024-.242.053-.512.064-.795-.243-.695-.478-1.387-.705-2.085a1.7 1.7 0 0 0-.638-.272 6 6 0 0 0-.621-.089c-.3-.034-.61-.069-.867-.15-.201-.063-.296-.165-.235-.256.029-.043.09-.083.145-.12.063-.041.121-.079.113-.11-.006-.022-.059-.037-.124-.055-.103-.028-.236-.065-.258-.156-.08-.338-.114-.731-.146-1.118-.036-.43-.069-.85-.166-1.172-.109-.362-.022-.918.064-1.476.06-.391.121-.78.117-1.102-.005-.318-.163-.624-.316-.917-.183-.35-.36-.693-.254-1.026.022-.068.207-.179.437-.318.163-.098.349-.21.518-.331a29 29 0 0 1-.176-1.171l-.089-.027-.002-.001c-.681-.206-1.617-.514-1.205-1.208.104-.176.328-.319.53-.443.198-.123.375-.234.396-.355.024-.137-.131-.268-.3-.41-.237-.195-.504-.432-.338-.727l.036-.064a3.1 3.1 0 0 1 .685-.882 58 58 0 0 1 .019-2.572c.041-1.442.13-2.867.24-4.366.059-.701.584-1.511 1.512-2.111.927-.607 2.171-.98 3.464-.98M165.362 7.714c.644.065 1.636.043 3.068 1.247.861.74 1.376 2.048 1.4 2.88a1.5 1.5 0 0 0 0 .617c.052.224.182.511.306.753.185.386.362.752.284 1.03-.029.107-.185.195-.339.289l-.003.002-.031.018c.162.64.329 1.255.5 1.882.044.053.087.11.13.161.207.253.408.506.685.666.3.171.488.626.685 1.103.129.309.262.64.433.896.099.152-.061.306-.227.464-.155.149-.313.296-.269.453.023.078.093.162.169.252.067.079.139.162.183.251.041.084-.044.268-.152.508a6 6 0 0 0-.204.492c.116.453.226.915.329 1.368q.219.139.581.23c.174.044.382.08.594.116.29.05.59.1.83.175.187.058.262.13.186.181a.7.7 0 0 1-.163.06c-.07.02-.132.039-.13.058.002.015.052.03.112.046.097.028.222.063.228.121.021.218-.013.467-.047.71-.038.27-.075.533-.033.742.046.233-.131.57-.308.908-.123.235-.246.471-.295.672-.047.195.06.399.163.593.125.235.245.458.087.656-.032.04-.231.093-.48.159-.177.047-.379.1-.565.161q.008.368-.007.736l.084.026h.001c.641.19 1.517.44 1.007.842-.13.1-.372.169-.59.229-.215.06-.407.113-.446.185-.044.082.09.173.237.275.205.143.434.302.228.47l-.045.037c-.147.122-.364.3-.805.49a27 27 0 0 1-.37 1.563c-.229.866-.492 1.737-.748 2.595-.126.408-.715.834-1.671 1.172-.957.342-2.195.567-3.486.637-1.291.069-2.548-.027-3.534-.299-.985-.266-1.61-.678-1.769-1.102-.257-.716-.509-1.413-.741-2.12l-.08-.108c-.189-.269-.56-.522-.931-.764q-.129-.084-.254-.169a1 1 0 0 1-.13-.111c-.007.417-.01.843.049 1.185-.385.742-.806 1.482-1.224 2.227-.217.386-.896.621-1.915.654-1.02.032-2.293-.136-3.563-.485s-2.45-.855-3.307-1.411c-.857-.557-1.315-1.12-1.297-1.575.037-.911.08-1.826.17-2.733.11-1.107.29-2.202.621-3.263q.348-1.114.804-2.212l.095-.225c-.096-.733-.151-1.467-.087-1.955.053-.402.317-.615.542-.795.155-.123.293-.235.334-.382a5 5 0 0 0 .072-.328c.107-.551.311-1.506.954-2.186q.14-.149.32-.293c.247-.202.538-.398.821-.585.602-.4 1.167-.751 1.2-1.058.058-.539.475-.986.85-1.373.358-.37.679-.687.617-1.014-.072-.392.155-.559.494-.801.237-.169.525-.372.824-.715.345-.396.718-.593 1.035-.753.449-.227.78-.38.89-.977.117-.63.406-1.237.85-1.55q.036-.027.072-.05c.227-.141.444-.345.678-.547.31-.268.654-.536 1.054-.649.33-.093.695-.01 1.008.077.097.027.193.052.28.074a12 12 0 0 1 .707-.35q.036-.083.08-.178c.15-.312.359-.705.829-.973.38-.21.829-.323 1.486-.305m-6.042 19.85q-.137.095-.294.17c-.323.151-.248.716-.062 1.18.069.178.011.36-.059.584-.07.227-.153.494-.113.819.055.445.093.776.122 1.042q.008-.085.014-.18c.015-.291.037-.698.414-1.534-.02-.244-.033-.482-.038-.724q-.014-.68.016-1.357m.244-2.59c-.809.492-.476 1.044-.168 1.467q.065-.735.168-1.467m.223-1.406c-.083.035-.081.11-.037.209zm6.064-7.575c-.059.011-.152.049-.251.101l.042-.005c.339-.073.269-.11.209-.096M263.459 9.903c.416.011.849.021 1.552.104.352.048.779.095 1.532.309.366.111.853.255 1.609.664.718.408 1.896 1.148 2.856 2.825.898 1.52 1.092 3.642.742 5.038a7.2 7.2 0 0 1-.99 2.38 8 8 0 0 1-.819 1.066 8.5 8.5 0 0 1-1.047.972q-.187.149-.364.275c-.238.173-.459.319-.621.421a20 20 0 0 1-1.816 1.01 49 49 0 0 1-2.957 1.327 144 144 0 0 1-5.484 2.124c-3.612 1.326-7.177 2.555-10.748 3.773l-.622.247c-4.098 1.625-9.127 3.598-12.396 4.589a339 339 0 0 1-9.32 2.68 1354 1354 0 0 0-9.043 3.097 162 162 0 0 0-5.762 2.096l-.145.056c2.546 2.226 6.477 4.075 10.455 5.51 3.928 1.47 8.078 2.607 12.536 4.528 1.842.854 3.807 1.728 5.836 3.791a72 72 0 0 0 4.526 4.37 70 70 0 0 0 5.086 3.672c2.292 1.513 4.401 2.751 6.119 3.813 4.129 2.573 8.888 5.456 12.597 7.596l1.724 1c1.09.548 2.182 1.095 3.368 1.761.571.324 1.225.707 1.925 1.205.394.288.754.555 1.265 1.053.44.487 1.211 1.098 1.768 2.943.556 1.942.428 4.052-.013 5.681q-.225.52-.486.986c-.945 1.711-2.214 3.33-2.909 4.398.275.359.738.876 1.305 1.407 1.539 1.46 3.745 3.204 6.328 5.32 1.668 1.365 2.376 2.278 2.951 3.023.166.217.324.422.494.622.576.68 1.417 1.126 2.39 1.642 1.277.683 2.809 1.51 4.331 3.2a71 71 0 0 0 3.23 3.383c3.074 3.012 5.037 4.676 6.568 6.836.58.851 1.091 1.811 1.352 3.065q.06.291.098.605c.054.418.086.854.085 1.308a8.7 8.7 0 0 1-.154 1.6c-.206 1.101-.831 2.974-2.614 4.295-1.762 1.283-3.555 1.34-4.69 1.239a9.3 9.3 0 0 1-2.68-.684c-2.348-.918-5.824-2.59-8.405-3.885-.99-.491-2.2-1.298-3.574-2.267-1.44-1.015-3.04-2.191-4.821-3.377-4.474-2.995-6.748-4.648-8.593-5.948-.531-.378-1.023-.728-1.499-1.064-.394-.278-.812-.577-1.245-.889-.388 3.166-.316 6.539.229 9.459.045.229.088.454.126.663l-.05-.16c.565 2.332.873 4.786.684 6.806-.207 2.265-1.002 3.797-2.241 4.246-1.238.448-2.825-.195-4.451-1.794-1.449-1.434-2.834-3.528-3.854-6.059-.008-.027-.034-.106-.041-.134-.127-.355-.242-.72-.341-1.08-1.699-6.716-1.871-13.155-.209-20.027a28 28 0 0 1 1.245-3.734c.583-1.185 2.348-2.814 3.642-3.084 1.676-.379 2.519-.078 3.129.067.353.104.423.134.577.19a8.5 8.5 0 0 1 1.012.458 15 15 0 0 1 1.153.666q.286.18.577.372c.411.273.733.495 1.082.74.357.253.683.489 1.002.721 1.15.843 2.214 1.657 3.283 2.483-2.05-2.063-3.948-4.074-5.256-6.135-.479-.769-.991-1.786-1.199-3.175-.224-1.38.06-3.021.614-4.178 1.478-2.85 2.424-3.953 2.676-4.79a7 7 0 0 0-1.056-.506c-1.511-.558-2.807-1.351-4.692-2.53a235 235 0 0 0-5.235-3.19c-2.632-1.56-4.39-2.859-5.858-3.978-2.07-1.589-3.587-2.811-6.123-4.3-2.818-1.658-5.609-3.693-7.535-5.596-.874-.86-1.908-1.821-2.958-2.855a59 59 0 0 1-1.778-1.82c-.267-.3-.848-.757-1.491-1.192-.944-.641-1.858-1.303-2.695-1.88a24 24 0 0 0-.775-.51 88 88 0 0 0-3.201-1.106q-.282-.03-.596-.057c-1.053-.102-2.351-.22-3.925-.593-2.493-.595-4.623-1.497-6.853-2.603a88 88 0 0 1-5.65-3.093c-1.435-.857-3.101-1.932-4.634-3.345-1.337-1.223-2.545-2.726-3.356-4.266a5 5 0 0 1-.549-2.063 4.94 4.94 0 0 1 .513-2.374c.592-1.118 1.075-1.467 1.428-1.797.718-.6 1.161-.831 1.588-1.065.742-.386 1.368-.511 1.976-.627h.008l.124-.023c2.715-1.358 5.294-2.445 7.913-3.56l3.666-1.549.961-.498c1.565-.806 3.07-1.581 4.022-2.231.589-.405 1.768-.989 3.221-1.66l-.042-.016c-.397-.164-.75-.31-1.228-.287-.534.026-1.169.247-1.838.485-.933.333-1.993.71-3.118.659l-.244-.012c-.799-.037-2.002-.086-3.229-.353-3.426.396-6.906.799-10.178 1.304a59 59 0 0 0-2.012.346 27 27 0 0 0-.865.181c-.227.047-.481.13-.365.063-3.986 1.57-6.956 2.738-9.004 4.672q-.263.25-.517.51c-1.589 1.622-3.23 3.288-4.8 4.52-1.581 1.238-2.935 1.858-4.218 1.75-1.299-.146-2.288-1.937-2.256-4.486.018-2.554 1.118-5.818 3.336-8.607q.351-.444.724-.878c3.664-4.244 8.518-6.406 11.811-8.12.323-.157.644-.291.899-.392q.355-.14.703-.261c.3-.123.648-.25.923-.35 2.145-.755 3.731-1.412 5.439-2.101.402-.159.756-.307 1.154-.46 2.938-1.154 8.718-1.763 11.868-2.06l.173-.018a77 77 0 0 0 2.282-.266c1.966-.247 4.637-.584 10.207-.902q2.428-.334 4.82-.634a741 741 0 0 1 16.638-1.884c2.206-.226 4.403-.437 6.663-.61a95 95 0 0 1 3.532-.213 35 35 0 0 1 2.082-.025m28.152 117.39-.015.057c.047.238.093.14.04-.036q-.007-.026-.016-.056zm3.887-3.042a1.9 1.9 0 0 0-.484-.005q.236.052.411.065c.174.015.253-.023.073-.06m-37.179-11.622c-.03-.01-.021.012.168.101.062.025.095.045.176.076a3 3 0 0 0-.344-.177m5.107-87.77c.1.003.035-.003-.08-.008q.048.003.08.008m-3.58-13.142c-.037-.08.011-.3-.429.055l-.045.04a.8.8 0 0 1 .215.033c.095.027.176.054.222.024.029-.019.047-.088.037-.152M158.294 316.723c1.875-2.479 3.899-3.322 4.979-2.623 1.096.7 1.517 2.34 1.664 4.921.128 2.58-.111 6.034-.676 9.655-.924 5.91-1.528 12.016-2.029 18.113l-.035.972c-.088 2.38.037 4.67.185 6.882.033.513.064 1.065.099 1.56.049.759.051 1.665.021 2.681-.123 4.559-1.412 10.501-2.328 13.921l-.061.235c-.265 1.014-.502 1.969-.786 3.08-.648 2.625-1.722 6.228-3.795 13.011-.459 2-.866 3.953-1.184 5.861a52 52 0 0 0-.604 5.01c-1.297 14.671-7.207 23.772-9.287 35.006-2.217 10.062-7.185 20.713-14.196 28.382l-.578.721c-1.431 1.778-2.892 3.551-3.817 5.041-1.718 2.753-3.265 6.083-4.433 8.454-2.404 4.939-3.87 8.485-5.032 11.355a98 98 0 0 0-1.222 3.749c-.91 3.501-3.82 6.134-5.909 7.364-2.176 1.335-4.097 2.128-5.982 2.939-3.718 1.556-7.239 2.974-10.696 4.585-6.914 3.193-13.525 6.995-19.88 11.321-1.06.72-2.09 1.487-2.778 2.15-.364.343-.587.647-.615.702-.02.062-.025-.141-.118.676-.086.736-.12 1.463-.088 2.047.008.567.214 1.057.069.755.15.414 1.314 1.107 3.29 1.326 4.288.484 9.632-.373 14.843-1.145 3.054-.579 6.01-1.177 8.87-1.62l.31-.047c1.058-.202 3.32-2.229 4.804-4.003 3.924-4.511 8.154-11.077 11.953-15.823a66 66 0 0 1 1.831-2.211c1.186-1.47 2.457-2.972 4.275-4.437 3.238-2.523 6.577-3.512 9.359-4.439q.471-.061.94-.115c2.752-.332 5.895-1.014 7.809-2.866a18.4 18.4 0 0 0 2.877-3.659c1.383-2.272 2.371-5.308 3.311-9.6.617-2.767 1.201-4.24 1.699-5.405.145-.341.284-.668.414-.998.331-.84.492-1.758.645-2.806q.072-.523.147-1.097c.253-1.918.583-4.218 1.79-7.006 3.875-8.841 4.789-12.949 5.426-16.126.193-.929.371-1.767.613-2.605.782-2.718 2.475-6.368 3.919-9.05 1.139-2.13 2.753-6.657 3.918-10.129.143-.429.319-.9.521-1.405.403-1.014.894-2.173 1.422-3.489.808-2.011 1.689-4.363 2.415-6.954 1.807-6.552 2.47-10.148 3.09-13.051.172-.833.331-1.611.488-2.39.508-2.471 1.148-5.578 2.085-8.918.137-.485.285-.982.438-1.473.996-3.233 2.01-6.406 2.804-8.926 2.846-7.205 6.275-14.657 10.799-21.366a34 34 0 0 1 2.633-3.459c.097-.153.442-.559.564-.694 1.994-1.883 5.323-3.209 7.236-3.19q.469-.025.901-.015c3.263.122 4.905 1.17 5.203 2.433.303 1.299-1.101 2.82-3.237 4.417q-.275.213-.554.426c-1.224.923-1.595 1.564-2.43 2.761l.466-.574a68 68 0 0 1-1.923 3.472c-3.819 6.374-6.529 13.28-9.035 20.57a437 437 0 0 0-2.603 7.843c-1.791 5.768-3.068 12.713-5.053 19.399-1.699 5.87-3.79 11.684-6.312 17.306-.32.712-.64 1.434-.957 2.149-.277.624-.551 1.243-.825 1.868-1.885 5.231-3.678 10.48-4.988 14.15-1.083 3.03-2.064 5.162-2.895 6.994-.573 1.262-1.072 2.377-1.473 3.548-.214.625-.497 1.488-.832 2.526-1.138 3.527-2.871 9.119-4.537 14.61a156 156 0 0 0-.931 3.193c-.815 2.824-1.676 6.344-2.974 10.032-1.737 5.378-5.4 10.097-7.206 12.06-.247.29-.501.575-.77.862-4.049 4.163-9.264 5.004-12.701 5.989-3.038.772-5.132 1.635-6.058 2.505a5 5 0 0 0-.577.601c-1.129 1.405-2.365 2.736-4.17 4.907-1.26 1.521-2.772 3.484-4.789 6.312-2.336 3.272-4.226 5.538-5.977 7.411-2.575 2.589-4.242 4.679-8.625 7.25a11 11 0 0 1-3.523 1.159c-3.193.546-6.466 1.173-9.232 1.483-1.57.177-3.375.448-5.295.691-2.533.32-5.292.596-7.952.457-2.201-.117-4.114-.571-5.833-1.267a16 16 0 0 1-1.554-.73c-1.663-.659-3.494-1.922-4.606-3.773-.244-.4-.42-.785-.56-1.15a10 10 0 0 1-.485-1.194c-.534-1.618-.75-3.284-.712-5.172.004-.361.018-.925.159-1.654 1.7-5.498 4.571-6.196 6.672-7.85q.794-.505 1.585-.99c2.11-1.296 4.318-2.599 6.817-4.186 1.694-1.076 3.626-2.335 5.567-3.532 2.885-1.784 5.806-3.423 7.94-4.339.812-.349 1.535-.511 2.282-.681l.01-.001.151-.035c4.79-2.434 11.016-4.766 13.126-7.036a2 2 0 0 0 .251-.512c.063-.204.079-.38.086-.61.309-1.691.616-3.213.766-4.334.221-1.683 1.367-5.703 2.842-9.884a153 153 0 0 1 3.046-7.911c.572-1.374 1.386-2.567 2.286-3.783.359-.484.732-.972 1.113-1.473.557-.743 1.119-1.464 1.653-2.215.46-.648.925-1.346 1.404-2.053.422-.622.862-1.259 1.324-1.886.431-.589 1.513-1.738 2.756-3.191.768-.9 1.598-1.928 2.394-3.052 1.878-3.12 3.332-6.429 4.474-9.953.122-.786.145-1.467.076-2.054-.054-.407-.159-.775-.268-1.155-.145-.526-.31-1.029-.371-1.715-.045-.544.022-1.105.194-1.479.079-.172.179-.297.269-.41.103-.129.193-.238.228-.395.024-.113.004-.242-.022-.4-.037-.233-.085-.53-.017-.944l.024-.129c.411-1.979.974-4.225 1.575-6.409.668-2.434 1.391-4.812 1.926-6.692.593-2.117 1.759-5.037 2.853-7.741.761-1.887 1.442-3.649 1.864-5.115.419-1.441.599-2.925.68-4.389.045-.792.062-1.562.083-2.333.048-1.281.174-2.481.395-3.544.081-.39.343-.851.679-1.416.237-.401.512-.854.788-1.37.396-2.379.902-4.681 1.451-6.92l-.024-.261-.001-.004c-.181-1.984-.376-4.706 1.013-7.931.353-.82.727-1.288 1.065-1.714.331-.417.627-.787.823-1.391.221-.683.299-1.534.375-2.456.106-1.292.207-2.717.707-4.049l.108-.29c.359-.969.868-2.391 1.557-3.786a86 86 0 0 0 1.019-6.287c.297-2.485.605-4.878.943-7.341 1.094-7.884 2.351-15.713 4.189-23.65.899-3.843 2.425-7.491 4.303-9.928M361.07 306.081c.102-1.315 5.133-2.737 14.367-4.045 2.213-.313 4.606-.611 7.163-.893 8.064-.891 17.671-1.61 27.602-2.048 20.071-.863 40.104-1.744 60.324-2.094 1.294-.018 2.54-.033 3.803-.041 1.144-.022 2.27-.04 3.427-.048 4.281-.013 8.343-.075 12.911.376 2.291.258 4.814.622 7.664 1.83 2.909 1.207 5.326 3.35 6.783 4.688l.355.325a398 398 0 0 1 3.644 3.361c5.977 5.809 14.729 13.978 22.306 25.763 4.373 7.373 7.786 15.57 9.319 21.942q.109.426.213.855c.887 3.687 1.477 7.164 2.002 11.072.733 5.38 1.253 11.53 2.421 20.419a7.8 7.8 0 0 1-.019 2.386c-.27 1.097-.318 2.653-2.859 4.867-2.325 1.916-5.413 1.678-5.763 1.592a8 8 0 0 1-1.774-.435c-.912-.358-1.064-.488-1.351-.645a10 10 0 0 1-.625-.4 12 12 0 0 1-.652-.487 16 16 0 0 1-.432-.357c-.514-.44-.88-.784-1.268-1.15-.739-.7-1.406-1.36-2.093-2.037l-.64-.631c4.281 10.8 8.981 21.628 13.634 32.439 7.269 17.141 15.95 33.642 23.225 51.724 6.235 17.45 13.157 31.493 13.213 54.933-.277 1.023-.504 2.075-1.541 3.803-.563.84-1.356 2.085-3.446 3.165-2.116 1.157-5.196.855-6.579.164-4.068-2.001-4.907-3.958-6.149-5.553-1.105-1.635-1.919-3.139-2.686-4.63-1.511-2.974-2.745-5.833-3.945-8.702-2.374-5.716-4.519-11.364-6.675-17.026-5.443-14.821-8.019-29.566-11.807-43.442a196 196 0 0 0-1.045-3.628c-.286-.919-.591-1.87-.902-2.804-.331-.996-.677-1.997-1.037-2.995-.797 8.545.231 17.686.47 24.764.287 6.122.446 11.853-.089 17.332-1.148 11.398-2.367 20.234-3.498 27.886-1.037 7.98-2.516 16.512-3.267 23.756-.487 4.167-.839 8.333-6.093 12.547a5.37 5.37 0 0 1-3.884.804 5.4 5.4 0 0 1-2.982-1.619 6.091 6.091 0 0 1-.843-1.145 7 7 0 0 1-.344-.693c-.311-.747-.4-1.149-.51-1.566a27 27 0 0 1-.403-2.029 103 103 0 0 1-.494-3.487c-.286-2.259-.542-4.453-.812-6.67a669 669 0 0 0-1.713-13.162c-1.955-13.141-5.06-26.41-7.838-39.877-2.015 6.759-4.17 13.56-6.547 20.172-3.361 9.494-8.209 19.376-16.155 26.646a92 92 0 0 1-3.758 3.321c-8.764 7.51-17.594 15.572-24.118 24.396a37 37 0 0 1-1.678 2.221c-.168.2-.265.316-.499.576a11 11 0 0 1-.894.882 6 6 0 0 1-.366.293 5.3 5.3 0 0 1-1.054.621c-.126.094-2.297.949-4.148-.254-1.677-1.152-1.815-2.222-2.013-2.9-.281-1.923-.005-2.195.054-2.821.124-.647.209-.977.339-1.484.232-.884.498-1.752.746-2.528 1.056-3.268 2.173-6.26 3.313-9.322 4.234-11.571 9.529-23.672 11.941-34.37.735-5.517 1.296-11.52 1.985-17.332a826 826 0 0 1 1.628-14.38c.657-5.371 1.207-10.545 1.565-15.48.988-12.888.369-24.136-1.749-32.927q-.154-.662-.322-1.322c-3.088-13.006-9.308-25.492-13.649-39.883-1.7-6.946-4.432-12.934-8.02-17.588a417 417 0 0 0-3.541-2.528c-5.212-3.693-10.357-6.994-15.268-9.718-8.062-4.485-14.988-8.096-19.379-10.194a2141 2141 0 0 0-8.565-4.075 654 654 0 0 0-3.173-1.188 514 514 0 0 1-2.917-1.295c-3.038-1.408-6.183-2.606-9.962-4.799l-.006-.002c-.035-.014-.081-.03-.048-.02l.035.01q-.514-.296-1.042-.619c-.135-.092-.265-.145-.698-.528-.217-.243-.583-.412-1.134-1.641a4.464 4.464 0 0 1 2.075-5.613c1.383-.643 1.859-.478 2.223-.505.346.013.52.046.662.071.255.046.442.103.45.105.163.047.262.081.362.116.191.068.249.094.378.144a26 26 0 0 1 .752.312c-.141-.105-.211-.148-.271-.187q.24.142.488.281l.15.065.525.23c.665.294 1.405.627 2.068.93 1.394.635 2.81 1.291 4.27 1.973l.857.403c1.884.754 3.797 1.488 5.602 2.216 12.654 4.874 23.674 9.983 29.838 13.08 1.473.722 2.889 1.457 4.283 2.223 5.519 3.115 11.064 6.551 16.878 13.259 2.679 1.816 5.413 3.678 8.207 5.542l.61.391c7.87 4.994 11.998 7.735 15.341 10.13 1.013.721 1.959 1.404 2.923 2.104 2.095 1.539 4.367 3.044 6.771 4.886q-.608-1.135-1.198-2.227c-1.411-2.608-3.096-5.856-4.999-9.528a384 384 0 0 0-3.528-6.665c-3.645-6.505-7.887-14.633-13.909-20.094a56 56 0 0 0-2.074-1.731c-17.252-10.48-29.683-15.566-38.185-19.945l-1.068-.52a128 128 0 0 0-6.299-2.867c-1.2-.509-2.435-1.01-3.797-1.566-.691-.284-1.385-.563-2.259-.968-.448-.217-.908-.42-1.683-.921-.377-.265-.889-.561-1.675-1.484a6.25 6.25 0 0 1-1.221-2.335c-.335-1.125-.26-2.586.091-3.573a10 10 0 0 1 1.168-2.515 389 389 0 0 1-12.669-.255 239 239 0 0 1-7.208-.377c-9.305-.636-14.42-1.711-14.62-2.979m210.372 216.783c.368.348.728.644 1.014.804.156.086.29.124.298.048-.004-.073-.108-.291-.732-.627a5 5 0 0 0-.58-.225m-119.343-141.14a71 71 0 0 1 1.308 4.62 51 51 0 0 0 1.143 3.799c4.511 12.369 8.261 21.718 10.403 29.779a148 148 0 0 1 1.657 6.521c1.963 8.756 2.57 16.719 2.489 27.331-.101 8.711-1.002 17.517-2.045 25.658-.711 5.536-1.353 10.81-1.948 15.565-.629 4.863-1.121 10.216-1.914 16.202a28 28 0 0 1-.38 1.99c-2.256 8.925-5.576 16.996-8.548 24.65a436 436 0 0 1-2.833 6.929c2.985-3.461 6.716-7.459 11.524-11.946a182 182 0 0 1 5.028-4.516c6.582-5.441 10.887-11.165 14.375-18.569a90 90 0 0 0 3.22-7.745 285 285 0 0 0 5.577-16.912c1.924-6.403 3.659-13.538 5.733-21.168q.029-.093.075-.221c.03-.08.074-.201.171-.403.07-.139.101-.218.289-.507.224-.304.456-.715 1.343-1.262.592-.36 1.595-.65 2.55-.511a4.062 4.062 0 0 1 2.925 1.896c.437.769.387.835.468 1.041.082.271.107.395.138.528.051.223.086.404.116.558.062.32.117.617.169.9.106.58.206 1.13.31 1.692q.31 1.67.634 3.324c.433 2.212.874 4.362 1.321 6.491 1.276 6.018 2.574 11.629 3.488 16.098.585 2.838.96 5.316 1.322 7.767l.003.033.075.5c1.536 7.015 3.054 14.028 4.199 21.274.334 2.147.654 4.303.966 6.458.566-5.173 1.071-9.813 1.309-13.249.345-4.694 1.51-15.412 2.354-27.481a67 67 0 0 0 .129-5.512c-.114-6.644-.839-13.771-1.309-20.433-.551.577-1.312 1.136-2.386 1.575a6.27 6.27 0 0 1-4.546-.063 6.6 6.6 0 0 1-1.272-.677c-.475-.327-.733-.569-.926-.748-.211-.2-.33-.325-.462-.468-.884-.995-1.218-1.54-1.659-2.182a25 25 0 0 1-.78-1.249c-2.838-5.173-4.046-8.796-5.941-12.654a262 262 0 0 0-4.03-8.125 318 318 0 0 0-1.879-3.578c-4.929-9.107-11.523-21.821-19.135-33.51-3.368-5.086-8.919-9.177-14.951-13.143-3.059-2.012-6.404-4.127-9.867-6.347m65.555 73.874c.046.046.11.085-.046-.061-.019-.011-.032-.025-.048-.039q.054.06.094.1M412.713 314.246q1.791.836 3.55 1.719c8.163 4.099 16.315 8.203 24.453 12.503 5.464 2.996 10.441 5.282 16.519 9.797 11.081 9.222 16.017 21.05 21.938 31.894 2.107 4.116 4.207 8.267 6.295 12.416 1.056 2.099 2.122 4.227 3.173 6.329 8.949 17.065 17.715 34.154 23.689 46.365 1.314 2.688 2.512 5.2 3.605 7.564 1.381 2.989 2.57 5.676 3.647 8.34a59.3 59.3 0 0 1 1.213-9.885 48 48 0 0 1 1.938-6.747 20.3 20.3 0 0 1 1.57-3.342c.368-.605.747-1.226 1.525-2.073.412-.417.862-.922 1.973-1.531-1.543-3.492-3.152-7.051-4.703-10.51-2.987-6.657-5.825-13.108-7.925-18.744-.429-1.15-.804-2.622-1.267-4.484-.329-1.321-.702-2.839-1.156-4.569-1.13-2.998-2.223-5.994-3.237-9.204-.493-1.584-.982-3.221-1.391-5.125-.189-.955-.417-1.964-.45-3.585a10 10 0 0 1 .034-.936c-.927-2.283-1.865-4.594-2.817-6.909-2.346-5.617-4.844-11.244-7.887-15.926-3.73-4.836-7.476-9.619-11.326-14.26-1.935-2.328-3.911-4.639-5.905-6.786-.993-1.066-2.011-2.113-2.989-3.014a20 20 0 0 0-1.393-1.184c-.211-.16-.4-.288-.523-.361l-.02-.01c-7.322-2.323-15.06-3.77-22.845-4.616a154 154 0 0 0-9.291-.713c-7.915-.394-15.445-1.504-22.731-2.092-2.474-.196-4.951-.343-7.266-.321m114.592 123.239c-.019-.026-.038-.033.007.008zm-57.661-128.753c2.961.724 5.906 1.561 8.825 2.536 2.149.783 2.918 1.513 3.813 2.163a30 30 0 0 1 2.185 1.9c1.298 1.233 2.448 2.459 3.547 3.674 2.195 2.434 4.229 4.891 6.21 7.346 3.965 4.928 7.725 9.886 11.46 14.887.051.066.195.273.242.344 3.779 6.006 6.256 12.03 8.664 18.017a233 233 0 0 1 1.577 4.135c1.171.234 1.745.558 2.364.882a47 47 0 0 1 3.817 2.407 58 58 0 0 1 .808.466 71 71 0 0 1 5.997 3.937 110 110 0 0 0-.796-4.438c-.842-4.244-2-8.58-3.353-12.927a61 61 0 0 0-.3-.947c-1.006-3.149-2.94-7.779-5.184-12.47q-.086-.151-.174-.302c-5.722-9.034-14.753-18.306-23.128-26.97-2.638-2.689-3.066-2.911-6.284-3.615-5.673-.97-12.665-.948-19.355-1.023z"/></svg>