<svg width="289" height="635" viewBox="0 0 289 635" fill="none" xmlns="http://www.w3.org/2000/svg">
<path d="M73.978 6.55147C76.0234 6.14552 79.3745 5.61297 83.4653 8.2253C84.2304 8.70765 85.0341 9.31007 85.8481 10.0651C86.5491 10.716 86.9058 11.2617 87.2261 11.7536C87.5421 12.2378 87.8207 12.6686 88.3706 13.1042C88.9943 13.5982 89.8468 14.0366 90.7651 14.5114C92.061 15.1825 93.5152 15.9462 94.7095 17.0739C94.7928 17.1522 94.8773 17.2324 94.9683 17.3181C95.8385 18.1362 97.1081 19.3436 98.2349 20.7429C102.287 23.9208 106.262 27.2108 110.143 30.5593C115.08 34.8179 119.872 39.1694 124.608 43.6071C126.134 45.0352 127.62 46.4759 129.097 47.9714C132.088 50.9957 134.503 54.433 135.706 57.4069C136.922 60.38 136.799 62.5821 135.681 63.2321C134.577 63.906 132.785 63.3569 130.304 61.903C127.83 60.4403 124.851 58.1688 121.894 55.5671C120.436 54.2802 118.959 53.0336 117.438 51.7927C113.832 48.8454 110.23 45.9664 106.583 43.1257C106.304 42.9278 106.02 42.7263 105.734 42.5212C103.637 41.0211 101.559 39.7995 99.4692 38.5954C98.996 38.3243 98.5018 38.0386 98.0269 37.7663C94.3877 35.6454 88.161 30.6132 84.6392 27.9382C84.5744 27.8888 84.5102 27.8388 84.4458 27.7898C83.6184 27.155 82.8028 26.564 81.8608 25.8864C80.9011 25.1944 79.806 24.412 78.3696 23.3601C83.9905 30.5338 93.3041 40.1958 100.564 48.5925C100.917 49.0281 101.833 49.8795 102.845 50.8757C103.865 52.0476 105.146 52.6558 106.741 56.3747C108.207 59.5584 106.978 65.2531 104.606 67.4812C102.393 69.9292 100.301 70.9397 98.3813 71.8513C94.5542 73.5453 91.0773 74.3356 87.6528 75.0554C87.4537 75.1028 87.2526 75.148 87.0503 75.195C87.1235 76.0663 87.0585 77.2172 86.4536 78.9128C84.9563 82.8362 81.3489 85.8779 78.6841 86.9773C70.0796 90.1532 66.0135 88.722 63.2563 89.2321C62.7275 89.2976 62.2677 89.412 61.9907 89.487C61.9899 89.5198 61.9893 89.554 61.9897 89.5896C61.9807 90.4857 62.305 91.9485 62.7954 93.3942C63.7904 96.3378 65.3442 99.4741 66.9976 102.548C70.327 108.823 74.3081 114.562 77.856 121.818C79.6175 125.718 81.2046 129.604 82.9634 133.157C84.5119 136.284 86.2217 139.115 88.354 141.462C90.4169 143.745 91.9462 146.227 93.23 148.723C96.0843 154.367 97.7919 160.16 99.1948 165.94C99.3694 166.577 99.5373 167.203 99.7017 167.833C100.37 170.368 101.063 172.781 101.734 175.046C102.9 178.978 104.001 182.48 104.825 185.413C106.716 192.308 108.784 200.139 109.234 207.152C109.242 207.314 109.25 207.469 109.258 207.617C109.305 208.487 109.396 209.066 109.452 209.271C109.507 209.396 109.535 209.425 109.592 209.495C111.216 211.767 114.458 213.405 118.54 215.311C118.819 215.51 119.102 215.713 119.396 215.926C121.181 217.286 123.574 218.528 126.228 221.463C127.857 223.419 129.586 225.824 129.795 225.665C130.023 225.754 130.244 225.802 130.669 225.77C132.253 225.733 135.597 223.689 139.351 220.834C141.845 218.981 143.478 218.155 144.903 217.565C145.322 217.391 145.74 217.227 146.161 217.068C146.638 216.886 147.126 216.681 147.667 216.472C147.605 216.464 147.518 216.467 147.599 216.015C147.749 215.154 147.781 213.154 148.029 210.278C148.503 203.264 147.376 198.774 146.622 195.748C146.369 194.886 146.049 194.172 145.721 193.517C145.347 192.773 144.962 192.106 144.588 191.383C143.821 189.503 142.269 188.022 141.668 182.863C141.654 181.244 141.986 179.786 142.396 178.62C142.943 176.99 143.918 174.886 144.864 173.004C146.545 169.8 149.103 168.124 150.879 166.835C152.253 165.872 154.112 164.921 156.132 163.862C158.091 162.832 160.224 161.664 162.191 160.168C162.178 160.077 162.161 159.943 162.126 159.785C161.982 159.044 161.628 157.983 161.269 157.032C160.53 155.086 159.797 153.373 159.198 151.784C158.848 150.865 158.528 149.977 158.227 149.055C157.717 147.486 157.193 145.602 156.892 143.405C156.884 143.348 156.873 143.177 156.868 143.12C156.733 141.662 156.586 140.133 156.427 138.596C156.017 134.608 155.52 130.561 155.042 127.498C154.361 119.499 153.495 111.498 152.283 103.619C152.001 101.796 151.802 99.9985 151.688 98.3015C151.683 98.2812 151.673 98.2218 151.668 98.2019C151.548 96.0075 151.583 93.7189 152.09 91.656C153.098 87.9382 154.831 86.7625 156.086 86.9138C157.423 87.0813 158.237 89.1436 159.216 91.5359C159.765 92.83 160.445 94.4372 161.112 96.4216L161.096 96.3396C161.691 98.0344 162.194 99.869 162.583 101.757C164.313 110.198 165.64 118.643 166.688 127.142C167.3 132.142 167.804 137.161 168.175 142.199C168.639 146.184 170.839 150.263 172.484 156.634C172.768 158.019 173.079 159.6 172.781 161.833C172.568 164.021 170.918 166.956 168.888 168.277C164.216 171.671 158.868 173.858 155.401 175.979C154.918 176.282 154.497 176.577 154.179 176.837C153.76 177.261 153.608 177.58 153.625 177.674C152.411 180.151 152.081 181.832 152.272 182.323C152.249 181.819 152.342 182.307 152.604 182.819C152.855 183.36 153.196 184.036 153.525 184.713C155.174 187.995 156.142 191.401 156.398 194.219C156.399 194.229 156.4 194.24 156.401 194.25C156.528 195.746 156.643 197.096 156.852 198.458C156.965 199.195 157.127 200.201 157.306 201.435C157.629 203.729 158.061 206.761 158.125 210.463C158.137 212.334 158.098 214.341 157.573 216.797C157.291 218.026 156.904 219.396 155.989 220.975C155.122 222.512 153.315 224.455 150.929 225.273C150.739 225.319 150.357 225.472 149.93 225.688C147.763 226.769 144.509 229.192 140.938 231.282C137.262 233.472 131.454 236.064 126.442 233.804C124.863 233.123 123.87 232.236 123.206 231.638C121.362 229.889 120.494 228.465 119.575 227.477C118.537 226.255 116.244 224.893 113.844 223.611C110.112 221.684 106.296 219.251 104.251 217.425C103.357 216.679 102.574 215.84 101.889 214.886C100.214 212.585 99.9933 209.826 99.938 207.884C99.9363 207.799 99.9339 207.712 99.9312 207.623C99.8724 205.699 99.5848 203.137 98.8472 199.629C97.9813 195.558 97.3776 192.593 96.8921 190.075C96.1985 186.523 95.6625 183.839 94.3765 179.948C93.2321 176.482 92.179 172.848 91.4692 169.618C91.2995 168.848 91.1408 168.113 90.9976 167.415C90.6688 165.813 90.1954 164.02 89.6382 162.181C88.9035 159.75 88.0204 157.265 87.1978 155.047C86.5209 153.219 86.0279 151.704 85.5171 150.39C85.3591 149.983 85.1982 149.596 85.0298 149.228C84.3742 148.224 83.6602 147.281 82.894 146.45C82.6443 146.178 82.4006 145.905 82.1606 145.627C81.9342 145.425 81.6966 145.211 81.4526 144.984C80.2297 143.849 78.7961 142.342 77.4214 140.282C75.2554 137.016 74.0397 133.953 72.7837 130.839C72.0627 129.038 71.3408 127.204 70.4634 125.27C70.2087 124.706 69.8808 124.069 69.5073 123.407C68.5414 121.695 67.2218 119.714 65.896 117.749C63.9299 114.843 61.933 111.901 60.7563 109.715C60.314 108.896 60.0489 108.121 59.7925 107.352C59.7916 107.349 59.7904 107.346 59.7896 107.342C59.7721 107.29 59.7543 107.237 59.7368 107.185C56.8088 101.756 53.0289 97.2163 52.6411 88.5612C52.6568 87.7421 52.7518 86.8772 53.0308 85.9265C53.5224 84.101 54.9388 82.2081 56.4878 81.196C58.7207 79.7315 60.3379 79.4188 61.478 79.0153C63.5549 78.2721 68.2938 78.0221 71.5181 77.0691C73.6207 76.4354 74.4064 75.6316 74.7075 74.8952C74.6373 74.5582 74.5455 74.1542 74.4272 73.6521C74.3248 73.1654 74.1728 72.6806 74.0757 71.5603C74.0642 70.9803 73.9245 70.1968 74.4897 68.6062C74.9164 66.9322 77.5539 64.9354 78.9546 64.8591C79.0413 64.8408 79.1294 64.8215 79.2183 64.8015C79.9762 64.6307 80.7519 64.4105 81.5718 64.1716C82.2981 63.9604 83.043 63.7374 83.8267 63.5251C84.5528 63.3261 86.1996 63.0671 88.1987 62.6325C89.4298 62.3634 90.7969 62.0224 92.0835 61.5788C92.901 61.2323 93.6755 60.8186 94.2651 60.4421C94.0424 60.3349 93.8095 60.2305 93.5835 60.1511C93.173 60.0027 92.7568 59.9022 92.3091 59.7751C91.6922 59.5902 91.0432 59.4116 90.0737 58.7448C89.9503 58.6589 89.8174 58.5559 89.686 58.447C89.2575 58.1584 88.8532 57.7762 88.6382 57.445C88.5203 57.2625 88.4587 57.094 88.4019 56.9411C88.3367 56.7659 88.2781 56.6088 88.1479 56.4694C88.0536 56.3686 87.9204 56.2973 87.7593 56.2107C87.501 56.0714 87.1645 55.889 86.7827 55.4812C85.3758 53.9783 83.8014 52.226 82.2505 50.5007C80.5257 48.5823 78.8321 46.6975 77.4302 45.2331C75.8597 43.5924 73.7949 41.0757 71.7446 38.4948C70.3065 36.6855 68.8811 34.8475 67.6147 33.2302C66.3581 31.6095 64.9782 30.0956 63.4907 27.9665C63.0398 27.2928 62.5637 26.598 62.019 25.3601C61.4591 24.1983 60.4966 22.231 60.063 19.9616C59.9483 19.3255 59.9421 18.4711 60.1167 17.0944C60.2702 16.1111 60.4176 14.7873 61.3657 12.8942C62.12 10.836 64.3241 8.86994 66.0659 8.25753C68.3761 7.33253 70.8285 6.7228 73.5815 6.64425C73.708 6.61345 73.8396 6.58265 73.9722 6.55343C73.9741 6.55281 73.9761 6.55209 73.978 6.55147ZM162.744 159.737C162.698 159.725 162.587 159.824 162.483 159.941C162.511 159.919 162.54 159.898 162.568 159.876C162.627 159.829 162.686 159.783 162.744 159.737ZM62.0737 89.0212C62.0802 88.9555 62.0505 89.0098 62.0239 89.1569C62.0549 89.0996 62.0755 89.0507 62.0737 89.0212ZM81.2622 76.4333C81.3728 76.42 81.496 76.3935 81.6294 76.3571C81.5064 76.3824 81.3841 76.4082 81.2622 76.4333ZM74.7661 75.1853C74.6456 75.8806 74.8066 76.0675 74.813 76.1052C74.8665 76.1431 74.8725 75.91 74.8325 75.6023C74.8167 75.4751 74.7943 75.3373 74.7661 75.1853ZM71.2427 21.0134C71.316 20.9913 71.3935 20.959 71.4761 20.9216C71.398 20.9513 71.32 20.9815 71.2427 21.0134Z" fill="black"/>
<path d="M106.169 26.9251C105.785 25.8239 113.904 21.9728 128.929 22.7151C136.302 23.0677 144.868 24.5475 153.844 27.1741C163.765 30.1711 172.637 35.8757 181.163 41.8626C186.684 45.7793 192.001 49.8298 197.287 53.8177C205.844 60.2146 212.144 68.7707 217.892 76.0774C223.261 82.72 228.112 90.1335 232.167 97.4847C235.481 105.241 235.051 108.968 236.305 114.103C236.955 117.359 237.624 120.617 238.317 123.857C238.691 125.526 239.071 127.199 239.457 128.861C241.605 138.113 243.982 146.758 246.685 155.098C247.713 158.286 248.501 161.602 249.06 164.829C249.575 167.78 249.927 170.641 250.256 173.408C250.632 176.6 250.993 180.111 251.445 183.919C252.878 198.211 257.692 215.746 262.238 232.643C264.149 240.435 266.042 247.635 267.628 253.515C267.734 253.907 267.836 254.284 267.944 254.683C269.312 259.744 270.665 264.512 272.244 270.188C272.835 272.321 273.463 274.597 274.105 277.094C274.432 278.373 274.761 279.69 275.084 281.176C275.238 281.891 275.408 282.718 275.552 283.621C275.629 284.118 275.694 284.571 275.754 285.237C275.787 285.865 275.915 286.547 275.677 288.229C275.45 289.784 274.607 291.583 273.557 292.752C273.492 292.827 273.426 292.9 273.36 292.971C273.479 293.902 273.643 294.975 273.817 296.112C274.281 299.108 274.786 302.555 275.119 306.284C275.802 313.756 275.817 322.417 274.734 332.214C274.38 335.409 274.147 338.949 273.933 342.739C273.574 350.914 273.325 359.348 272.538 367.882C272.243 371.086 271.904 374.283 271.508 377.493C270.838 382.902 270.023 388.332 268.919 393.799C268.364 396.524 267.741 399.268 266.929 402.114C266.517 403.539 266.071 404.971 265.463 406.537C265.144 407.346 264.809 408.157 264.272 409.163C263.98 409.697 263.68 410.237 263.075 411.03C262.914 411.237 262.737 411.45 262.533 411.673C262.292 411.937 261.999 412.228 261.644 412.525C261.235 412.831 260.682 413.312 259.796 413.718C259.175 415.958 258.511 418.244 257.777 420.523C256.083 425.757 254.091 431.021 251.201 436.22C248.149 441.558 244.405 448.222 238.831 452.701C233.071 456.194 238.375 471.772 237.934 486.61C237.609 493.276 239.829 502.131 238.719 511.584C238.447 514.225 238.524 516.483 239.034 518.942C238.869 518.977 240.539 521.656 242.429 523.634C244.354 525.762 246.6 527.97 248.876 530.255C253.432 534.842 258.243 539.726 262.288 545.833C268.947 556.144 268.997 569.07 271.353 573.534C276.247 581.126 282.343 589.607 286.795 598.926C287.659 600.812 288.821 603.686 287.487 607.582C285.981 611.45 283.123 612.903 281.347 613.715C277.582 615.239 274.857 615.332 272.138 615.516C266.785 615.741 261.902 615.296 257.038 614.728C247.172 613.4 238.666 612.111 227.929 608.723C220.356 605.47 214.492 601.199 208.782 596.105C205.533 593.295 202.856 588.452 202.542 583.867C202.142 579.3 203.127 575.55 204.041 572.284C205.975 565.869 208.078 560.293 207.423 556.767C207.388 556.554 207.353 556.328 207.318 556.106C207.058 554.488 206.827 552.879 206.604 551.275C204.988 539.348 203.464 526.492 201.878 513.706C200.18 499.306 200.381 485.553 199.576 473.892C199.201 468.168 198.724 462.81 198.319 457.967C197.69 450.562 197.16 443.611 196.891 437.138C196.001 417.222 196.363 401.38 196.323 389.282C196.314 389.131 196.296 388.995 196.312 389.094C193.478 373.623 195.028 357.571 197.9 342.658C198.677 338.484 199.821 334.389 200.996 330.478C197.373 331.501 193.723 332.606 190.074 333.719C181.82 336.218 173.664 338.89 165.022 341.143C156.488 342.581 150.073 342.024 142.882 341.678C142.663 343.351 142.484 345.177 142.298 346.989C140.533 364.663 138.942 382.437 137.021 400.217C135.956 410.039 134.558 420.344 132.707 429.725C129.044 442.897 124.486 452.742 120.262 464.098C117.735 470.648 115.064 477.128 112.411 483.548C110.389 488.49 108.314 493.416 106.836 498.198C104.7 506.529 107.062 517.633 108.739 527.922C109.675 533.382 110.416 538.84 110.961 544.361C111.228 547.117 111.448 549.898 111.554 552.736C111.605 554.159 111.631 555.599 111.576 557.111C111.566 557.367 111.552 557.62 111.537 557.877C111.668 566.483 111.02 574.936 109.945 583.381C109.916 583.619 109.887 583.85 109.858 584.072C107.116 600.023 95.6292 610.354 92.1131 619.746C91.4785 621.695 91.109 623.717 89.9471 626.457C89.3011 627.913 88.0793 630.023 85.7557 631.301C72.2858 638.465 58.8227 632.539 50.0164 624.974C47.7801 622.745 45.7688 620.348 44.0535 617.867C43.1949 616.629 42.4092 615.365 41.7078 614.171C41.0461 613.036 40.2476 611.667 40.1326 611.576C38.8378 610.016 38.558 608.242 38.5574 607.089C38.6507 604.284 39.4649 602.91 40.2859 601.422C45.3065 593.124 52.5302 586.468 55.7127 580.068C56.923 577.113 57.6212 573.521 58.0906 569.61C57.016 570.07 55.9874 570.187 55.282 570.215C53.9371 570.258 52.8986 570.063 51.9881 569.862C50.1509 569.431 48.6514 568.844 47.1951 568.229C44.3038 566.985 41.7028 565.584 39.1727 564.159C34.1387 561.301 29.4947 558.328 25.3035 555.692C23.7439 554.71 21.9335 553.59 19.9871 552.461C13.8266 548.227 14.2015 542.27 13.7117 537.505C13.464 532.565 13.834 527.437 13.6297 522.908C13.1854 514.497 14.1558 505.941 16.2186 498.485C16.2985 498.195 16.3828 497.899 16.4695 497.603C18.2586 491.432 19.464 482.233 19.7986 471.461C20.0085 464.811 19.8981 457.516 19.4412 449.774C19.0906 443.825 18.8442 437.618 18.7322 431.225C18.5236 423.114 18.9376 414.498 18.5818 409.643C16.5666 394.285 15.6921 382.831 15.1395 373.296C15.139 373.292 15.1389 373.288 15.1385 373.284C15.128 373.193 15.1183 373.101 15.1092 373.009C15.0909 372.824 15.0747 372.636 15.0603 372.441C15.056 372.225 15.0552 372.023 15.0564 371.833C14.7882 367.029 14.5932 362.705 14.3621 358.591C14.3057 357.372 14.2539 356.204 14.2039 355.022C14.0834 351.657 13.944 348.527 14.3103 344.76C14.4388 343.373 14.8556 341.259 15.6609 339.476C15.0974 335.736 14.4841 332.103 13.9588 328.745C12.2925 317.436 10.7055 306.019 9.57695 294.508C8.6881 285.181 7.13739 274.999 7.62871 264.838C8.6563 247.585 7.65428 231.276 14.5213 212.329C15.4886 210.338 16.4849 208.362 17.5086 206.402C23.528 195.18 29.5035 184.982 38.116 176.079C38.336 175.86 39.0446 175.35 39.3191 175.205C46.1909 171.963 52.5949 169.644 58.2586 167.759C65.0986 165.511 70.5596 164.078 74.4871 163.37L74.4744 163.374C78.4902 162.66 80.748 162.533 80.9754 163.176C81.1973 163.808 79.4085 165.178 75.7312 167.083C72.3241 168.852 67.2764 171.294 60.9324 174.366C55.8977 176.823 50.1223 179.597 44.2391 182.872C38.1946 190.143 32.1913 200.768 26.8113 211.2C25.8532 213.081 24.9218 214.977 24.0184 216.885C19.1518 230.399 19.2763 248.674 18.6609 265.145C18.2997 274.42 19.7864 283.506 20.826 293.35C22.1291 305.534 23.975 317.671 25.8816 329.916C26.0862 329.829 26.2947 329.742 26.5076 329.656C27.329 329.411 27.9625 329.215 29.3416 329.22C30.5687 329.219 32.4575 329.716 33.7986 330.913C36.4589 333.531 36.2175 335.314 36.4373 336.587C36.5731 338.993 36.2444 340.504 35.9627 342.053C35.3395 345.112 34.5125 347.789 33.6365 350.52C31.8867 355.917 29.8682 361.214 28.0906 366.409C27.9744 366.752 27.8616 367.095 27.7488 367.436C27.6644 368.198 27.5753 368.963 27.4734 369.733C27.3105 370.925 27.155 372.04 26.8562 373.45C26.8157 373.636 26.779 373.799 26.7293 374C26.6755 374.217 26.6175 374.433 26.5496 374.658C26.5059 374.803 26.457 374.956 26.3992 375.119C26.3727 375.192 26.3505 375.251 26.325 375.319C26.7727 382.983 27.3303 390.628 28.0379 398.236C28.3559 401.522 28.7014 404.945 29.1648 407.916C29.5846 423.69 28.9119 435.476 29.8094 449.198C30.5364 466.106 31.0248 482.956 26.199 500.603C25.6936 502.233 25.2598 503.898 24.8934 505.585C24.1833 508.856 23.7245 512.208 23.5135 515.57C23.4005 517.879 23.4057 520.191 23.5311 522.482C23.7471 527.71 23.4289 532.167 23.6277 536.371C23.7169 538.439 23.9223 540.422 24.3133 541.923C24.5027 542.665 24.749 543.269 24.9324 543.565C24.9713 543.628 25.0049 543.675 25.0301 543.708C31.531 547.375 37.3429 551.01 42.9578 554.091C45.7483 555.626 48.4879 557.046 50.9773 558.096C51.4293 558.287 51.8796 558.465 52.3103 558.624C52.2721 557.91 52.16 557.137 51.9842 556.367C49.9948 545.104 50.3239 538.359 48.3035 532.093C46.8967 526.682 47.0157 523.015 46.7303 519.348C46.3303 511.91 45.8968 505.571 45.0818 499.089C44.7633 496.535 44.3204 493.304 43.7107 489.488C43.4824 488.056 43.2579 486.549 43.0418 484.969C41.4908 473.575 40.3562 458.541 40.9109 441.714C41.9431 426.419 38.8091 410.947 40.702 392.02C41.1626 389.273 41.1902 385.835 41.2996 382.278C41.5383 376.996 41.5016 370.637 44.8728 363.866C51.3545 354.436 58.0159 352.76 61.9686 347.757C65.1781 344.011 68.2704 340.292 70.0799 336.722C69.9829 336.633 69.8845 336.546 69.7879 336.455C67.2918 334.085 65.3043 331.198 64.2088 327.485C63.8957 326.62 64.0352 324.816 64.783 323.816C65.4831 322.807 66.1119 322.498 66.5291 322.264C67.3725 321.852 67.7739 321.813 68.1482 321.735C68.8603 321.617 69.3122 321.616 69.7635 321.616C70.6469 321.627 71.3802 321.701 72.2391 321.857C74.0607 322.167 76.3077 323.152 77.8396 324.776C79.4185 326.434 80.4618 328.424 80.7225 330.933C80.736 331.793 80.704 332.623 80.6336 333.424C88.1415 338.673 97.5588 343.718 100.684 351.131C101.371 352.412 102.046 353.715 102.609 354.964C109.218 370.768 104.412 387.04 101.147 401.843C99.1545 409.771 96.9486 417.469 94.867 424.81C91.4161 436.963 88.1652 448.184 86.1541 457.288C84.8111 463.437 83.6511 468.658 82.8396 472.685C81.2482 480.642 79.6899 487.665 78.7127 495.82C78.0675 500.767 76.9584 505.367 75.8338 510.718C73.7969 520.264 71.3551 531.69 69.4295 546.854C69.2079 548.617 68.9991 550.413 68.8025 552.261C67.2607 564.028 68.2458 574.079 63.99 583.845C60.4085 590.771 56.2412 594.679 52.9461 598.919C50.982 601.337 49.2011 603.651 47.783 605.938C47.5777 606.26 47.4134 606.621 47.3309 606.863C50.6304 612.196 52.3736 615.34 56.0584 619.007C59.9104 622.42 66.2498 625.839 72.7977 626.031C75.9431 626.114 78.977 625.378 81.6658 623.838C81.7638 624.286 83.0908 620.395 83.9988 617.125C90.6084 602.388 100.283 593.183 101.597 582.944C101.723 582.052 101.85 581.096 101.963 580.203C102.51 575.757 102.969 570.908 103.178 565.866C102.695 565.784 102.213 565.656 101.738 565.477C98.8086 564.227 96.5571 562.774 96.7908 563.076C95.8104 563.097 94.8204 562.761 94.1453 562.323C93.5008 561.914 93.0749 561.443 92.8084 561.104C91.8125 559.731 91.7076 559.005 91.4686 558.271C91.2711 557.555 91.1525 556.929 91.0545 556.326C90.8633 555.122 90.7642 554.007 90.6902 552.909C90.5483 550.721 90.5235 548.6 90.5398 546.502C90.5799 542.301 90.798 538.171 91.1033 534.042C91.3254 532.494 91.2016 530.549 93.6326 528.078C94.8918 526.876 96.9956 526.348 98.4295 526.549C99.4539 526.666 100.274 526.943 101.008 527.316C100.956 527.063 100.903 526.808 100.85 526.552C99.626 519.209 96.6704 510.57 98.4539 497.71C98.5816 497.075 98.7351 496.437 98.9207 495.802C103.116 482.711 108.2 472.292 112.466 461.104C113.823 457.652 115.179 454.219 116.552 450.726C119.286 443.606 122.77 435.391 124.629 428.569C125.676 422.893 126.593 417.811 127.339 411.932C127.857 407.948 128.331 403.719 128.766 399.339C129.44 392.54 130.063 385.377 130.672 378.263C131.634 367.019 132.537 355.844 133.443 346.126C133.677 343.716 133.866 341.491 134.231 339.065C134.331 338.447 134.433 337.832 134.647 337.03C134.766 336.611 134.885 336.192 135.185 335.554C135.483 334.962 136.006 333.964 137.322 333.156C138.674 332.355 139.927 332.393 140.503 332.423C141.128 332.467 141.444 332.537 141.708 332.579C142.207 332.667 142.464 332.704 142.732 332.724C143.171 332.753 143.592 332.78 144.017 332.806C148.392 333.071 152.154 333.302 155.835 333.37C155.851 333.371 155.867 333.372 155.883 333.372C156.137 333.376 156.382 333.379 156.632 333.381C158.839 333.292 161.366 333.124 162.876 332.758C170.937 330.586 179.203 327.814 187.44 325.236C191.568 323.936 195.711 322.641 199.929 321.43C202.049 320.825 204.177 320.239 206.408 319.727C207.555 319.47 208.649 319.231 210.033 319.064C210.206 319.044 210.361 319.028 210.549 319.012C210.759 318.995 210.97 318.982 211.183 318.976C211.559 318.968 212.171 318.953 212.948 319.116C213.412 319.224 214.229 319.417 215.131 320.182C215.728 320.684 216.324 321.554 216.536 322.486C216.757 323.508 216.646 324.026 216.545 324.544C216.429 325.045 216.261 325.429 216.096 325.745C215.997 325.929 215.964 325.98 215.906 326.075C215.852 326.162 215.799 326.244 215.746 326.322C215.532 326.631 215.32 326.881 215.107 327.112C214.034 328.179 213.482 328.283 213.047 328.508C212.619 328.691 212.32 328.795 212.059 328.891C211.548 329.074 211.211 329.206 211.003 329.313C210.981 329.324 210.961 329.334 210.943 329.344C209.411 334.505 207.962 339.364 207.08 344.367C206.734 346.274 206.422 348.133 206.131 350.036C205.785 352.484 205.484 354.956 205.246 357.402C203.997 369.031 204.853 379.955 206.512 387.384C206.609 387.936 206.638 388.271 206.672 388.609C207.217 397.265 207.088 415.794 208.432 436.528C208.52 437.959 208.618 439.398 208.725 440.842C209.515 451.582 210.923 462.739 211.729 473.046C212.013 476.604 212.209 479.999 212.384 483.188C212.781 490.493 212.806 497.328 213.132 504.233C213.259 506.896 213.431 509.569 213.707 512.26C214.121 516.263 214.574 520.368 215.124 524.682C215.594 528.368 216.147 532.348 216.744 536.584C217.27 540.312 217.827 544.255 218.414 548.345C218.632 549.839 218.922 552.112 219.34 554.786C220.424 561.099 218.06 567.849 216.092 573.901C215.191 576.729 214.406 579.577 214.4 581.845C214.42 584.122 214.961 585.544 216.778 587.283C217.267 587.734 217.77 588.181 218.284 588.624C222.626 592.233 227.652 595.574 232.436 597.522C244.853 600.867 261.69 604.11 274.013 602.784C273.026 601.231 272.076 599.907 271.076 598.563C269.571 596.546 267.961 594.491 265.766 591.574C264.055 589.296 262.061 586.511 260.787 584.465C260.195 583.514 259.764 582.736 259.368 582.002C259.235 581.756 259.096 581.497 258.967 581.254C258.415 580.284 258.02 579.398 257.637 578.487C257.249 577.555 256.887 576.66 256.515 575.63C255.928 574.007 255.33 572.009 254.749 569.276C253.528 563.426 252.239 557.718 249.823 554.087C247.662 550.799 244.785 547.502 241.653 544.242C238.891 541.357 235.933 538.524 232.941 535.391C230.062 532.01 226.551 529.611 224.385 522.009C223.497 517.928 223.424 513.617 223.79 510.093C223.827 509.705 223.858 509.334 223.885 508.956C224.517 503.597 222.811 496.646 222.98 486.199C223.224 480.78 222.391 474.763 221.68 467.794C220.871 460.895 220.758 448.83 228.977 441.927C230.743 440.386 231.224 439.984 232.15 438.908C233.008 437.908 233.869 436.715 234.691 435.484C235.992 433.532 237.262 431.376 238.504 429.138C241.326 424.028 243.381 417.867 245.08 411.664C245.546 409.965 245.981 408.267 246.442 406.492C246.677 405.596 246.901 404.726 247.209 403.678C247.387 403.107 247.483 402.679 247.948 401.573C248.008 401.434 248.11 401.214 248.222 400.996C248.28 400.884 248.344 400.764 248.419 400.634C248.502 400.492 248.547 400.409 248.734 400.125C248.901 399.877 249.107 399.592 249.407 399.253C249.557 399.084 249.733 398.901 249.944 398.704C250.05 398.606 250.164 398.505 250.291 398.401C250.354 398.349 250.421 398.296 250.49 398.242C250.565 398.184 250.719 398.071 250.847 397.984C251.324 397.644 252.033 397.27 252.891 397.005C252.896 396.99 252.901 396.975 252.905 396.959C253.606 394.36 254.194 391.716 254.723 389.195C255.087 387.459 255.67 385.313 256.34 382.58C256.814 380.643 257.337 378.382 257.843 375.808C258.219 372.752 258.545 369.692 258.831 366.616C259.601 358.358 259.853 349.941 260.263 341.299C260.256 340.884 260.249 340.446 260.243 340.016C260.243 340.009 260.242 340.002 260.242 339.995C260.206 337.27 260.176 334.236 260.343 330.761C260.666 322.64 260.789 312.906 259.143 300.374C258.696 295.734 257.789 293.074 258.946 287.464C258.96 287.414 258.974 287.363 258.988 287.313C259.509 285.352 260.483 284.324 261.126 283.748C261.105 283.65 261.085 283.549 261.063 283.448C260.279 279.9 258.913 275.549 257.426 270.786C255.329 264.1 252.962 256.566 251.119 248.844C250.994 248.322 250.86 247.756 250.719 247.162C250.002 244.144 249.115 240.335 248.22 236.147C247.499 232.747 246.61 229.009 245.771 225.211C242.208 212.387 239.163 198.915 237.884 185.321C236.877 175.811 236.841 166.651 234.468 158.659C233.805 156.336 233.171 154.007 232.561 151.676C229.495 139.945 227.03 128.12 224.839 116.314C223.902 111.522 223.084 105.086 222.126 103.043C218.285 95.8745 214.099 89.3028 209.148 82.9847C203.147 75.1008 197.796 67.7636 190.755 62.3479C185.507 58.2732 180.317 54.2056 175.052 50.3606C166.952 44.4688 158.825 38.9701 150.949 36.0647C142.662 33.0545 134.865 30.945 128.128 29.6976C114.497 27.1353 106.438 28.3093 106.169 26.9251ZM276.267 602.189C276.511 602.067 276.483 601.941 276.143 602.248C276.188 602.227 276.231 602.209 276.267 602.189ZM99.1443 536.66C98.9805 538.922 98.8483 541.156 98.7566 543.342C98.6363 546.261 98.5791 549.022 98.6541 551.571C98.6933 552.841 98.7669 554.06 98.908 555.11C98.9282 555.262 98.9515 555.413 98.9754 555.555C100.224 555.913 101.171 556.484 101.879 556.878C102.406 557.189 102.861 557.461 103.271 557.696C103.242 556.221 103.188 554.74 103.1 553.257C102.756 547.405 101.636 540.44 99.1443 536.66ZM77.9051 342.374C75.5694 346.732 72.1898 350.261 69.3689 353.919C67.4049 356.262 65.2092 358.172 63.0262 359.949C58.46 363.577 54.512 366.476 53.6014 368.293C51.2797 372.925 51.1896 377.577 50.8748 381.417C50.7587 383.261 50.6807 385.037 50.575 386.876C50.4507 388.958 50.3358 391.137 49.9715 393.506C49.3734 397.366 49.5286 401.816 49.8758 406.842C50.5152 416.046 51.8326 427.38 51.0437 442.108C50.9989 442.926 50.9561 443.797 50.9178 444.644C50.205 462.326 51.3102 476.587 53.0525 488.033C56.1858 507.141 56.0412 520.96 58.2107 529.116C58.5286 530.078 58.8143 531.023 59.074 531.958C59.9416 535.068 60.496 538.06 60.908 540.946C62.7376 527.866 65.2696 515.563 67.5447 504.849C68.2905 501.24 69.0374 497.722 69.4031 494.776C69.5411 493.6 69.6917 492.451 69.8523 491.327C71.5845 478.843 74.6725 467.141 77.1365 455.318C79.8149 443.232 83.1642 431.663 86.3152 420.008C86.7951 418.468 87.2796 416.917 87.7693 415.339C89.2832 410.454 90.8288 405.259 92.2996 399.676C94.8651 387.31 101.266 370.666 92.9266 355.265C90.4362 350.367 85.6537 346.893 79.1248 343.116C78.7239 342.874 78.3174 342.626 77.9051 342.374ZM248.136 405.721C248.136 405.726 248.137 405.731 248.137 405.739C248.136 405.729 248.136 405.721 248.136 405.714C248.136 405.716 248.135 405.718 248.136 405.721ZM262.895 404.166C262.899 404.197 262.901 404.212 262.903 404.224C262.907 404.246 262.909 404.253 262.909 404.245C262.908 404.236 262.905 404.214 262.894 404.162C262.894 404.164 262.895 404.165 262.895 404.166ZM261.492 286.021C261.454 286.372 261.476 286.504 261.485 286.536C261.498 286.581 261.509 286.535 261.512 286.464C261.517 286.358 261.507 286.201 261.492 286.021Z" fill="black"/>
<path d="M130.063 94.0845C129.809 93.4877 129.481 92.6579 129.976 92.9507C130.101 93.0257 130.273 93.204 130.426 93.3658C130.577 93.5243 130.711 93.6667 130.773 93.6744C130.843 93.6828 130.821 93.5375 130.796 93.3804C130.76 93.1613 130.729 92.9108 130.935 93.0259C130.949 93.0337 130.964 93.0419 130.98 93.0503C131.129 93.1305 131.343 93.2544 131.69 93.5582C132.041 93.4672 132.398 93.3978 132.772 93.3335C133.386 93.233 134.028 93.1597 134.677 93.0884C134.994 93.055 135.559 93.4171 136.255 94.1294C136.597 94.4904 136.969 94.9146 137.331 95.3941C137.503 95.6381 137.699 95.8819 137.857 96.1539C138.04 96.4073 138.198 96.72 138.1 97.0503C139.053 98.1334 139.505 99.2177 139.918 100.127C140.298 101.033 140.429 101.668 140.298 101.919C140.078 102.331 139.86 102.746 139.625 103.152C139.622 103.186 139.618 103.22 139.613 103.252C139.572 103.496 139.652 103.879 139.723 104.269C139.739 104.359 139.756 104.447 139.773 104.534C139.895 105.195 139.329 105.269 139.016 105.311C139.01 105.312 139.004 105.313 138.998 105.314C138.922 105.326 138.867 105.353 138.8 105.386C138.64 105.467 138.425 105.575 137.785 105.532C137.673 105.625 137.551 105.717 137.431 105.798C136.119 106.691 134.513 107.179 132.84 107.603C132.825 107.617 132.811 107.632 132.796 107.646C132.507 107.928 132.142 108.284 131.754 108.282C131.259 108.281 130.888 108.217 130.569 108.163C130.55 108.167 130.531 108.172 130.513 108.177L131.094 107.698C129.845 108.214 128.637 108.778 127.61 109.532C127.283 109.772 126.975 110.032 126.691 110.313C126.428 110.574 126.18 110.847 125.945 111.134C125.889 111.38 125.855 111.641 125.829 111.877C125.787 112.214 125.754 112.511 125.659 112.693C125.432 113.129 124.892 113.35 124.494 113.512C124.429 113.538 124.366 113.565 124.31 113.589C124.15 113.873 123.995 114.162 123.841 114.453C123.79 114.432 123.736 114.41 123.681 114.387C123.002 114.101 122.777 114.346 122.423 114.731C122.268 114.9 122.09 115.093 121.838 115.284C121.678 115.405 121.408 115.293 121.19 115.2C121.126 115.172 121.066 115.147 121.014 115.129C120.837 115.07 120.908 115.261 120.995 115.482C121.108 115.768 121.24 116.116 120.879 116.054C119.724 115.863 119.995 116.533 120.204 117.034C120.264 117.182 120.318 117.316 120.33 117.41C120.367 117.714 120.002 117.756 119.622 117.687C119.475 117.659 119.383 117.751 119.341 117.895L119.503 117.716C119.49 117.841 119.536 118.014 119.613 118.179C119.67 118.303 119.624 118.365 119.573 118.439C119.519 118.515 119.458 118.605 119.503 118.782C119.619 119.227 119.667 119.477 119.703 119.679C119.713 119.737 119.721 119.79 119.731 119.846C119.762 120.02 119.758 120.218 119.751 120.427C119.744 120.676 119.735 120.938 119.786 121.172C119.418 121.514 119.009 121.864 118.596 122.23C118.385 122.413 117.742 122.375 116.787 122.107C115.832 121.835 114.645 121.365 113.468 120.774C112.291 120.183 111.205 119.512 110.421 118.9C109.64 118.286 109.235 117.777 109.268 117.48C109.342 116.874 109.42 116.264 109.557 115.654C109.728 114.906 109.98 114.153 110.474 113.373C110.816 112.831 111.272 112.243 111.744 111.753C111.792 111.703 111.84 111.654 111.888 111.606C111.906 111.495 111.924 111.387 111.943 111.282C112.003 111.253 112.104 111.06 112.165 111.035C112.197 110.633 112.252 110.262 112.346 110.038C112.439 109.814 112.682 109.809 112.886 109.809C113.027 109.809 113.157 109.804 113.206 109.732C113.232 109.693 113.262 109.632 113.299 109.558C113.449 109.259 113.707 108.748 114.282 108.605C114.537 108.542 114.914 108.548 115.278 108.551C115.793 108.561 116.274 108.569 116.313 108.374C116.378 108.033 116.727 107.903 117.036 107.791C117.329 107.684 117.587 107.589 117.527 107.336C117.455 107.035 117.634 107.005 117.895 106.965C118.075 106.939 118.301 106.9 118.509 106.765C118.752 106.607 119.025 106.593 119.255 106.583C119.582 106.566 119.823 106.556 119.798 106.15C119.769 105.7 119.839 105.326 120.087 105.229C120.2 105.185 120.283 105.086 120.37 104.982C120.483 104.846 120.602 104.704 120.809 104.669C120.98 104.641 121.24 104.743 121.472 104.832C121.544 104.859 121.613 104.886 121.675 104.908C121.752 104.828 121.83 104.744 121.903 104.662C121.887 104.62 121.867 104.574 121.848 104.527C121.753 104.29 121.637 103.999 121.644 103.79C121.656 103.457 121.903 103.415 122.168 103.368C122.376 103.33 122.587 103.296 122.705 103.121C122.785 103 122.826 102.814 122.867 102.63C122.928 102.357 122.991 102.085 123.172 102.044C123.241 102.028 123.39 102.108 123.538 102.187L123.54 102.188C123.55 102.193 123.56 102.199 123.57 102.205C123.769 101.842 123.958 101.474 124.143 101.101C124.139 101.048 124.135 100.994 124.132 100.942C124.12 100.727 124.108 100.515 124.04 100.294C124.172 100.248 124.436 99.8817 124.573 99.855C124.566 99.8113 124.557 99.7665 124.545 99.7212C124.469 99.4158 124.606 99.1087 124.746 98.7896C124.84 98.5783 124.938 98.3597 124.98 98.1314C125.005 97.9973 125.173 98.0809 125.352 98.1636C125.517 98.2413 125.687 98.3211 125.746 98.231C125.775 98.1856 125.78 98.0983 125.785 98.0054C125.789 97.9235 125.793 97.8364 125.814 97.7701C125.833 97.7095 125.983 97.7148 126.171 97.7222C126.288 97.7268 126.419 97.731 126.546 97.7222C126.721 97.4732 126.911 97.2206 127.092 96.982C127.06 96.8277 126.996 96.6428 126.892 96.4205C126.818 96.2609 126.72 96.0753 126.621 95.8863C126.485 95.6292 126.345 95.3633 126.251 95.1392C126.178 94.9641 126.175 94.8771 126.245 94.9224C126.277 94.9437 126.325 94.9925 126.368 95.0367C126.417 95.0873 126.461 95.1326 126.471 95.1246C126.478 95.1182 126.458 95.0713 126.433 95.0152C126.394 94.9258 126.342 94.8107 126.37 94.7857C126.477 94.6912 126.631 94.6323 126.78 94.5767C126.944 94.5161 127.111 94.4523 127.201 94.3453C127.302 94.2253 127.58 94.2575 127.865 94.2847C128.062 94.3045 128.254 94.3282 128.392 94.2974C128.527 94.267 128.578 94.1081 128.626 93.9546C128.681 93.7722 128.744 93.589 128.938 93.6529C128.977 93.6659 129.116 93.8137 129.289 93.9986C129.412 94.1297 129.552 94.2802 129.687 94.4146C129.817 94.3264 129.958 94.2396 130.096 94.1646C130.086 94.1391 130.075 94.113 130.064 94.0865L130.063 94.0845Z" fill="black"/>
<path d="M128.07 185.761C128.214 185.712 128.559 185.779 129.014 185.917C129.296 186.001 129.619 186.114 129.964 186.246C130.327 186.274 130.71 186.336 131.096 186.436C131.681 186.583 132.193 186.783 132.649 187.005C132.868 186.973 133.097 186.901 133.333 186.773C133.503 186.681 133.685 186.558 133.875 186.436C134.134 186.27 134.407 186.104 134.681 186.021C134.895 185.957 135.055 185.997 135.077 186.119C135.087 186.176 135.068 186.25 135.05 186.316C135.029 186.392 135.011 186.459 135.039 186.483C135.06 186.5 135.115 186.482 135.181 186.461C135.287 186.429 135.425 186.39 135.508 186.464C135.813 186.739 136.087 187.1 136.32 187.453C136.581 187.845 136.795 188.23 137.012 188.505C137.257 188.815 137.37 189.392 137.422 189.957C137.46 190.351 137.474 190.742 137.525 191.06C137.576 191.372 137.764 191.656 137.936 191.955C138.142 192.31 138.324 192.692 138.203 193.049C138.179 193.121 137.989 193.229 137.749 193.355C137.579 193.444 137.385 193.543 137.204 193.646C137.231 194.04 137.224 194.447 137.181 194.858C137.207 194.874 137.234 194.892 137.261 194.909C137.518 195.072 137.812 195.277 138.012 195.521C138.313 195.652 138.463 195.781 138.148 195.869C138.009 195.908 137.762 195.909 137.54 195.91C137.322 195.91 137.127 195.91 137.081 195.944C137.029 195.984 137.153 196.057 137.286 196.137C137.474 196.249 137.682 196.38 137.46 196.442C137.445 196.446 137.428 196.451 137.411 196.456C137.253 196.499 137.017 196.569 136.562 196.594C136.491 196.711 136.416 196.827 136.337 196.943C136.569 197.216 136.782 197.479 136.969 197.727C137.559 198.516 137.837 199.078 137.755 199.309C137.591 199.77 137.409 200.243 137.165 200.703C136.866 201.262 136.471 201.809 135.868 202.281C135.447 202.609 134.944 202.932 134.335 203.224C134.273 203.254 134.208 203.284 134.143 203.313C133.914 203.69 133.619 204.063 133.307 204.35C133.153 204.493 132.999 204.614 132.855 204.705C132.495 204.928 132.138 204.851 131.849 204.775C131.648 204.722 131.474 204.67 131.318 204.717C131.234 204.743 131.122 204.787 130.982 204.835C130.427 205.04 129.331 205.301 128.393 204.883C127.981 204.703 127.545 204.349 127.189 203.989C126.672 203.473 126.325 202.956 126.043 202.954C125.784 202.951 125.545 202.842 125.34 202.689C125.153 202.549 124.994 202.371 124.855 202.202C124.576 201.865 124.376 201.565 124.082 201.612C123.729 201.666 123.629 201.441 123.514 201.118C123.434 200.892 123.347 200.618 123.157 200.324C122.938 199.981 122.912 199.639 122.903 199.357C122.891 198.955 122.912 198.68 122.463 198.489C121.963 198.273 121.562 197.877 121.54 197.458C121.532 197.315 121.491 197.168 121.444 197.011C121.429 196.96 121.413 196.908 121.398 196.855C121.315 196.576 121.246 196.267 121.336 195.975C121.41 195.735 121.656 195.532 121.878 195.372C121.947 195.321 122.014 195.275 122.072 195.231C122.068 195.067 122.069 194.903 122.072 194.74C122.033 194.711 121.99 194.679 121.945 194.646C121.722 194.479 121.455 194.252 121.354 193.982C121.195 193.553 121.424 193.229 121.677 192.943C121.875 192.716 122.089 192.508 122.18 192.206C122.242 191.999 122.261 191.735 122.295 191.471C122.344 191.081 122.434 190.689 122.662 190.549C122.748 190.497 122.923 190.535 123.094 190.578C123.095 190.578 123.096 190.578 123.097 190.579C123.108 190.582 123.12 190.584 123.132 190.586C123.179 190.495 123.227 190.406 123.276 190.316C123.505 189.9 123.756 189.504 124.044 189.12C124.056 189.057 124.07 188.994 124.084 188.932C124.155 188.628 124.246 188.33 124.236 188.011C124.226 187.666 124.537 187.259 124.966 186.847C125.245 186.577 125.578 186.305 125.874 186.031C126.048 185.87 126.306 185.964 126.562 186.072C126.803 186.172 127.042 186.285 127.273 186.202C127.39 186.16 127.511 186.071 127.652 185.979C127.776 185.898 127.914 185.815 128.07 185.761ZM123.511 194.926C123.632 195.633 123.942 196.137 124.355 196.549C124.867 197.012 125.433 197.482 126.96 197.838C127.717 198.007 128.374 197.949 128.821 197.822C128.855 197.824 128.888 197.826 128.92 197.827C129.386 197.842 129.747 197.792 129.942 197.66C129.866 197.548 129.682 197.456 129.471 197.457C129.166 197.476 129.029 197.426 128.841 197.408C128.487 197.365 128.191 197.279 127.898 197.2C127.315 197.041 126.786 196.875 126.323 196.723C125.402 196.419 124.838 196.192 124.727 196.058C124.549 195.839 124.376 195.57 124.214 195.307C124.19 195.29 124.167 195.273 124.146 195.256C124.019 195.159 123.777 195.044 123.511 194.926ZM129.309 195.376C129.302 195.442 129.298 195.503 129.295 195.552C129.286 195.71 129.303 195.56 129.31 195.364C129.309 195.368 129.309 195.372 129.309 195.376ZM129.323 195.262C129.371 195.669 129.38 195.497 129.329 195.212C129.327 195.229 129.325 195.246 129.323 195.262ZM129.314 195.183C129.314 195.168 129.314 195.152 129.314 195.137C129.385 195.482 129.373 195.73 129.314 195.183ZM129.127 194.513C129.125 194.509 129.125 194.504 129.123 194.5C129.072 194.361 129.076 194.398 129.127 194.513Z" fill="black"/>
<path d="M143.152 341.6C144.441 341.647 145.687 342.448 147.037 344.317C148.372 346.173 149.633 348.886 150.536 351.845C150.919 353.105 151.308 354.356 151.708 355.618C152.846 359.219 154.022 362.795 155.22 366.391C155.32 366.641 155.42 366.893 155.517 367.143C156.245 369.008 157.113 370.677 157.988 372.357C158.189 372.744 158.387 373.121 158.588 373.515C160.104 376.461 161.667 382.591 162.503 386.018C162.519 386.08 162.535 386.143 162.55 386.206C162.748 387.015 162.96 387.787 163.201 388.68C163.76 390.835 164.618 393.68 165.654 400.141C166.069 402.006 166.443 403.92 166.725 405.929C166.861 406.897 166.978 407.908 167.058 408.926C168.281 423.441 167.642 438.282 167.804 451.796C167.946 456.002 168.036 460.225 168.099 464.401C168.114 464.647 168.129 464.889 168.144 465.138C168.439 469.979 168.768 475.85 169.169 478.783C169.222 479.218 169.281 479.629 169.346 480.022C170.007 483.657 170.628 486.354 171.141 488.6C173.606 496.86 176.658 505.887 180.227 513.085C180.765 513.131 181.405 513.275 182.148 513.617C184.121 514.524 185.96 516.799 186.459 518.829C187.025 520.863 186.891 522.526 186.693 523.979C186.249 526.856 185.311 529.189 184.527 531.266C184.417 531.556 184.307 531.845 184.224 532.079C183.289 535.515 179.296 538.519 176.231 538.926C173.112 539.537 170.509 539.227 168.054 538.877C163.397 538.138 159.218 536.875 155.118 535.78C154.968 535.74 154.817 535.699 154.664 535.656C153.754 535.433 152.702 535.215 151.343 534.547C149.972 533.898 148.608 532.589 147.883 531.502C147.371 530.799 146.895 530.11 146.441 529.408C144.493 526.411 143.124 523.434 142.31 520.883C141.138 517.343 140.673 513.215 140.432 510.042C140.138 507.34 140.929 504.973 142.004 503.126C141.804 502.415 141.628 501.723 141.481 501.082C141.025 499.123 139.451 495.486 138.143 492.785C137.652 491.775 137.135 490.341 136.522 488.659C135.889 486.925 135.154 484.926 134.221 482.842C132.524 479.057 131.357 476.589 130.442 474.679C130.378 474.538 130.246 474.103 130.203 473.955C129.955 473.163 129.735 472.473 129.528 471.822C129.314 471.149 129.116 470.532 128.915 469.913C128.278 467.953 127.518 465.512 126.724 463.053C125.778 460.116 124.775 457.128 123.934 454.894C122.295 448.922 120.566 442.992 118.738 437.021C117.873 434.185 117.415 431.303 117.506 428.887C117.493 428.852 117.463 428.744 117.452 428.709C117.466 428.507 117.484 428.31 117.506 428.116C117.814 425.523 118.793 424.038 120.061 423.712C121.344 423.382 122.869 424.388 124.377 426.223C124.491 426.36 124.605 426.502 124.717 426.648L124.674 426.51C126.162 428.302 127.585 430.836 128.644 433.639C130.953 439.742 133.193 445.919 135.247 452.154C137.276 458.31 139.135 464.527 140.78 470.813C141.267 471.98 141.74 473.143 142.203 474.313C144.277 479.557 146.151 484.838 147.961 490.069C148.149 490.612 148.33 491.134 148.519 491.681C149.1 493.007 149.682 494.327 150.244 495.603C152.606 494.126 154.94 492.982 157.031 491.87C157.274 491.806 157.488 491.758 157.721 491.698C158.07 491.617 158.428 491.509 158.664 491.442C159.291 491.156 159.936 490.862 160.684 490.597C159.991 489.022 159.088 486.536 158.249 483.855C158.145 483.525 158.044 483.195 157.945 482.867C157.265 480.58 156.861 478.321 156.542 476.533C156.324 475.311 156.404 474.154 156.5 473C156.589 471.92 156.692 470.827 156.591 469.659C156.541 469.079 156.441 468.451 156.335 467.776C156.243 467.196 156.145 466.57 156.072 465.921C156.004 465.321 156.031 463.961 156.061 462.238C156.08 461.186 156.098 459.958 156.097 458.699C155.925 456.647 155.745 454.601 155.559 452.556C155.436 451.177 155.346 449.826 155.268 448.487C155.101 447.772 154.896 447.153 154.643 446.661C154.461 446.308 154.248 446.019 154.03 445.711C153.733 445.288 153.426 444.875 153.178 444.272C152.985 443.818 152.902 443.258 152.973 442.895C153.007 442.724 153.073 442.592 153.132 442.472C153.201 442.334 153.261 442.211 153.257 442.061C153.254 441.952 153.203 441.842 153.141 441.707C153.042 441.491 152.914 441.21 152.904 440.774C152.866 439.168 152.883 437.35 152.896 435.58C152.911 433.614 152.918 431.697 152.847 430.177C152.768 428.473 152.889 426.047 152.983 423.622C153.049 421.93 153.102 420.235 153.081 418.789C153.06 417.368 152.873 415.902 152.681 414.485C152.471 412.928 152.254 411.445 152.253 410.124C152.255 410.023 152.259 409.922 152.264 409.82C152.276 409.587 152.445 409.264 152.65 408.862C152.795 408.576 152.954 408.223 153.089 407.84C152.866 406.25 152.561 404.592 152.213 402.913C152.174 402.859 152.133 402.804 152.092 402.748L152.09 402.746C151.167 401.506 149.881 399.828 149.676 397.017C149.624 396.301 149.74 395.796 149.848 395.354C149.953 394.917 150.042 394.512 149.944 394.002C149.832 393.424 149.512 392.769 149.167 392.078C148.678 391.09 148.128 389.99 147.994 388.772C147.984 388.688 147.974 388.597 147.963 388.503C147.86 387.611 147.705 386.294 147.764 384.918C146.782 381.164 145.8 377.388 144.847 373.59C143.586 368.566 142.377 363.507 141.251 358.418C140.958 357.092 140.672 355.771 140.392 354.434C139.737 351.293 139.609 348.107 140.129 345.614C140.631 343.124 141.844 341.528 143.152 341.6ZM171.011 514.465C170.411 515.56 169.699 516.085 169.224 516.559C168.906 516.831 168.609 517.059 168.319 517.279C167.327 518.027 166.527 518.895 165.571 519.845C164.925 520.486 164.21 521.154 163.385 521.782C161.993 522.81 159.795 523.441 157.734 523.045C157.082 522.928 156.485 522.751 155.931 522.535C153.226 521.193 151.699 519.774 150.669 518.473C151.034 520.152 151.578 521.659 152.694 523.454C153.435 524.629 154.234 525.777 155.046 526.88C155.342 527.184 155.195 526.994 155.499 527.151C155.8 527.284 156.529 527.514 157.249 527.744C157.281 527.755 157.315 527.766 157.349 527.776C158.573 528.163 159.964 528.545 161.39 528.923C163.334 529.438 165.34 529.937 167.109 530.426C168.564 530.829 169.71 531.263 170.725 531.592C171.046 531.695 171.339 531.785 171.635 531.861C172.74 531.921 173.791 531.878 174.647 531.691C174.776 531.623 174.904 531.545 175.026 531.462C175.67 531.03 175.962 530.507 176.099 530.04C176.163 529.857 176.229 529.655 176.301 529.387C177.019 527.18 177.721 525.72 178.22 524.13C178.514 523.345 178.633 522.482 178.663 521.867C178.591 521.877 178.515 521.887 178.436 521.896C177.936 521.934 177.176 521.929 176.295 521.571C175.412 521.226 174.638 520.498 174.252 519.91C174.099 519.703 173.938 519.473 173.794 519.261C172.638 517.521 171.716 515.892 171.011 514.465ZM178.583 521.049C178.574 521.062 178.594 521.087 178.468 521.052C178.528 521.079 178.586 521.104 178.642 521.127C178.626 521.051 178.607 521.021 178.583 521.049ZM158.875 513.025C158.981 513.094 159.019 513.108 158.945 513.051C158.929 513.043 158.907 513.034 158.875 513.025ZM163.859 499.125C163.733 499.182 163.605 499.245 163.481 499.314C162.481 499.88 161.708 500.214 160.955 500.556C157.878 501.893 155.554 502.98 154.459 503.937C154.33 504.049 154.2 504.157 154.072 504.263C154.777 505.939 155.24 507.24 155.669 508.343C156.032 509.277 156.387 510.091 156.824 510.756C157.065 511.124 157.402 511.594 157.785 512.037C158.026 512.343 158.32 512.606 158.556 512.793C160.036 511.838 161.338 510.941 161.904 510.424C162.062 510.291 162.154 510.203 162.17 510.253C162.191 510.297 162.135 510.519 162.157 510.831C162.395 509.242 162.669 508.6 162.901 507.771C163.137 506.992 163.351 506.281 163.533 505.597C164.357 502.695 164.296 500.362 163.859 499.125ZM163.116 497.801C163.137 497.848 163.174 497.902 163.221 497.963C163.186 497.909 163.152 497.854 163.116 497.801Z" fill="black"/>
<path d="M9.66946 200.607C10.7086 199.926 11.9439 199.712 13.2036 199.957C14.4617 200.204 15.624 200.902 16.4488 201.929C17.2694 202.959 17.6924 204.249 17.6255 205.546C17.5636 206.838 16.989 208.037 16.1402 208.836C15.6639 209.284 15.2267 209.708 14.814 210.132L14.9185 210.041C13.8656 211.179 12.9388 212.325 12.2583 213.402C11.89 213.983 11.5985 214.538 11.3814 215.055C11.1099 216.448 10.8957 217.723 10.7163 219.044C10.477 220.8 10.3376 222.585 10.2847 224.413C10.2793 224.599 10.2746 224.788 10.271 224.979C10.6157 226.511 11.0204 228.027 11.232 229.103C11.4056 229.988 11.3164 230.666 11.2447 231.25C11.1956 231.651 11.1563 232.013 11.2232 232.359C11.2439 232.467 11.2723 232.597 11.3072 232.748C11.334 232.866 11.3645 232.996 11.397 233.136C11.7102 234.492 12.2419 236.772 12.2876 238.909C12.3078 239.86 12.2248 240.982 12.1519 242.048C12.0479 243.578 11.9693 245.001 12.2144 245.667C12.6418 246.827 12.7759 248.233 12.9087 249.47C13.0361 250.656 13.1609 251.686 13.5132 252.204C13.9337 252.819 13.9757 253.426 14.0445 254.322C14.0943 254.95 14.1549 255.707 14.3794 256.717C14.6362 257.872 14.6983 258.732 14.7534 259.462C14.8325 260.489 14.9005 261.27 15.5347 262.246C16.2424 263.339 16.867 264.504 17.107 265.503C17.2166 265.959 17.4112 266.466 17.6128 266.98C17.8816 267.666 18.1719 268.39 18.313 269.092C18.4305 269.675 18.3703 270.221 18.3179 270.701C18.3017 270.851 18.2863 270.996 18.2779 271.134C18.4555 271.567 18.6394 272.004 18.8238 272.429C18.8906 272.483 18.9634 272.54 19.0386 272.598C19.4155 272.89 19.8848 273.261 20.2632 273.777C20.8665 274.603 21.0904 275.463 21.3345 276.37C21.5286 277.084 21.7263 277.806 22.1382 278.574C22.4198 279.098 22.799 279.646 23.1861 280.201C23.7593 281.023 24.3276 281.813 24.5532 282.465C24.6352 282.704 24.5913 282.97 24.5484 283.234C24.548 283.235 24.5478 283.237 24.5474 283.238C24.5445 283.256 24.5415 283.275 24.5386 283.293C24.7727 283.673 25.011 284.053 25.2525 284.435C25.899 285.456 26.5702 286.495 27.2407 287.512C27.3461 287.62 27.4522 287.73 27.5572 287.839C28.072 288.374 28.5647 288.876 29.021 289.145C29.5114 289.429 30.2538 290.421 31.0396 291.459C31.5554 292.141 32.0895 292.844 32.5816 293.385C32.8685 293.701 32.9198 294.128 32.9732 294.568C33.0223 294.978 33.072 295.397 33.3189 295.75C33.4424 295.926 33.6176 296.094 33.8032 296.271C33.9666 296.427 34.1398 296.593 34.2954 296.781C34.4396 296.955 34.6093 297.435 34.8267 298.045C34.9614 298.422 35.1163 298.85 35.2945 299.292C36.0046 300.318 36.7149 301.348 37.4204 302.379C37.6765 302.53 37.9529 302.63 38.2515 302.663C38.4657 302.686 38.6997 302.676 38.939 302.666C39.2649 302.652 39.6016 302.638 39.9165 302.706C40.1624 302.759 40.3275 302.895 40.3286 303.05C40.3291 303.122 40.2941 303.197 40.2632 303.265C40.2278 303.344 40.1971 303.415 40.2261 303.461C40.2473 303.494 40.3103 303.504 40.3872 303.517C40.5107 303.538 40.6705 303.565 40.7544 303.7C41.0665 304.201 41.374 304.803 41.6724 305.388C42.0069 306.044 42.3316 306.679 42.6538 307.153C43.0154 307.685 43.3177 308.559 43.6255 309.44C43.8371 310.049 44.0566 310.67 44.2896 311.165C44.5161 311.647 44.8951 312.084 45.2554 312.494C45.6866 312.984 46.112 313.473 46.2417 314.006C46.2678 314.114 46.1635 314.33 46.0357 314.603C45.9446 314.797 45.8409 315.019 45.7603 315.249C46.1063 315.828 46.4489 316.415 46.7827 317.002C46.8181 317.008 46.8544 317.015 46.8911 317.021H46.8931C47.7225 317.166 48.8616 317.371 48.9683 318.557C48.9953 318.859 48.8736 319.13 48.7642 319.374C48.6572 319.614 48.5588 319.825 48.6284 320.019C48.7065 320.238 48.9583 320.399 49.23 320.571C49.6082 320.807 50.043 321.09 50.0962 321.586C50.0999 321.619 50.1036 321.656 50.1079 321.693C50.1451 322.044 50.2164 322.592 50.0835 323.233C50.6658 324.404 51.2303 325.575 51.7866 326.753C51.8514 326.888 51.9155 327.023 51.9781 327.156C53.0069 329.342 54.013 331.558 55.0161 333.756C55.5017 334.824 55.5695 336.097 55.1685 337.289C54.7897 338.519 53.8829 339.409 52.9351 340.282C51.9375 341.133 50.4498 341.18 49.2046 341.008C47.9305 340.799 46.8168 340.142 46.0816 339.211C44.8804 337.682 43.6959 336.174 42.5152 334.635C42.4414 334.566 42.368 334.493 42.2954 334.421C41.8776 333.997 41.4037 333.684 40.8902 333.354C40.7332 333.259 40.5728 333.164 40.4116 333.067C40.258 332.975 40.103 332.881 39.9488 332.783C38.7904 332.066 37.7843 329.914 37.2388 328.74C37.2285 328.718 37.2179 328.697 37.2075 328.676C37.0729 328.388 36.9361 328.144 36.7681 327.847C36.3625 327.131 35.8295 326.187 34.9888 324.017C34.6343 323.454 34.284 322.884 33.9429 322.313C30.2473 316.129 27.0323 309.663 23.979 303.086C23.931 303.008 23.8819 302.929 23.8325 302.849C22.8768 301.307 21.7026 299.392 21.2056 298.043C20.5762 296.332 20.2165 295.131 19.9351 294.143C19.1117 292.285 18.2925 290.422 17.4751 288.551C15.9404 285.05 14.4943 281.544 13.0777 278.011C12.3968 276.313 11.7157 274.593 11.0474 272.892C10.4251 271.308 9.82134 269.744 9.22122 268.151C8.76957 267.274 8.31248 266.426 7.89993 265.649C7.31698 264.548 6.81217 263.559 6.49173 262.717C5.71402 260.676 5.27446 258.233 4.98587 256.423C4.93825 256.126 4.89485 255.849 4.85305 255.591C4.41534 254.202 3.99462 252.823 3.58645 251.426C3.61559 251.32 3.64689 251.213 3.67923 251.105C4.08214 249.749 3.756 248.287 3.29055 245.963C3.08801 244.948 2.8623 243.78 2.66555 242.39C2.5396 241.498 2.72928 240.994 2.8843 240.585C2.92995 240.464 2.9734 240.352 3.00442 240.24C3.11101 239.859 2.86621 239.51 2.57962 239.104C2.2082 238.579 1.76195 237.938 1.91555 236.983C2.10299 235.81 2.09624 234.918 1.97903 234.217C1.78283 233.031 1.32594 232.342 0.943874 231.741C0.763049 231.46 0.600064 231.2 0.496609 230.926C0.159687 230.04 0.280098 228.703 0.546413 227.696C0.751871 226.894 0.439241 225.348 0.125515 224.129C0.00536161 223.669 0.0105667 223.053 0.0356711 222.313C0.0615037 221.552 0.1093 220.674 0.0591086 219.714C-0.0594848 217.287 0.0269194 215.962 0.0884055 214.911C0.107011 214.616 0.128654 214.335 0.150905 214.056C0.196039 213.477 0.282464 212.806 0.378445 212.146C0.403162 211.968 0.605058 211.473 0.656765 211.301C0.806646 210.856 0.977596 210.411 1.16262 209.977C1.82172 208.425 2.65764 207.048 3.26614 206.036C4.70902 204.412 6.21887 203.123 7.71341 201.974C7.73562 201.95 7.81551 201.89 7.83841 201.866C8.46421 201.413 9.08672 200.991 9.66946 200.607Z" fill="black"/>
<path d="M82.86 211.733C84.0645 211.132 85.4107 210.988 86.6481 211.363C87.8876 211.727 88.9325 212.599 89.5729 213.816C90.2143 215.027 90.3927 216.466 90.0992 217.807C89.6197 219.991 89.108 222.173 88.5485 224.347C88.5343 224.466 88.5185 224.585 88.5016 224.703C88.3741 225.586 88.4363 226.47 88.4938 227.356C88.5069 227.56 88.5192 227.764 88.5289 227.969C88.609 229.525 87.3669 232.013 86.6598 233.37C86.6472 233.395 86.6343 233.42 86.6217 233.445C86.4549 233.767 86.3172 234.081 86.1549 234.449C85.7659 235.323 85.248 236.512 83.7809 238.833C83.4708 239.561 83.1491 240.284 82.8111 241.007C81.5913 243.614 80.2255 246.203 78.652 248.751C77.169 250.747 76.29 255.939 76.0055 260.896C76.0103 260.991 76.0148 261.088 76.0201 261.186C76.1192 263.091 76.3312 265.507 76.2135 267.048C76.0618 269.007 75.9167 270.383 75.7858 271.491C75.8509 276.456 76.0943 281.475 76.5182 286.502C76.6308 287.854 76.7769 289.184 76.9654 290.521C77.2363 292.443 77.5908 294.35 78.0377 296.236C78.4487 297.97 78.9311 299.686 79.483 301.367C79.9152 302.321 80.3679 303.187 80.8063 303.998C81.4187 305.127 81.9901 306.107 82.3873 306.936C83.3409 308.942 84.183 311.286 84.9059 312.981C85.0216 313.256 85.1379 313.52 85.2418 313.753C85.4982 314.155 85.7545 314.542 86.0162 314.921C86.039 314.952 86.0905 315.055 86.1119 315.087C86.7041 316.039 87.2864 316.998 87.8561 317.966C87.8613 318.088 87.8648 318.213 87.8678 318.34C87.9008 319.917 88.6918 321.458 89.8268 323.964C90.3186 325.055 90.8719 326.333 91.4264 327.878C91.7827 328.874 91.7154 329.48 91.6598 329.971C91.6432 330.116 91.6272 330.252 91.6227 330.385C91.6071 330.838 91.9277 331.196 92.3033 331.625C92.7896 332.179 93.3742 332.865 93.4069 333.999C93.4899 337.597 94.4264 338.896 95.1783 339.934C95.3951 340.237 95.59 340.514 95.7272 340.811C96.1745 341.777 96.2148 343.283 96.068 344.431C95.9574 345.341 96.4491 347.043 96.9029 348.351C97.076 348.843 97.1448 349.534 97.2076 350.341C97.2732 351.179 97.3325 352.145 97.5055 353.183C97.9352 355.805 98.0514 357.216 98.151 358.355C98.1779 358.677 98.2002 358.978 98.2223 359.28C98.2923 360.238 98.3098 361.42 98.2965 362.617C98.2818 364.055 98.2216 365.51 98.2203 366.622C98.1634 366.907 98.1044 367.192 98.0436 367.478C98.0383 367.566 97.974 367.823 97.9625 367.911C97.2538 370.393 96.3524 372.854 95.4938 375.071C95.0014 376.346 94.0812 377.377 92.8903 378.012C91.698 378.647 90.3342 378.827 89.0611 378.486C87.7904 378.14 86.702 377.287 86.0319 376.073C85.3605 374.863 85.175 373.401 85.4654 372.069C85.9803 369.732 86.4083 367.585 86.7399 365.387L86.6705 365.756C86.6981 365.418 86.7239 365.081 86.7477 364.747C86.9679 361.647 87.0424 358.572 87.0319 355.511C87.0246 353.371 86.9384 351.235 86.7662 349.1C86.7485 348.88 86.7301 348.66 86.7106 348.44C86.1796 346.69 85.5897 344.985 85.2418 343.775C84.9556 342.777 84.9575 342.005 84.9518 341.337C84.9475 340.878 84.9389 340.469 84.8248 340.083C84.7635 339.875 84.6697 339.594 84.5533 339.257C84.0827 337.874 83.2077 335.569 82.7164 333.325C82.5014 332.327 82.3327 331.127 82.1422 329.975C81.8725 328.33 81.5542 326.781 81.1285 326.125C80.3823 324.969 79.8392 323.503 79.3248 322.202C78.8809 321.075 78.4645 320.079 78.0055 319.551L78.0924 319.701C78.0421 319.646 77.9914 319.593 77.9401 319.546C77.2543 318.906 76.9626 318.177 76.5768 317.114C76.3079 316.371 75.9939 315.467 75.4977 314.288C74.9275 312.927 74.6888 311.894 74.4957 311.021C74.2285 309.794 74.0504 308.882 73.2936 307.689C72.454 306.364 71.7491 304.897 71.485 303.655C71.3644 303.09 71.1688 302.465 70.9713 301.806C70.7119 300.942 70.453 300.028 70.36 299.151C70.2869 298.443 70.3972 297.794 70.5045 297.249C70.5374 297.076 70.5684 296.91 70.5934 296.75C70.4653 296.192 70.3456 295.657 70.2233 295.099C70.1646 295.018 70.1003 294.93 70.0348 294.844C69.7055 294.407 69.2979 293.836 69.0192 293.116C68.5742 291.952 68.5414 290.871 68.525 289.742C68.5133 289.036 68.5113 288.337 68.4244 287.551C68.4018 287.345 68.3734 287.135 68.3365 286.922C68.2173 286.231 68.0178 285.494 67.816 284.715C67.5198 283.586 67.2309 282.462 67.233 281.665C67.2339 281.366 67.3644 281.1 67.4928 280.823C67.4936 280.822 67.4939 280.82 67.4947 280.819C67.5035 280.801 67.5124 280.782 67.5211 280.763C67.1748 278.859 66.8252 276.928 66.4889 275.014C66.4306 274.848 66.3727 274.681 66.316 274.516C66.0397 273.717 65.7743 272.928 65.4576 272.428C65.1149 271.895 64.8178 270.484 64.524 268.961C64.3322 267.977 64.1424 266.958 63.9303 266.101C63.8067 265.609 63.9476 265.133 64.0944 264.63C64.2315 264.164 64.3745 263.704 64.3151 263.182C64.2854 262.925 64.2084 262.65 64.1266 262.36C64.0544 262.102 63.9784 261.817 63.9303 261.527C63.8859 261.26 63.9635 260.65 64.0748 259.871C64.1436 259.405 64.2248 258.827 64.2994 258.263C64.2203 256.725 64.1904 255.159 64.2486 253.543C64.1345 253.204 63.9792 252.876 63.7653 252.616C63.6119 252.428 63.4232 252.259 63.2311 252.085C62.9697 251.848 62.7027 251.585 62.5094 251.252C62.3587 250.988 62.3256 250.707 62.4332 250.52C62.483 250.436 62.5618 250.378 62.6324 250.326C62.7132 250.266 62.7851 250.214 62.7965 250.136C62.8045 250.081 62.7652 250.015 62.7184 249.933C62.644 249.802 62.5465 249.64 62.5865 249.403C62.7332 248.538 62.9904 247.567 63.318 246.565C63.6781 245.459 64.1183 244.365 64.482 243.438C64.7196 242.828 65.1356 242.08 65.6754 241.315C65.9036 241.037 66.1562 240.741 66.4078 240.439C66.8366 239.928 67.2655 239.395 67.5787 238.907C67.8868 238.427 68.0648 237.852 68.232 237.293C68.433 236.621 68.6199 235.972 69.0113 235.526C69.0911 235.436 69.3327 235.392 69.6354 235.337C69.8502 235.297 70.0968 235.25 70.3375 235.177C70.649 234.51 70.9625 233.845 71.2779 233.177C71.2638 233.143 71.2488 233.107 71.234 233.071L71.233 233.069C70.8996 232.254 70.4335 231.156 71.3678 230.291C71.6054 230.07 71.9026 229.994 72.1705 229.924C72.4336 229.855 72.6692 229.792 72.7906 229.607C72.9285 229.397 72.9184 229.077 72.9069 228.727C72.891 228.236 72.8683 227.693 73.2516 227.305C73.2776 227.279 73.3058 227.251 73.3346 227.221C73.6093 226.94 74.0145 226.524 74.6266 226.185C75.323 224.743 76.0232 223.296 76.7213 221.843C77.8842 219.422 79.0437 216.982 80.1588 214.526C80.7026 213.333 81.6583 212.33 82.86 211.733Z" fill="black"/>
<path d="M80.9049 33.236C81.2616 33.1195 81.8813 33.4107 82.6423 34.07C83.4039 34.7302 84.2411 35.6986 84.985 36.7858C85.7288 37.873 86.3276 39.0036 86.6667 39.9528C87.0051 40.9014 87.0521 41.5869 86.8112 41.8786C86.3242 42.4646 85.8345 43.0513 85.3161 43.6042C84.6848 44.2775 84.0105 44.901 83.2467 45.4079C82.7135 45.7617 82.1553 46.0907 81.5758 46.3972C81.5165 46.4285 81.4551 46.4599 81.3952 46.4909C81.1105 47.0569 80.7925 47.6037 80.5065 47.9059C80.5047 47.9079 80.5025 47.9099 80.5006 47.9118C80.2637 48.1602 79.9659 48.1385 79.7155 48.1169C79.5411 48.1033 79.3903 48.0891 79.2897 48.1657C79.2365 48.2065 79.1667 48.2707 79.0846 48.3474C78.7486 48.6618 78.1797 49.1858 77.4723 49.2311C77.1581 49.2517 76.746 49.1723 76.3649 49.0925C75.8192 48.978 75.3338 48.8683 75.2497 49.0524C75.206 49.1478 75.1441 49.217 75.0729 49.2702C75.0897 49.4811 74.9249 49.5588 74.6921 49.6706C74.5009 49.7622 74.2647 49.8791 74.0563 50.1042C73.815 50.3652 73.5261 50.4795 73.2799 50.5778C72.9354 50.7134 72.6737 50.8204 72.7555 51.2683C72.8455 51.7667 72.8309 52.2068 72.5807 52.4177C72.4669 52.5131 72.3931 52.659 72.319 52.8083C72.2204 53.0067 72.1173 53.2165 71.9049 53.3395C71.73 53.4407 71.4347 53.4383 71.1745 53.4362C71.0934 53.4357 71.0159 53.4353 70.946 53.4382C70.8783 53.5618 70.8123 53.687 70.7487 53.8132C70.773 53.8534 70.8004 53.897 70.8288 53.9421C70.9712 54.1684 71.1466 54.4454 71.1784 54.6823C71.2287 55.0567 70.9745 55.217 70.7057 55.3874C70.4968 55.5198 70.2788 55.6587 70.1921 55.9079C70.1329 56.078 70.1273 56.3059 70.1227 56.5309C70.1161 56.8648 70.1102 57.195 69.9294 57.3288C69.8615 57.379 69.6888 57.3614 69.5173 57.3434L69.5143 57.3425C69.5029 57.3413 69.4916 57.3407 69.4801 57.3395C69.3545 57.8343 69.2395 58.3405 69.1374 58.8444C69.1543 58.9014 69.1705 58.9595 69.1862 59.0163C69.2626 59.294 69.3378 59.5629 69.5173 59.8044C69.7114 60.0666 69.6997 60.4625 69.6872 60.8845C69.6794 61.1599 69.6731 61.4441 69.7253 61.7028C69.755 61.854 69.5543 61.8854 69.3483 61.9167C69.1559 61.9461 68.9585 61.9769 68.9391 62.1071C68.9296 62.1723 68.9609 62.2632 68.9948 62.3601C69.0246 62.4454 69.0563 62.5357 69.0631 62.6169C69.0695 62.6919 68.9232 62.7856 68.738 62.904C68.6235 62.9772 68.4938 63.0609 68.3747 63.1559C68.3106 63.5251 68.2395 63.9034 68.1676 64.2692C68.2663 64.3997 68.4086 64.5393 68.6051 64.6891C68.7462 64.7967 68.9203 64.9134 69.0983 65.0329C69.3408 65.1949 69.5907 65.365 69.779 65.5231C69.9257 65.6467 69.9678 65.7306 69.8815 65.7331C69.8413 65.7342 69.7742 65.7183 69.7135 65.7038C69.6438 65.6871 69.5819 65.6722 69.5768 65.6872C69.5734 65.6981 69.6127 65.7298 69.6608 65.7682C69.7378 65.8298 69.8375 65.9095 69.8229 65.9528C69.7658 66.1139 69.6488 66.2712 69.5348 66.4245C69.4059 66.5997 69.2818 66.7697 69.2477 66.9333C69.2095 67.1169 68.9349 67.2739 68.6579 67.4411C68.4655 67.5558 68.2745 67.6706 68.1637 67.7907C68.0567 67.906 68.0829 68.0998 68.112 68.2809C68.1464 68.4995 68.1815 68.7065 67.9743 68.778C67.932 68.7928 67.7342 68.7464 67.485 68.6921C67.3085 68.6532 67.1063 68.6085 66.9167 68.5759C66.8389 68.7562 66.755 68.9313 66.6667 69.1003C66.689 69.117 66.7119 69.1338 66.735 69.1511L66.737 69.152C67.2641 69.5402 67.9792 70.085 67.3864 70.1569C67.2355 70.1757 66.9922 70.1263 66.7731 70.0817C66.5581 70.0379 66.3657 69.9992 66.3073 70.0339C66.2402 70.0762 66.333 70.1975 66.4352 70.3278C66.5787 70.5111 66.7409 70.7127 66.4997 70.7497C66.4833 70.7522 66.465 70.7546 66.4469 70.7575C66.2747 70.7847 66.0189 70.8272 65.5534 70.7927C65.2947 71.1225 65.0182 71.4517 64.7428 71.7556C64.2764 72.2821 63.7911 72.7949 63.361 73.2302C63.154 73.4287 62.5195 73.4623 61.5466 73.3806C60.5733 73.2852 59.3242 73.2162 58.0339 73.1374C56.7434 73.0711 55.517 72.6519 54.6491 72.029C53.7801 71.4089 53.3322 70.7268 53.3219 70.2624C53.3199 69.465 53.3246 68.7524 53.3493 68.0612C53.3357 68.0198 53.3232 67.9781 53.3122 67.9372C53.2314 67.63 52.9728 67.2825 52.7145 66.9362C52.6555 66.8562 52.5962 66.7753 52.5397 66.695C52.112 66.0751 52.6384 65.4288 52.9235 65.0974C52.9285 65.091 52.9341 65.0851 52.9391 65.0788C53.0075 64.9976 53.0516 64.9117 53.1032 64.8102C53.2285 64.5637 53.3873 64.2542 54.0417 63.7224C54.1111 63.5217 54.1881 63.321 54.2741 63.1218C55.1887 61.0038 56.6164 59.1533 58.1647 57.3933C58.1745 57.3661 58.1853 57.3376 58.195 57.3102C58.384 56.779 58.6303 56.1078 59.029 55.819C59.5384 55.4472 59.9499 55.2302 60.2966 55.0593C61.5547 53.6988 62.785 52.3435 63.818 50.8825C64.1417 50.4249 64.4466 49.9551 64.7272 49.4724C64.9871 49.0253 65.2298 48.575 65.4655 48.11C65.5049 47.7823 65.5161 47.4543 65.528 47.1501C65.5467 46.7193 65.5663 46.3352 65.6618 46.0681C65.8941 45.4204 66.498 44.9041 66.9548 44.5192C67.029 44.4568 67.0992 44.3974 67.1628 44.3425C67.3377 43.9238 67.5204 43.4895 67.6999 43.0641C67.7593 43.0683 67.8208 43.0741 67.8835 43.0798C67.9995 43.0902 68.1048 43.0904 68.1999 43.0817C68.2889 42.7652 69.0981 42.2384 69.2868 41.9694C69.8859 42.0569 70.3028 41.7611 70.8825 41.3864C71.1774 41.1957 71.512 40.9874 71.9157 40.8073C72.1756 40.6914 72.4354 40.8557 72.6462 40.9899C72.7079 41.0292 72.7657 41.066 72.818 41.0925C72.9971 41.1838 73.0051 40.9684 73.0124 40.7145C73.0217 40.3851 73.0314 39.9903 73.4167 40.1169C74.6436 40.52 74.6257 39.7609 74.6022 39.194C74.5949 39.028 74.5895 38.8774 74.6149 38.7761C74.6363 38.6891 74.6813 38.6266 74.7438 38.5837C74.9133 38.4675 75.2167 38.5014 75.5065 38.5983C75.8203 38.7029 76.043 38.2608 76.1383 37.8151C76.1747 37.6464 76.3104 37.554 76.4723 37.445C76.6392 37.3326 76.8348 37.2017 76.9684 36.9499C77.3082 36.3117 77.4964 35.9836 77.6491 35.7204C77.6922 35.6457 77.7331 35.5769 77.7731 35.5065C77.8994 35.2838 78.0831 35.046 78.2692 34.8054C78.4919 34.5176 78.7173 34.2243 78.8522 33.946C79.5194 33.6911 80.2113 33.4653 80.9049 33.236ZM75.5339 48.4802C75.256 48.6667 75.0094 48.84 75.0339 49.07L75.7741 48.3141C75.6954 48.3718 75.6131 48.4269 75.5339 48.4802Z" fill="black"/>
<path d="M132.5 1.39361C135.765 0.199603 142.249 -0.0739947 145.711 0.0156805C145.775 0.0162389 145.84 0.0169832 145.904 0.0176336C146.725 0.0299007 147.511 0.0245583 148.415 0.0273992C150.576 0.0443007 153.527 0.0530245 159.478 0.772516C161.095 0.850047 162.683 0.94889 164.29 1.07037C164.432 1.08113 164.574 1.09259 164.716 1.10455C170.392 1.60781 175.606 2.7802 180.789 4.35357C183.386 5.15616 185.932 6.05559 188.569 7.21685C189.893 7.80703 191.21 8.43616 192.693 9.32232C193.416 9.76202 194.217 10.2718 195.156 11.0577C195.633 11.4663 196.165 11.9395 196.813 12.751C197.395 13.5674 198.457 14.7705 198.689 17.5518C198.802 22.2487 198.585 27.6057 195.644 33.0626C192.762 38.7897 185.769 42.1814 180.607 42.4385C180.309 42.4785 180.005 42.5134 179.699 42.544C179.2 42.5948 178.698 42.6308 178.196 42.6553C179.551 43.3648 180.906 44.0944 182.256 44.8555C185.022 46.4225 187.773 48.1024 190.443 50.1182C191.343 50.7999 192.253 51.505 193.144 52.2061C195.161 53.6482 197.066 55.0241 198.818 56.3116C201.279 58.1208 203.443 59.7602 205.158 61.1876C209.297 64.6306 213.641 68.8892 216.84 72.0694C217.364 72.5898 217.858 73.08 218.314 73.5333C221.001 75.9029 223.675 78.2788 226.341 80.6641C226.48 80.8652 226.615 81.066 226.756 81.2754C228.253 83.4944 230.461 85.6932 233.735 88.8243C234.309 89.3736 234.905 89.9439 235.52 90.5372C237.393 92.3455 239.523 94.4373 241.971 97.0274C243.545 98.6961 244.126 99.7124 244.644 100.588C244.792 100.841 244.928 101.077 245.074 101.306C245.56 102.076 246.375 102.689 247.293 103.38C248.498 104.294 249.953 105.416 251.256 107.403C255.409 113.783 257.803 116.065 259.719 117.828C260.27 118.34 260.77 118.815 261.223 119.331C262.7 121.004 264.27 123.766 265.294 125.855C266.11 127.519 268.343 130.324 270.224 131.969C270.341 132.073 270.462 132.185 270.587 132.304C271.186 132.87 271.904 133.605 272.808 134.386C273.924 135.352 275.336 136.387 277.048 137.25C279.015 138.24 280.689 138.893 282.142 139.463C287.327 141.763 286.253 148.483 280.643 149.322C278.202 149.727 276.801 149.803 275.416 149.919C274.713 149.972 274.052 150.013 273.41 150.052C271.347 150.175 268.836 150.226 266.278 150.217C263.219 150.208 260.109 150.108 257.697 150.027C255.705 149.78 253.696 149.486 251.607 149.07C249.404 148.525 247.746 148.546 244.042 146.481C243.964 146.436 243.748 146.28 243.674 146.231C241.871 144.805 240.254 143.409 238.63 142.001C236.298 139.972 234.426 137.645 233.396 135.52C232.367 133.393 232.259 131.646 233.102 130.634C233.946 129.622 235.687 129.42 237.958 130.043C240.228 130.665 242.838 132.069 245.226 133.874C246.759 135.03 248.307 136.182 249.8 137.221C249.771 137.186 249.98 137.279 250.202 137.336C250.491 137.42 250.857 137.508 251.231 137.585C252.006 137.747 252.897 137.887 253.785 138.002C255.6 138.237 257.486 138.394 259.405 138.516C260.444 138.575 261.506 138.625 262.58 138.672C262.392 138.451 262.207 138.23 262.024 138.008C261.639 137.539 261.269 137.067 260.908 136.594C257.677 132.926 255.163 129.424 253.355 127.044C251.887 125.072 250.988 123.54 250.192 122.221C249.658 121.332 249.159 120.529 248.572 119.795C248.242 119.382 247.827 118.884 247.275 118.231C245.108 115.645 241.189 111.31 237.786 107.237C236.274 105.417 234.544 103.227 232.875 101.177C230.922 98.7819 229.071 96.5892 227.66 95.1827C227.333 94.8566 227.032 94.5735 226.764 94.3467C224.335 92.2915 221.801 89.666 219.56 87.3604C217.419 85.1573 215.539 83.2405 214.273 82.3624C212.758 81.3119 211.695 80.1804 210.102 78.5001C208.998 77.3357 207.64 75.9089 205.699 74.0772C203.457 71.9635 201.953 70.3757 200.672 69.0323C198.868 67.1426 197.503 65.7257 195.092 64.0586C192.419 62.2116 189.688 60.2226 187.708 58.5088C187.018 57.9116 186.232 57.2901 185.414 56.67C185.168 56.484 184.91 56.295 184.643 56.1036C183.208 55.0744 181.593 54.0578 180.141 53.0499C178.933 52.2126 178.006 51.4016 177.159 50.6807C176.898 50.4579 176.644 50.2443 176.393 50.043C175.337 49.4818 174.288 48.9458 173.215 48.4151C173.025 48.3654 172.823 48.3151 172.613 48.2628C171.553 47.9986 170.255 47.6865 168.725 47.1221C166.308 46.2318 164.304 45.1655 162.175 44.0499C160.53 43.1869 158.773 42.2809 156.712 41.4278C155.282 40.835 153.661 40.2425 152.007 39.6221C149.575 38.7126 147.148 37.7666 145.513 36.836C144.924 36.5 144.415 36.0538 143.968 35.627C143.967 35.6251 143.965 35.6231 143.963 35.6212C143.933 35.5921 143.902 35.5632 143.872 35.5342C142.779 34.9384 141.836 34.5159 140.406 33.2881C139.985 32.8725 139.659 32.6466 139.072 31.5987C138.945 31.3538 138.825 31.0756 138.728 30.7569C138.625 30.426 138.525 29.9129 138.529 29.417C138.516 28.3777 138.941 27.3375 139.434 26.6954C139.683 26.3595 139.953 26.089 140.214 25.8682C140.436 25.6828 140.597 25.5701 140.781 25.4503C141.138 25.2207 141.481 25.0541 141.795 24.9239C142.258 24.7303 142.699 24.5967 143.149 24.4854C144.884 24.1501 145.589 24.3833 146.392 24.4747C147.075 24.5825 147.762 24.7396 148.335 24.8799C149.56 25.1859 150.626 25.5009 151.712 25.8272C152.11 25.9179 152.462 25.9958 152.834 26.0811C154.668 26.5067 156.352 26.8974 157.533 27.0157C158.779 27.1318 161.748 27.978 164.796 28.6641C166.796 29.1179 168.835 29.4929 170.473 29.6495C171.429 29.742 172.28 30.0544 173.152 30.3438C173.961 30.6127 174.808 30.8644 175.716 30.8711C176.176 30.8745 176.654 30.8186 177.149 30.7413C177.593 30.6731 178.041 30.5873 178.482 30.5098C178.904 30.4358 179.834 30.4418 180.859 30.2784C181.491 30.1782 182.142 30.0138 182.725 29.752C184.095 28.8261 184.876 27.5709 185.407 25.4473C185.396 24.9569 185.293 24.5413 185.116 24.1866C184.988 23.9318 184.817 23.702 184.638 23.4669C184.396 23.1433 184.137 22.8187 183.937 22.4239C183.787 22.1197 183.738 21.7628 183.817 21.5079C183.287 21.2509 182.728 21.0073 182.235 20.8272C180.953 20.3464 179.071 19.4766 177.099 18.6944C175.724 18.1459 174.314 17.6372 173.084 17.2852C171.877 16.9394 170.58 16.7611 169.336 16.626C167.84 16.4626 166.424 16.3615 165.269 16.0577C165.039 15.9964 164.761 15.7629 164.42 15.4756C164.18 15.2724 163.891 15.0402 163.565 14.8253C163.457 14.8162 163.349 14.8071 163.242 14.7989C161.682 14.6787 160.143 14.5673 158.594 14.4669C158.534 14.4907 158.472 14.5152 158.411 14.5401C158.41 14.5407 158.409 14.5415 158.408 14.542C156.997 15.104 155.112 15.8792 152.537 15.3018C151.888 15.1558 151.466 14.9058 151.098 14.6817C150.737 14.462 150.407 14.2662 149.925 14.2237C149.382 14.1757 148.732 14.3095 148.038 14.461C147.056 14.6736 145.974 14.9229 144.881 14.754C144.806 14.7425 144.725 14.7302 144.641 14.7178C143.846 14.5994 142.675 14.4352 141.48 14.0743C138.03 14.2005 134.629 14.4923 131.293 15.0313C128.159 15.5369 125.09 16.2632 122.1 17.2559C119.576 18.1056 117.064 18.9588 114.556 19.8262C111.763 20.7899 108.909 21.3012 106.61 21.2061C104.34 21.0996 102.632 20.4613 102.314 19.2071C101.626 18.0802 102.352 16.4202 103.912 14.7159C105.496 13.0049 107.941 11.3509 110.669 10.1075C113.118 8.99204 115.569 7.89156 118.034 6.80084C120.244 5.83282 122.514 4.98974 124.81 4.27447C125.074 4.17588 125.341 4.07896 125.604 3.98638C127.574 3.29625 129.385 2.5468 131.225 1.8565C131.651 1.69768 132.071 1.54347 132.5 1.39361ZM146.481 26.9415C146.351 26.8205 146.416 26.9092 146.527 27.001C146.536 27.0084 146.545 27.0151 146.554 27.0225C146.524 26.9894 146.502 26.9639 146.481 26.9415ZM185.537 22.5118C185.74 22.682 185.65 22.573 185.499 22.4659C185.485 22.4559 185.471 22.4467 185.457 22.4366C185.487 22.4653 185.513 22.49 185.537 22.5118Z" fill="black"/>
</svg>
