<svg xmlns="http://www.w3.org/2000/svg" width="659" height="517" fill="none" viewBox="0 0 659 517"><path fill="#000" d="M248.729.01c.652.036 1.308.114 1.976.197 1.145.141 2.324.293 3.617.251.65-.02 1.351-.087 2.102-.153a40 40 0 0 1 2.098-.141c.684-.024 2.205.1 4.16.312 1.207.13 2.581.296 4.023.479 3.831.206 7.695.603 11.548 1.256.827.013 1.562-.025 2.165-.141.434-.083.817-.21 1.213-.336.539-.171 1.1-.345 1.839-.404.579-.047 1.225.046 1.628.236.187.088.318.195.438.292.137.11.26.21.43.257.123.033.264.022.438.01.278-.02.638-.044 1.135.102q.237.07.48.144c1.689.517 3.519 1.177 5.28 1.86 2.142.829 4.187 1.69 5.825 2.328 1.838.714 4.325 1.992 6.762 3.309 1.702.918 3.385 1.851 4.843 2.607q.55.286 1.122.553c1.097.515 2.24.99 3.356 1.46 1.802.759 3.537 1.51 4.889 2.394.272.179.538.543.869 1 .234.323.504.695.83 1.08q2.703 1.436 5.367 2.974l.234.038h.003c1.775.28 4.241.694 6.754 2.867.638.553.951 1.04 1.23 1.479.274.43.517.816 1.002 1.18.501.375 1.167.687 1.898 1.023l.216.098c1.127.512 2.389 1.097 3.4 2.056l.221.21c.734.692 1.817 1.727 2.748 2.952 3.467 2.661 6.863 5.472 10.118 8.511 2.312 2.16 4.555 4.437 6.671 6.884a764 764 0 0 1 7.903 9.337c2.22 2.668 3.963 5.546 4.842 8.026.89 2.492.763 4.278-.111 5.206-1.038.812-2.861.591-5.177-.577-2.318-1.175-4.925-3.197-7.322-5.637a955 955 0 0 0-8.518-8.556 75 75 0 0 0-3.131-2.91l-.648-.505c-1.607-1.255-3.279-2.229-4.976-3.166q-.587-.322-1.176-.643c-2.956-1.648-8.067-5.715-11.024-7.877l-.162-.118a60 60 0 0 0-1.883-1.332l-.277-.189c-1.865-1.252-4.349-2.967-9.726-6.489a286 286 0 0 0-4.939-2.684 359 359 0 0 0-9.802-5.001c-7.322-3.601-14.627-7.035-21.937-9.51-7.623-2.576-15.862-3.843-24.344-4.338-.253-.004-.514-.008-.774-.01-2.948-.035-6.345.033-9.496.083-1.712.021-3.089.254-4.258.53-3.554.878-6.443 2.75-8.745 4.145-1.38.966-2.762 1.995-4.159 3.06-9.43 7.157-17.813 15.562-26.275 24.502a1188 1188 0 0 1-5.585 5.73c-3.672 3.747-7.388 7.454-11.015 11.161a337 337 0 0 0-9.069 9.618c-.352.387-.716.74-1.082 1.065-2.83 2.555-5.409 3.772-7.665 5.017-3.175 1.67-5.773 3.012-7.794 4.159a55 55 0 0 0-2.917 1.742c-4.089 2.608-7.718 5.33-9.641 7.919a20 20 0 0 0-1.1 1.578c-1.473 2.707-2.576 6.135-3.737 9.692q-.262.784-.612 1.52c-.24.371-.509.742-.793 1.091-3.683 4.56-9.454 6.552-16.686 7.224-3.196.296-6.8.321-10.885.167-2.63-.099-3.927-.41-4.974-.646-.318-.07-.608-.135-.895-.186-1.003-.173-2.055.014-3.123.314-.543.154-1.129.364-1.356.524-.818.371-1.856.83-3.233 1.296-7.471 2.799-10.357 5.796-12.439 7.649-.615.57-1.18 1.092-1.788 1.572-1.975 1.558-5.113 3.303-7.589 4.488-.99.473-2.39 1.359-3.877 2.37a159 159 0 0 0-4.298 3.041c-1.025.748-2.469 1.594-4.213 2.58-1.797 1.016-3.892 2.167-6.104 3.475-5.582 3.286-8.715 4.851-11.217 6.097q-1.058.522-2.061.998c-.785.377-1.747.806-2.514 1.164a158 158 0 0 0-4.423 2.161c-2.93 1.485-5.88 3.105-8.057 4.43-5.864 2.935-11.836 6.127-16.634 9.711-.16.122-.326.245-.485.365-1.458 1.831-2.873 3.431-4.017 4.483a10 10 0 0 1-.355.309l.056-.216c-.307.319-.468-.045-.81-.249-.336-.205-.618-.041-.761.211-.288.525-.379 1.206-.757 1.677-.37.466-.944.841-1.88.657-.458-.106-1.075-.404-1.57-1.193-.51-.786-.622-1.903-.694-2.574.008-.033.031-.132.042-.164q-.022-.374-.015-.764c.056-2.835 1.162-5.977 2.867-8.861.151-.21.625-.775.826-.938.294-.285.619-.58.928-.847 5.965-5.009 12.138-8.666 18.483-12.225 4.184-2.304 8.418-4.464 12.888-6.412a196 196 0 0 0 10.52-4.739c5.227-2.538 10.4-5.331 15.463-8.283.528-.308 1.043-.61 1.565-.919.68-.475 1.324-.933 1.994-1.409 3.37-2.395 6.586-4.725 9.027-6.404 2.409-1.658 4.303-2.678 5.948-3.554 1.125-.598 2.14-1.136 3.111-1.758.525-.337 1.233-.8 2.114-1.362 2.459-1.481 5.698-3.853 11.127-5.558 3.86-.92 5.819-.575 8.152-.51 2.935.182 6.125.598 9.089.862 4.247.412 8.008.367 9.691-.127 3.077-.788 5.507-1.986 6.146-3.394a3 3 0 0 0 .132-.272c1.203-3.089 2.34-5.853 2.907-7.615.715-2.221 1.761-4.12 3.788-6.577 1.413-1.693 3.343-3.582 6.033-5.667 2.309-1.781 4.196-2.878 5.819-3.788.59-.33 1.149-.62 1.684-.886 2.945-1.445 5.18-2.28 8.171-3.96 3.296-1.833 6.681-3.65 8.086-4.895.103-.086.203-.178.29-.265.867-.907 1.795-1.923 2.762-2.969 1.523-1.648 3.148-3.373 4.734-4.835 1.305-1.204 2.512-2.07 3.577-2.833q.498-.356.955-.691 1.472-1.505 2.933-3.01.194-.287.406-.605c.702-1.055 1.567-2.355 2.778-3.812 1.917-2.308 3.842-4.115 5.85-6.017.597-.567 1.185-1.125 1.807-1.734a65 65 0 0 0 3.097-3.234c1.182-1.324 2.481-2.88 3.79-4.416 1.943-2.284 3.916-4.52 5.451-5.912.574-.521 1.161-.875 1.745-1.223l.009-.005.119-.071c3.516-3.608 7.167-7.115 10.996-10.463q.47-.468.95-.936l.064-.063c1.517-1.482 3.029-2.902 3.98-3.944 1.063-1.123 3.973-3.66 8.146-5.818 2.713-1.418 6.058-2.399 8.719-2.773.717-.11 1.408-.134 2.092-.107"/><path fill="#000" d="M276.791 94.042c1.876-.17 3.362.49 3.895 1.67.558 1.169.677 2.49.233 4.018-.43 1.509-1.463 3.132-2.858 4.513-2.287 2.258-4.588 4.639-6.915 7.008q-.166.204-.336.406c-.844 1-1.498 2.075-2.158 3.154q-.228.372-.46.744c-1.171 1.879-4.446 4.43-6.292 5.82l-.101.078c-.435.329-.837.66-1.307 1.045a59 59 0 0 1-1.264 1.013c-2.582 2.079-5.307 2.724-8.034 3.299-1.199.374-2.333.699-3.476 1.014-4.224 1.154-8.362 2.158-12.536 3.137-7.981 1.866-16.026 3.498-24.085 5.034l-.463.122c-3.027.798-6.785 1.774-9.214 2.112-3.084.43-5.196.645-6.933.809-9.779 1.735-19.545 3.43-29.366 5.141l-1.536.266q-3.852.667-7.708 1.318c-2.833.478-5.7.946-8.555 1.384-1.653.368-3.211.733-4.682 1.061-2.055.461-3.9.842-5.436 1.051-3.703.511-7.964.558-11.124.498-.513-.008-1.004-.018-1.452-.028-2.064.131-4.133.229-6.18.305l-1.28.047-.497-.162c-2.096-.692-4.669-.697-8.71-.742a237 237 0 0 1-6.175-.135c-1.525-.054-2.306-.333-2.935-.558-.189-.066-.36-.128-.533-.178-.611-.17-1.243.015-1.961.245-.462.15-.97.32-1.48.435-.247.057-.51.102-.731.124-.213.017-.438.037-.352-.066.026-.031.1-.078.218-.16-5.182 1.429-6.707 2.634-8.11 3.767-.395.321-.77.617-1.162.858-1.295.79-3.339 1.373-4.945 1.682-1.27.243-3.534 1.442-5.187 2.466-.626.387-1.54.764-2.609 1.204-1.118.46-2.387.982-3.715 1.673l-1.069.556a194 194 0 0 0-5.269 2.852c-.373.211-.745.419-1.097.623-1.12.647-2.506 1.418-3.885 2.232-1.662.979-3.258 1.998-4.434 2.874-3.262 1.61-5.077 3.374-10.504 5.754-.037.017-.15.056-.188.072-.33.099-.687.208-1.059.317-.903.267-1.864.435-2.755.48-1.332.066-2.476-.121-3.475-.476-1.656-.601-2.744-1.638-3.07-2.914-.323-1.277.182-2.715 1.38-4.01.712-.775 1.647-1.459 2.58-2.011a14.6 14.6 0 0 1 1.941-.969c.287-.117.582-.24.9-.373l-.157.06c1.704-.918 5.555-4.132 8.887-6.165 4.58-2.906 9.345-5.302 14.198-7.357.665-.281 1.302-.545 1.982-.821a646 646 0 0 1 8.021-3.187l1.026-.4c2.654-1.434 5.31-2.839 7.206-3.732 1.575-.741 2.802-1.061 3.854-1.337.722-.189 1.363-.359 1.964-.627.323-.144.756-.348 1.282-.598.823-.395 2.12-1.001 2.932-1.431 2.015-.929 2.718-.85 3.566-.997a22 22 0 0 1 2.117-.139 34 34 0 0 1 3.628.122c1.722.149 3.65.459 5.495.753 2.624.422 5.062.809 6.297.714 2.167-.165 4.652.013 6.839.158q.521.035 1.029.067c1.638.101 3.033.135 3.883-.064 1.218-.285 2.257-.204 3.809-.106a41 41 0 0 0 4.189.08c2.076-.072 3.55-.013 4.806.031 1.771.059 3.113.088 5.045-.439 2.144-.586 4.391-1.098 6.199-1.246.833-.068 1.752-.214 2.731-.375 1.277-.209 2.637-.441 3.887-.523 1.038-.069 1.916.041 2.704.136.245.029.489.055.709.077.798-.142 1.637-.295 2.431-.446l.389-.207c.692-.365 1.51-.809 2.594-1.161l.225-.071c1.598-.494 3.095-.645 4.666-.81 1.275-.133 2.601-.275 4.098-.628 1.003-.238 2.16-.585 3.281-.927 1.685-.512 3.338-1.022 4.526-1.181.447-.06.859.016 1.268.09l.006.002.084.015c2.828-.742 5.653-1.51 8.473-2.294q.358-.146.717-.288c1.166-.466 2.298-.92 3.003-1.36.764-.476 2.811-1.123 4.965-1.811 1.41-.451 2.872-.921 4.042-1.366.69-.261 1.401-.259 2.13-.257.681.001 1.388-.001 2.1-.213.355-.107.732-.267 1.134-.44.354-.151.728-.311 1.123-.45.363-.128 1.24-.247 2.342-.397a98 98 0 0 0 2.275-.331c2.088-.618 4.148-1.228 6.241-1.843.398-.249.735-.528.98-.838a5 5 0 0 0 .446-.723c.187-.344.379-.699.682-1.02.245-.253.567-.411.813-.393.114.008.212.054.3.095.102.047.192.089.283.064.065-.018.121-.083.19-.163.112-.127.248-.289.522-.363 1.002-.27 2.139-.517 3.252-.761 1.249-.273 2.461-.54 3.407-.822.538-.162 1.277-.311 2.017-.431.723-.122 1.433-.217 2.209-.329 1.088-.15 2.204-.309 3.143-.501.905-.184 1.833-.533 2.696-.864 1.067-.406 2.068-.792 2.984-.871.183-.015.466.115.802.283.235.12.521.252.825.362 1.112-.305 2.195-.6 3.254-.902l.088-.113.001-.003c.329-.432.71-.945 1.146-1.338.422-.385.96-.697 1.131-.502.074.108.101.379.21.574a.8.8 0 0 0 .128.188c.192-.014.374-.055.55-.169.321-.208.58-.599.86-1.025.395-.6.831-1.269 1.554-1.615l.158-.075c.523-.254 1.297-.632 2.217-.846 1.939-1.537 3.891-3.092 5.855-4.647 3.282-2.597 6.578-5.206 10.036-7.79 1.679-1.248 3.688-2.106 5.531-2.242"/><path fill="#000" d="M234.273 130.394c.975-.705 2.225-1.029 3.499-.878a5.5 5.5 0 0 1 1.832.55c.274.154.553.318.81.512.131.094.236.213.359.319.056.057.11.119.128.201.036.082-.083.193-.102.268-.001.09.238.13.331.159a.6.6 0 0 1 .238.131c.114.113.207.243.295.374a6 6 0 0 1 .444.834c.244.581.373 1.214.402 1.845.051 1.268-.366 2.475-1.141 3.382-1.259 1.473-2.5 2.934-3.776 4.406q-.081.13-.167.258c-.428.645-.693 1.387-.95 2.123q-.089.255-.184.511c-.473 1.285-2.369 2.703-3.413 3.486l-.057.042c-.244.184-.462.375-.72.603-.606.534-1.436 1.265-3.38 2.54q-.481.47-.981.943l-.406.388c-3.506 3.293-6.263 6.717-9.546 11.225-.507.547-1.194 1.797-1.784 3.119l-.066.231c-.429 1.497-.885 3.534-1.42 4.781a94 94 0 0 1-1.626 3.578 182 182 0 0 0-2.251 7.873c-.7 2.586-1.132 5.346-1.386 8.192a79 79 0 0 0-.283 5.239c-.037 1.627-.04 3.264-.02 4.91.125.962.277 1.868.419 2.72.106.631.205 1.224.283 1.78.07.478.123.936.15 1.34.134 2.099-.094 4.482-.26 6.254-.027.289-.053.565-.075.818q.135 2.113.287 4.229-.077.142-.158.286c-.68 1.209-.661 2.691-.632 5.025a83 83 0 0 1-.014 3.584c-.026.897-.295 1.357-.514 1.735-.065.111-.126.215-.174.319-.167.361.019.741.237 1.185.283.582.624 1.278.324 2.199-.954 2.941-.298 4.24.198 5.222.146.291.277.545.35.817.063.234.091.493.094.762v.051c-.002.755-.2 1.561-.442 2.237-.262.736-.017 2.198.307 3.283.122.417.127.995.134 1.642.007.698.017 1.462.167 2.325.379 2.128.586 3.241.751 4.14.047.257.091.493.137.724.145.756.283 1.681.433 2.599.179 1.101.382 2.223.613 3.036.037 2.17.115 4.294.369 6.124.116.854-.121 1.704-.621 2.686l-.05-.126c-.057.079-.117.155-.207.173-.032.004-.067 0-.12-.034-.029-.023-.056-.04-.109-.101-.059-.066-.102-.128-.319-.386-.042-.047-.146-.172-.307-.328a4 4 0 0 0-.31-.271c-.068-.052-.132-.101-.231-.168a3.83 3.83 0 0 0-2.919-.584c-1.112.209-2.012 1.014-2.371 1.58-.19.272-.338.602-.374.696a3.596 3.596 0 0 0-.227.827c-.04.284-.034.37-.036.47.001.095.005.169.01.231.012.114.025.162.037.217.05.181.091.199.128.227.144.059.259-.057.381-.137.241-.181.489-.385.755-.564a5.7 5.7 0 0 1 1.762-.814 5.3 5.3 0 0 1 1.936-.147c.322.038.64.102.955.229.159.071.313.127.483.326.043.062.088.115.137.293.015.129.084.116.021.758a2.8 2.8 0 0 1-.458 1.17c-.274.431-.958 1.042-1.802 1.199a2.92 2.92 0 0 1-2.397-.572 3 3 0 0 1-.243-.21c-.126-.122-.211-.222-.246-.26-.18-.21-.228-.275-.288-.343-.056-.066-.088-.093-.126-.132a1.5 1.5 0 0 0-.172-.139c-.146-.103-.267-.168-.387-.239-.007-.02-.035-.078-.04-.098-1.088-.532-1.989-1.629-2.394-2.861-.899-2.739-1.414-5.333-1.816-7.89a72 72 0 0 1-.817-9.195c-.049-2.124-.037-4.235.019-6.343l.019-.647c-.318-1.763-.594-3.488-.683-4.756l-.001.068-.002-.028c-.084-.993.088-1.729.236-2.349.102-.435.192-.81.177-1.199-.008-.211-.029-.488-.054-.831-.102-1.397-.28-3.767.022-5.938.134-.966.404-2.084.661-3.156.367-1.531.709-2.962.596-3.681-.199-1.264-.048-2.717.087-4.001.129-1.224.244-2.298.022-2.906-.265-.727-.161-1.35-.005-2.274.108-.642.241-1.43.295-2.499.062-1.232.248-2.114.407-2.853.161-.752.294-1.37.248-2.089a5 5 0 0 0-.148-.915c-.328-1.299-.532-2.661-.414-3.733.054-.493.048-1.051.044-1.633-.006-.776-.01-1.584.126-2.331.112-.611.379-1.114.617-1.56q.112-.205.207-.398l.03-1.473q-.058-.122-.125-.257c-.22-.447-.487-.999-.599-1.682-.177-1.079.021-2.018.247-3.005.176-.77.368-1.569.422-2.508.038-.64.02-1.38.018-2.122-.005-1.045.026-2.096.234-2.824l.034-.104c.085-.255.284-.448.483-.638l.004-.001.04-.04c.201-1.702.402-3.427.611-5.145q-.016-.231-.028-.468c-.042-.758-.079-1.497-.243-2.014-.179-.557-.071-1.85.069-3.221.093-.902.201-1.84.238-2.627.024-.467.295-.84.579-1.224.265-.361.538-.724.635-1.192.047-.229.057-.502.069-.786.008-.246.025-.526.069-.795.043-.256.307-.772.672-1.44.227-.414.491-.885.777-1.399.365-1.065.804-2.18 1.477-3.389l.485-.912a2.15 2.15 0 0 0-.118-.889 5 5 0 0 0-.304-.626c-.157-.29-.319-.591-.394-.914-.059-.252-.004-.474.139-.553.067-.037.152-.043.229-.049.088-.007.167-.014.197-.065.022-.036.004-.1-.016-.178-.033-.126-.075-.288.017-.436.341-.548.788-1.147 1.243-1.736.506-.655 1.02-1.298 1.384-1.851.407-.619 1.204-1.355 2.025-2.063.572-.495 1.152-.976 1.614-1.417.452-.433.815-.979 1.175-1.502.43-.628.861-1.226 1.408-1.536.111-.063.361-.03.671.019.22.034.472.073.728.087q.256-.244.519-.486.525-.483 1.046-.947l-.002-.113-.001-.002c-.02-.853-.053-2.013 1.091-2.369.286-.087.585-.031.848.024.26.053.492.1.665-.006.196-.12.302-.399.42-.706.166-.431.34-.902.825-1.067l.106-.035c.346-.117.857-.291 1.522-.302q1.726-1.36 3.487-2.68a407 407 0 0 1 5.921-4.348M139.217 162.909c1.372-.028 3.235.232 5.044.538 1.266.213 2.496.442 3.555.589q.306.042.624.07c.81.073 1.667.071 2.494.069 1.241-.003 2.412-.008 3.401.25.203.052.426.275.716.554.205.199.446.426.719.64 1.262.122 2.536.255 3.798.394l.146-.07.003-.002c1.097-.532 2.615-1.257 4.56-.543.495.182.79.456 1.057.704.262.242.497.46.862.537.415.087.927.005 1.481-.084.78-.126 1.652-.265 2.482.029l.182.064c.603.211 1.493.522 2.359 1.057 2.682.389 5.371.801 8.049 1.226a1245 1245 0 0 1 10.821 1.771l2.579.432c2.168.366 4.207 1.187 5.654 2.316 1.413 1.124 2.316 2.494 1.941 3.749-.02 1.301-1.048 2.432-2.678 3.24-1.637.804-3.795 1.191-5.988 1.108-.877-.035-1.723-.065-2.61-.101-2.712-.104-5.424-.209-8.143-.325l-.567.02c-1.416.038-2.727.27-4.06.502q-.455.08-.914.158c-2.327.387-6.659-.303-9.044-.681l-.131-.02a39 39 0 0 0-1.733-.224c-1.502-.172-3.533-.405-7.733-1.214a348 348 0 0 1-3.699-.338 794 794 0 0 1-7.338-.746c-3.019-.317-6.024-.603-8.743-.682-2.895-.066-4.351.043-7.653.822-5.922 1.15-10.289 1.031-15.113 1.175l-.522.041c-3.414.269-7.597.543-10.238.436a180 180 0 0 1-7.489-.456q-3.311-.01-6.615-.004c-4.964.038-9.155.305-13.264 2.308-2.3 1.051-5.236 2.966-7.915 4.702a405 405 0 0 0-8.27 5.582 1452 1452 0 0 0-7.59 5.286c-1.323 1.057-2.573 2.087-3.749 3.052l-.224.183c-1.81 1.468-3.48 2.72-4.933 3.644-3.495 2.244-7.859 4.136-11.149 5.318-.532.194-1.048.378-1.51.538-2.53 1.111-5.119 2.099-7.556 3.028-.177.006-.362.013-.545.018-.966.027-1.978.201-2.943.5-1.473.465-3.289 1.369-6.029 2.302-1.014.33-2.156.676-3.67.863-1.458.123-3.676.38-6.24-1.396a12 12 0 0 1-.353-.272c-1.928-1.584-2.398-2.977-2.705-3.94-.088-.293-.158-.567-.23-.839-.24-.927-.717-1.774-1.147-2.843-.555-1.366-1.001-3.148-.479-5.195 1.88-6.232 2.604-8.398 2.805-10.458.081-.57.154-1.073.265-1.523.026-.115.062-.241.083-.331.107-.313.614-1.067.818-1.326 1.192-1.593 3.162-2.997 4.738-3.811 1.361-.735 3.655-2.577 5.403-3.963.663-.533 1.63-1.088 2.789-1.715 1.196-.648 2.584-1.365 4.02-2.216 3.632-2.139 5.609-3.145 7.192-3.971.458-.237.87-.447 1.294-.664a106 106 0 0 1 4.253-2.018c.063-.029.263-.092.327-.117l.48-.183c2.146-.809 4.321-1.556 5.96-2.167 4.394-1.038 8.761-1.871 13.1-2.655 2.228-.401 4.466-.293 6.225.314 1.76.609 2.902 1.659 3.188 2.945.284 1.286-.311 2.719-1.645 4.013-1.333 1.294-3.297 2.337-5.44 2.934-4.318 1.201-8.596 2.439-12.77 3.771-1.784.57-3.547 1.158-5.28 1.772a385 385 0 0 0-9.219 4.042c-3.363 1.534-6.668 3.149-9.731 4.914-.318.184-.625.363-.938.551-2.167 1.691-4.03 3.484-5.093 4.706-.413.867-.75 1.402-1.074 1.987-.356.629-.652 1.177-.836 1.765-.098.315-.217.746-.339 1.253-.586 2.062-.718 5.532-.382 6.368.064.297.111.606.41 1.025-.628-.329-1.025-.204-.918-.104.195.224 1.329.208 2.237.026.943-.176 1.815-.463 2.365-.747.901-.465 1.92-.935 3.098-1.401 1.5-.589 2.862-.956 4.107-1.305 2.21-.607 4.03-1.128 4.971-1.719 1.118-.701 2.17-.998 3.73-1.489a34 34 0 0 0 4.115-1.561c1.978-.906 3.421-1.492 4.642-2.004 1.72-.73 3.014-1.318 4.605-2.708.464-.406.913-.799 1.385-1.2 1.376-1.164 2.775-2.234 4.026-2.993.774-.469 1.618-1.061 2.492-1.677 1.158-.815 2.387-1.682 3.575-2.354.985-.558 1.892-.873 2.703-1.158q.378-.132.72-.258c.742-.517 1.476-1.03 2.21-1.545l.303-.372c.52-.645 1.178-1.449 2.103-2.258 1.474-1.285 2.973-2.13 4.574-3.005 1.26-.686 2.558-1.39 4.088-2.339.549-.337 1.154-.722 1.88-1.125.507-.291 1.082-.623 1.693-.946 1.926-1.037 4.064-1.797 5.516-2.011.545-.083 1.044-.017 1.519.06l.007.002.096.014c2.588-.55 5.119-.861 7.631-1.085l2.307-.207.82-.159c1.337-.255 2.634-.502 3.468-.809.913-.333 3.22-.604 5.646-.891 1.591-.188 3.225-.384 4.56-.609.783-.132 1.524-.002 2.303.13.713.123 1.46.248 2.251.166.403-.042.82-.134 1.28-.233.406-.087.816-.179 1.267-.248.414-.064 1.34-.028 2.523.007.729.022 1.552.043 2.423.04 2.252-.284 4.493-.595 6.51-1.007.396-.21.714-.46.915-.746.156-.207.262-.441.351-.679.088-.208.161-.42.231-.618a3 3 0 0 1 .303-.363c.254-.258.609-.427.897-.421.133.003.247.044.352.081.119.042.226.08.34.05.083-.022.158-.091.252-.176.152-.135.354-.311.719-.396 1.361-.326 3.101-.559 4.658-.641 1.744-.099 3.322-.066 4.533-.091M357.39 64.314c.96-.893 2.349-1.295 4.011-1.044 1.651.244 3.39 1.098 4.853 2.345a549 549 0 0 1 7.072 6.136q.198.144.395.291c.986.742 2.023 1.278 3.08 1.835q.357.186.718.378c.848.458 1.817 1.306 2.771 2.27 1.176 1.189 2.266 2.522 3.015 3.465l.077.095c.324.409.657.796 1.033 1.238.898 1.07 2.137 2.497 4.248 5.848.708.89 1.409 1.813 2.081 2.739 4.219 5.897 7.85 12.045 10.339 19.621 1.794 6.057 1.79 11.199 1.843 16.268l.034.462c.21 3.009.366 6.645.201 8.888-.213 2.858-.407 4.748-.551 6.285 0 .902.01 1.793.037 2.658.279 8.176.309 16.176.738 24.083q.009.209.036.451c.231 2.002 1.251 4.836 2.13 7.63.674 2.12 1.321 4.321 1.845 6.584.118.509.233 1.01.343 1.512.456 1.546.886 3.016 1.267 4.362.535 1.9.979 3.554 1.269 4.868.566 2.634 1.021 5.167 1.707 7.129a54 54 0 0 1 1.004 3.079c.929 2.394 1.619 4.968 2.059 7.462q-.042.26-.09.529c-.222 1.214-.26 2.518-.237 4.097a7.5 7.5 0 0 0 .567 2.889c.155.381.349.776.599 1.198.331.56.835 1.201 1.579 1.911a8 8 0 0 1 1.445 1.782c.089.139.176.271.273.393.327.414.897.55 1.56.68.872.174 1.909.347 3.024 1.219 3.639 2.768 5.909 2.906 7.524 3.056.481.042.919.081 1.345.18 1.382.318 3.163 1.33 4.449 2.274 1.018.741 3.373 1.585 5.264 2.31.72.274 1.61.8 2.65 1.511a45 45 0 0 1 3.009 2.269c.145.117.491.538.611.681q.232.276.475.553c2.455 2.83 3.61 4.483 4.544 5.8.266.381.506.731.748 1.089.759 1.123 1.627 2.57 2.447 4.07.985 1.795 1.895 3.662 2.608 5.081 1.329 3.882 2.289 7.849 2.978 11.794.253 1.451.215 2.909-.091 4.189l-.004-.024q-.195.675-.488 1.264c-.693 1.36-1.68 2.454-2.95 2.818-1.261.358-2.718.003-4.005-1.26a8 8 0 0 1-.998-1.199l-.004-.021c-.732-.996-1.303-2.184-1.667-3.445a77 77 0 0 0-3.74-10.258c-1.792-4.004-3.92-7.803-6.315-11.437q-.79-1.199-1.63-2.371c-.983-.85-2.222-1.693-3.574-2.485a48 48 0 0 0-.78-.447c-2.334-.872-4.872-1.641-6.666-2.286-1.482-.531-2.508-1.139-3.391-1.666-.61-.364-1.151-.687-1.747-.923-.319-.126-.76-.291-1.297-.496-2.172-.846-6.024-2.287-9.426-4.943-1.491-1.175-3.177-2.839-4.538-4.935a17 17 0 0 1-1.126-2.024c-1.063-2.283-1.469-4.507-1.776-5.666a13 13 0 0 1-.416-2.584c-.086-1.372-.115-2.774-.201-4.029-.115-1.747-.36-3.222-.805-3.973-.531-.895-.692-1.723-1.032-3.027a27 27 0 0 0-.311-1.094 62 62 0 0 1-.918-3.07c-.582-2.177-.671-3.693-.752-4.943-.101-1.759-.129-3.035-.732-4.818-.666-1.975-1.25-3.99-1.484-5.622q-.082-.577-.225-1.219-.128-.578-.287-1.182c-.288-1.108-.631-2.268-.842-3.382-.174-.918-.168-1.738-.169-2.475q0-.344-.009-.663c-.242-.731-.491-1.471-.74-2.23l-.251-.352c-.438-.619-.985-1.392-1.416-2.55a10.1 10.1 0 0 1-.605-2.963 34 34 0 0 1 .004-2.315c.032-1.214.07-2.471-.069-3.898-.095-.973-.271-2.076-.446-3.167-.26-1.622-.516-3.22-.494-4.342.008-.421.144-.789.28-1.156l.003-.005.027-.075a328 328 0 0 0-.995-8.07l-.182-.683q-.022-.085-.045-.169c-.288-1.144-.54-2.225-.836-2.94-.342-.81-.606-2.88-.845-5.007-.159-1.396-.315-2.823-.508-3.976-.113-.674.035-1.317.187-1.977.141-.614.285-1.246.22-1.923-.032-.34-.115-.705-.204-1.091-.078-.341-.163-.7-.222-1.074-.056-.35-.002-1.134.05-2.127.033-.616.064-1.312.07-2.034-.261-1.888-.574-3.726-.979-5.433-.208-.333-.456-.604-.741-.785a4 4 0 0 0-.678-.327c-.325-.127-.661-.252-.956-.449-.23-.152-.362-.356-.331-.525.015-.079.065-.15.109-.215.052-.074.097-.14.078-.197-.015-.042-.077-.072-.151-.107-.118-.055-.27-.125-.327-.277l-.019-.053c-.239-.65-.521-1.469-.835-2.286-.36-.939-.762-1.877-1.162-2.589-.446-.798-.898-2.049-1.407-3.306-.352-.875-.732-1.757-1.115-2.474-.381-.713-.914-1.356-1.442-1.975-.635-.743-1.256-1.442-1.585-2.19-.065-.148-.017-.426.04-.778.04-.247.081-.539.096-.836a175 175 0 0 0-1.831-2.479l-.133-.037-.003-.001c-1.026-.281-2.404-.623-3.037-2.191-.16-.398-.144-.757-.128-1.077.016-.313.029-.595-.138-.85-.19-.291-.557-.51-.955-.744-.564-.333-1.189-.69-1.504-1.345l-.068-.144c-.228-.469-.577-1.169-.768-2.014q-.367-.43-.742-.86a908 908 0 0 1-3.798-4.381c-2.54-2.946-5.062-5.898-7.602-8.817-1.238-1.425-2.098-3.115-2.373-4.73-.293-1.632.106-2.979.871-4.012M466.147 278.601a5.3 5.3 0 0 1 3.774-.898c2.117.311 4.207.698 6.331 1.22q.175.019.35.042c.863.117 1.743.063 2.654.042q.313-.009.633-.007c.703.005 1.604.287 2.559.749 1.552.751 2.882 1.842 3.682 2.59l.08.073c.333.312.658.601 1.013.934.834.793 1.985 1.915 3.439 4.377.518.63 1.005 1.271 1.458 1.904 3.428 4.867 5.668 9.635 7.907 14.371a60 60 0 0 0 2.642 5.132l.155.2c1.012 1.311 2.358 2.861 3.038 3.987.868 1.444 1.457 2.449 1.95 3.288 1.679 2.082 3.505 4.039 5.541 6.065.138.062.292.129.45.192.578.234 1.225.465 1.873.685 1.327.448 2.678.859 4.059 1.254 1.735.495 3.509.957 5.273 1.381 1.636.392 3.267.759 4.912 1.109.991.095 1.94.154 2.804.205 1.239.077 2.33.143 3.211.288 2.127.35 4.469 1.136 6.186 1.716l.797.267c1.177.205 2.347.406 3.539.61l.752.13.251.224c1.056.962 2.546 1.316 4.885 1.908 1.017.258 2.195.561 3.559.981.881.271 1.266.659 1.577.975.092.093.179.18.27.256.31.26.734.188 1.233.102.649-.11 1.425-.243 2.25.303 2.621 1.741 4.059 1.465 5.145 1.252.317-.063.609-.119.885-.118.901.004 2.029.557 2.841 1.106.191.13.463.232.772.31.74.154 1.678.185 2.471.147.443-.021 1.012.108 1.672.258.693.158 1.485.338 2.371.401 2.226.156 3.419.254 4.37.333l.777.065c.801.064 1.787.192 2.786.323 1.197.157 2.415.318 3.363.382 2.332.717 4.663 1.483 7.082 2.376q.173.064.338.139c.135.025.512.19.644.231.748.424 1.51.976 2.368 2.001.426.527.915 1.188 1.307 2.234.412 1.019.509 2.641.013 3.714-1.204 2.31-2.397 1.942-3.043 1.822-.695-.225-1.151-.716-1.512-1.264-.359-.552-.587-1.175-.864-1.727-.142-.272-.299-.532-.544-.675-.234-.134-.631-.16-1.011.372-.356.473-.396 1.364-.301 1.844.083.501.151.747.131.913-.034.315-.299.353-.61.322l.54.191a4 4 0 0 1-.315-.047c-2.295-.431-4.701-.792-7.115-1.187-2.944-.479-5.922-1.005-8.864-1.677a196 196 0 0 1-6.811-1.685 120 120 0 0 1-1.564-.09c-.025-.009-.104-.023-.128-.032-1.275-.117-2.454-.262-3.34-.428-1.032-.195-1.712-.565-2.295-.882-.402-.219-.754-.411-1.142-.505-.205-.05-.494-.111-.835-.182-1.406-.293-3.772-.787-5.797-1.67-.899-.392-1.914-.954-2.884-1.485-1.389-.761-2.686-1.459-3.415-1.532-1.276-.129-2.647-.633-3.862-1.07l-.567-.201c-.953-.329-1.739-.568-2.292-.511-.791.083-1.355-.16-2.248-.533-.609-.256-1.353-.569-2.397-.87-1.204-.347-2.016-.726-2.724-1.053-.979-.456-1.729-.801-2.946-.775-1.376.024-2.752-.079-3.8-.437-.469-.16-1.025-.28-1.605-.405-.75-.161-1.57-.338-2.272-.631-.586-.242-1.012-.607-1.408-.935q-.182-.154-.35-.287c-.467-.11-.974-.228-1.441-.334l-.28.07c-.494.122-1.075.278-1.774.253-1.091-.035-1.967-.403-2.898-.802-.714-.307-1.478-.637-2.398-.848-.618-.142-1.373-.251-2.146-.389-.451-.08-.953-.183-1.451-.328a7 7 0 0 1-.851-.309c-.326-.158-.674-.273-1.403-.883a4 4 0 0 1-.317-.315c-.173-.199-.251-.481-.313-.748v-.004l-.014-.055a131 131 0 0 1-4.259-3.351l-.427-.245c-.695-.406-1.359-.807-1.904-.98-.584-.18-1.655-1.049-2.754-2.018-.718-.631-1.452-1.308-2.091-1.831-.373-.306-.529-.762-.679-1.229-.141-.436-.282-.886-.604-1.244-.162-.181-.374-.35-.597-.529a7 7 0 0 1-.6-.528c-.178-.18-.437-.698-.749-1.356-.196-.412-.409-.872-.647-1.358a57 57 0 0 1-2.44-3.464 3 3 0 0 0-.22-.138 2 2 0 0 0-.628-.201c-.215-.031-.45-.028-.691-.025-.327.005-.667.009-.983-.071-.248-.062-.412-.205-.412-.362a.6.6 0 0 1 .068-.217c.036-.079.069-.148.04-.196-.021-.035-.085-.047-.162-.063-.124-.025-.285-.058-.368-.197-.307-.514-.606-1.129-.9-1.728-.324-.661-.641-1.302-.959-1.778-.35-.524-.646-1.401-.941-2.253-.208-.599-.419-1.189-.65-1.66-.226-.462-.595-.854-.951-1.22-.429-.442-.837-.843-.974-1.327-.028-.098.069-.309.189-.573a6 6 0 0 0 .25-.629c-.35-.491-.7-.972-1.043-1.428l-.103.004h-.002c-.792.03-1.83.135-1.965-.767-.037-.231.053-.487.132-.719.078-.227.141-.436.068-.563-.083-.142-.312-.174-.549-.191-.336-.028-.685-.023-.764-.344l-.018-.071a3.8 3.8 0 0 1-.155-1.086 9 9 0 0 0-.379-.295c-.749-.493-1.643-1-2.575-1.488a67 67 0 0 0-6.256-2.846c-1.051-.418-1.943-1.24-2.534-2.347-.582-1.107-.844-2.41-.638-3.687a4.81 4.81 0 0 1 2.008-3.206m46.72 43.812c.007.017.08.062.181.113q.093.047.208.099c-.16-.115-.257-.163-.297-.183-.073-.034-.093-.036-.092-.029"/><path fill="#000" d="M608.43 345.772c3.426.108 6.807.357 10.193.75q.27.008.542.02c1.328.06 2.621-.054 3.897-.156q.446-.034.888-.064c2.26-.156 6.29 1.108 8.47 1.882l.119.04c.513.179 1.013.333 1.591.513a47.5 47.5 0 0 1 7.199 2.872c1.22.465 2.466.999 3.718 1.634 3.748 1.845 7.481 4.874 10.048 8.218 1.396 1.663 2.519 4.267 2.871 5.96.512 1.698.723 5.637-1.365 8.477-3.065 3.905-5.446 4.075-7.182 4.796-1.796.566-3.348.897-4.893 1.205-3.059.596-5.958 1.011-8.871 1.411q-1.42.194-2.816.343l-.48.084c-3.142.55-6.973 1.079-9.391 1.113-3.079.043-5.167-.028-6.878-.099-6.647.276-13.263.465-19.856.721-3.079.12-6.153.231-9.223.345-3.038.114-6.074.229-9.101.363-2.789.123-5.57.254-8.344.405-1.61.201-3.133.426-4.542.64-.727.11-1.43.218-2.09.317-1.142.17-2.162.316-3.074.41-3.474.356-7.402.455-10.278.631-.465.027-.909.056-1.318.087-2.215.379-4.499.839-6.23 1.427-.129-.016-.247-.036-.372-.054-.214-.038-.432-.051-.573-.07-.133-.034-.269.014.042-.27-1.14.585-2.271 1.665-3.561 3.621-.798 1.209-1.657 2.773-2.669 4.755-.653 1.281-1.212 1.86-1.674 2.331-.135.14-.261.269-.379.408-.401.473-.496 1.127-.607 1.899l-.049.326c-.137.924-.347 1.986-1.136 3.125-2.797 4.069-2.979 6.359-3.141 8.061-.045.498-.089.955-.19 1.398-.327 1.437-1.329 3.271-2.226 4.599-.186.275-.367.63-.55 1.055-.546 1.275-1.082 2.966-1.462 4.361-.194.711-.606 1.602-1.097 2.642-.508 1.077-1.102 2.316-1.626 3.695-1.327 3.483-2.081 5.312-2.688 6.789l-.499 1.202c-.408.982-.928 2.14-1.485 3.34-.184.386-.372.759-.582 1.148-1.17 2.227-2.956 4.513-4.651 6.04-3.501 2.717-7.726 3.637-10.544 4.141-.102.031-.417.078-.521.099-.971.087-1.935.187-2.877.307-1.691.212-3.345.081-4.529-.392-.032.014-.131.043-.164.055a6 6 0 0 1-.477-.089c-1.965-.476-2.895-1.634-3.188-2.907-.295-1.291.357-2.694 1.234-3.947q.1-.147.202-.29l-.128.042c1.358-1.369 3.194-2.304 5.149-2.766a83 83 0 0 1 3.244-.689l-.439.083c2.948-.828 4.71-1.61 5.943-2.859.848-.833 1.606-1.96 2.291-3.359 1.286-2.572 2.569-5.173 3.868-7.764a585 585 0 0 0 4.526-9.185l.446-.938c.282-.889.561-1.786.795-2.599.542-1.807 1.059-3.481 1.509-4.772.557-1.598 1.179-2.677 1.719-3.609.37-.641.699-1.209.937-1.827.128-.331.294-.787.496-1.339.622-1.697 1.603-4.315 2.863-6.899.4-.821.827-1.65 1.282-2.457.818-1.451 1.901-3.128 3.057-4.757 1.63-2.333 3.534-4.486 4.411-5.68.909-1.288 2.193-2.561 3.623-3.582 1.179-.836 1.801-.98 2.429-1.209.61-.199 1.135-.326 1.645-.439 2.401-.505 4.249-.648 5.289-1.041 1.235-.455 2.335-.496 3.947-.525 1.116-.019 2.478-.029 4.31-.137 2.114-.123 3.615-.043 4.878.029 1.573.091 2.8.172 4.422-.087q.322-.05.67-.122c2.18-.445 4.456-.755 6.258-.722.817.015 1.756-.035 2.725-.087 1.285-.069 2.636-.142 3.873-.074 1.018.057 1.869.276 2.621.468q.35.091.679.166 1.208-.06 2.422-.13.192-.072.404-.154c.712-.271 1.575-.605 2.664-.808 1.717-.32 3.241-.265 4.85-.211 1.255.041 2.556.081 4.039-.066a35 35 0 0 0 1.914-.253c.454-.07.921-.146 1.384-.222 1.695-.279 3.366-.556 4.541-.549.442.002.831.134 1.215.264l.005.002.078.027q4.257-.513 8.492-1.093.366-.094.731-.186c1.183-.3 2.334-.596 3.065-.935.798-.368 2.848-.733 4.992-1.137 1.406-.264 2.854-.547 4.021-.848.677-.175 1.355-.09 2.051-.005.646.079 1.315.157 2.008.022.353-.069.708-.188 1.108-.319.346-.115.703-.236 1.089-.337.35-.093 1.168-.126 2.191-.188.281-.017.58-.038.876-.059a64 64 0 0 0 1.287-.119c2.025-.489 4.048-.99 5.98-1.52.365-.231.682-.498.894-.798.12-.163.208-.341.295-.523a7 7 0 0 0-.908-.562c-.659-.352-1.315-.635-1.79-1.094-.096-.093-.138-.347-.206-.668a5 5 0 0 0-.208-.749 36 36 0 0 0-2.577-1.167l-.129.039-.002.002c-.977.291-2.26.728-3.658-.201l-.083-.055c-.379-.259-.569-.574-.74-.857-.169-.277-.319-.525-.617-.658-.337-.15-.784-.146-1.273-.139-.692.008-1.449.027-2.105-.371l-.142-.087c-.468-.283-1.181-.703-1.832-1.33a177 177 0 0 0-6.77-1.963c-3.778-1.011-7.627-1.894-11.485-2.565-1.87-.328-3.642-1.055-4.943-2.081-1.307-1.029-2.073-2.278-2.056-3.571-.001-1.291.834-2.542 2.356-3.451 1.509-.908 3.583-1.378 5.669-1.314m34.906 24.506c-.01.167-.011.307 0 .408.009.297.059.492.091.556-.11-.528.143-.215.212-.398a.1.1 0 0 0 .01-.046 18 18 0 0 0-.313-.52M463.692 391.988c.964-.203 1.583-.237 1.746-.112.327.26.633.437.919.644.346.249.672.558.905.969q.245.433.445.936l.04.105q.156.032.305.07l-.046-.077c.329.096.616.202.779.315.177.124.105.34.043.522-.043.126-.082.237-.031.295.028.031.074.068.129.114.227.187.61.507.552 1.037-.026.234-.155.565-.28.878-.18.447-.35.862-.188.932.286.121.285.449.28.736-.005.273-.01.514.24.515.298.001.261.158.206.392-.038.163-.084.361-.036.57.055.24-.028.479-.102.677-.103.28-.182.49.192.557.415.073.727.22.723.456-.001.108.056.199.117.298.081.13.165.267.118.449-.04.15-.229.35-.398.525l-.145.154q.063.127.132.25l.142-.012c.25-.022.557-.044.742.016.293.095.237.319.175.556-.048.186-.101.374.01.522.075.101.225.189.374.276.22.129.439.267.402.434-.014.063-.146.164-.278.264l-.002.002-.026.021c.241.278.491.553.746.836l.146.044c.235.073.465.152.752.154.311.002.561.201.822.42.17.14.348.296.551.403.119.064-.012.2-.148.339-.127.131-.257.264-.191.347.034.041.114.073.199.107.076.031.156.061.212.106.052.04-.002.18-.074.354-.044.109-.096.227-.132.354q.262.39.495.812c.156.032.351.048.597.042.177-.003.386-.017.6-.031.29-.018.591-.036.836-.023.191.009.274.051.206.102a1 1 0 0 1-.154.073c-.066.027-.125.051-.121.066.005.01.055.012.117.014.098.004.225.01.238.053.047.163.041.364.032.558-.01.216-.02.44.038.604.066.183-.083.498-.241.795-.11.215-.223.43-.266.609a.4.4 0 0 0-.009.072c-.042.085.057.392.009.474-.011.091.076.185.16.275.118.125.231.251.068.349-.033.02-.234.041-.485.07-.177.02-.381.043-.569.07q-.003.194-.03.39l.083.015.002.001c.634.117 1.502.285.978.48-.133.05-.377.079-.597.103-.216.025-.41.047-.452.083-.046.041.084.098.227.158.2.084.423.175.211.26l-.046.018a4 4 0 0 1-.823.232 10 10 0 0 1-.436.83c-.269.466-.575.926-.89 1.41-.156.238-.777.449-1.762.58-.967.068-2.316.378-3.487-.223-1.304-.232-2.558-.169-3.517-.369-.961-.16-1.555-.358-1.687-.551a20 20 0 0 1-.627-.989l-.076-.057c-.176-.133-.536-.265-.896-.398q-.125-.047-.246-.091c-.612-.23-.349-.628-.204-.854l.008-.013c.034-.052.043-.103.054-.163.026-.144.061-.334.463-.733a3 3 0 0 1-.017-.355q.008-.361.064-.727l.009.478c.137-.264.458-1.01.728-1.892l-.019-.033c-.127-.215-.294-.488-.142-.752.195-.331.386-.595.553-.813.177-.994.232-2.04.008-2.995a4.4 4.4 0 0 0-.299-.866 6 6 0 0 0-.416-.738 5 5 0 0 0-.604-.222c-.276-.087-.524-.166-.645-.27-.292-.252-.277-.719-.271-1.071q.002-.086.002-.16a18 18 0 0 0-.583-.513l.117-.12c.501-.514.368-.737.156-1.086-.093-.153-.199-.327-.278-.563-.051-.152.145-.357.304-.526q.073-.075.124-.137c.114-.14-.078-.106-.304-.065-.293.052-.645.118-.465-.175.568-.939-.116-.8-.629-.689-.151.033-.288.063-.374.061-.281-.006-.192-.311-.004-.619.059-.098.039-.171-.031-.223-.011-.007-.022-.048-.033-.055-.111-.092-.334-.134-.568-.149-.146-.007-.207-.104-.275-.215-.073-.117-.155-.253-.36-.335a10 10 0 0 1-1-.452l-.175-.092a3.3 3.3 0 0 1-.558-.398c-.227-.189-.461-.396-.699-.533a11 11 0 0 1-.173-1.817c-.004-.295.463-.733 1.316-1.232.854-.501 2.016-1.024 3.25-1.484 1.235-.458 2.458-.818 3.423-1.02M410.28 282.342c.405-.1.851-.072 1.116.07.124.067.21.157.287.238.088.094.169.178.281.204.082.018.178-.009.297-.041.19-.052.438-.118.765-.039 1.221.296 2.546.701 3.81 1.097 1.408.441 2.741.866 3.82 1.132 1.211.299 2.838.945 4.481 1.574q.43.166.867.33c.336.186 1.267.447 1.999.622.99.236 2.142.342 3.242.453 1.326.135 2.631.288 3.677.685.215.081.442.337.725.658.202.228.435.49.703.745a90 90 0 0 1 4.079 1.063l.169-.039.003-.002c1.279-.307 3.075-.703 5.061.484.503.302.763.646 1.001.957.236.307.432.577.81.75.434.199.987.253 1.609.325.862.097 1.833.22 2.647.763l.178.118c.312.209.707.474 1.128.802a9.6 9.6 0 0 1 1.063.967 133 133 0 0 1 7.873 3.981 140 140 0 0 1 12.494 7.715c1.959 1.362 3.58 3.154 4.414 4.957.834 1.787.846 3.53-.15 4.381-.932.889-2.183 1.4-3.967 1.315-1.763-.077-3.824-.708-5.754-1.719a145 145 0 0 0-9.72-4.625l-.54-.186c-1.327-.462-2.663-.703-3.981-.917-.307-.051-.608-.098-.912-.148-1.675-.281-4.164-1.387-6.254-2.329-.78-.354-1.495-.683-2.08-.946l-.116-.05c-.515-.23-.993-.416-1.576-.634-1.379-.506-3.209-1.217-7.109-2.707q-1.755-.457-3.526-.873c-3.486-.849-6.222-1.232-10.935-2.341-7.613-2.067-14.577-4.918-20.844-5.699-.278.275-.602.641-.913 1.046q-.107.164-.216.339c-1.44 2.282-2.968 6.022-4.039 8.29a122 122 0 0 0-1.319 2.862 94 94 0 0 0-1.584 3.772c-1.82 5.868-3.33 12.414-6.037 18.823-1.85 4.288-3.316 8.355-4.457 12.825-.856 3.285-1.609 6.671-2.327 10.063-.157.743-.309 1.472-.466 2.231-.475 2.305-.844 4.586-1.047 6.84a39 39 0 0 0 .195 4.86c.136 1.375.315 2.685.461 3.915.077.079.215.224.416.379.444.366 1.11.83 1.85 1.311.574.46 2.556 1.093 4.061 1.385q.717.147 1.372.25c2.438.169 5.007.125 7.539-.063q.258.066.52.137c.871.232 1.833.333 2.903.324.419.152 1.762-.401 3.692-1.958 1.39-1.094 3.07-2.585 5.101-4.329 1.315-1.13 2.164-1.522 2.865-1.847.202-.093.394-.181.581-.281.64-.341 1.07-.964 1.593-1.709.221-.316.453-.649.734-.999a8.3 8.3 0 0 1 2.779-2.186c5.865-2.642 8.015-3.868 9.724-5.152.489-.347.959-.665 1.437-.917 1.582-.837 4.055-1.397 5.931-1.612 1.495-.183 4.256-1.204 6.348-2.047.789-.32 1.891-.59 3.199-.891 1.338-.309 2.917-.658 4.549-1.135.838-.244 1.565-.453 2.263-.648.11-.028.446-.063.558-.079 2.775-.456 4.466-.739 5.883-.977.48-.083.986-.165 1.446-.245 1.469-.256 3.31-.535 5.152-.834 2.202-.357 4.404-.75 6.04-1.146 3.771-.414 7.632-.928 8.93-1.924l-.193.15c.38-.278.776-.575 1.174-.878 1.79-1.365 3.866-2.392 5.749-2.738 1.884-.349 3.423-.005 4.289.988s1.003 2.561.391 4.387c-.616 1.826-1.922 3.752-3.71 5.389-.4.365-.806.732-1.228 1.103-.033.024-.129.103-.163.126-5.15 3.858-9.833 4.033-14.062 4.969-5.866 1.02-11.629 1.681-17.401 2.179q-.537.046-1.087.09c-3.325.655-6.603 1.34-9.854 2.104q-.58.136-1.165.278c-3.071 1.125-6.035 2.335-8.078 3.158-1.687.677-2.951.989-4.028 1.278-.735.198-1.387.39-1.98.684a28 28 0 0 0-1.255.672c-1.416.798-3.392 2.053-5.047 3.437a79 79 0 0 1-3.069 2.468c-1.482 1.126-3.274 2.367-5.052 3.578-2.527 1.732-5.126 3.378-6.66 4.41-1.269.875-3.101 1.841-5.475 2.052a45 45 0 0 1-4.238.098c-2.539-.046-4.745-.235-6.036-.09-1.542.17-2.859-.037-4.84-.509-1.395-.368-3.039-.707-5.653-1.887a12 12 0 0 1-1.344-.75c-1.673-1.128-3.061-2.25-4.234-3.799-.843-1.124-1.64-2.684-1.684-4.513 0-1.017-.079-2.062-.284-3.377-.422-2.629-.506-5.55-.152-7.747.156-1.004.295-2.149.47-3.325.204-1.38.455-2.785.808-4.085q.071-.259.145-.507c.337-1.119.793-2.039 1.193-2.835.124-.242.245-.488.356-.722l.581-2.765-.027-.503c-.051-.864-.106-1.955.045-3.247.243-2.053.816-3.786 1.481-5.621.518-1.429 1.09-2.908 1.625-4.633.363-1.174.739-2.526 1.121-3.836.194-.663.384-1.303.582-1.932.343-1.114.652-2.154.975-2.939.182-.443.459-.79.732-1.137l.005-.004.055-.071c.801-3.051 1.416-6.214 2.05-9.473l.084-.873c.14-1.419.293-2.826.267-3.791-.021-.83.269-2.578.792-4.661.129-.52.272-1.061.422-1.605.472-1.729 1.026-3.51 1.476-4.994.264-.869.765-1.591 1.3-2.328.5-.687 1.023-1.381 1.439-2.246.207-.431.398-.92.624-1.453.195-.463.417-.96.696-1.471.265-.47.97-1.429 2.184-2.684.761-.769 1.699-1.672 3.132-2.582 1.287-.92 3.291-1.958 5.875-1.855 1.774.036 3.559.176 5.306.406.589-.05 1.111-.146 1.543-.309.309-.117.586-.273.87-.431.387-.215.791-.434 1.31-.562m-30.519 89.775a2 2 0 0 0-.067-.578c.022.195.047.388.067.578m22.217-77.097c.179-.119.098-.127-.052-.024a2 2 0 0 0-.186.141q.163-.067.238-.117M370.422 386.756c.964-.213 1.627-.221 1.897.011.44.383.905.785 1.364 1.201q.058.022.111.046c.268.117.688.131 1.108.142q.145.004.288.009c.719.029.844.776.919 1.19l.005.023c.018.099.054.18.097.275.105.23.242.535.257 1.345q.175.255.332.521c.975 1.646 1.662 3.474 2.268 5.218.005.004.013.023.017.027.105.29.22.596.325.89l.058.066c.382.431.854.951.932 1.443.1.626.114 1.097.116 1.486.683 1.758 1.45 3.483 2.449 5.03q.472.73 1.014 1.397.502.615 1.054 1.188c.3.149.611.27.899.381.404.154.764.292.99.463.546.414.871 1.135 1.118 1.67q.06.132.115.245.541.418 1.095.819l-.058.175c-.251.743.075 1.087.589 1.617.223.23.484.499.751.848.172.227.077.519.001.759a2 2 0 0 0-.056.196c-.042.199.173.157.427.108.329-.064.721-.144.709.274-.032 1.34.728 1.159 1.291 1.013.165-.043.315-.081.425-.077.358.016.469.446.459.878-.007.345.5.469.972.462.179-.003.311.113.465.247.159.138.348.302.634.37l.253.06-.072-.062c.606.158.945.255 1.223.334q.133.038.258.072c.266.072.562.194.856.313.353.142.706.278 1.016.328.45.569.889 1.163 1.351 1.765.236.309.172.999-.189 1.944-.361.946-.988 2.062-1.767 3.124-.781 1.061-1.661 1.993-2.472 2.605-.809.613-1.48.852-1.875.685a31 31 0 0 1-2.368-1.098c-.943-.494-1.818-1.045-2.555-1.659l-.281-.237c-.012-.019-.072-.053-.084-.072a21 21 0 0 1-1.455-1.436c-.673-.176-1.326-.386-1.712-.61-.321-.187-.386-.491-.443-.752-.038-.18-.072-.34-.179-.425a4 4 0 0 0-.245-.169c-.419-.276-1.13-.753-1.429-1.518-.133-.338-.204-.811-.266-1.26-.09-.644-.165-1.241-.412-1.348-.434-.189-.652-.662-.841-1.082-.179-.4-.334-.75-.635-.758-.36-.01-.421-.239-.51-.578-.062-.236-.138-.524-.335-.832-.227-.355-.281-.699-.325-.99-.063-.41-.109-.717-.595-.821-.54-.113-1.002-.329-1.15-.673-.068-.157-.198-.295-.332-.438-.178-.189-.364-.387-.428-.657-.053-.222.038-.515.12-.773q.038-.12.068-.228-.156-.186-.318-.369l-.156.019c-.275.036-.612.08-.863-.003-.398-.132-.477-.461-.558-.808-.065-.272-.13-.555-.349-.763-.15-.143-.377-.263-.6-.382-.331-.175-.661-.356-.728-.6-.025-.092.056-.25.138-.407l.002-.003.016-.031q-.671-.573-1.359-1.135l-.187-.046c-.304-.081-.599-.159-.908-.123-.333.043-.727-.205-1.134-.458-.269-.169-.547-.345-.823-.45-.161-.062-.11-.274-.054-.488.053-.201.108-.406-.01-.502-.06-.048-.163-.076-.273-.103a1.3 1.3 0 0 1-.282-.096c-.077-.043-.101-.232-.137-.483-.022-.154-.046-.328-.085-.5l-.152-.136.016.022a29 29 0 0 1-.861-.819 2 2 0 0 0-.612.119c-.17.057-.366.139-.565.222a7 7 0 0 1-.795.292c-.19.05-.292.028-.255-.056a.7.7 0 0 1 .106-.139c.048-.053.091-.101.079-.117-.009-.011-.059.003-.12.021-.097.027-.222.062-.258.015-.132-.172-.233-.404-.33-.627-.107-.248-.211-.493-.352-.647-.159-.175-.177-.551-.193-.927-.01-.261-.02-.522-.077-.716-.055-.189-.245-.306-.429-.42-.222-.136-.434-.268-.392-.512.009-.05.156-.193.342-.371.131-.127.281-.272.414-.415a10 10 0 0 1-.34-.626l-.085.02-.002.001c-.649.151-1.537.356-1.276-.233.066-.15.248-.323.412-.479.161-.153.305-.29.305-.371.001-.092-.16-.108-.336-.125-.245-.024-.521-.054-.417-.297l.023-.053c.074-.174.183-.433.489-.799a22 22 0 0 1-.371-1.536c-.178-.87-.317-1.76-.453-2.702-.064-.459.296-1.127 1.054-1.828.755-.711 1.866-1.327 3.09-1.743 1.221-.422 2.418-.781 3.382-.997"/><path fill="#000" d="M401.366 406.788c1.292-.024 2.544.279 3.542.846.996.567 1.646 1.366 1.845 2.242.319 1.407.66 2.856.994 4.285q.05.108.096.217c.229.545.639 1.038 1.05 1.528.095.113.19.231.283.342.701.852.627 2.637.596 3.633l-.001.053c-.008.231.007.449.027.708.047.622.106 1.434-.076 3.211.075.491.146.993.21 1.497.691 5.396 1.023 10.854 1.429 16.331l.049.203c.103.432.216.9.321 1.373.238 1.071.415 2.172.39 2.982a27 27 0 0 1-.318 3.434c.072 4.813-.379 9.764-1.172 14.41l-.055.336a18 18 0 0 0-.275 3.27c.008 1.098.111 2.221.283 3.377a26 26 0 0 0 .702 1.879c.337.829.653 1.578.825 2.216.417 1.54.531 3.403.611 4.803l.037.62.002.024c.274 1.034.559 2.043.863 3.011l-.113.234c-.482.98-.243 2.05.237 3.461.211.608.47 1.268.769 1.936.194.427.09.755.018 1.046-.021.084-.04.164-.048.238-.025.255.249.311.561.344.235.026.491.039.689.144.114.047.193.14.231.335.429 1.554 1.718 1.279 2.322.958.199-.089.38-.172.547-.201.536-.092 1.205.295 1.76.715.433.337 1.477.224 2.295-.021.309-.092.713-.058 1.203-.022.507.037 1.104.076 1.77-.017 1.685-.24 2.674-.339 3.489-.397.229-.017.459-.029.682-.041.717-.035 1.639-.02 2.752.126q.056.007.112.015c.077.007.297.085.373.097 1.162.239 1.812.352 2.343.337.328.136.671.268 1.039.399 1.061.374 2.338.757 3.597 1.129.879.259 1.655.99 2.142 2.059s.645 2.385.427 3.685c-.218 1.299-.792 2.492-1.606 3.344-.815.85-1.804 1.284-2.761 1.224-1.385-.092-2.757-.18-4.287-.383-.614-.083-1.25-.19-1.89-.324-.911-.19-1.745-.421-2.264-.52l.351.091c-.847-.091-2.267-.155-3.729-.252-1.544-.104-3.223-.225-4.993-.466q-.274-.038-.55-.079c-1.543.153-3.229.16-4.47-.046-1.025-.167-1.746-.585-2.347-.965-.419-.265-.78-.511-1.198-.686-.224-.093-.533-.218-.913-.391-.93-.424-2.335-1.176-3.626-2.484a10.6 10.6 0 0 1-1.839-2.484c-.54-1.02-.905-2.273-1.103-3.385-.289-1.597-.307-2.921-.593-3.509-.498-1.029-.63-2.281-.71-3.34-.079-1.016-.123-1.88-.429-2.319a1.8 1.8 0 0 1-.323-.95c-.019-.242-.008-.502.004-.805.019-.508.043-1.119-.054-1.947-.111-.95-.052-1.658.001-2.257.074-.846.131-1.48-.318-2.358-.5-.975-.87-2.059-.865-2.966.002-.411-.057-.881-.111-1.373-.072-.652-.131-1.355-.029-2.002.083-.534.337-.976.567-1.357q.11-.18.202-.343.01-.624.035-1.25l-.119-.222c-.21-.389-.462-.875-.541-1.468a3.6 3.6 0 0 1-.03-.551c.001-.586.177-1.1.353-1.638.173-.525.345-1.074.344-1.717 0-.436-.077-.942-.162-1.433-.126-.733-.27-1.445-.176-1.941.036-.188.194-.348.352-.511l.003-.002.032-.033a43 43 0 0 0-.587-3.645l-.149-.307c-.243-.502-.487-.982-.792-1.273-.332-.324-.607-1.179-.925-2.082-.207-.59-.43-1.196-.681-1.683-.145-.278-.035-.599.078-.92.074-.21.148-.427.151-.644a1 1 0 0 0-.045-.302c-.053-.166-.156-.335-.266-.516a4 4 0 0 1-.274-.51c-.072-.168-.058-.578-.039-1.104.011-.325.025-.693.023-1.073-.28-.968-.55-1.926-.809-2.898a1.8 1.8 0 0 0-.656-.427c-.188-.072-.406-.122-.631-.177-.304-.074-.62-.151-.883-.286-.206-.105-.305-.252-.246-.372.027-.055.087-.104.142-.149.063-.051.118-.097.11-.14-.007-.031-.062-.055-.127-.086-.106-.048-.241-.111-.266-.236-.092-.465-.141-1.016-.184-1.543-.047-.582-.094-1.172-.199-1.616-.117-.495-.045-1.263.033-2.008.054-.524.108-1.057.1-1.495-.008-.425-.171-.869-.327-1.282-.188-.496-.369-.985-.264-1.429.022-.09.207-.221.438-.385.164-.116.351-.25.521-.395a49 49 0 0 1-.179-1.614l-.088-.048h-.002c-.688-.375-1.624-.86-1.208-1.786.106-.232.333-.395.537-.542.2-.143.38-.272.403-.431.025-.186-.13-.385-.299-.6-.237-.304-.499-.626-.33-1.022l.037-.085c.121-.283.301-.689.704-1.12 0-1.165.027-2.323.076-3.483.079-1.943.214-3.883.379-5.825.082-.952.639-1.894 1.58-2.609a5.72 5.72 0 0 1 3.481-1.144M483.542 450.903c.356-.369 1.126-.503 2.141-.316 1.019.185 2.181.688 3.274 1.378 1.095.687 2.078 1.468 2.794 2.17.713.704 1.082 1.287 1.037 1.676a114 114 0 0 0-.209 1.924q.017.06.029.12c.064.292.304.642.549.988q.085.12.168.237c.414.593-.094 1.15-.368 1.468l-.014.019a1.1 1.1 0 0 0-.152.248c-.11.224-.259.52-.86 1.044q-.077.293-.17.578a29 29 0 0 1-.646 1.766c-.636 1.73-1.47 3.481-2.384 5.222l-.017.105c-.115.677-.266 1.524-.629 1.982-.462.582-.849.956-1.177 1.259-1.094 1.967-2.189 3.931-3.14 5.959a42 42 0 0 0-.97 2.226 9 9 0 0 0-.362 1.143c.039.316.112.631.183.923.1.411.196.78.187 1.066-.021.687-.415 1.422-.706 1.994l-.132.263a76 76 0 0 0-.025 1.529l-.177.072c-.755.3-.846.835-.995 1.688-.065.373-.143.808-.293 1.311-.097.327-.398.441-.643.537q-.11.04-.197.083c-.193.1-.042.276.135.486.229.272.503.605.132.885-1.185.89-.663 1.513-.271 2.004.116.143.219.273.265.393.148.388-.2.8-.607 1.071-.322.212-.232.836-.049 1.355.069.198.008.417-.069.676-.079.27-.173.577-.151.951a24 24 0 0 1 .039 2.109q.004.027.005.063c.017.287-.005.625-.021.961-.021.404-.034.806.018 1.144-.205.355-.423.735-.683 1.204-.249.446-.534.942-.829 1.409-.312.494-1.067.731-2.097.641-1.033-.089-2.257-.479-3.446-1.047-1.188-.57-2.258-1.277-3.025-1.942-.765-.666-1.167-1.217-1.142-1.563.028-.332.038-.649.06-1.012.024-.404.076-.9.151-1.408.117-.789.283-1.584.5-2.336.086-.311.175-.607.278-.906q.323-.94.689-1.889l.075-.196c-.155-.637-.295-1.262-.298-1.676-.002-.345.222-.536.416-.708.132-.118.25-.223.265-.353q.01-.106.013-.286c.01-.482.018-1.307.477-1.985.205-.3.553-.635.885-.957.475-.463.917-.905.86-1.183-.102-.488.155-.982.384-1.426.218-.419.412-.795.242-1.063-.204-.324-.054-.532.173-.851.157-.218.35-.491.492-.885.164-.461.423-.757.644-1.006.312-.354.546-.611.378-1.151-.187-.599-.225-1.219.022-1.625.112-.186.178-.414.253-.662.099-.323.215-.67.455-.931a.3.3 0 0 1 .036-.037c.175-.133.456-.19.708-.244q.126-.025.234-.053.09-.234.171-.473l-.094-.129c-.165-.224-.369-.499-.425-.76-.087-.414.155-.656.411-.918.198-.203.405-.417.465-.725.042-.21.021-.473-.001-.733-.032-.386-.066-.766.101-.968.063-.076.24-.102.416-.127h.003l.036-.006c.067-.607.115-1.22.152-1.836l-.072-.186c-.115-.299-.227-.59-.441-.82-.232-.249-.274-.717-.321-1.21-.03-.323-.063-.657-.151-.947-.051-.17.145-.261.349-.359.189-.09.384-.183.385-.341.001-.081-.044-.18-.091-.285-.042-.092-.087-.19-.105-.284-.016-.087.118-.239.287-.431.105-.12.224-.258.331-.406q.022-.694.058-1.389a2 2 0 0 0-.497-.378c-.157-.089-.348-.178-.543-.271a7 7 0 0 1-.75-.391c-.165-.106-.219-.196-.132-.224.04-.013.111-.013.174-.014.072 0 .137 0 .14-.02.002-.015-.042-.041-.095-.073-.086-.053-.197-.122-.187-.179.038-.214.137-.445.235-.67.109-.252.214-.497.231-.714s.232-.472.467-.728l.084-.107c.197-.25.395-.495.512-.717.114-.217.085-.485.058-.745-.032-.312-.059-.612.166-.788.046-.035.255-.031.516-.023.185.005.396.011.595.006q.135-.416.299-.818l-.068-.057h-.002c-.524-.432-1.231-1.046-.583-1.301.165-.065.42-.049.648-.033.225.015.426.03.494-.034.076-.072-.007-.225-.097-.391-.127-.233-.264-.499.003-.6l.058-.021c.191-.073.475-.185.963-.201q.513-.765 1.092-1.487a34 34 0 0 1 2.063-2.321"/><path fill="#000" d="M452.373 478.647c.178-.171.38-.225.501-.134.057.042.095.115.13.18.04.075.076.142.128.146.038.003.082-.042.138-.096.089-.086.206-.196.361-.18.578.059 1.236.203 1.887.374.724.188 1.44.411 2.039.545q.196.043.414.123c.932.318 1.739.826 2.46 1.355.621.456 1.172.929 1.649 1.297.469.36 1.018.622 1.544.898.63.329 1.225.682 1.539 1.186.062.101.033.347-.012.648-.032.214-.07.458-.087.703q.738.724 1.385 1.525l.111.003h.002c.843.014 2.066.141 2.273 1.38.052.313-.06.594-.16.845-.043.108-.085.211-.113.308-.049.104-.073.2-.049.282.049.165.264.263.498.368.33.149.697.316.693.711l-.001.086c-.002.285-.004.706-.2 1.24.446.96.869 1.926 1.277 2.894.68 1.611 1.321 3.237 1.959 4.793.307.755.199 1.702-.315 2.654-.079.149-.17.293-.264.439.273 2.405-.783 4.15-2.14 5.339a9 9 0 0 1-1.045.755c-1.002.599-1.666.535-2.146.481-.144-.018-.277-.037-.405-.049-.435-.04-.779.236-1.219.534-.559.385-1.312.801-2.209.496-2.689-1.038-3.537-.666-4.41-.282-.239.106-.455.201-.661.237-.674.118-1.466-.271-2.005-.688-.263-.203-.729-.245-1.182-.177-.61.004-1.252-.024-1.83-.079-.563-.051-1.275-.328-2.01-.744-.765-.429-1.544-1-2.343-1.567-1.283-.923-1.975-1.663-2.509-2.232a12.3 12.3 0 0 1-1.212-1.643 3 3 0 0 1-.581-.067c-.927-.209-1.59-.762-2.236-1.389q-.239-.235-.482-.48a16 16 0 0 0-1.166-1.078c-.454-.374-1.017-.8-1.559-1.315-.807-.751-1.536-1.744-1.758-2.56-.086-.304-.025-.614.049-.908l.002-.004.015-.06a10 10 0 0 1-.122-.335c-.434-1.195-.941-2.544-1.069-4.444a7 7 0 0 1-.1-.549c-.145-.919-.094-1.992-.076-2.784q.002-.221.07-.539c.126-.683.308-1.924 2.035-3.761a7.5 7.5 0 0 1 2.414-1.611c.768-.349 1.181-.519 1.591-.716.391-.187.793-.098 1.187.004.376.094.733.202 1.098.108.183-.047.37-.142.575-.242.174-.087.372-.179.569-.243.188-.06.629-.016 1.181.057.346.044.732.1 1.134.147a30 30 0 0 1 3.226-.295 2.1 2.1 0 0 0 .623-.541c.126-.165.239-.366.358-.569.162-.277.334-.562.561-.78m1.605 15.977c-.203 1.06-.632 1.892-.411 1.909.083.01.344-.162.422-.199.176-.058.167.143.233.388l.065-.528c.02.347.05.641.089.908q.05.319.113.573c.148-.018.294-.032.437-.051.545-.072 1.051-.147 1.5-.189q-.03-.055-.06-.112c-.113-.258-.226-.623-.406-1.257a21 21 0 0 0-.534-.541 12 12 0 0 0-1.398-1.181q-.023.142-.05.28M239.479 350.302c1.111-.51 2.285-.55 3.26-.142 1.963.825 3.926 1.659 5.863 2.539 2.363 1.074 4.69 2.217 6.942 3.499.862.49 1.723.993 2.571 1.502.007.005.031.017.038.023a71 71 0 0 1 2.647 1.693c1.515.56 2.999 1.18 3.98 1.712.81.439 1.263.96 1.646 1.405.264.307.496.578.79.767.158.101.379.233.645.391 1.085.647 2.912 1.767 4.263 3.173.601.624 1.224 1.439 1.812 2.218l.417.552-.255-.182c.736.851 1.355 1.539 1.832 1.743.986.421 1.923 1.212 2.754 1.893.797.653 1.503 1.211 2.053 1.28.655.081 1.047.433 1.636.949.411.36.92.8 1.672 1.271.877.547 1.434 1.045 1.918 1.473.672.594 1.192 1.042 2.209 1.204 1.132.179 2.242.465 3.014.936.351.215.775.394 1.229.582.587.243 1.222.5 1.738.852.432.292.718.69.977 1.042q.121.165.239.31c.383.154.754.3 1.139.445l.244-.047c.427-.085.941-.195 1.51-.131.547.06 1.004.231 1.446.453.258.133.517.287.777.44.525.307 1.086.621 1.787.789.479.114 1.048.17 1.61.215.836.069 1.665.117 2.196.339.198.084.342.282.487.478l.002.003.029.04a61 61 0 0 0 4.198.401l.383-.061c.616-.1 1.224-.203 1.628-.418.443-.233 1.484-.262 2.571-.319.717-.035 1.462-.08 2.067-.185.356-.061.675.134.998.334.301.186.626.376.982.364.18-.006.38-.06.593-.117.187-.051.39-.105.591-.133.188-.026.601.093 1.135.24.325.091.698.192 1.096.28 1.052-.048 2.117-.102 3.174-.16.224-.138.422-.32.58-.557.114-.171.213-.376.314-.585.138-.285.275-.58.463-.813.146-.182.316-.252.427-.173a.5.5 0 0 1 .127.168c.041.071.077.135.123.134.034-.001.069-.05.113-.109.069-.095.163-.217.296-.219.49-.007 1.064.041 1.616.085.61.05 1.228.094 1.703.058.539-.041 1.311.142 2.088.319q.24.055.477.105c.397.082.777.153 1.115.186.461.046.96-.062 1.429-.167.559-.126 1.113-.25 1.577-.094.094.032.213.231.361.48.106.176.221.377.364.562a70 70 0 0 1 1.776-.001l.064-.084.001-.002c.477-.643 1.129-1.524 2.065-1.018.234.128.391.37.531.588.136.213.258.405.431.443.198.043.423-.093.672-.241.358-.208.751-.44 1.145-.237q.04.021.087.044c.296.145.729.36 1.153.798 1.267.097 2.528.214 3.789.341 2.089.213 4.216.456 6.305.694 1.035.117 2.006.699 2.768 1.649.735.952 1.218 2.188 1.21 3.481.078 1.291-.324 2.552-1.015 3.544-.716.992-1.668 1.624-2.708 1.791-1.666.27-3.356.536-5.017.782l-.262.083c-.656.194-1.263.569-1.85.945q-.207.13-.418.257c-1.052.639-3.114.421-4.246.3l-.061-.005c-.267-.029-.53-.033-.824-.038-.698-.011-1.67-.025-3.668-.392a68 68 0 0 1-1.746.046c-1.615.021-3.235.006-4.865-.037-4.797-.125-9.596-.612-14.414-1.393l-.25-.008c-1.64-.046-3.687-.151-4.948-.516a34 34 0 0 1-3.545-1.231c-4.889-1.176-9.774-2.656-14.542-4.623l-.638-.266c-1.488-.62-2.966-1.239-4.455-1.862a437 437 0 0 1-4.094-1.735c-.842-.238-1.655-.446-2.406-.644-1.06-.28-1.991-.54-2.733-.851-1.765-.736-3.573-1.981-4.878-2.923l-.605-.436a150 150 0 0 1-3.422-1.737c-.043-.087-.093-.181-.138-.273-.559-1.158-1.694-1.867-3.419-3.003-.336-.221-.693-.458-1.055-.702-.046-.024-.167-.126-.212-.153-.443-.34-.917-.714-1.426-1.133-.593-.487-.744-.938-.868-1.309-.037-.109-.071-.211-.114-.304-.145-.319-.514-.366-.95-.42-.565-.069-1.241-.149-1.694-.853-1.452-2.246-2.742-2.33-3.697-2.384-.282-.016-.537-.03-.762-.095-.731-.209-1.453-.971-1.931-1.664-.378-.551-1.558-1-2.518-1.209-.364-.08-.77-.324-1.251-.607a18 18 0 0 0-.622-.354l.031.019a9 9 0 0 0-1.185-.53 279 279 0 0 1-3.508-1.25q-.32-.117-.621-.224c-.641-.229-1.412-.553-2.194-.88-.934-.391-1.885-.786-2.641-1.026-1.685-1.118-3.36-2.263-5.04-3.402-.861-.585-1.461-1.58-1.646-2.784-.188-1.207.046-2.523.666-3.686.621-1.161 1.587-2.087 2.702-2.595M228.447 375.808c.931-.685 2.179-1.616 4.021-1.16.475.116.764.352 1.031.563.262.208.5.394.839.425.375.035.818-.109 1.312-.265.668-.218 1.45-.461 2.211-.265q.078.022.169.043c.571.14 1.378.349 2.214.785 2.424.09 4.847.224 7.265.388 3.491.238 6.951.541 10.428.882.557.054 1.093.109 1.642.164 1.955.201 3.819.876 5.186 1.923 1.296 1.026 2.323 2.448 1.753 3.65-.029 1.326-.775 2.458-2.137 3.368-1.361.897-3.196 1.437-5.113 1.522-.539.023-1.066.048-1.615.072-2.592.121-5.183.26-7.769.408l-.494.072c-1.209.17-2.336.527-3.471.889l-.772.249c-1.971.615-5.769.396-7.848.303l-.116-.004c-.504-.022-.95-.021-1.51-.016-1.292.014-3.076.017-6.712-.197q-1.587.104-3.124.216c-.838.062-1.692.131-2.469.208-.392.039-.77.082-1.079.122-.157.021-.293.042-.373.054-.031.002-.069.014-.049.008l-2.181.664c-5.673 1.734-10.709 3.349-15.934 5.726-2.762 1.227-5.441 2.508-8.035 3.905l-.355.23c-2.312 1.493-4.978 3.498-6.678 4.628a63 63 0 0 0-4.733 3.392c-1.774 1.664-3.165 3.543-5.691 6.032-5.145 4.732-10.39 8.956-15.605 13.249-2.298 1.883-4.594 3.764-6.876 5.65a2737 2737 0 0 0-5.744 4.759q-.266.22-.528.443a63 63 0 0 0-2.946 3.127c-1.251 1.408-2.327 2.696-3.271 3.71-2.273 2.433-5.059 5.082-7.164 7.105-.347.334-.667.64-.972.936-1.522 1.763-3.07 3.564-4.756 5.368q-.229.118-.47.237c-1.094.54-2.159 1.326-3.494 2.355-1.032.787-2.183 1.734-3.597 2.838a91 91 0 0 1-4.874 3.571c-1.232.84-2.014 1.053-2.644 1.225-.187.052-.361.099-.529.157-.579.2-.98.705-1.445 1.298-.603.772-1.31 1.685-2.629 2.3-2.755 1.288-4.029 2.595-4.732 3.694-.412.624-.681 1.186-.922 1.695-.206.434-.391.829-.626 1.192-.762 1.177-2.281 2.508-3.552 3.426-1.004.726-2.468 2.703-3.524 4.287-.398.598-1.059 1.297-1.849 2.111-.818.844-1.776 1.811-2.724 2.927-.286.335-.55.645-.81.943-1.865 2.161-2.954 3.391-3.853 4.408l-.83.937c-.85.965-1.938 2.125-3.032 3.295-1.309 1.4-2.624 2.818-3.561 3.943-2.802 2.498-5.654 5.019-7.84 7.419a9.4 9.4 0 0 1-1.154 1.088c-.025.045-.12.168-.147.211-1.281 1.238-2.54 1.828-3.802 2.143a7 7 0 0 1-.516.102 4.9 4.9 0 0 1-2.288-.156 9 9 0 0 1-.501-.178 3 3 0 0 0-.271-.095c-.117-.028-.162-.06-.488-.049-.069-.009-.24.034-.581-.05-.193-.033-.671-.272-.855-.674a1.2 1.2 0 0 1-.111-.772c.132-.456.226-.407.284-.459.129-.063.199-.025.277-.005.145.058.266.148.377.247.112.1.21.213.313.322.05.055.1.113.163.152.032.011.07.053.13-.046a.27.27 0 0 0-.009-.196.4.4 0 0 0-.22-.2c-.09-.036-.138-.038-.157-.053-.24-.225-.256-.526-.333-.818-.122-.592-.135-1.242-.09-1.904q.012-.198.036-.4c.106-.959.444-2.005.677-2.793l-.123.174c.325-.758.73-1.46 1.192-2.101 2.679-3.644 5.452-6.583 8.244-9.541 3.4-3.564 6.844-6.975 10.33-10.306l1.383-1.317a209 209 0 0 0 5.662-5.613l.712-.732c1.656-2.254 3.318-4.552 4.619-6.132 1.07-1.303 2.058-2.11 2.917-2.795q.24-.191.465-.373c.455-.377.873-.727 1.26-1.11.285-.282.671-.667 1.142-1.114 1.922-1.871 5.274-4.492 8.345-6.244 1.372-.792 2.991-1.596 4.515-2.386 2.177-1.124 4.163-2.241 4.975-3.039.448-.44.938-.875 1.453-1.309 1.004-.845 2.129-1.763 3.159-2.652 1.44-1.245 2.701-2.423 3.212-3.288.609-1.036 1.372-1.704 2.519-2.707a61 61 0 0 0 3.036-2.811c1.457-1.447 2.615-2.365 3.604-3.135 1.396-1.083 2.452-1.881 3.693-3.448 1.383-1.744 2.994-3.425 4.479-4.501q.211-.154.431-.321c.53-.403 1.084-.865 1.659-1.346.958-.802 1.965-1.648 2.969-2.316.825-.55 1.618-.874 2.32-1.162q.329-.133.628-.264a291 291 0 0 0 1.805-1.526q.106-.17.22-.359c.389-.634.863-1.41 1.581-2.208 1.141-1.265 2.356-2.116 3.635-3.02.997-.706 2.031-1.443 3.085-2.433.717-.674 1.487-1.5 2.24-2.319 1.12-1.218 2.202-2.424 3.084-3.122.334-.265.702-.391 1.073-.524l.004-.001.076-.027c.914-.954 1.81-1.917 2.671-2.884.707-.814 1.497-1.941 2.372-3.138q.189-.331.383-.665c.639-1.09 1.333-2.172 1.693-2.96.388-.862 1.854-2.646 3.551-4.359 1.101-1.123 2.3-2.233 3.239-3.141.55-.533 1.254-.838 1.938-1.111.659-.268 1.319-.523 1.94-.982.321-.238.606-.506.942-.809.294-.265.607-.544.941-.802.316-.242 1.118-.632 2.146-1.104.649-.3 1.344-.608 2.111-.963a116 116 0 0 1 5.61-3.284c.34-.331.608-.672.786-1.027.128-.254.21-.524.295-.8.122-.377.242-.765.494-1.145.197-.298.489-.514.743-.546.117-.014.223.012.319.035.111.027.209.051.298.009.064-.031.111-.106.168-.197.093-.147.211-.336.474-.457.969-.447 2.103-.885 3.225-1.292 1.246-.453 2.468-.865 3.41-1.243 1.056-.427 2.635-.776 4.171-1.088 1.074-.22 2.129-.429 3.011-.66a11 11 0 0 0 1.518-.532c1.273-.415 1.602-.462 2.16-.605 1.433-.342 2.506-.55 3.493-.477.19.017.443.196.769.421.22.161.468.345.758.511a100 100 0 0 1 3.499-.193l.119-.088z"/><path fill="#000" d="M104.593 436.834c.486-.358 1.342-.449 2.428-.231 1.085.221 2.273.775 3.289 1.614s1.807 1.88 2.184 2.951c.377 1.069.266 2.116-.315 2.878q-.352.464-.731.918a29.4 29.4 0 0 1-3.165 3.239q-.54.473-1.089.915c-.053.025-.191.136-.245.158a29 29 0 0 1-4.404 2.606 55 55 0 0 1-4.317 1.83c-.926.756-1.828 1.468-2.486 1.875-.544.336-1.026.365-1.44.392-.284.018-.535.035-.742.148-.11.061-.258.153-.433.263-.724.453-1.886 1.221-3.1 1.554-.543.147-1.222.232-1.868.334-.923.143-1.781.329-2.037.658l-.034.043c-.596.661-1.46 1.094-2.211 1.464-.734.361-1.37.672-1.557 1.078-.228.488-.61.634-1.177.853a7.6 7.6 0 0 0-1.441.699c-.657.417-1.198.602-1.66.764-.645.228-1.136.408-1.5 1.103-.405.772-.886 1.472-1.437 1.822-.252.161-.492.395-.738.642-.326.326-.66.671-1.056.894-.326.184-.718.219-1.065.254a6 6 0 0 0-.309.038q-.296.32-.579.65l.001.198c.005.349.017.773-.117 1.155-.212.606-.643.918-1.094 1.266a6 6 0 0 0-.469.391c-.2.197-.39.419-.55.686-.198.334-.364.752-.525 1.167-.238.615-.462 1.219-.781 1.527-.12.116-.33.143-.54.172h-.003l-.042.006a41 41 0 0 0-1.302 2.867l-.026.292c-.044.472-.077.927.036 1.288.121.393-.062 1.105-.213 1.842-.1.483-.186.977-.187 1.399-.001.246-.234.38-.474.524-.223.134-.453.277-.494.509-.02.116.002.257.028.406.023.131.049.269.049.402 0 .125-.167.345-.371.635a7 7 0 0 0-.392.609 22 22 0 0 0-.102 1.942q.182.23.521.41c.163.086.362.164.566.243.277.108.565.216.79.339.176.096.24.191.157.242a.6.6 0 0 1-.17.053c-.072.016-.136.03-.137.055.001.017.048.04.106.067.093.044.213.1.212.17-.004.262-.06.551-.105.841-.05.32-.089.64-.043.892.051.281-.11.695-.25 1.129-.099.306-.188.615-.2.881a1 1 0 0 0 .002.099c.033.294.168.574.3.844.185.379.362.725.26 1.078-.02.07-.203.186-.431.331-.162.103-.347.22-.514.347.077.416.146.819.213 1.232l.09.027h.002c.69.207 1.633.474 1.264 1.211-.094.187-.311.337-.504.479-.19.137-.36.26-.373.385-.015.144.15.266.33.406.255.194.536.396.398.715l-.03.068c-.098.226-.24.564-.596.959.106.867.21 1.731.32 2.584.186 1.42.4 2.836.683 4.127.139.633-.144 1.39-.75 2.262-.615.862-1.472 1.807-2.521 2.562-1.045.758-2.29 1.184-3.49 1.08-1.2-.101-2.193-.67-2.723-1.473a41 41 0 0 1-2.258-3.875 6 6 0 0 1-.145-.189c-.35-.473-.85-.85-1.352-1.245q-.172-.132-.341-.269c-.86-.697-1.072-2.458-1.154-3.4l-.006-.052c-.02-.223-.062-.43-.11-.676-.109-.57-.266-1.362-.199-3.034-.107-.465-.202-.92-.289-1.39a46 46 0 0 1-.43-2.849c-.653-4.896.28-10.086 2.202-14.348l.058-.214c.38-1.392.974-3.056 1.631-3.941a18 18 0 0 1 2.036-2.338c2.016-2.876 4.182-5.386 6.219-7.858q.691-.848 1.403-1.651a79 79 0 0 1 2.676-2.857c.83-.848 1.67-1.67 2.514-2.474.415-.551.798-1.093 1.158-1.59.507-.698.968-1.308 1.41-1.736 1.063-1.03 2.52-1.831 3.588-2.4q.261-.14.49-.262c.716-.625 1.423-1.244 2.109-1.852q.119.009.242.022c.782.077 1.416-.231 2.151-.757.286-.207.59-.433.929-.676a21 21 0 0 1 2.215-1.406c.57-.309.994-.238 1.335-.178.1.018.194.035.283.041.304.023.445-.266.62-.607.225-.441.509-.972 1.222-.994 2.256-.052 2.752-.979 3.157-1.713.117-.213.224-.406.358-.546.437-.455 1.288-.572 1.978-.52.548.039 1.334-.577 1.863-1.16.2-.22.535-.369.924-.545.402-.181.865-.392 1.293-.739 1.08-.877 1.609-1.334 2.035-1.701.12-.105.233-.201.342-.3.346-.31.785-.656 1.205-1.01q.245-.205.474-.411l-.269.173c.317-.314.599-.622.801-.901a32 32 0 0 0 2.461-1.483q.3-.202.597-.423M201.331 338.638c1.184-.384 2.514-.297 3.706.268a4.87 4.87 0 0 1 2.508 2.8 6.1 6.1 0 0 1 .13 3.715c-.348 1.188-1.049 2.151-2.001 2.741a134 134 0 0 0-4.589 2.985 10 10 0 0 1-.216.2c-.539.487-.938 1.113-1.324 1.741l-.265.432c-.682 1.08-2.611 1.925-3.604 2.413l-.056.027a7 7 0 0 0-.683.393c-.531.34-1.438.897-2.652 1.468l-.065.068c-.238.245-.532.563-.845.913-3.039 3.492-6.811 8.313-10.97 12.442a387 387 0 0 1-3.415 3.36l-.173.213c-1.137 1.409-2.541 3.143-3.633 4.052a55 55 0 0 1-3.215 2.49c-4.127 3.967-8.222 7.953-12.128 12.103q-.529.561-1.06 1.136a102 102 0 0 1-6.602 6.521c-.673.762-1.304 1.497-1.897 2.17-.833.945-1.59 1.768-2.274 2.368-1.646 1.447-3.764 2.698-5.335 3.602l-.721.415q-1.68 1.337-3.357 2.657-.162.018-.328.031a4.2 4.2 0 0 0-1.065.236c-1.007.355-2.056 1.074-3.494 2.043a71 71 0 0 1-3.019 1.946c-.769.465-1.299.485-1.737.505a4 4 0 0 0-.363.025c-.392.054-.61.413-.868.837-.334.549-.737 1.21-1.674 1.451-2.983.766-3.715 2.006-4.27 2.948-.164.276-.312.526-.496.73-.599.661-1.76 1.118-2.713 1.338-.756.175-1.863 1.172-2.628 2.035-.296.33-.766.63-1.336.992-.582.37-1.256.797-1.912 1.371a276 276 0 0 1-3.233 2.8c-.196.169-.392.334-.577.494-.471.409-1.074.885-1.675 1.36l-.426.336c-.906.713-1.815 1.438-2.465 2.047-1.911 1.056-4.207 2.338-5.24 3.001-.113.07-.197.072-.386.153-.554.229-1.268.329-2.176.372-1.21.054-2.558-.181-3.666-.897-1.105-.713-1.955-1.764-2.24-3.091-.214-.989-.014-2.148.558-3.164a5.5 5.5 0 0 1 .802-1.057c2.413-2.372 4.186-3.628 6.201-5.183a118 118 0 0 1 2.92-2.127 102 102 0 0 1 4.404-2.942 229 229 0 0 1 5.268-3.209l.546-.322c1.286-1.194 2.581-2.361 3.545-3.096.797-.607 1.503-.852 2.107-1.061.417-.144.785-.271 1.101-.49.169-.117.397-.286.669-.488 1.114-.828 3.001-2.236 4.964-3.136.874-.4 1.944-.769 2.969-1.128 1.464-.511 2.822-.994 3.349-1.478.59-.543 1.325-1.012 2.06-1.43.425-.243.837-.461 1.246-.68 1.064-.566 1.999-1.072 2.357-1.59.436-.624.989-.882 1.814-1.273a17 17 0 0 0 2.136-1.169c1.001-.652 1.786-1.011 2.448-1.316.93-.43 1.636-.766 2.321-1.701.759-1.037 1.604-2.021 2.43-2.599.376-.263.759-.618 1.152-.991.52-.494 1.055-1.02 1.631-1.41.474-.322.984-.472 1.437-.611a8 8 0 0 0 .404-.131q.47-.493.923-1.002.03-.123.058-.259c.071-.328.149-.709.295-1.102q.097-.247.233-.496c.508-.92 1.213-1.503 1.958-2.119.578-.477 1.185-.978 1.733-1.667.38-.478.75-1.056 1.125-1.639.549-.857 1.096-1.709 1.627-2.168.198-.171.464-.23.732-.294h.004l.055-.012a392 392 0 0 0 3.042-4.075l.196-.41c.328-.671.64-1.317.736-1.838.1-.558.789-1.606 1.508-2.704.47-.717.961-1.466 1.308-2.112.207-.383.59-.569.99-.77.368-.18.756-.378 1.002-.723a4 4 0 0 0 .334-.632c.09-.202.197-.429.321-.637.115-.191.513-.513 1.02-.924.31-.25.667-.54 1.025-.854q.708-.971 1.419-1.941.379-.52.753-1.043a2 2 0 0 0-.034-.856 5 5 0 0 0-.243-.635c-.13-.296-.265-.601-.319-.911-.04-.243.023-.438.163-.488.066-.024.148-.015.221-.009.085.007.16.012.192-.029.022-.031.008-.092-.008-.167-.027-.12-.06-.276.031-.397.344-.452.776-.93 1.204-1.41.475-.532.94-1.058 1.257-1.526.355-.525 1.056-1.129 1.77-1.749.499-.434 1.005-.876 1.4-1.292.387-.41.677-.939.969-1.458.351-.625.711-1.241 1.24-1.609.105-.071.363-.063.68-.046.223.014.486.023.748.011a25 25 0 0 1 1.838-1.861l.02-.131v-.003c.141-.997.418-2.373 1.795-2.747.345-.092.659-.016.937.055.27.072.509.138.722.04.245-.115.415-.393.612-.699.276-.428.589-.9 1.13-.995l.118-.021c.395-.073.97-.169 1.656-.063a63 63 0 0 1 4.231-1.932 97 97 0 0 1 7.157-2.625M224.17 251.491c1.645-.575 3.135-.477 4.162.307 1.035.774 1.554 2.162 1.464 3.905-.084 1.733-.786 3.68-1.931 5.411a281 281 0 0 1-5.762 8.391q-.137.232-.278.464c-.697 1.138-1.202 2.317-1.718 3.499q-.174.404-.358.811c-.852 1.906-3.425 4.613-5.121 6.289a18 18 0 0 1-.818.802 24 24 0 0 1-2.07 1.712c-1.782 1.294-4.484 2.904-9.268 3.826a46 46 0 0 1-3.917.936c-2.187.427-4.263.711-6.132.992-1.786.244-3.752.68-3.889.746-4.66 1.68-7.614 7.927-11.243 16.246l-.19.482c-.836 2.091-1.984 4.708-3.674 7.018a44 44 0 0 1-1.71 2.2 202 202 0 0 1-4.535 5.214c-5.887 7.767-11.694 15.628-17.238 23.636l-.198.285c-1.718 2.536-3.629 5.267-5.571 7.788a220 220 0 0 1-5.485 6.853c-.992 1.374-1.938 2.701-2.817 3.913-1.238 1.706-2.372 3.215-3.383 4.388-2.435 2.827-5.567 5.679-7.92 7.742l-1.085.95a395 395 0 0 1-5.207 5.299q-.238.114-.478.223c-1.664.762-3.371 2.171-5.404 4.11-.374.363-.772.763-1.182 1.189-1.14 1.184-2.429 2.617-3.946 4.353-.976 1.119-1.669 1.553-2.237 1.907a8 8 0 0 0-.473.311c-.509.369-.763.989-1.056 1.719-.383.952-.831 2.089-2.024 3.163-3.796 3.435-4.651 5.649-5.336 7.316-.197.485-.392.941-.632 1.353-.785 1.354-2.443 2.953-3.92 4.007-1.115.79-2.79 2.82-5.02 4.424q-.125.096-.242.191c-.585.468-1.457.959-2.471 1.523-1.075.597-2.282 1.262-3.548 2.103-3.175 2.109-4.878 3.189-6.243 4.06l-1.114.708c-1.142.729-2.574 1.583-4.006 2.447-1.717 1.035-3.407 2.077-4.594 2.935-1.732.891-3.358 1.785-4.694 2.698-.074.065-.32.226-.4.285-1.682.987-3.36 1.97-5.03 2.958-1.23.727-2.55 1.241-3.826 1.492l-.075.05a9.7 9.7 0 0 1-1.845.216c-2.005.06-3.572-.771-3.947-2.034-.381-1.265-.23-2.639.34-4.114a8.3 8.3 0 0 1 .73-1.379l-.06.04c.732-1.101 1.737-2.139 2.905-2.999a730 730 0 0 1 4.77-3.478l-.339.241c2.04-1.713 4.097-3.052 6.1-4.291 4.574-2.787 9.006-5.157 13.468-7.551 3.065-1.635 6.108-3.262 9.167-4.918l.073-.04c.152-.081.328-.187.514-.312 1.35-1.356 2.971-3.645 4.117-5.188.957-1.289 1.838-2.142 2.598-2.881.526-.514.987-.968 1.376-1.504.206-.283.485-.685.818-1.166 1.365-1.966 3.705-5.405 6.385-8.257 1.186-1.263 2.687-2.651 4.173-3.942 1.771-1.545 3.531-2.942 4.593-3.934.201-.188.401-.386.535-.538 1.549-1.726 3.465-3.24 5.174-4.637 1.618-1.315 3.027-2.488 3.617-3.356.707-1.04 1.539-1.694 2.766-2.677a45 45 0 0 0 3.192-2.771c1.504-1.441 2.661-2.389 3.631-3.189 1.37-1.133 2.401-2.002 3.503-3.677 1.222-1.858 2.564-3.727 3.811-5.033l.095-.101c.546-.582 1.108-1.267 1.684-1.984.814-1.011 1.646-2.07 2.503-2.967.705-.737 1.415-1.246 2.041-1.704q.293-.212.557-.418a81 81 0 0 0 1.404-1.971c.042-.131.081-.266.126-.413.217-.725.47-1.608.959-2.608.323-.661.682-1.266 1.082-1.855.542-.797 1.136-1.536 1.747-2.294.815-1.011 1.66-2.057 2.48-3.364.558-.889 1.137-1.943 1.71-2.984.852-1.548 1.697-3.077 2.45-4.025.283-.355.634-.589.981-.819l.005-.002.071-.048c1.542-2.51 3.076-5.022 4.612-7.539l.329-.702c.545-1.15 1.062-2.246 1.291-3.062.243-.875 1.316-2.749 2.469-4.736.754-1.299 1.537-2.638 2.155-3.792q.055-.1.112-.193c.211-.367.572-.657.949-1.003.39-.357.797-.778 1.037-1.364.121-.296.207-.64.296-1.018.08-.335.158-.686.271-1.058.102-.341.492-1.046.996-2.01.311-.596.668-1.291 1.032-2.042.707-2.091 1.475-4.295 2.48-6.554.097-.527.138-1.017.095-1.454-.031-.313-.106-.611-.178-.92-.097-.42-.191-.861-.155-1.393.028-.414.2-.837.427-1.051.105-.1.22-.155.325-.204.12-.057.227-.107.293-.21.047-.075.058-.18.071-.308.022-.205.053-.474.262-.778.775-1.13 1.816-2.37 2.978-3.506 1.285-1.268 2.711-2.382 3.875-3.231.935-.687 2.261-1.394 3.744-1.962a15 15 0 0 1 2.303-.727c1.673-.382 2.981-.492 4.058-.641 1.049-.139 2.043-.398 2.965-.645 1.108-.296 2.107-.572 2.971-.56.175.003.418.163.723.362.216.14.466.299.739.436a48 48 0 0 0 2.95-.661l.076-.108.001-.002c.583-.832 1.214-1.936 2.409-1.935.306-.002.568.134.809.251.234.115.454.211.636.143.208-.078.336-.33.429-.587.115-.312.167-.62.38-.74q.129-.113.276-.21l.147-.095c.483-.317 1.201-.792 2.08-1.119q2.564-2.653 5.1-5.353a391 391 0 0 0 8.344-9.158c1.336-1.513 2.984-2.698 4.621-3.265"/><path fill="#000" d="M43.788 428.515c.557-.235 1.38-.075 2.271.493.889.57 1.762 1.494 2.466 2.578.71 1.081 1.225 2.235 1.504 3.223.272.99.265 1.737-.028 2.13a94 94 0 0 0-1.425 1.957q-.022.07-.046.136c-.118.331-.102.792-.074 1.246q.01.158.016.313c.038.78-.807 1.192-1.266 1.431l-.026.014c-.108.056-.196.128-.297.21-.24.199-.567.461-1.449.798q-.245.284-.493.551a111 111 0 0 1-2.92 3.015c-.366.361-.764.904-1.14 1.642l-.007.087c-.052.567-.079 1.358-.358 1.868-.356.645-.657 1.13-.915 1.527-.648 2.341-1.146 4.989-1.523 7.657l-.008.055a27 27 0 0 0-.237 2.354 23 23 0 0 0-.018 2.095c.129.398.289.769.443 1.1.215.467.417.857.498 1.174.19.763.065 1.574.013 2.143a8 8 0 0 0-.02.26c.177.386.377.716.582.971l.003-.001q-.071.03-.145.068c-.599.331-.504.554-.049 1.034.205.216.493.494.893.934a.85.85 0 0 1 .197.378q.06.048.114.126c.923 1.282 1.66.79 2.184.415.155-.11.295-.21.423-.253.414-.138.863.215 1.178.621.248.322.927.218 1.46.003.202-.08.442-.032.721.024.291.057.629.122 1.01.056.968-.166 1.463-.257 1.855-.329q.169-.03.32-.06c.328-.066.713-.107 1.088-.158.443-.06.859-.141 1.08-.286.148.058.305.1.129.163l-.46.054c.437.064 1.09.065 1.773.041.499-.016 1.134.427 1.752 1.27s1.16 2.014 1.502 3.287c.341 1.272.464 2.556.338 3.598s-.5 1.754-1.052 2c-.764.337-1.56.676-2.561.967-.079-.005-.312.058-.39.047-.794.117-1.274.144-1.765.172-1.794.085-3.225-.013-4.678-.267a32 32 0 0 1-2.955-.68l-.3-.085c-.892.133-1.784.222-2.39.177-.502-.036-.809-.296-1.07-.518-.179-.153-.336-.29-.524-.326-.1-.02-.24-.038-.41-.061-.54-.071-1.382-.192-2.181-.554-.55-.323-2.111-.949-2.45-1.489a4 4 0 0 1-.243-.433c-.17-.355-.379-.918-.618-1.516-.345-.851-.706-1.776-1.098-2.101-.683-.548-1.2-1.604-1.48-2.659l-.01-.052c-.18-.793-.251-1.447-.563-1.746-.372-.357-.361-.761-.314-1.318.034-.387.086-.852.06-1.44-.027-.681.118-1.158.244-1.554.18-.558.324-.956.004-1.534-.356-.645-.569-1.329-.453-1.852.052-.238.047-.51.043-.791-.005-.372-.007-.761.13-1.106.114-.285.382-.508.62-.704q.112-.091.207-.175.015-.339.025-.675-.059-.059-.127-.122c-.223-.214-.496-.479-.619-.791a1.2 1.2 0 0 1-.082-.541c.021-.258.127-.494.236-.746.139-.318.281-.653.258-1.047-.016-.27-.104-.581-.193-.89-.132-.459-.263-.917-.154-1.226.042-.117.207-.213.37-.306l.005-.002.032-.019c-.088-.776-.188-1.563-.286-2.372l-.11-.216c-.177-.351-.346-.702-.6-.942-.276-.261-.405-.883-.52-1.572-.075-.453-.145-.93-.257-1.342-.065-.24.13-.44.331-.641.188-.186.383-.379.383-.623 0-.122-.044-.265-.09-.419a2 2 0 0 1-.097-.427c-.013-.138.134-.41.333-.76.122-.216.266-.462.405-.724.1-.765.254-1.559.481-2.367a1.9 1.9 0 0 0-.355-.64c-.124-.152-.282-.306-.442-.467-.208-.21-.421-.43-.565-.669l-.018-.033c-.112-.199-.109-.372.006-.431a.5.5 0 0 1 .201-.032c.08-.003.15-.004.168-.041.013-.027-.017-.078-.052-.14-.057-.099-.13-.226-.08-.331.194-.396.47-.792.743-1.157.3-.402.597-.771.774-1.091.203-.365.688-.719 1.166-1.036.338-.227.666-.432.91-.645.233-.203.362-.513.486-.807.149-.355.298-.695.616-.803.065-.022.262.058.508.16.174.072.373.156.567.223q.37-.398.76-.766l-.031-.086-.001-.001c-.253-.653-.577-1.566.195-1.593.195-.006.43.107.64.209.207.101.392.191.494.15.115-.048.123-.238.134-.445.014-.292.035-.619.351-.624l.069-.001a2.7 2.7 0 0 1 1.043.155 27 27 0 0 1 1.921-1.12 42 42 0 0 1 3.356-1.583m-3.535 44.229c.015.248.28.249.611.275l-.61-.372q-.002.05-.001.097"/><path fill="#000" d="M49.226 453.543c-.286-.577-.68-1.365-.236-1.041.112.083.277.264.425.429.145.161.276.305.326.319.058.015.016-.116-.027-.263-.06-.205-.132-.431.05-.303l.04.028c.133.089.325.224.651.538.26-.041.532-.067.802-.079.452-.022.9-.004 1.33.013.212.009.725.367 1.473 1.002.747.637 1.645 1.51 2.502 2.477.858.967 1.63 1.953 2.147 2.793.518.838.716 1.47.589 1.762-.205.469-.416.927-.62 1.346q0 .053-.006.103c-.02.242.08.621.175 1.004q.034.131.067.261c.156.654-.39.736-.682.773l-.015.003a.5.5 0 0 0-.184.068c-.14.073-.342.179-.93.108a4 4 0 0 1-.305.238c-.552.382-1.166.653-1.82.858-.687.214-1.414.352-2.152.464l-.036.036c-.242.239-.538.531-.875.484a5.6 5.6 0 0 1-1.04-.25c-1.144.165-2.246.365-3.211.787q-.455.198-.858.466a7 7 0 0 0-.713.543c-.07.209-.119.435-.162.642-.062.292-.121.554-.218.692-.234.331-.721.381-1.082.418l-.166.018a31 31 0 0 0-.486.648l-.131-.104c-.562-.45-.781-.292-1.121-.047a2.7 2.7 0 0 1-.556.329c-.15.063-.372-.116-.552-.262a3 3 0 0 0-.146-.114c-.149-.103-.103.086-.05.31.07.291.156.639-.15.481-.981-.506-.804.169-.67.678.039.15.074.285.076.372.004.284-.31.213-.63.04-.252-.137-.33.223-.313.602.007.143-.076.204-.174.274-.102.073-.221.158-.271.358-.126.505-.204.761-.266.967l-.05.167c-.05.173-.139.349-.23.527-.11.214-.217.429-.264.648-.44.105-.898.175-1.36.249-.236.036-.743-.332-1.425-1.045-.681-.713-1.479-1.707-2.23-2.789-.752-1.082-1.405-2.176-1.833-3.065s-.591-1.496-.47-1.707c.246-.425.49-.849.762-1.238.329-.473.695-.894 1.142-1.201.311-.212.643-.401.986-.566l.106-.051c.081-.448.176-.868.302-1.081.104-.176.313-.109.491-.051.123.04.231.075.281.024q.04-.044.098-.128c.159-.226.422-.606.93-.567.224.017.546.134.857.243.444.156.853.305.902.141.087-.287.394-.3.666-.311.262-.012.49-.022.459-.265-.038-.291.117-.265.344-.227.158.026.35.058.54-.004.222-.074.455-.009.654.047.278.078.49.135.497-.236.007-.411.092-.726.313-.746.1-.009.178-.074.258-.142.105-.09.22-.188.397-.161.147.022.365.185.557.329q.09.069.169.124.108-.077.21-.159l-.036-.136c-.066-.24-.147-.534-.13-.719.031-.295.25-.268.477-.237.177.024.365.047.475-.08.075-.086.12-.242.166-.396.07-.232.138-.458.296-.447.06.004.181.115.304.225l.002.002.025.023c.192-.275.37-.555.549-.845l-.001-.147c-.002-.233 0-.463-.08-.734-.086-.294.002-.558.103-.841.066-.184.126-.371.148-.581.012-.121.164-.023.32.077.146.094.294.191.337.115.022-.039.02-.12.017-.206-.003-.076-.007-.156.007-.215.012-.055.137-.03.296.002.1.018.213.038.32.046.128-.209.266-.421.397-.62a3.4 3.4 0 0 0-.22-.545c-.078-.156-.177-.34-.278-.527-.138-.255-.281-.517-.382-.736-.078-.171-.09-.253-.027-.202.03.023.074.075.114.122.047.053.088.1.095.093.005-.005-.017-.049-.043-.104-.042-.087-.095-.2-.074-.221.08-.073.2-.108.317-.139l.028-.007c.124-.036.24-.073.296-.153.068-.095.31-.037.541.028.167.042.332.084.439.074.105-.01.132-.152.151-.286.022-.16.05-.32.216-.237.034.017.167.168.332.358.117.135.252.288.38.426.1-.069.195-.124.303-.181l-.038-.075z"/></svg>