<svg xmlns="http://www.w3.org/2000/svg" width="289" height="635" fill="none" viewBox="0 0 289 635"><path fill="#000" d="M73.978 6.551c2.045-.405 5.397-.938 9.487 1.674a16.2 16.2 0 0 1 2.383 1.84c.701.651 1.058 1.197 1.378 1.689.316.484.595.915 1.145 1.35.623.494 1.476.933 2.394 1.407 1.296.672 2.75 1.435 3.945 2.563l.258.244c.87.818 2.14 2.026 3.267 3.425a330 330 0 0 1 11.908 9.816c4.937 4.259 9.729 8.61 14.465 13.048a158 158 0 0 1 4.489 4.364c2.991 3.025 5.406 6.462 6.609 9.436 1.216 2.973 1.093 5.175-.025 5.825-1.104.674-2.896.125-5.377-1.329-2.474-1.463-5.453-3.734-8.41-6.336a150 150 0 0 0-4.456-3.774 591 591 0 0 0-10.855-8.667l-.849-.605c-2.097-1.5-4.175-2.721-6.265-3.926-.473-.27-.967-.556-1.442-.829-3.64-2.12-9.866-7.153-13.388-9.828l-.193-.148a103 103 0 0 0-2.585-1.904c-.96-.692-2.055-1.474-3.491-2.526 5.62 7.174 14.934 16.836 22.194 25.233.353.435 1.269 1.286 2.281 2.283 1.02 1.172 2.301 1.78 3.896 5.499 1.466 3.183.237 8.878-2.135 11.106-2.213 2.448-4.305 3.459-6.225 4.37-3.827 1.694-7.304 2.485-10.728 3.204q-.3.07-.603.14c.074.871.008 2.022-.596 3.718-1.498 3.923-5.105 6.965-7.77 8.064-8.604 3.176-12.67 1.745-15.428 2.255-.529.066-.988.18-1.265.255q-.002.05-.001.103c-.01.896.315 2.358.805 3.804.995 2.944 2.55 6.08 4.203 9.154 3.329 6.275 7.31 12.014 10.858 19.27 1.762 3.9 3.349 7.786 5.107 11.339 1.549 3.127 3.259 5.958 5.391 8.305 2.063 2.283 3.592 4.765 4.876 7.261 2.854 5.644 4.562 11.437 5.965 17.217.174.637.342 1.263.507 1.893a247 247 0 0 0 2.032 7.213c1.166 3.932 2.267 7.434 3.091 10.367 1.891 6.895 3.959 14.726 4.409 21.739l.024.465c.047.87.138 1.449.194 1.654.055.125.083.154.14.224 1.624 2.272 4.866 3.91 8.948 5.816q.417.297.856.615c1.785 1.36 4.178 2.602 6.832 5.537 1.629 1.956 3.358 4.361 3.567 4.202.228.089.449.137.874.105 1.584-.037 4.928-2.081 8.682-4.936 2.494-1.853 4.127-2.679 5.552-3.269a42 42 0 0 1 1.258-.497c.477-.182.965-.387 1.506-.596-.062-.008-.149-.005-.068-.457.15-.861.182-2.861.43-5.737.474-7.014-.653-11.504-1.407-14.53a13 13 0 0 0-.901-2.231c-.374-.744-.759-1.411-1.133-2.134-.767-1.88-2.319-3.361-2.92-8.52a12.5 12.5 0 0 1 .728-4.243c.547-1.63 1.522-3.734 2.468-5.616 1.681-3.204 4.239-4.88 6.015-6.169 1.374-.963 3.233-1.914 5.253-2.973 1.959-1.03 4.092-2.198 6.059-3.694-.013-.091-.03-.225-.065-.383-.144-.741-.498-1.802-.857-2.753-.739-1.946-1.472-3.659-2.071-5.248-.35-.919-.67-1.807-.971-2.729-.51-1.569-1.034-3.453-1.335-5.65-.008-.057-.019-.228-.024-.285a425 425 0 0 0-.441-4.524c-.41-3.988-.907-8.035-1.385-11.098-.681-7.999-1.547-16-2.759-23.879a62 62 0 0 1-.595-5.317l-.02-.1c-.12-2.195-.085-4.483.422-6.546 1.008-3.718 2.741-4.894 3.996-4.742 1.337.167 2.151 2.23 3.13 4.622.549 1.294 1.229 2.901 1.896 4.886l-.016-.082a42 42 0 0 1 1.487 5.417c1.73 8.441 3.057 16.886 4.105 25.385.612 5 1.116 10.019 1.487 15.057.464 3.985 2.664 8.064 4.309 14.435.284 1.385.595 2.966.297 5.199-.213 2.188-1.863 5.123-3.893 6.444-4.672 3.394-10.02 5.581-13.487 7.702-.483.303-.904.598-1.222.858-.419.424-.571.743-.554.837-1.214 2.477-1.544 4.158-1.353 4.649-.023-.504.07-.016.332.496.251.541.592 1.217.921 1.894 1.649 3.282 2.617 6.688 2.873 9.506l.003.031c.127 1.496.242 2.846.451 4.208.113.737.275 1.743.454 2.977.323 2.294.755 5.326.819 9.028.012 1.871-.027 3.878-.552 6.334-.282 1.229-.669 2.599-1.584 4.178-.867 1.537-2.674 3.48-5.06 4.298-.19.046-.572.199-.999.415-2.167 1.081-5.421 3.504-8.992 5.594-3.676 2.19-9.484 4.782-14.496 2.522-1.579-.681-2.572-1.568-3.236-2.166-1.844-1.749-2.712-3.173-3.631-4.161-1.038-1.222-3.331-2.584-5.731-3.866-3.732-1.927-7.548-4.36-9.593-6.186a13.7 13.7 0 0 1-2.362-2.539c-1.675-2.301-1.896-5.06-1.951-7.002l-.007-.261c-.059-1.924-.346-4.486-1.084-7.994a509 509 0 0 1-1.955-9.554c-.694-3.552-1.23-6.236-2.516-10.127-1.144-3.466-2.197-7.1-2.907-10.33q-.256-1.156-.471-2.203c-.33-1.602-.803-3.395-1.36-5.234-.735-2.431-1.618-4.916-2.44-7.134-.677-1.828-1.17-3.343-1.68-4.657a22 22 0 0 0-.488-1.162 21 21 0 0 0-2.136-2.778 36 36 0 0 1-.733-.823 46 46 0 0 1-.708-.643 26 26 0 0 1-4.032-4.702c-2.166-3.266-3.381-6.329-4.637-9.443-.721-1.801-1.443-3.635-2.32-5.569a24 24 0 0 0-.957-1.863c-.966-1.712-2.285-3.693-3.611-5.658-1.966-2.906-3.963-5.848-5.14-8.034-.442-.819-.707-1.594-.964-2.363l-.002-.01-.053-.157c-2.928-5.429-6.708-9.969-7.096-18.624.016-.819.11-1.684.39-2.635.491-1.825 1.908-3.718 3.457-4.73 2.233-1.465 3.85-1.777 4.99-2.18 2.077-.744 6.816-.994 10.04-1.947 2.103-.634 2.888-1.437 3.19-2.174-.07-.337-.162-.74-.28-1.243-.103-.487-.255-.971-.352-2.092-.012-.58-.151-1.363.414-2.954.426-1.674 3.064-3.67 4.465-3.747l.263-.057c.758-.171 1.534-.392 2.354-.63.726-.212 1.471-.435 2.255-.647.726-.199 2.373-.458 4.372-.892 1.23-.27 2.598-.61 3.885-1.054.817-.347 1.591-.76 2.181-1.137a7 7 0 0 0-.681-.29c-.411-.15-.827-.25-1.275-.377-.617-.185-1.266-.363-2.235-1.03a6 6 0 0 1-.388-.298c-.429-.289-.833-.67-1.048-1.002-.118-.182-.18-.351-.236-.504-.065-.175-.124-.332-.254-.472-.094-.1-.228-.172-.389-.258a3.5 3.5 0 0 1-.976-.73c-1.407-1.503-2.982-3.255-4.532-4.98-1.725-1.919-3.419-3.803-4.82-5.268-1.571-1.64-3.636-4.157-5.686-6.738-1.439-1.81-2.864-3.648-4.13-5.265-1.257-1.62-2.637-3.134-4.124-5.263-.451-.674-.927-1.369-1.472-2.607-.56-1.162-1.522-3.129-1.956-5.398-.115-.636-.12-1.49.054-2.868.153-.983.3-2.307 1.249-4.2.754-2.058 2.958-4.024 4.7-4.636 2.31-.925 4.763-1.535 7.516-1.614q.19-.046.39-.09zm88.766 153.186c-.046-.012-.157.087-.261.204l.085-.065zM62.074 89.021c.006-.066-.023-.011-.05.136a.3.3 0 0 0 .05-.136m19.188-12.588q.166-.02.367-.076zm-6.496-1.248c-.12.696.04.882.047.92.053.038.06-.195.02-.503a7 7 0 0 0-.067-.417m-3.523-54.172q.109-.034.233-.091z"/><path fill="#000" d="M106.169 26.925c-.384-1.101 7.735-4.952 22.76-4.21 7.373.353 15.939 1.832 24.915 4.46 9.921 2.996 18.793 8.7 27.319 14.688 5.521 3.916 10.838 7.967 16.124 11.955 8.557 6.397 14.857 14.953 20.605 22.26 5.369 6.642 10.22 14.055 14.275 21.407 3.314 7.756 2.884 11.483 4.138 16.618.65 3.256 1.319 6.514 2.012 9.754a662 662 0 0 0 1.14 5.004c2.148 9.252 4.525 17.897 7.228 26.237a72 72 0 0 1 2.375 9.731c.515 2.951.867 5.812 1.196 8.579.376 3.192.737 6.703 1.189 10.511 1.433 14.292 6.247 31.827 10.793 48.724a944 944 0 0 0 5.706 22.04c1.368 5.061 2.721 9.829 4.3 15.505a375 375 0 0 1 1.861 6.906c.327 1.279.656 2.596.979 4.082.154.715.324 1.542.468 2.445.077.497.142.95.202 1.616.033.628.161 1.31-.077 2.992-.227 1.555-1.07 3.354-2.12 4.523a9 9 0 0 1-.197.219c.119.931.283 2.004.457 3.141.464 2.996.969 6.443 1.302 10.172.683 7.472.698 16.133-.385 25.93-.354 3.195-.587 6.735-.801 10.525-.359 8.175-.608 16.609-1.395 25.143a312 312 0 0 1-1.03 9.611c-.67 5.409-1.485 10.839-2.589 16.306-.555 2.725-1.178 5.469-1.99 8.315-.412 1.425-.858 2.857-1.466 4.423a24 24 0 0 1-1.191 2.626 13 13 0 0 1-1.197 1.867c-.161.207-.338.42-.542.643a9 9 0 0 1-.889.852c-.409.306-.962.787-1.848 1.193a173 173 0 0 1-2.019 6.805c-1.694 5.234-3.686 10.498-6.576 15.697-3.052 5.338-6.796 12.002-12.37 16.481-5.76 3.493-.456 19.071-.897 33.909-.325 6.666 1.895 15.521.785 24.974-.272 2.641-.195 4.899.315 7.358-.165.035 1.505 2.714 3.395 4.692 1.925 2.128 4.171 4.336 6.447 6.621 4.556 4.587 9.367 9.471 13.412 15.578 6.659 10.311 6.709 23.237 9.065 27.701 4.894 7.592 10.99 16.073 15.442 25.392.864 1.886 2.026 4.76.692 8.656-1.506 3.868-4.364 5.321-6.14 6.133-3.765 1.524-6.49 1.617-9.209 1.801-5.353.225-10.236-.22-15.1-.788-9.866-1.328-18.372-2.617-29.109-6.005-7.573-3.253-13.437-7.524-19.147-12.618-3.249-2.81-5.926-7.653-6.24-12.238-.4-4.567.585-8.317 1.499-11.583 1.934-6.415 4.037-11.991 3.382-15.517-.035-.213-.07-.439-.105-.661-.26-1.618-.491-3.227-.714-4.831-1.616-11.927-3.14-24.783-4.726-37.569-1.698-14.4-1.497-28.153-2.302-39.814-.375-5.724-.852-11.082-1.257-15.925-.629-7.405-1.159-14.356-1.428-20.829-.89-19.916-.528-35.758-.568-47.856-.009-.151-.027-.287-.011-.188-2.834-15.471-1.284-31.523 1.588-46.436.777-4.174 1.921-8.269 3.096-12.18-3.623 1.023-7.273 2.128-10.922 3.241-8.254 2.499-16.41 5.171-25.052 7.424-8.534 1.438-14.949.881-22.14.535-.219 1.673-.398 3.499-.584 5.311-1.765 17.674-3.356 35.448-5.277 53.228-1.065 9.822-2.463 20.127-4.314 29.508-3.663 13.172-8.221 23.017-12.445 34.373-2.527 6.55-5.198 13.03-7.851 19.45-2.022 4.942-4.097 9.868-5.575 14.65-2.136 8.331.226 19.435 1.903 29.724a232 232 0 0 1 2.222 16.439c.267 2.756.487 5.537.593 8.375.051 1.423.077 2.863.022 4.375q-.016.382-.039.766c.131 8.606-.517 17.059-1.592 25.504q-.044.358-.087.691c-2.742 15.951-14.229 26.282-17.745 35.674-.635 1.949-1.004 3.971-2.166 6.711-.646 1.456-1.868 3.566-4.191 4.844-13.47 7.164-26.933 1.238-35.74-6.327a51 51 0 0 1-5.962-7.107 59 59 0 0 1-2.346-3.696c-.662-1.135-1.46-2.504-1.575-2.595-1.295-1.56-1.575-3.334-1.576-4.487.094-2.805.908-4.179 1.729-5.667 5.02-8.298 12.244-14.954 15.427-21.354 1.21-2.955 1.908-6.547 2.378-10.458-1.075.46-2.104.577-2.809.605-1.345.043-2.383-.152-3.294-.353-1.837-.431-3.337-1.018-4.793-1.633-2.891-1.244-5.492-2.645-8.022-4.07-5.034-2.858-9.678-5.831-13.87-8.467-1.56-.982-3.37-2.102-5.316-3.231-6.16-4.234-5.785-10.191-6.275-14.956-.248-4.94.122-10.068-.082-14.597-.445-8.411.526-16.967 2.589-24.423q.12-.437.25-.882c1.79-6.171 2.995-15.37 3.33-26.142.21-6.65.1-13.945-.358-21.687a450 450 0 0 1-.709-18.549c-.208-8.111.206-16.727-.15-21.582-2.015-15.358-2.89-26.812-3.443-36.347v-.012q-.016-.137-.03-.275a23 23 0 0 1-.049-.568 23 23 0 0 1-.004-.608c-.268-4.804-.463-9.128-.694-13.242a895 895 0 0 1-.158-3.569c-.12-3.365-.26-6.495.106-10.262.129-1.387.546-3.501 1.35-5.284-.563-3.74-1.176-7.373-1.701-10.731-1.666-11.309-3.253-22.726-4.382-34.237-.889-9.327-2.44-19.509-1.948-29.67 1.027-17.253.025-33.562 6.892-52.509a228 228 0 0 1 2.988-5.927c6.019-11.222 11.994-21.42 20.607-30.323.22-.219.929-.729 1.203-.874 6.872-3.242 13.276-5.561 18.94-7.446 6.84-2.248 12.3-3.681 16.228-4.389l-.013.004c4.016-.714 6.274-.841 6.501-.198.222.632-1.566 2.002-5.244 3.907-3.407 1.769-8.455 4.211-14.799 7.283-5.034 2.457-10.81 5.231-16.693 8.506-6.044 7.271-12.048 17.896-17.428 28.328a219 219 0 0 0-2.793 5.685c-4.866 13.514-4.742 31.789-5.357 48.26-.361 9.275 1.125 18.361 2.165 28.205 1.303 12.184 3.149 24.321 5.056 36.566q.306-.13.626-.26c.821-.245 1.454-.441 2.834-.436 1.227-.001 3.116.496 4.457 1.693 2.66 2.618 2.419 4.401 2.638 5.674.136 2.406-.193 3.917-.474 5.466-.623 3.059-1.45 5.736-2.327 8.467-1.75 5.397-3.768 10.694-5.545 15.889q-.175.515-.342 1.027a109 109 0 0 1-.276 2.297c-.162 1.192-.318 2.307-.617 3.717-.04.186-.077.349-.127.55-.053.217-.111.433-.18.658q-.064.217-.15.461l-.074.2a669 669 0 0 0 1.713 22.917c.318 3.286.663 6.709 1.127 9.68.42 15.774-.253 27.56.644 41.282.727 16.908 1.216 33.758-3.61 51.405a59 59 0 0 0-1.306 4.982 67 67 0 0 0-1.38 9.985 67 67 0 0 0 .018 6.912c.216 5.228-.102 9.685.097 13.889.089 2.068.294 4.051.685 5.552.19.742.436 1.346.62 1.642q.058.094.097.143c6.501 3.667 12.313 7.302 17.928 10.383 2.79 1.535 5.53 2.955 8.02 4.005.451.191.902.369 1.332.528a13.5 13.5 0 0 0-.326-2.257c-1.99-11.263-1.66-18.008-3.68-24.274-1.407-5.411-1.288-9.078-1.574-12.745-.4-7.438-.833-13.777-1.648-20.259a283 283 0 0 0-1.371-9.601 206 206 0 0 1-.67-4.519c-1.55-11.394-2.685-26.428-2.13-43.255 1.032-15.295-2.102-30.767-.209-49.694.46-2.747.488-6.185.598-9.742.238-5.282.202-11.641 3.573-18.412 6.482-9.43 13.143-11.106 17.096-16.109 3.21-3.746 6.301-7.465 8.11-11.035q-.145-.132-.291-.267c-2.496-2.37-4.484-5.257-5.58-8.97-.312-.865-.173-2.669.575-3.669.7-1.009 1.329-1.318 1.746-1.552.844-.412 1.245-.451 1.62-.529a8.8 8.8 0 0 1 1.614-.119c.884.011 1.617.085 2.476.241 1.822.31 4.069 1.295 5.6 2.919 1.58 1.658 2.623 3.648 2.883 6.157.014.86-.018 1.69-.088 2.491 7.507 5.249 16.925 10.294 20.05 17.707.687 1.281 1.362 2.584 1.925 3.833 6.609 15.804 1.803 32.076-1.462 46.879-1.993 7.928-4.198 15.626-6.28 22.967-3.45 12.153-6.702 23.374-8.713 32.478-1.343 6.149-2.503 11.37-3.314 15.397-1.592 7.957-3.15 14.98-4.127 23.135-.645 4.947-1.755 9.547-2.88 14.898-2.036 9.546-4.478 20.972-6.403 36.136-.222 1.763-.43 3.559-.628 5.407-1.541 11.767-.556 21.818-4.812 31.584-3.582 6.926-7.749 10.834-11.044 15.074-1.964 2.418-3.745 4.732-5.163 7.019-.205.322-.37.683-.452.925 3.3 5.333 5.043 8.477 8.727 12.144 3.852 3.413 10.192 6.832 16.74 7.024 3.145.083 6.179-.653 8.868-2.193.098.448 1.425-3.443 2.333-6.713 6.61-14.737 16.284-23.942 17.598-34.181.126-.892.253-1.848.366-2.741.547-4.446 1.006-9.295 1.215-14.337a7.8 7.8 0 0 1-1.44-.389c-2.93-1.25-5.18-2.703-4.947-2.401a4.9 4.9 0 0 1-2.646-.753 5.3 5.3 0 0 1-1.337-1.219c-.996-1.373-1.1-2.099-1.34-2.833a18 18 0 0 1-.413-1.945 37 37 0 0 1-.365-3.417c-.142-2.188-.166-4.309-.15-6.407.04-4.201.258-8.331.563-12.46.222-1.548.099-3.493 2.53-5.964 1.259-1.202 3.363-1.73 4.797-1.529a7.4 7.4 0 0 1 2.578.767l-.158-.764c-1.224-7.343-4.18-15.982-2.396-28.842.128-.635.281-1.273.467-1.908 4.195-13.091 9.279-23.51 13.545-34.698 1.357-3.452 2.713-6.885 4.086-10.378 2.734-7.12 6.218-15.335 8.077-22.157 1.047-5.676 1.964-10.758 2.71-16.637a421 421 0 0 0 1.427-12.593c.674-6.799 1.297-13.962 1.906-21.076.962-11.244 1.865-22.419 2.771-32.137.234-2.41.423-4.635.788-7.061.1-.618.202-1.233.416-2.035.119-.419.238-.838.538-1.476.298-.592.821-1.59 2.137-2.398 1.352-.801 2.605-.763 3.181-.733.625.044.941.114 1.205.156.499.088.756.125 1.024.145.439.029.86.056 1.285.082 4.375.265 8.137.496 11.818.564l.048.002c.254.004.499.007.749.009 2.207-.089 4.734-.257 6.244-.623 8.061-2.172 16.327-4.944 24.564-7.522 4.128-1.3 8.271-2.595 12.489-3.806 2.12-.605 4.248-1.191 6.479-1.703 1.147-.257 2.241-.496 3.625-.663a12.055 12.055 0 0 1 1.15-.088c.376-.008.988-.023 1.765.14.464.108 1.281.301 2.183 1.066.597.502 1.193 1.372 1.405 2.304.221 1.022.11 1.54.009 2.058a5 5 0 0 1-.449 1.201c-.099.184-.132.235-.19.33a7 7 0 0 1-.16.247 7 7 0 0 1-.639.79c-1.073 1.067-1.625 1.171-2.06 1.396-.428.183-.727.287-.988.383-.511.183-.848.315-1.056.422l-.06.031c-1.532 5.161-2.981 10.02-3.863 15.023a206 206 0 0 0-.949 5.669c-.346 2.448-.647 4.92-.885 7.366-1.249 11.629-.393 22.553 1.266 29.982.097.552.126.887.16 1.225.545 8.656.416 27.185 1.76 47.919q.132 2.147.293 4.314c.79 10.74 2.198 21.897 3.004 32.204.284 3.558.48 6.953.655 10.142.397 7.305.422 14.14.748 21.045.127 2.663.299 5.336.575 8.027.414 4.003.867 8.108 1.417 12.422.47 3.686 1.023 7.666 1.62 11.902.526 3.728 1.083 7.671 1.67 11.761.218 1.494.508 3.767.926 6.441 1.084 6.313-1.28 13.063-3.248 19.115-.901 2.828-1.686 5.676-1.692 7.944.02 2.277.561 3.699 2.378 5.438q.734.677 1.506 1.341c4.342 3.609 9.368 6.95 14.152 8.898 12.417 3.345 29.254 6.588 41.577 5.262-.987-1.553-1.937-2.877-2.937-4.221-1.505-2.017-3.115-4.072-5.31-6.989-1.711-2.278-3.705-5.063-4.979-7.109a44 44 0 0 1-1.419-2.463c-.133-.246-.272-.505-.401-.748-.552-.97-.947-1.856-1.33-2.767a62 62 0 0 1-1.122-2.857c-.587-1.623-1.185-3.621-1.766-6.354-1.221-5.85-2.51-11.558-4.926-15.189-2.161-3.288-5.038-6.585-8.17-9.845-2.762-2.885-5.72-5.718-8.712-8.851-2.879-3.381-6.39-5.78-8.556-13.382-.888-4.081-.961-8.392-.595-11.916.037-.388.068-.759.095-1.137.632-5.359-1.074-12.31-.905-22.757.244-5.419-.589-11.436-1.3-18.405-.809-6.899-.922-18.964 7.297-25.867 1.766-1.541 2.247-1.943 3.173-3.019.858-1 1.719-2.193 2.541-3.424 1.301-1.952 2.571-4.108 3.813-6.346 2.822-5.11 4.877-11.271 6.576-17.474.466-1.699.901-3.397 1.362-5.172.235-.896.459-1.766.767-2.814.178-.571.274-.999.739-2.105a10 10 0 0 1 .471-.939c.083-.142.128-.225.315-.509a8 8 0 0 1 1.557-1.724q.095-.078.199-.159a9 9 0 0 1 .357-.258c.477-.34 1.186-.714 2.044-.979l.014-.046c.701-2.599 1.289-5.243 1.818-7.764.364-1.736.947-3.882 1.617-6.615.474-1.937.997-4.198 1.503-6.772.376-3.056.702-6.116.988-9.192.77-8.258 1.022-16.675 1.432-25.317l-.02-1.283-.001-.021c-.036-2.725-.066-5.759.101-9.234.323-8.121.446-17.855-1.2-30.387-.447-4.64-1.354-7.3-.197-12.91l.042-.151c.521-1.961 1.495-2.989 2.138-3.565l-.063-.3c-.784-3.548-2.15-7.899-3.637-12.662-2.097-6.686-4.464-14.22-6.307-21.942l-.4-1.682a496 496 0 0 1-2.499-11.015c-.721-3.4-1.61-7.138-2.449-10.936-3.563-12.824-6.608-26.296-7.887-39.89-1.007-9.51-1.043-18.67-3.416-26.662a328 328 0 0 1-1.907-6.983c-3.066-11.731-5.531-23.556-7.722-35.362-.937-4.792-1.755-11.228-2.713-13.271-3.841-7.169-8.027-13.74-12.978-20.058-6.001-7.884-11.352-15.221-18.393-20.637-5.248-4.075-10.438-8.142-15.703-11.987-8.1-5.892-16.227-11.39-24.103-14.296-8.287-3.01-16.084-5.12-22.821-6.367-13.631-2.563-21.69-1.389-21.959-2.773M276.267 602.19c.244-.122.216-.248-.124.059q.069-.03.124-.059M99.144 536.66a221 221 0 0 0-.387 6.682c-.12 2.919-.178 5.68-.103 8.229.04 1.27.113 2.489.254 3.539.02.152.043.303.067.445 1.249.358 2.196.929 2.904 1.323.527.311.982.583 1.392.818a112 112 0 0 0-.171-4.439c-.344-5.852-1.464-12.817-3.956-16.597M77.905 342.374c-2.336 4.358-5.715 7.887-8.536 11.545-1.964 2.343-4.16 4.253-6.343 6.03-4.566 3.628-8.514 6.527-9.425 8.344-2.321 4.632-2.411 9.284-2.726 13.124-.116 1.844-.194 3.62-.3 5.459-.124 2.082-.24 4.261-.604 6.63-.598 3.86-.442 8.31-.095 13.336.64 9.204 1.957 20.538 1.168 35.266-.045.818-.088 1.689-.126 2.536-.713 17.682.392 31.943 2.135 43.389 3.133 19.108 2.988 32.927 5.158 41.083q.475 1.441.863 2.842c.868 3.11 1.422 6.102 1.834 8.988 1.83-13.08 4.362-25.383 6.637-36.097.745-3.609 1.492-7.127 1.858-10.073q.208-1.763.45-3.449c1.732-12.484 4.82-24.186 7.284-36.009 2.678-12.086 6.027-23.655 9.178-35.31.48-1.54.965-3.091 1.454-4.669 1.514-4.885 3.06-10.08 4.53-15.663 2.566-12.366 8.967-29.01.628-44.411-2.49-4.898-7.273-8.372-13.802-12.149q-.602-.364-1.22-.742m170.231 63.347.001.018-.001-.025zm14.759-1.555.008.058q.006.033.006.021l-.015-.083zm-1.403-118.145c-.038.351-.016.483-.007.515.013.045.024-.001.027-.072a4 4 0 0 0-.02-.443"/><path fill="#000" d="M130.063 94.085c-.254-.597-.582-1.427-.087-1.134.125.075.297.253.45.415.151.158.285.3.347.308.07.009.048-.137.023-.294-.036-.219-.067-.47.139-.354l.045.024c.149.08.363.204.71.508.351-.09.708-.16 1.082-.225.614-.1 1.256-.173 1.905-.245.317-.033.882.33 1.578 1.041.342.361.714.786 1.076 1.265.172.244.368.488.526.76.183.253.341.566.243.896.953 1.083 1.405 2.168 1.818 3.077.38.906.511 1.541.38 1.792-.22.412-.438.827-.673 1.233l-.012.1c-.041.244.039.627.11 1.017l.05.265c.122.661-.444.735-.757.777l-.018.003a.7.7 0 0 0-.198.072c-.16.081-.375.189-1.015.146a5 5 0 0 1-.354.266c-1.312.893-2.918 1.381-4.591 1.805l-.044.043c-.289.282-.654.638-1.042.636-.495-.001-.866-.065-1.185-.119l-.056.014.581-.479c-1.249.516-2.457 1.08-3.484 1.834q-.492.36-.919.781-.394.391-.746.821c-.056.246-.09.507-.116.743-.042.337-.075.634-.17.816-.227.436-.767.657-1.165.819l-.184.077q-.239.427-.469.864l-.16-.066c-.679-.286-.904-.041-1.258.344a4.3 4.3 0 0 1-.585.553c-.16.121-.43.009-.648-.084a3 3 0 0 0-.176-.071c-.177-.059-.106.132-.019.353.113.286.245.634-.116.572-1.155-.191-.884.479-.675.98.06.148.114.282.126.376.037.304-.328.346-.708.277-.147-.028-.239.064-.281.208l.162-.179c-.013.125.033.298.11.463.057.124.011.186-.04.26a.36.36 0 0 0-.07.343c.116.445.164.695.2.897l.028.167c.031.174.027.372.02.581-.007.249-.016.511.035.745-.368.342-.777.692-1.19 1.058-.211.183-.854.145-1.809-.123-.955-.272-2.142-.742-3.319-1.333s-2.263-1.262-3.047-1.874c-.781-.614-1.186-1.123-1.153-1.42.074-.606.152-1.216.289-1.826.171-.748.423-1.501.917-2.281a10.5 10.5 0 0 1 1.414-1.767q.027-.166.055-.324c.06-.029.161-.222.222-.247.032-.402.087-.773.181-.997.093-.224.336-.229.54-.229.141 0 .271-.005.32-.077.026-.039.056-.1.093-.174.15-.299.408-.81.983-.953.255-.063.632-.057.996-.054.515.01.996.018 1.035-.177.065-.341.414-.471.723-.583.293-.107.551-.202.491-.455-.072-.301.107-.331.368-.371.18-.026.406-.065.614-.2.243-.158.516-.172.746-.182.327-.017.568-.027.543-.433-.029-.45.041-.824.289-.921.113-.044.196-.143.283-.247.113-.136.232-.278.439-.313.171-.028.431.074.663.163q.109.042.203.076.117-.122.228-.246-.025-.064-.055-.135c-.095-.237-.211-.528-.204-.737.012-.333.259-.375.524-.422.208-.038.419-.072.537-.247.08-.121.121-.307.162-.491.061-.273.124-.545.305-.586.069-.016.218.064.366.143l.002.001.03.017q.297-.544.573-1.104l-.011-.159a2.6 2.6 0 0 0-.092-.648c.132-.046.396-.412.533-.439a1 1 0 0 0-.028-.134c-.076-.305.061-.612.201-.931.094-.212.192-.43.234-.659.025-.134.193-.05.372.033.165.077.335.157.394.067.029-.045.034-.133.039-.226.004-.081.008-.169.029-.235.019-.06.169-.055.357-.048a4 4 0 0 0 .375 0c.175-.249.365-.501.546-.74a2.6 2.6 0 0 0-.2-.561c-.074-.16-.172-.346-.271-.535a10 10 0 0 1-.37-.747c-.073-.175-.076-.262-.006-.217.032.022.08.07.123.115.049.05.093.096.103.088.007-.007-.013-.054-.038-.11-.039-.09-.091-.204-.063-.23.107-.094.261-.153.41-.208.164-.06.331-.125.421-.232.101-.12.379-.088.664-.06.197.02.389.043.527.012.135-.03.186-.189.234-.342.055-.183.118-.366.312-.302.039.013.178.16.351.346.123.13.263.281.398.416.13-.089.271-.175.409-.25l-.032-.079zM128.07 185.761c.144-.049.489.018.944.156.282.084.605.197.95.329.363.028.746.09 1.132.19a8 8 0 0 1 1.553.569c.219-.032.448-.104.684-.232.17-.092.352-.215.542-.337.259-.166.532-.332.806-.415.214-.064.374-.024.396.098a.5.5 0 0 1-.027.197c-.021.076-.039.143-.011.167.021.017.076-.001.142-.022.106-.032.244-.071.327.003.305.275.579.636.812.989.261.392.475.777.692 1.052.245.31.358.887.41 1.452.038.394.052.785.103 1.103.051.312.239.596.411.895.206.355.388.737.267 1.094-.024.072-.214.18-.454.306-.17.089-.364.188-.545.291.027.394.02.801-.023 1.212l.08.051c.257.163.551.368.751.612.301.131.451.26.136.348-.139.039-.386.04-.608.041-.218 0-.413 0-.459.034-.052.04.072.113.205.193.188.112.396.243.174.305l-.049.014c-.158.043-.394.113-.849.138a8 8 0 0 1-.225.349q.35.41.632.784c.59.789.868 1.351.786 1.582-.164.461-.346.934-.59 1.394-.299.559-.694 1.106-1.297 1.578a8.4 8.4 0 0 1-1.725 1.032c-.229.377-.524.75-.836 1.037a3 3 0 0 1-.452.355c-.36.223-.717.146-1.006.07-.201-.053-.375-.105-.531-.058-.084.026-.196.07-.336.118-.555.205-1.651.466-2.589.048-.412-.18-.848-.534-1.204-.894-.517-.516-.864-1.033-1.146-1.035-.259-.003-.498-.112-.703-.265a3 3 0 0 1-.485-.487c-.279-.337-.479-.637-.773-.59-.353.054-.453-.171-.568-.494-.08-.226-.167-.5-.357-.794-.219-.343-.245-.685-.254-.967-.012-.402.009-.677-.44-.868-.5-.216-.901-.612-.923-1.031a2 2 0 0 0-.096-.447l-.046-.156c-.083-.279-.152-.588-.062-.88.074-.24.32-.443.542-.603q.105-.076.194-.141a12 12 0 0 1 0-.491l-.127-.094c-.223-.167-.49-.394-.591-.664-.159-.429.07-.753.323-1.039.198-.227.412-.435.503-.737.062-.207.081-.471.115-.735.049-.39.139-.782.367-.922.086-.052.261-.014.432.029l.003.001.035.007q.07-.136.144-.27c.229-.416.48-.812.768-1.196l.04-.188c.071-.304.162-.602.152-.921-.01-.345.301-.752.73-1.164.279-.27.612-.542.908-.816.174-.161.432-.067.688.041.241.1.48.213.711.13.117-.042.238-.131.379-.223.124-.081.262-.164.418-.218m-4.559 9.165a2.9 2.9 0 0 0 .844 1.623c.512.463 1.078.933 2.605 1.289.757.169 1.414.111 1.861-.016l.099.005c.466.015.827-.035 1.022-.167-.076-.112-.26-.204-.471-.203-.305.019-.442-.031-.63-.049-.354-.043-.65-.129-.943-.208a32 32 0 0 1-1.575-.477c-.921-.304-1.485-.531-1.596-.665a7 7 0 0 1-.513-.751l-.068-.051c-.127-.097-.369-.212-.635-.33m5.798.45-.014.176c-.009.158.008.008.015-.188zm.014-.114c.048.407.057.235.006-.05zm-.009-.079v-.046c.071.345.059.593 0 .046m-.187-.67-.004-.013c-.051-.139-.047-.102.004.013M143.152 341.6c1.289.047 2.535.848 3.885 2.717 1.335 1.856 2.596 4.569 3.499 7.528.383 1.26.772 2.511 1.172 3.773a730 730 0 0 0 3.512 10.773q.15.376.297.752c.728 1.865 1.596 3.534 2.471 5.214.201.387.399.764.6 1.158 1.516 2.946 3.079 9.076 3.915 12.503l.047.188c.198.809.41 1.581.651 2.474.559 2.155 1.417 5 2.453 11.461a74 74 0 0 1 1.071 5.788c.136.968.253 1.979.333 2.997 1.223 14.515.584 29.356.746 42.87.142 4.206.232 8.429.295 12.605l.045.737c.295 4.841.624 10.712 1.025 13.645q.08.651.177 1.239c.661 3.635 1.282 6.332 1.795 8.578 2.465 8.26 5.517 17.287 9.086 24.485.538.046 1.178.19 1.921.532 1.973.907 3.812 3.182 4.311 5.212.566 2.034.432 3.697.234 5.15-.444 2.877-1.382 5.21-2.166 7.287-.11.29-.22.579-.303.813-.935 3.436-4.928 6.44-7.993 6.847-3.119.611-5.722.301-8.177-.049-4.657-.739-8.836-2.002-12.936-3.097q-.225-.06-.454-.124c-.91-.223-1.962-.441-3.321-1.109-1.371-.649-2.735-1.958-3.46-3.045a46 46 0 0 1-1.442-2.094c-1.948-2.997-3.317-5.974-4.131-8.525-1.172-3.54-1.637-7.668-1.878-10.841-.294-2.702.497-5.069 1.572-6.916a44 44 0 0 1-.523-2.044c-.456-1.959-2.03-5.596-3.338-8.297-.491-1.01-1.008-2.444-1.621-4.126-.633-1.734-1.368-3.733-2.301-5.817a336 336 0 0 0-3.779-8.163 9 9 0 0 1-.239-.724c-.248-.792-.468-1.482-.675-2.133-.214-.673-.412-1.29-.613-1.909-.637-1.96-1.397-4.401-2.191-6.86-.946-2.937-1.949-5.925-2.79-8.159a635 635 0 0 0-5.196-17.873c-.865-2.836-1.323-5.718-1.232-8.134-.013-.035-.043-.143-.054-.178q.021-.303.054-.593c.308-2.593 1.287-4.078 2.555-4.404 1.283-.33 2.808.676 4.316 2.511q.171.206.34.425l-.043-.138c1.488 1.792 2.911 4.326 3.97 7.129 2.309 6.103 4.549 12.28 6.603 18.515a312 312 0 0 1 5.533 18.659c.487 1.167.96 2.33 1.423 3.5 2.074 5.244 3.948 10.525 5.758 15.756l.558 1.612c.581 1.326 1.163 2.646 1.725 3.922 2.362-1.477 4.696-2.621 6.787-3.733.243-.064.457-.112.69-.172.349-.081.707-.189.943-.256.627-.286 1.272-.58 2.02-.845-.693-1.575-1.596-4.061-2.435-6.742q-.156-.495-.304-.988c-.68-2.287-1.084-4.546-1.403-6.334-.218-1.222-.138-2.379-.042-3.533.089-1.08.192-2.173.091-3.341-.05-.58-.15-1.208-.256-1.883-.092-.58-.19-1.206-.263-1.855-.068-.6-.041-1.96-.011-3.683.019-1.052.037-2.28.036-3.539a871 871 0 0 0-.538-6.143c-.123-1.379-.213-2.73-.291-4.069-.167-.715-.372-1.334-.625-1.826-.182-.353-.395-.642-.613-.95-.297-.423-.604-.836-.852-1.439-.193-.454-.276-1.014-.205-1.377.034-.171.1-.303.159-.423.069-.138.129-.261.125-.411-.003-.109-.054-.219-.116-.354a2.2 2.2 0 0 1-.237-.933c-.038-1.606-.021-3.424-.008-5.194.015-1.966.022-3.883-.049-5.403-.079-1.704.042-4.13.136-6.555.066-1.692.119-3.387.098-4.833-.021-1.421-.208-2.887-.4-4.304-.21-1.557-.427-3.04-.428-4.361q.003-.151.011-.304c.012-.233.181-.556.386-.958.145-.286.304-.639.439-1.022a78 78 0 0 0-.876-4.927l-.121-.165-.002-.002c-.923-1.24-2.209-2.918-2.414-5.729-.052-.716.064-1.221.172-1.663.105-.437.194-.842.096-1.352-.112-.578-.432-1.233-.777-1.924-.489-.988-1.039-2.088-1.173-3.306l-.031-.269c-.103-.892-.258-2.209-.199-3.585a1168 1168 0 0 1-2.917-11.328 554 554 0 0 1-3.596-15.172 369 369 0 0 1-.859-3.984c-.655-3.141-.783-6.327-.263-8.82.502-2.49 1.715-4.086 3.023-4.014m27.859 172.865c-.6 1.095-1.312 1.62-1.787 2.094-.318.272-.615.5-.905.72-.992.748-1.792 1.616-2.748 2.566a22 22 0 0 1-2.186 1.937c-1.392 1.028-3.59 1.659-5.651 1.263a9.6 9.6 0 0 1-1.803-.51c-2.705-1.342-4.232-2.761-5.262-4.062.365 1.679.909 3.186 2.025 4.981a58 58 0 0 0 2.352 3.426c.296.304.149.114.453.271.301.133 1.03.363 1.75.593l.1.032c1.224.387 2.615.769 4.041 1.147 1.944.515 3.95 1.014 5.719 1.503 1.455.403 2.601.837 3.616 1.166.321.103.614.193.91.269 1.105.06 2.156.017 3.012-.17q.195-.103.379-.229c.644-.432.936-.955 1.073-1.422a9 9 0 0 0 .202-.653c.718-2.207 1.42-3.667 1.919-5.257.294-.785.413-1.648.443-2.263q-.108.015-.227.029c-.5.038-1.26.033-2.141-.325-.883-.345-1.657-1.073-2.043-1.661a21 21 0 0 1-.458-.649 44 44 0 0 1-2.783-4.796m7.572 6.584c-.009.013.011.038-.115.003q.09.04.174.075c-.016-.076-.035-.106-.059-.078m-19.708-8.024c.106.069.144.083.07.026a.4.4 0 0 0-.07-.026m4.984-13.9q-.19.086-.378.189c-1 .566-1.773.9-2.526 1.242-3.077 1.337-5.401 2.424-6.496 3.381q-.194.168-.387.326c.705 1.676 1.168 2.977 1.597 4.08.363.934.718 1.748 1.155 2.413.241.368.578.838.961 1.281.241.306.535.569.771.756 1.48-.955 2.782-1.852 3.348-2.369.158-.133.25-.221.266-.171.021.044-.035.266-.013.578.238-1.589.512-2.231.744-3.06.236-.779.45-1.49.632-2.174.824-2.902.763-5.235.326-6.472m-.743-1.324a1 1 0 0 0 .105.162q-.052-.082-.105-.162M9.67 200.607c1.039-.681 2.274-.895 3.534-.65a5.56 5.56 0 0 1 3.245 1.972 5.38 5.38 0 0 1 1.176 3.617c-.061 1.292-.636 2.491-1.485 3.29-.476.448-.913.872-1.326 1.296l.104-.091c-1.052 1.138-1.98 2.284-2.66 3.361-.368.581-.66 1.136-.877 1.653a69 69 0 0 0-.665 3.989 51 51 0 0 0-.445 5.935c.345 1.532.75 3.048.961 4.124.174.885.084 1.563.013 2.147-.05.401-.089.763-.022 1.109q.031.162.084.389l.09.388c.313 1.356.845 3.636.89 5.773.02.951-.062 2.073-.135 3.139-.104 1.53-.183 2.953.062 3.619.428 1.16.562 2.566.695 3.803.127 1.186.252 2.216.604 2.734.42.615.463 1.222.531 2.118a16 16 0 0 0 .335 2.395c.257 1.155.32 2.015.374 2.745.08 1.027.147 1.808.782 2.784.707 1.093 1.332 2.258 1.572 3.257.11.456.304.963.506 1.477.269.686.559 1.41.7 2.112.117.583.057 1.129.005 1.609-.016.15-.032.295-.04.433.178.433.361.87.546 1.295q.102.082.215.169c.377.292.846.663 1.224 1.179.603.826.827 1.686 1.071 2.593.195.714.392 1.436.804 2.204.282.524.661 1.072 1.048 1.627.573.822 1.142 1.612 1.367 2.264.082.239.038.505-.005.769v.004l-.01.055q.352.57.715 1.142c.646 1.021 1.317 2.06 1.988 3.077l.316.327c.515.535 1.008 1.037 1.464 1.306.49.284 1.233 1.276 2.019 2.314.515.682 1.05 1.385 1.542 1.926.286.316.338.743.391 1.183.05.41.099.829.346 1.182.123.176.299.344.484.521.164.156.337.322.492.51.145.174.314.654.532 1.264.134.377.29.805.468 1.247q1.066 1.54 2.125 3.087c.256.151.533.251.831.284.215.023.449.013.688.003.326-.014.663-.028.977.04.246.053.412.189.413.344 0 .072-.035.147-.066.215-.035.079-.066.15-.037.196.021.033.084.043.161.056.124.021.283.048.367.183.313.501.62 1.103.918 1.688.335.656.66 1.291.982 1.765.361.532.664 1.406.971 2.287.212.609.432 1.23.665 1.725.226.482.605.919.965 1.329.432.49.857.979.987 1.512.026.108-.078.324-.206.597a7 7 0 0 0-.276.646c.346.579.689 1.166 1.023 1.753l.108.019h.002c.83.145 1.969.35 2.075 1.536.027.302-.094.573-.204.817-.107.24-.205.451-.136.645.078.219.33.38.602.552.378.236.813.519.866 1.015l.012.107c.037.351.108.899-.024 1.54a193 193 0 0 1 1.894 3.923c1.029 2.186 2.035 4.402 3.038 6.6.486 1.068.553 2.341.153 3.533-.38 1.23-1.286 2.12-2.234 2.993-.998.851-2.485.898-3.73.726-1.274-.209-2.388-.866-3.123-1.797a503 503 0 0 1-3.567-4.576q-.11-.105-.22-.214c-.417-.424-.891-.737-1.405-1.067l-.478-.287a21 21 0 0 1-.463-.284c-1.159-.717-2.165-2.869-2.71-4.043l-.031-.064a12 12 0 0 0-.44-.829c-.406-.716-.938-1.66-1.78-3.83a85 85 0 0 1-1.045-1.704c-3.696-6.184-6.91-12.65-9.964-19.227l-.146-.237c-.956-1.542-2.13-3.457-2.627-4.806a51 51 0 0 1-1.27-3.9q-1.235-2.786-2.46-5.592a358 358 0 0 1-4.398-10.54 789 789 0 0 1-2.03-5.119 360 360 0 0 1-1.827-4.741c-.451-.877-.909-1.725-1.321-2.502-.583-1.101-1.088-2.09-1.408-2.932-.778-2.041-1.218-4.484-1.506-6.294l-.133-.832a207 207 0 0 1-1.267-4.165q.044-.159.093-.321c.403-1.356.077-2.818-.388-5.142a62 62 0 0 1-.625-3.573c-.126-.892.063-1.396.218-1.805.046-.121.09-.233.12-.345.107-.381-.138-.73-.424-1.136-.372-.525-.818-1.166-.664-2.121.187-1.173.18-2.065.063-2.766-.196-1.186-.653-1.875-1.035-2.476-.181-.281-.344-.541-.447-.815-.337-.886-.217-2.223.05-3.23.205-.802-.108-2.348-.421-3.567-.12-.46-.115-1.076-.09-1.816.026-.761.073-1.639.023-2.599-.118-2.427-.032-3.752.03-4.803a30.121 30.121 0 0 1 .29-2.765c.024-.178.226-.673.278-.845.15-.445.32-.89.506-1.324.659-1.552 1.495-2.929 2.103-3.941 1.443-1.624 2.953-2.913 4.447-4.062.023-.024.103-.084.125-.108a51 51 0 0 1 1.831-1.259M82.86 211.733c1.204-.601 2.55-.745 3.788-.37 1.24.364 2.285 1.236 2.925 2.453.641 1.211.82 2.65.526 3.991a188 188 0 0 1-1.55 6.54q-.022.179-.047.356c-.128.883-.066 1.767-.008 2.653q.02.306.035.613c.08 1.556-1.162 4.044-1.87 5.401l-.037.075c-.167.322-.305.636-.467 1.004-.39.874-.907 2.063-2.374 4.384q-.464 1.09-.97 2.174a76 76 0 0 1-4.159 7.744c-1.483 1.996-2.362 7.188-2.647 12.145l.015.29c.1 1.905.311 4.321.194 5.862a107 107 0 0 1-.428 4.443c.065 4.965.308 9.984.732 15.011.113 1.352.259 2.682.447 4.019a63 63 0 0 0 2.518 10.846c.432.954.885 1.82 1.323 2.631.613 1.129 1.184 2.109 1.581 2.938.954 2.006 1.796 4.35 2.519 6.045.116.275.232.539.336.772q.382.601.774 1.168c.023.031.075.134.096.166q.889 1.428 1.744 2.879.008.183.012.374c.033 1.577.824 3.118 1.959 5.624a52 52 0 0 1 1.6 3.914c.356.996.288 1.602.233 2.093-.017.145-.033.281-.037.414-.016.453.305.811.68 1.24.487.554 1.071 1.24 1.104 2.374.083 3.598 1.02 4.897 1.771 5.935.217.303.412.58.55.877.447.966.487 2.472.34 3.62-.11.91.381 2.612.835 3.92.173.492.242 1.183.305 1.99.065.838.124 1.804.297 2.842.43 2.622.546 4.033.646 5.172.027.322.05.623.071.925.07.958.088 2.14.075 3.337-.015 1.438-.075 2.893-.077 4.005q-.086.427-.176.856c-.006.088-.07.345-.081.433-.71 2.482-1.61 4.943-2.47 7.16a5.6 5.6 0 0 1-2.603 2.941c-1.192.635-2.556.815-3.829.474-1.27-.346-2.359-1.199-3.03-2.413-.67-1.21-.856-2.672-.566-4.004.515-2.337.943-4.484 1.275-6.682l-.07.369q.042-.507.078-1.009c.22-3.1.294-6.175.284-9.236a83 83 0 0 0-.321-7.071c-.531-1.75-1.121-3.455-1.47-4.665-.285-.998-.284-1.77-.29-2.438-.003-.459-.012-.868-.126-1.254a21 21 0 0 0-.272-.826c-.47-1.383-1.345-3.688-1.837-5.932-.215-.998-.383-2.198-.574-3.35-.27-1.645-.588-3.194-1.013-3.85-.747-1.156-1.29-2.622-1.804-3.923-.444-1.127-.86-2.123-1.32-2.651l.087.15a3 3 0 0 0-.152-.155c-.686-.64-.977-1.369-1.363-2.432-.27-.743-.583-1.647-1.08-2.826-.57-1.361-.808-2.394-1.001-3.267-.267-1.227-.446-2.139-1.202-3.332-.84-1.325-1.545-2.792-1.809-4.034-.12-.565-.316-1.19-.514-1.849-.26-.864-.518-1.778-.611-2.655-.073-.708.037-1.357.144-1.902q.05-.26.09-.499c-.129-.558-.248-1.093-.37-1.651l-.19-.255c-.329-.437-.736-1.008-1.015-1.728-.445-1.164-.478-2.245-.494-3.374-.012-.706-.014-1.405-.1-2.191a10 10 0 0 0-.088-.629c-.12-.691-.32-1.428-.521-2.207-.296-1.129-.585-2.253-.583-3.05 0-.299.131-.565.26-.842q0-.002.002-.004l.026-.056a980 980 0 0 1-1.032-5.749l-.173-.498c-.276-.799-.542-1.588-.858-2.088-.343-.533-.64-1.944-.934-3.467-.192-.984-.382-2.003-.594-2.86-.123-.492.018-.968.164-1.471.138-.466.28-.926.221-1.448a5.5 5.5 0 0 0-.188-.822 8 8 0 0 1-.197-.833c-.044-.267.034-.877.145-1.656.069-.466.15-1.044.224-1.608a54 54 0 0 1-.05-4.72c-.114-.339-.27-.667-.484-.927-.153-.188-.342-.357-.534-.531-.261-.237-.528-.5-.722-.833-.15-.264-.183-.545-.076-.732.05-.084.129-.142.2-.194.08-.06.152-.112.163-.19.008-.055-.03-.121-.078-.203-.074-.131-.172-.293-.132-.53.147-.865.404-1.836.732-2.838.36-1.106.8-2.2 1.164-3.127.238-.61.654-1.358 1.193-2.123.229-.278.481-.574.733-.876.429-.511.858-1.044 1.17-1.532.309-.48.487-1.055.654-1.614.201-.672.388-1.321.78-1.767.08-.09.32-.134.623-.189a7 7 0 0 0 .703-.16q.467-1 .94-2l-.044-.106-.001-.002c-.333-.815-.8-1.913.135-2.778.237-.221.535-.297.803-.367.263-.069.498-.132.62-.317.138-.21.127-.53.116-.88-.016-.491-.039-1.034.345-1.422l.083-.084c.274-.281.68-.697 1.292-1.036q1.046-2.163 2.094-4.342a375 375 0 0 0 3.438-7.317 5.84 5.84 0 0 1 2.701-2.793M80.905 33.236c.357-.116.976.175 1.737.834.762.66 1.6 1.629 2.343 2.716.744 1.087 1.343 2.218 1.682 3.167s.385 1.634.144 1.926a38 38 0 0 1-1.495 1.725c-.631.674-1.306 1.297-2.07 1.804q-.799.53-1.67.99l-.18.093c-.285.566-.603 1.113-.89 1.415l-.005.006c-.237.248-.535.227-.785.205-.175-.014-.326-.028-.426.049-.053.04-.123.105-.205.181-.336.315-.905.839-1.613.884-.314.02-.726-.059-1.107-.139-.546-.114-1.031-.224-1.115-.04a.56.56 0 0 1-.177.218c.017.211-.148.289-.38.4-.192.092-.428.21-.637.434-.241.261-.53.376-.776.474-.345.135-.606.242-.525.69.09.499.076.939-.174 1.15-.114.095-.188.241-.262.39-.099.199-.202.409-.414.532-.175.1-.47.098-.73.096q-.124 0-.229.002a12 12 0 0 0-.197.375l.08.13c.142.225.318.502.35.74.05.374-.204.534-.473.704-.21.133-.427.272-.514.52-.06.171-.065.399-.07.624-.006.334-.012.664-.193.798-.067.05-.24.032-.412.014h-.003l-.034-.004c-.126.495-.24 1.002-.343 1.505l.05.172c.076.278.15.547.33.788.194.263.183.658.17 1.08-.008.276-.014.56.038.819.03.151-.17.182-.377.214-.192.03-.39.06-.409.19-.01.065.022.156.056.253.03.085.061.176.068.257.007.075-.14.169-.325.287a4 4 0 0 0-.363.252c-.064.37-.135.747-.207 1.113.098.13.24.27.437.42.141.108.315.224.493.344.243.162.493.332.681.49.147.124.189.208.103.21a1 1 0 0 1-.169-.03c-.07-.016-.131-.03-.136-.016-.004.011.036.043.084.081.077.062.177.141.162.185-.057.16-.174.318-.288.471-.13.176-.253.346-.287.51-.038.183-.313.34-.59.507-.192.115-.383.23-.494.35-.107.115-.081.309-.052.49.034.218.07.425-.138.497-.042.015-.24-.032-.489-.086-.177-.039-.379-.083-.568-.116q-.118.27-.25.524l.068.051.002.001c.527.388 1.242.933.65 1.005-.151.019-.395-.03-.614-.075-.215-.044-.407-.083-.466-.048-.067.042.026.163.128.294.144.183.306.385.065.422l-.053.007c-.172.028-.428.07-.894.036-.258.33-.535.659-.81.963a38 38 0 0 1-1.382 1.474c-.207.199-.841.232-1.814.15-.974-.095-2.223-.164-3.513-.243-1.29-.066-2.517-.485-3.385-1.108-.869-.62-1.317-1.302-1.327-1.767a58 58 0 0 1 .027-2.2l-.037-.125c-.08-.307-.34-.654-.597-1q-.09-.121-.175-.242c-.428-.62.098-1.266.383-1.598l.016-.018a1.3 1.3 0 0 0 .164-.269c.125-.246.284-.556.939-1.088q.104-.3.232-.6c.915-2.118 2.342-3.969 3.89-5.729l.031-.083c.189-.531.435-1.202.834-1.491.51-.372.92-.589 1.268-.76 1.258-1.36 2.488-2.715 3.521-4.176q.487-.687.91-1.41c.26-.448.502-.898.738-1.363.039-.328.05-.656.062-.96.019-.43.038-.815.134-1.082.232-.648.836-1.164 1.293-1.549l.208-.176c.175-.42.357-.854.537-1.279q.09.006.183.016.175.014.317.002c.089-.317.898-.844 1.087-1.113.599.088 1.016-.208 1.595-.583.295-.19.63-.399 1.034-.579.26-.116.52.049.73.183q.094.062.172.102c.18.092.187-.124.194-.377.01-.33.02-.725.405-.598 1.227.403 1.209-.356 1.185-.923-.007-.166-.013-.317.013-.418a.32.32 0 0 1 .129-.192c.17-.117.473-.083.763.014.313.105.536-.337.631-.783.037-.169.172-.261.334-.37.167-.112.363-.243.496-.495.34-.638.528-.966.681-1.23l.124-.213c.126-.223.31-.461.496-.702.223-.287.448-.58.583-.859.667-.255 1.36-.48 2.053-.71M75.534 48.48c-.278.187-.525.36-.5.59l.74-.756q-.12.087-.24.166M132.5 1.394C135.765.2 142.249-.074 145.711.016l.193.002c.821.012 1.607.007 2.511.01 2.161.016 5.112.025 11.063.745a174 174 0 0 1 5.238.332c5.676.503 10.89 1.675 16.073 3.249 2.597.802 5.143 1.702 7.78 2.863 1.324.59 2.641 1.22 4.124 2.105.723.44 1.524.95 2.463 1.736a11.6 11.6 0 0 1 1.657 1.693c.582.816 1.644 2.02 1.876 4.8.113 4.698-.104 10.055-3.045 15.512-2.882 5.727-9.875 9.118-15.037 9.375q-.448.06-.908.106a29 29 0 0 1-1.503.111c1.355.71 2.71 1.44 4.06 2.2 2.766 1.568 5.517 3.247 8.187 5.263.9.682 1.81 1.387 2.701 2.088a543 543 0 0 1 5.674 4.106c2.461 1.809 4.625 3.448 6.34 4.876 4.139 3.443 8.483 7.701 11.682 10.881l1.474 1.464q4.03 3.554 8.027 7.131c.139.201.274.402.415.611 1.497 2.22 3.705 4.418 6.979 7.55q.862.823 1.785 1.712c1.873 1.808 4.003 3.9 6.451 6.49 1.574 1.67 2.155 2.685 2.673 3.561.148.253.284.489.43.718.486.77 1.301 1.383 2.219 2.074 1.205.914 2.66 2.036 3.963 4.023 4.153 6.38 6.547 8.662 8.463 10.425.551.512 1.051.987 1.504 1.503 1.477 1.673 3.047 4.435 4.071 6.524.816 1.664 3.049 4.469 4.93 6.114q.175.156.363.335c.599.566 1.317 1.301 2.221 2.082a20.8 20.8 0 0 0 4.24 2.864c1.967.99 3.641 1.643 5.094 2.213 5.185 2.3 4.111 9.02-1.499 9.859-2.441.405-3.842.481-5.227.597-.703.053-1.364.094-2.006.133-2.063.123-4.574.174-7.132.165-3.059-.009-6.169-.109-8.581-.19a83 83 0 0 1-6.09-.957c-2.203-.545-3.861-.524-7.565-2.589-.078-.045-.294-.201-.368-.25-1.803-1.426-3.42-2.822-5.044-4.23-2.332-2.029-4.204-4.356-5.234-6.481-1.029-2.127-1.137-3.874-.294-4.886.844-1.012 2.585-1.214 4.856-.591 2.27.622 4.88 2.026 7.268 3.831 1.533 1.156 3.081 2.308 4.574 3.347-.029-.035.18.058.402.115.289.084.655.172 1.029.249.775.162 1.666.302 2.554.417 1.815.235 3.701.392 5.62.514 1.039.059 2.101.109 3.175.156a50.742 50.742 0 0 1-1.672-2.078c-3.231-3.668-5.745-7.17-7.553-9.55-1.468-1.972-2.367-3.504-3.163-4.823-.534-.889-1.033-1.692-1.62-2.426-.33-.413-.745-.911-1.297-1.564-2.167-2.586-6.086-6.921-9.489-10.994-1.512-1.82-3.242-4.01-4.911-6.06-1.953-2.395-3.804-4.588-5.215-5.994-.327-.326-.628-.61-.896-.836-2.429-2.055-4.963-4.681-7.204-6.987-2.141-2.203-4.021-4.12-5.287-4.998-1.515-1.05-2.578-2.182-4.171-3.862a104 104 0 0 0-4.403-4.423c-2.242-2.114-3.746-3.701-5.027-5.045-1.804-1.89-3.169-3.306-5.58-4.973-2.673-1.847-5.404-3.836-7.384-5.55a46 46 0 0 0-3.065-2.405c-1.435-1.03-3.05-2.046-4.502-3.054-1.208-.837-2.135-1.648-2.982-2.37a33 33 0 0 0-.766-.637 122 122 0 0 0-3.178-1.628q-.286-.075-.602-.152c-1.06-.264-2.358-.576-3.888-1.14-2.417-.891-4.421-1.957-6.55-3.073-1.645-.863-3.402-1.77-5.463-2.622-1.43-.593-3.051-1.185-4.705-1.806-2.432-.91-4.859-1.855-6.494-2.786-.589-.336-1.098-.782-1.545-1.209l-.005-.006-.091-.087c-1.093-.596-2.036-1.018-3.466-2.246-.421-.415-.747-.641-1.334-1.69a4.695 4.695 0 0 1-.543-2.182c-.013-1.038.412-2.079.905-2.72.249-.337.519-.607.78-.828a5.4 5.4 0 0 1 .567-.418c.357-.23.7-.396 1.014-.526a9 9 0 0 1 1.354-.439c1.735-.335 2.44-.102 3.243-.01.683.107 1.37.265 1.943.405 1.225.306 2.291.62 3.377.947l1.122.254c1.834.426 3.518.816 4.699.935 1.246.116 4.215.962 7.263 1.648 2 .454 4.039.829 5.677.985.956.093 1.807.405 2.679.695.809.269 1.656.52 2.564.527.46.004.938-.052 1.433-.13.444-.068.892-.154 1.333-.231.422-.074 1.352-.068 2.377-.232.632-.1 1.283-.264 1.866-.526 1.37-.926 2.151-2.181 2.682-4.305a2.9 2.9 0 0 0-.291-1.26 4.7 4.7 0 0 0-.478-.72c-.242-.324-.501-.648-.701-1.043-.15-.304-.199-.661-.12-.916-.53-.257-1.089-.5-1.582-.68-1.282-.482-3.164-1.351-5.136-2.134-1.375-.548-2.785-1.057-4.015-1.409-1.207-.346-2.504-.524-3.748-.659-1.496-.163-2.912-.265-4.067-.568-.23-.062-.508-.295-.849-.582a9 9 0 0 0-.855-.65l-.323-.027c-1.56-.12-3.099-.232-4.648-.332l-.183.073-.003.002c-1.411.562-3.296 1.337-5.871.76-.649-.146-1.071-.396-1.439-.62-.361-.22-.691-.416-1.173-.458-.543-.048-1.193.085-1.887.237-.982.213-2.064.462-3.157.293l-.24-.036c-.795-.119-1.966-.283-3.161-.644-3.45.127-6.851.418-10.187.957-3.134.506-6.203 1.232-9.193 2.225-2.524.85-5.036 1.703-7.544 2.57-2.793.964-5.647 1.475-7.946 1.38-2.27-.106-3.978-.745-4.296-1.999-.688-1.127.038-2.787 1.598-4.491 1.584-1.711 4.029-3.365 6.757-4.608 2.449-1.116 4.9-2.216 7.365-3.307a65 65 0 0 1 6.776-2.527q.398-.148.794-.288c1.97-.69 3.781-1.44 5.621-2.13a65 65 0 0 1 1.275-.462m13.981 25.548c-.13-.122-.065-.033.046.059l.027.021zm39.056-4.43c.203.17.113.061-.038-.046l-.042-.03q.044.044.08.076"/></svg>