<svg xmlns="http://www.w3.org/2000/svg" width="756" height="631" fill="none" viewBox="0 0 756 631"><path fill="#000" d="M345.083 45.155c15.568-2.188 29.258-.88 43.528-.647 14.735.655 27.089 7.863 37.159 17.362 9.723 7.294 22.657 15.417 34.207 22.926 3.456 2.228 6.914 4.41 10.422 6.677 1.761 1.144 3.501 2.277 5.316 3.587.914.667 1.812 1.337 2.821 2.26.5.468 1.025.977 1.606 1.755.536.769 1.366 1.927 1.428 3.973-.035 8.459.841 16.604 2.891 24.64 1.081 4.285 2.91 8.418 5.208 12.42 2.109 3.682 4.597 7.26 7.197 10.865 6.292 8.643 13.707 17.126 21.885 23.013a448 448 0 0 0 10.06 6.607c2.788 1.764 5.687 3.578 8.355 5.013 10.279 4.959 22.099 9.64 31.776 18.659 3.546 3.308 3.653 8.492 2.955 11.655-2.181 9.895-8.219 17.681-9.01 22.671a14 14 0 0 0 .167 3.713c2.355 10.154 11.082 19.496 16.6 26.889l.016.021q.097.129.191.231l.052-.017c4.4-1.239 8.313-12.922 11.441-21.468 4.012-11.044 7.698-21.84 13.28-30.822 1.86-2.954 3.989-5.656 6.291-7.886a36 36 0 0 1 4.564-3.841c.704-.514 1.981-1.224 3.313-1.473 1.318-.26 2.35-.178 3.158-.093 1.62.198 2.757.504 3.914.788 2.274.582 4.394 1.187 6.539 1.777 9.013 2.501 18.001 5.109 26.963 7.888.979.364 1.963.735 2.962 1.116 3.054 1.165 6.298 2.372 9.805 3.712 10.017 4.291 24.958 8.11 38.112 22.302.213.196.62.512 1.074.855 7.296 5.188 13.272 13.238 18.802 22.192 2.137 3.492 3.772 7.248 5.228 11.123 3.455 9.562 4.279 14.588 5.155 18.66.242 1.202.461 2.325.691 3.462.787 3.891 1.908 7.912 3.197 12.65 1.327 4.829 2.78 10.451 4.43 17.247.473 1.92.927 3.901 1.372 6.039 3.418 16.31 5.088 28.328 5.388 37.589.256 4.056-.744 8.441-2.43 11.355-2.82 4.874-6.857 6.388-9.843 7.651-3.06 1.17-5.792 1.827-8.444 2.424q-.419.09-.847.165c-11.382 1.663-24.658-2.635-34.424-6.757-3.498-1.566-8.559-3.589-14.008-7.353-.642-.476-1.33-1.115-1.829-2.289-.481-1.096-.437-2.46-.239-3.197.456-1.661 1.03-2.236 1.516-2.879.955-1.13 1.778-1.799 2.602-2.475 1.662-1.329 3.228-2.39 4.811-3.457 3.146-2.104 6.189-4.039 8.855-5.89 2.169-1.525 5.112-3.487 7.102-5.541a3 3 0 0 0-.002-.382c-.032-.665-.241-1.698-.564-2.789-1.977-6.389-6.243-14.416-10.23-23.05a256 256 0 0 1-2.01-4.416c-8.427-18.745-14.367-28.001-21.431-31.696a29 29 0 0 1-.421-.273c-1.935-1.264-4.004-2.321-6.143-3.268-7.165-3.202-17.102-5.785-27.529-8.118-2.285-.528-4.569-1.03-6.998-1.671-.21.353-.479.894-.738 1.489-.557 1.274-1.104 2.773-1.622 4.252-1.04 2.984-2.006 5.988-2.91 8.781a240 240 0 0 0-1.16 3.725c-3.825 11.793-7.343 23.882-10.861 35.927-2.414 7.042-2.332 12.472-7.829 21.879-1.535 1.798-2.247 1.905-2.958 2.325-.321.157-.606.281-.905.402q-.388.156-.778.292c-.973.339-1.845.576-2.679.787-1.68.421-3.227.731-4.789 1.029-3.095.582-6.144 1.07-9.15 1.543-9.823 1.519-19.274 2.63-27.326 3.441l.29-.06c-2.657.433-5.128.839-7.37 1.228-4.813.832-8.206 1.548-10.053 2.282-.022.019-.089.07-.112.086-2.444.98-3.747.65-3.974.131-.263-.579.696-1.486 1.92-3.022l-.066.05c1.759-2.355 5.544-4.466 10.314-6.376 2.255-.903 4.726-1.764 7.382-2.598.046-.011.186-.04.233-.048 7.922-1.965 17.384-3.787 27.062-5.443 2.952-.511 5.932-1.038 8.801-1.626a74 74 0 0 0 4.157-.957 21 21 0 0 0 1.756-.541q.007-.003.014-.006c1.898-3.607 3.62-11.727 5.402-17.816 3.598-13.009 7.141-25.991 11.296-39.052.135-.417.282-.867.42-1.283 1.032-3.112 2.048-6.21 3.189-9.399 1.442-3.201 1.405-6.451 6.424-11.016 1.755-1.418 5.234-2.79 8.528-1.752 14.106 3.765 30.213 5.864 45.01 15.177 8.709 4.891 14.247 14.373 18.35 22.103 2.579 4.937 4.836 9.894 6.988 14.943 2.428 5.722 5.165 11.384 7.866 17.276 1.347 2.97 2.695 5.959 3.878 9.323.583 1.704 1.138 3.443 1.476 5.663.196 2.055.849 5.416-2.214 9.138-4.248 4.408-8.185 6.557-12.13 9.132-2.008 1.262-4.004 2.483-5.909 3.693-.574.383-1.147.77-1.705 1.155 9.964 5.013 21.543 7.792 29.359 8.531 2.704.237 5.179.199 6.851-.12 6.466-1.066 10.97-2.881 11.649-4.099q.067-.085.124-.168c1.28-2.082 1.552-3.606 1.534-6.226a80 80 0 0 0-.096-2.563 109 109 0 0 0-.825-8.667c-1.006-7.734-3.272-18.419-6.269-30.156-2.695-10.767-4.909-22.143-7.496-32.824-2.227-9.01-4.845-19.735-9.389-27.839a158 158 0 0 0-1.69-2.817c-4.953-8.002-9.438-13.775-16.096-18.648-4.524-4.603-7.268-7.116-10.072-8.847-7.029-4.475-16.113-8.161-25.086-11.436-4.719-1.708-9.465-3.302-14.026-4.79-9.759-3.176-18.678-5.866-25.173-7.641-1.945-.53-3.648-.983-5.086-1.324-1.298-.306-2.579-.608-3.538-.748a5 5 0 0 0-.467-.051c-3.447 2.471-6.456 5.695-9.5 10.954-3.258 5.612-6.431 13.441-10.346 24.368-.313.871-.605 1.689-.907 2.533-4.458 11.141-6.214 20.835-15.911 26.264q-.658.296-1.329.518c-.927.389-3.896 1.12-5.999.092-2.086-.92-3.131-2.209-4.015-3.327-4.734-6.434-9.368-12.01-14.484-20.976-2.425-4.425-4.527-10.042-3.913-15.92 2.927-11.747 8.865-18.154 9.48-24.346.174-1.617-.064-2.497-.717-3.137-2.155-2.108-4.873-4.118-7.825-5.991-6.746-4.306-14.383-7.578-21.966-11.369l-.156-.086c-6.113-3.518-10.429-6.748-14.426-9.623-1.233-.898-2.411-1.765-3.553-2.603l-.612-.411c-4.534-3.141-8.232-6.69-11.862-10.423a139 139 0 0 1-1.99-1.926 113.5 113.5 0 0 1-10.55-11.972q-.645-.846-1.311-1.74c-5.593-7.488-10.342-15.269-12.535-24.273a99 99 0 0 1-1.259-5.94c-1.151-6.31-1.685-13.027-1.713-20.09a7 7 0 0 0-.426-.42c-.583-.529-1.367-1.12-2.192-1.703-4.388-3.037-9.942-6.29-15.37-9.664-.975-.602-1.921-1.185-2.892-1.786-9.503-5.879-18.851-11.745-25.2-16.15a75 75 0 0 1-6.367-4.926l-.028-.025c-.129-.114-.295-.26-.439-.392-.231-.19-.473-.384-.814-.719-8.506-7.911-20.002-14.125-31.281-14.31-5.682-.085-11.341-.175-16.985-.19-1.597.024-3.226.054-4.822.094-7.783.183-15.413.669-19.561 1.792a21 21 0 0 0-2.05.635c-5.277 2.11-15.812 4.442-21.257 9.863-.9.943-1.799 1.965-2.709 3.043-4.565 4.46-6.89 12.476-18.849 14.76-3.033.194-5.535.053-7.89-.058-4.834-.264-9.218-.935-13.703-1.578-4.175-.599-8.434-1.223-12.974-1.451a71 71 0 0 0-1.418-.052c1.555 1.554 3.405 3.388 5.426 5.4 3.141 3.157 6.72 6.836 10.265 11.048 4.091 4.77 8.152 9.853 10.735 16.695.11.32.325.854.475 1.781.153.9.144 2.386-.418 3.728-1.24 2.742-2.874 3.396-3.779 3.932-1.912.927-3.138 1.138-4.382 1.42-2.436.491-4.589.717-6.778.92-3.867.34-7.642.527-11.402.691-2.905.25-5.421.505-7.407.797-1.424.209-2.637.443-3.881.682-1.694.324-3.444.657-5.86.936-.692.08-1.429.145-2.159.193 3.213.458 7.004.798 11.134.873 3.679.071 7.563.033 11.47-.112 6.846-.239 13.684-.86 19.931-1.354 1.738-.127 3.499-.269 5.577-.302 1.3.043 2.931-.093 5.64 1.304 1.319.699 2.771 2.09 3.537 3.514.791 1.425 1.031 2.632 1.167 3.468.204 1.559.095 2.161.076 2.727-.036.533-.073.914-.099 1.248a14 14 0 0 0-.058 1.525c.027.805.152 1.336.363 1.865.425 1.123 1.625 2.498 3.384 3.785l.038.007c.442.079 1.114.162 1.76.229 1.344.139 2.804.252 4.224.377 1.175.104 2.63.384 4.509.754 1.341.264 2.857.571 4.631.909 7.728.659 15.693 1.839 23.522 4.513a61 61 0 0 1 .886.218c2.16.551 4.591 1.28 7.269 2.415 5.39 2.198 11.512 6.195 17.494 11.034.593.468 1.115.89 1.586 1.275 1.415 1.149 2.404 2.04 3.319 2.853 1.215 1.076 2.298 2.028 4.017 3.136 1.954 1.255 4.358 2.475 6.99 3.525 2.348.938 4.873 1.735 7.489 2.385 1.749.438 3.511.914 5.261 1.441l1.045.313c3.463 1.028 8.629 2.585 13.521 4.018a57 57 0 0 0 2.953.537c.398.059.778.103 1.089.132 3.192-5.008 5.055-12.689 3.486-15.356-2.495-5.164-3.681-8.424-6.147-11.967-3.339-4.926-7.806-9.425-12.656-13.625-2.856-2.481-6.862-4.412-11.143-6.059-2.151-.835-4.382-1.583-6.837-2.511-1.302-.547-2.358-.77-4.547-2.26-.517-.432-1.386-.946-2.237-2.713-.425-.902-.646-2.304-.413-3.445.241-1.23.687-1.94 1.109-2.53 1.645-1.962 2.396-2.048 3.267-2.57 3.295-1.633 6.403-2.805 9.214-4.099 1.393-.638 2.712-1.301 3.752-1.97.897-.538 1.505-1.217 1.585-1.295.993-2.275 1.286-4.577.868-5.898-6.78-7.713-17.839-15.702-24.605-21.183-.7-.553-1.346-1.069-1.986-1.58-5.975-4.763-8.723-7.587-8.717-8.667.935-1.063 5.097-.05 12.1 3.178.763.354 1.53.718 2.353 1.126 8.488 4.556 18.846 9.463 29.658 21.432.25.386.521.785.855 1.591 2.091 5.407.841 10.25-.632 14.073-3.418 6.408-7.121 7.139-10.176 8.836 4.658 1.735 9.547 3.841 14.111 7.586.989.82 1.949 1.641 2.895 2.477a99 99 0 0 1 2.642 2.354c6.4 5.802 12.295 13.05 15.812 20.563.581 1.141 1.107 2.163 1.557 2.87.451.789.828 1.599 1.136 2.401 3.2 9.504.231 18.775-5.069 27.498-1.349 2.679-6.207 5.313-7.983 5.446-2.728.521-3.34.256-4.369.232a35 35 0 0 1-2.44-.295 78 78 0 0 1-4.118-.762 205 205 0 0 1-7.417-1.726c-4.701-1.175-8.968-2.329-12.509-3.288l-.189-.052a49 49 0 0 1-.873-.245c-3.753-1.098-7.198-2.462-10.944-4.354-4.314-2.171-8.993-5.162-14.667-9.205-5.045-3.524-10.141-7.96-17.094-11.671-1.89-1.002-4.021-1.936-6.405-2.774-6.138-2.019-12.876-3.053-19.831-3.639-2.931-.25-5.897-.416-8.993-.6-1.562-.096-3.143-.19-4.884-.364a35 35 0 0 1-2.88-.396c-1.129-.297-2.155-.161-4.975-1.885-3.322-2.304-6.855-5.462-8.993-10.262-.999-2.238-1.543-4.769-1.644-7.094-10.031.74-21.644 2.069-32.663 1.892-12.664-.068-26.723-2.316-38.238-10.065-2.51-1.677-3.98-3.402-5.378-5.505-.577-.92-1.179-1.98-1.585-3.671-.386-1.569-.546-4.615 1.441-7.265.491-.692 1.439-1.575 2.196-2.025a8.6 8.6 0 0 1 1.818-.861c.901-.3 1.434-.385 1.915-.47.945-.154 1.603-.206 2.274-.26a87 87 0 0 1 3.646-.184c2.323-.075 4.576-.111 6.848-.142 14.713-.201 29.564-.076 43.661-.972a85 85 0 0 0 2.125-.187c-5.221-8.986-14.792-17.51-23.678-26.394a51 51 0 0 1-2.375-2.531c-.667-.832-1.303-1.373-2.324-3.416-.34-.763-.624-1.566-.738-2.737a7.6 7.6 0 0 1 .751-4.038c1.423-2.644 3.106-3.322 4.181-3.858 2.152-.895 3.458-.985 4.803-1.157 2.57-.253 4.764-.206 6.979-.132 4.383.172 8.597.584 12.737 1.004 8.153.808 16.559 1.963 22.282 1.81.391.149 2.386-1 4.089-2.774 3.253-3.266 6.406-7.451 9.979-10.95 10.605-9.087 19.491-9.36 26.193-11.822a28 28 0 0 1 3.371-.795m347.583 331.559c-.028.037-.021.043.046-.049l.016-.026a1 1 0 0 0-.062.075m-60.905-99.734q.083.028.177.047zM295.188 142.373l.046-.002zm-35.566-61.459c-.13.037-.195.062-.157.064a1 1 0 0 0 .157-.064"/><path fill="#000" d="M533.257 348.166c1.835-.022 3.107-.156 6.022.171 2.04.236 5.115 1.538 6.891 3.943 1.775 2.349 2.145 4.558 2.312 6.181-.249 11.703-4.514 16.895-7.218 23.347-4.507 9.861-8.971 19.975-12.601 29.905-.731 1.924-1.338 2.543-1.876 3.263a20 20 0 0 1-1.453 1.598c-.9.892-1.731 1.61-2.556 2.3-1.62 1.346-3.21 2.549-4.793 3.718-3.152 2.321-6.278 4.494-9.41 6.66-6.26 4.32-12.49 8.542-18.71 12.824a541 541 0 0 0-5.288 3.681l-1.078.803c-7.024 5.219-15.465 11.967-20.757 16.172a451 451 0 0 0-6.819 5.492c-4.05 3.281-7.476 4.851-10.42 6.224-4.995 2.412-9.948 4.268-14.818 6.117-14.15 4.956-28.292 9.983-45.154 7.53-2.001-.386-3.647-1.912-4.357-3.053-.77-1.178-1.095-2.158-1.367-3.032-.51-1.733-.711-3.162-.962-4.354-.979-5.336 1.917-8.967 4.065-11.374 2.333-2.484 4.851-4.321 7.523-5.954.403-.244.825-.489 1.24-.72 9.536-3.263 15.61-4.036 23.227-6.395a79 79 0 0 0 1.775-.535c7.38-2.292 14.391-5.717 21.467-9.519 2.281-1.291 4.512-2.581 6.699-3.816a591 591 0 0 1 4.995-2.79 833 833 0 0 1 13.487-7.273c3.664-1.956 7.932-4.121 10.487-6.126.363-.053 1.464-2.608 1.754-5.042.379-2.502.478-5.144.506-7.573.015-1.366.003-2.676-.013-3.907l-.029-.639a18 18 0 0 0-1.4.339c-2.49.69-5.234 1.746-8.057 2.786-.455.106-.926.215-1.401.322-1.672.373-3.448.844-5.591 1.291-4.321.778-10.039 3.289-17.987 5.909l-.289.097a576 576 0 0 1-16.524 5.225c-4.214 1.262-6.456 1.643-8.289 1.956-.538.092-1.043.178-1.552.277-1.742.336-3.478 1.033-5.535 1.846-1.875.74-4.022 1.579-6.681 2.318-1.128.313-2.34.605-3.668.864-14.228 2.728-20.312 4.583-24.942 6.073-1.355.428-2.592.81-3.869 1.135-2.079.529-4.646 1.013-7.261 1.402-2.583.386-5.218.685-7.497.884-3.636.331-10.79 1.623-16.25 2.582-2.058.368-4.873.688-8.183 1.018-3.428.343-7.389.69-11.615 1.147q-1.9.207-3.586.383c-9.432.687-14.31-.388-18.459-.852a196 196 0 0 1-3.789-.572c-3.875-.618-8.607-1.554-13.345-2.57-3.872-.829-7.745-1.7-11.201-2.463a87 87 0 0 1-4.866-1.232c-11.982-3.782-22.989-11.964-30.434-21.533a70 70 0 0 1-3.877-5.293 10 10 0 0 1-.312-.437c-1.763-3.296-2.952-6.341-3.736-8.943a33 33 0 0 1-.31-1.113c-.972-3.39-.805-6.311.422-6.537 1.168-.239 2.687.763 5.284 3.288q.39.395.796.832c1.827 1.959 3.814 4.524 5.83 7.156l-.259-.362c1.409 1.51 2.796 3.095 4.171 4.667 7.32 8.649 16.389 14.622 27.012 17.53 1.008.285 2.014.543 3.052.785 12.917 2.944 25.975 6.296 38.245 7.069 1.718.085 3.421.091 5.002-.022 8.169-.575 16.244-1.251 24.301-2.196q1.531-.178 3.063-.368c6.676-1.128 13.303-2.426 18.658-3.515 1.28-.261 2.487-.508 3.605-.738 4.761-.979 8.269-1.536 11.274-2.031 2.065-.342 3.895-.659 5.719-1.093.979-.232 2.317-.564 3.925-.973a871 871 0 0 0 14.404-3.831c4.346-1.188 8.983-2.469 13.45-3.649 4.533-1.196 9.825-2.525 14.867-3.841 3.634-.947 7.159-1.893 10.144-2.756 2.92-.842 5.324-1.633 6.927-2.27 3.513-1.367 7.462-2.996 11.944-4.064 2.089-.491 4.422-1.267 6.662-2.003 5.92-1.672 10.146-4.361 16.82-2.849 1.207.404 2.673 1.453 3.462 2.825.807 1.375.979 2.59 1.026 3.618.111 2.331.153 4.837.042 8.159-.237 3.314.034 7.242-2.149 13.514-.709 1.774-1.779 3.621-3.513 5.036-3.832 2.896-6.626 4.013-9.163 5.284-4.706 2.226-8.218 3.741-13.182 6.569a868 868 0 0 1-8.588 4.821c-2.561 1.42-5.039 2.778-7.297 3.908-2.145 1.074-4.595 2.361-7.206 3.638-3.452 1.693-7.211 3.347-10.775 4.52-2.408.797-4.534 1.28-6.453 1.64q-.626.116-1.208.218c-.685.122-1.327.234-1.958.349a400 400 0 0 1-6.905 1.869l-1.143.43c-1.99.756-4.488 1.654-7.472 2.573-.595.186-1.174.366-1.689.539-.256.086-.499.172-.689.247-.175.064-.366.166-.198.084-2.702 1.594-5.282 3.386-7.153 5.395-1.329 1.402-2.004 2.924-1.811 3.622.289 1.416.508 2.73.831 3.702.049.156.107.3.16.422 1.34.196 2.841.259 4.364.225 4.519-.105 9.16-.996 12.381-1.524 1.213-.199 2.275-.265 3.344-.346h.013l.215-.017c6.499-1.617 12.912-3.827 19.146-6.423a534 534 0 0 0 3.837-1.613c.644-.306 1.295-.617 1.934-.926 3.133-1.505 6.055-3.047 7.792-4.239 1.435-.996 4.841-2.887 7.562-5.469.994-.935 2.061-1.931 3.148-2.928 3.147-2.895 6.487-5.826 9.196-8.218 1.587-1.402 3.258-2.517 4.981-3.647 1.606-1.053 3.262-2.123 4.949-3.455.852-.673 1.733-1.424 2.681-2.224.838-.708 1.716-1.445 2.673-2.202.872-.69 2.948-2.105 5.614-3.877l1.27-.842c1.322-.875 2.737-1.811 4.196-2.785 4.982-3.666 9.992-7.307 14.926-10.942.96-.864 1.753-1.665 2.314-2.368.418-.516.711-.984 1.036-1.482.435-.673.882-1.368 1.575-2.175.559-.643 1.276-1.272 1.831-1.595a4.6 4.6 0 0 1 .684-.311c.232-.089.436-.167.634-.321.141-.111.273-.274.42-.465a6.4 6.4 0 0 1 1.098-1.152 62 62 0 0 0 2.478-2.097c.31-.281.579-.545.77-.741q.137-.378.275-.751c1.319-3.558 2.686-6.924 3.729-9.62 1.167-3.02 3.1-7.19 5.091-11.321 1.388-2.884 2.8-5.753 3.99-8.247l.075-.16c1.249-2.577 2.223-4.807 3.084-7.096.984-2.593 1.745-5.065 2.278-6.807l-.008.001c-.118.031-.217.061-.33.093l-.006.002c-2.546.719-6.083 1.798-11.21 1.792-1.32.001-2.145-.154-2.92-.288-.731-.135-1.434-.248-2.369-.176-1.091.086-2.351.378-3.711.705-1.928.462-4.067.997-6.276 1.123l-.486.028c-1.596.096-3.988.256-6.385.219a435 435 0 0 0-8.084 1.334c-4.15.722-8.285 1.608-12.446 2.603-6.028 1.428-12.11 3.135-18.533 4.503a734 734 0 0 0-16.216 3.596c-5.594 1.306-11.055 2.178-15.203 2.386-4.16.201-6.648-.235-7.107-1.436-.465-1.216 1.419-3.214 5.126-5.307 3.702-2.101 8.944-4.17 14.552-5.774a707 707 0 0 1 16.269-4.44c3.558-.93 7.182-2.038 10.882-3.152q.707-.238 1.416-.472c3.519-1.161 6.798-2.417 10.14-3.601q1.156-.409 2.322-.802c1.663-.561 3.793-1.135 6.167-1.655 5.925-1.315 13.262-2.381 17.912-2.947l.352-.045c1.533-.188 2.987-.381 4.674-.593 4.102-.449 9.389-1.333 21.342-1.42M388.01 480.43c.015.016.005-.017-.059-.084a.4.4 0 0 0 .059.084"/><path fill="#000" d="M300.22 438.165c2.93-1.244 5.084-1.42 5.889-.401.831.983.346 3.02-1.3 5.724-1.662 2.714-4.345 5.853-7.467 8.787a1652 1652 0 0 0-5.656 5.336c-2.586 2.485-4.785 5.623-6.657 9.07a91 91 0 0 0-.424.893c-1.041 2.22-1.714 4.466-2.3 6.743-.133.521-.266 1.052-.393 1.58-1.05 3.998-3.648 11.534-5.281 16.324l-.095.273c-.356.983-.664 1.919-1.261 3.32q-.058.132-.118.264c.86.078 1.761.167 2.704.284 1.694.256 3.332.361 6.134 1.499 6.542 3.024 14.666 4.43 22.853 6.064 15.844 2.964 31.986 5.719 48.035 8.491l.993.136c3.269.449 6.931.946 10.383 1.443 3.438.494 6.697.985 9.198 1.442 6.413 1.17 10.749 2.005 14.378 2.774 4.908.942 10.734 1.569 16.209 5.147 7.598 4.728 9.848 13.273 12.22 18.494 1.399 3.153 3.459 5.917 6.175 8.519 2.013 2.131 7.281 3.322 12.199 4.663 5.479 1.451 11.061 3.192 16.432 5.383a96 96 0 0 0 2.528.985c5.405 2.016 10.977 3.557 16.61 4.463 3.294.411 6.422.553 9.21.431 1.256-.048 2.623-.197 3.554-.372.106-.28.244-.706.346-1.141.087-.362.164-.76.226-1.165.301.019-1.184-3.559-3.027-6.248-1.825-2.854-3.783-5.703-5.442-8.202l-.194-.29c-.609-.913-1.137-1.714-1.664-2.512-3.042-4.231-6.003-8.477-8.874-12.884a75 75 0 0 1-.432-.997c-1.752-4.147-4.669-8.974-8.444-16.658-1.018-2.031-2.073-4.135-3.402-6.295-.348-.566-.697-1.126-.971-1.505a3 3 0 0 0-.365-.443c-2.172-.469-4.259-.876-5.446-1.232a31 31 0 0 0-1.117-.285c-1.271-.291-2.651-.234-4.282-.161-2.128.093-4.626.217-7.944-.359l-.025-.005c-10.506-1.836-15.259-1.549-18.833-1.339-1.04.062-2.009.116-2.968.113-3.142-.014-7.575-.604-10.913-1.195-2.647-.469-8.006-.645-12.08-.651-1.537-.002-3.616-.168-6.048-.363-2.52-.202-5.447-.439-8.58-.562-5.698-.223-9.488-.391-12.406-.529a262 262 0 0 1-3.183-.173c-.989-.06-1.887-.12-2.829-.19-2.899-.219-6.523-.57-10.389-1.286-2.233-.425-4.576-.965-6.985-1.917-2.41-.901-4.905-2.628-6.234-3.704q-.345-.282-.66-.589c-2.194-2.183-2.87-5.295-2.825-7.273.019-2.057.428-3.596.858-4.978.894-2.73 2.033-4.874 3.188-6.925 2.313-4.05 4.933-7.675 7.14-11.023l.144-.218c.048-.084.213-.32.268-.4 2.173-2.789 4.603-5.288 7.117-7.104.026-.031.11-.116.137-.145a15.5 15.5 0 0 1 1.878-1.079c2.998-1.417 5.104-1.6 5.999-.637.897.97.421 3.106-1.166 5.875-.296.53-.615 1.066-.907 1.586l.11-.115c-1.156 2.201-2.718 4.835-4.526 7.485l-.147.252c-2.321 3.898-4.589 7.387-6.39 10.933-.886 1.743-1.66 3.52-2.028 4.964-.094.354-.152.69-.181.953 4.322 3.436 14.265 3.885 22.576 4.722a6533.273 6533.273 0 0 1 30.215 2.6c6.324.185 12.629.394 17.071.644 3.664.206 6.321.593 8.589.924 1.565.228 2.952.429 4.356.528q1.152.08 3.042.194c2.247.139 5.204.322 8.448.568 4.135.316 8.76.724 13.224 1.337 1.195.166 2.466.359 3.821.601.683.124 1.397.256 2.215.445.425.099.874.207 1.478.398.315.101.663.222 1.087.411.419.184.914.465 1.224.676 2.487 1.725 3.307 3.626 3.964 4.733l.267.497c2.795 5.31 4.353 9.839 5.644 11.948 2.213 3.868 4.652 8.354 6.972 12.299 2.217 3.776 4.245 6.998 5.664 8.698 1.594 1.903 2.719 3.675 4.365 6.259l.288.451c1.241 1.961 2.794 4.312 4.994 7.676 2.44 3.916 4.452 7.13 4.446 11.605a9.5 9.5 0 0 1-.186 1.576c-.324 1.436-.715 2.754-1.373 4.19-.72 1.334-1.46 3.362-4.58 4.5-1.284.386-2.329.54-3.475.712-5.28.712-10.421.278-14.449-.511-1.821-.363-3.894-.775-6.03-1.283-2.827-.67-5.768-1.519-8.359-2.524-2.134-.827-3.823-1.74-5.275-2.561l-.438-.248a44 44 0 0 0-.833-.472 100 100 0 0 0-4.8-1.74q-.415-.076-.865-.149c-1.52-.253-3.368-.526-5.646-1.012-3.592-.775-6.724-1.618-10.251-2.811-2.649-.969-5.818-1.958-9.05-4.862l-.161-.15c-1.733-1.585-3.751-3.608-5.44-5.874a31 31 0 0 1-2.928-4.703 55 55 0 0 1-2.106-4.73c-.334-.865-.5-1.632-.675-2.375l-.002-.01q-.017-.076-.036-.152c-1.641-3.3-3.541-5.709-6.229-7.25-1.574-.929-3.088-1.484-4.977-1.928-.46-.079-.942-.152-1.427-.218-2.075-.278-4.253-.447-5.875-.469h-1.02c-1.964-.026-6.192-.441-10.657-.875-3.109-.303-6.345-.627-8.989-.836-1.326-.106-2.499-.378-3.768-.699q-.34-.087-.688-.179c-1.386-.36-2.768-.726-4.351-.916a50 50 0 0 0-2.549-.208c-.809-.053-1.65-.106-2.541-.195-.822-.082-2.626-.439-4.942-.898-1.437-.285-3.057-.607-4.765-.93q-6.834-.867-13.669-1.78c-.969-.003-1.821.055-2.509.193-.493.099-.919.242-1.363.388-.603.198-1.22.403-2.052.513-.652.086-1.389.045-1.869-.109a2.7 2.7 0 0 1-.541-.252c-.172-.098-.325-.185-.523-.215-.144-.021-.301.004-.493.034a3.8 3.8 0 0 1-1.293.023c-2.163-.328-4.614-.763-7.018-1.197-2.675-.484-5.289-.968-7.392-1.296a47 47 0 0 1-1.744-.31c-2.132-.417-4.712-1.036-7.306-1.703-2.347-.602-4.69-1.242-6.769-1.804-2.026-.547-4.202-1.024-6.392-1.642-2.071-.575-4.192-1.353-5.697-2.067.1.028.017-.031-.123-.102-.136-.071-.352-.33-.73-.651a6.6 6.6 0 0 0-1.089-.735c-2.126-.273-4.607-.407-7.396-.762l-.313.044-.006.001c-1.101.129-2.378.328-4.46-.041-1.083-.262-2.374-.42-4.568-2.114-1.073-.865-2.488-2.508-3.066-4.769-.587-2.266-.196-4.244.298-5.585.743-1.896 1.338-2.445 1.792-3.015 1.049-1.154 1.503-1.271 1.986-1.535.449-.219.826-.392 1.123-.756.317-.388.474-.89.521-1.344l.013-.095c.173-.942.455-2.572 1.137-4.06.047-.104.1-.223.151-.332.497-1.1 1.238-2.769 2.218-4.379 1.758-5.14 3.776-10.367 6.378-15.422 3.068-5.925 6.939-11.784 12.474-16.455 2.011-1.673 4.015-3.329 6.031-4.988 3.331-2.74 6.838-4.987 9.789-6.248M485.911 565.68a3 3 0 0 0-.347.113q.213-.056.347-.113m-217.658-70.627c-.071.01.101.082.425.179-.249-.135-.396-.156-.425-.179m72.201-9.365a.6.6 0 0 0 .012.132c.011.053.025.005-.012-.132"/><path fill="#000" d="M427.204 415.287c.879-.674 2.058-1.006 3.306-.891a5.6 5.6 0 0 1 3.378 1.574 5.53 5.53 0 0 1 1.638 3.349c.131 1.253-.216 2.468-.941 3.39a116 116 0 0 1-3.69 4.469q-.084.132-.172.262c-.437.646-.715 1.387-1.006 2.131q-.1.256-.205.512c-.529 1.296-2.576 2.683-3.727 3.409l-.063.041c-.272.173-.516.354-.805.566-.69.5-1.618 1.196-3.846 2.261q-.865.622-1.768 1.206c-2.904 1.867-6.091 3.497-9.628 4.669-4.771 1.555-8.893 1.72-12.786 1.985l-.269.05c-1.74.318-3.861.686-5.235.644l-.137-.003a48 48 0 0 1-3.819-.271c-5.561.197-11.091.345-16.605.666q-2.592.149-5.179.357-2.382.193-4.764.418c-.918.199-1.788.418-2.597.619-1.137.282-2.152.527-2.996.635-.627.081-1.283.127-1.941.147-1.475.046-2.96-.033-4.155-.103l-.796-.046a777 777 0 0 1-4.093.405q-.14-.074-.282-.153c-1.187-.654-2.616-.609-4.872-.563-.982.02-2.121.04-3.463-.003-.862-.028-1.31-.3-1.671-.522a4 4 0 0 0-.306-.175c-.348-.169-.714.013-1.145.227-.563.278-1.236.61-2.125.298-2.819-.997-4.073-.375-5.032.099-.281.138-.539.263-.798.329-.842.214-2.032-.06-2.919-.418-.702-.282-2.144-.092-3.247.173-.418.1-.977.073-1.631.037-.624-.035-1.339-.078-2.105-.027l-.216.017a91 91 0 0 1-4.255.285q-.395.017-.763.031c-.786.033-1.756.018-2.743-.011-1.183-.035-2.387-.092-3.315-.08-2.315-.525-4.616-1.17-6.842-1.856-1.145-.353-2.115-1.179-2.697-2.311-.582-1.134-.74-2.475-.446-3.759a5.6 5.6 0 0 1 2.034-3.19c1.006-.769 2.196-1.106 3.308-.974a155 155 0 0 0 6.652.641c2.685.208 5.372.37 8.083.597.645.054 1.288.108 1.943.161q1.884.154 3.785.307l.592.048c1.635-.246 3.265-.481 4.407-.552.944-.058 1.627.131 2.214.293.407.111.759.208 1.125.201.197-.004.463-.018.785-.037 1.316-.075 3.552-.219 5.592.096.905.14 1.963.411 2.97.667 1.442.365 2.797.696 3.472.575 1.191-.212 2.559-.083 3.773.025 1.158.103 2.171.187 2.736-.052.677-.287 1.263-.202 2.139-.08.606.085 1.352.187 2.359.193a14 14 0 0 1 1.475.085c.461.051.861.118 1.226.179.996.165 1.748.287 2.831-.085 1.205-.414 2.468-.714 3.484-.679.461.016.988-.034 1.531-.087.724-.07 1.482-.145 2.187-.079.577.055 1.074.271 1.51.463q.204.09.394.165.685-.062 1.369-.131.107-.072.222-.153c.387-.271.86-.603 1.467-.802.956-.315 1.829-.252 2.748-.187.717.051 1.462.102 2.299-.026.569-.087 1.212-.257 1.849-.427.943-.252 1.874-.504 2.546-.48.251.009.475.146.706.281l.004.003.046.027q2.388-.448 4.762-.951.199-.087.402-.172c.656-.277 1.293-.548 1.682-.869.436-.35 1.572-.665 2.775-1.007q.375-.105.738-.212c.552-.16 1.08-.326 1.529-.5.392-.149.782-.036 1.201.078.38.108.781.217 1.173.122.204-.05.414-.149.633-.254a6 6 0 0 1 .623-.266c.207-.069.687-.048 1.296-.023.381.014.81.029 1.249.026a93 93 0 0 0 3.283-.876c.197-.187.344-.41.445-.679.07-.192.113-.414.159-.64.063-.309.118-.627.233-.898.09-.211.221-.319.34-.268.055.023.107.08.154.131.053.059.102.112.142.1.029-.009.047-.065.068-.133.036-.108.078-.247.191-.282.416-.128.875-.223 1.309-.328a9 9 0 0 0 .67-.184c.25-.081.485-.173.684-.276.428-.221 1.138-.332 1.87-.484.507-.105 1.026-.229 1.442-.394.411-.163.762-.476 1.099-.787.404-.373.787-.741 1.249-.839.094-.019.295.091.549.226.18.095.388.204.602.289q.733-.473 1.474-.956l.005-.105-.001-.002c.039-.801.059-1.879 1.109-2.011.268-.033.535.072.775.166.236.093.447.174.611.1.186-.084.293-.333.407-.604.161-.381.334-.805.781-.894l.097-.02c.322-.066.801-.17 1.422-.106a219 219 0 0 0 3.249-2.265 176 176 0 0 0 5.43-4.008M229.093 425.307c1.317-.045 2.596.15 3.584.523s1.599.88 1.735 1.39c.161.614.337 1.178.523 1.677q.192.514.409 1.081c.251.663.523 1.379.782 2.255l-.018-.083q.266.827.474 1.598c.231.854.444 1.654.664 2.4l.068.229c.535.485 1.047.872 1.315 1.152.222.232.181.497.154.734-.019.162-.033.306.043.391.04.045.103.101.179.165.317.273.817.612 1.023 1.208.092.268.155.671.26 1.063.091.34.213.671.361.881.183.184.353.313.508.353.678.167 1.245.691 1.711 1.137.454.432.837.803 1.197.764.435-.044.635.2.929.56.208.252.451.552.858.852.462.342.723.701.944 1.005.315.428.553.749 1.168.732.683-.019 1.317.063 1.696.367.172.138.4.234.636.331.312.127.64.257.885.495.202.196.305.516.4.8q.044.134.089.249.298.115.599.216l.148-.087c.259-.156.57-.35.876-.397.486-.075.795.172 1.134.428.263.198.544.401.909.442.249.028.546-.014.832-.065.427-.075.828-.168 1.08-.04.095.048.162.217.231.384l.001.003.014.035a10.7 10.7 0 0 0 1.927-.329l.155-.129c.247-.209.473-.42.593-.705.133-.308.504-.526.86-.785.233-.168.46-.351.618-.567.09-.125.248-.002.421.12.16.114.334.226.444.141.056-.043.099-.134.143-.231.038-.085.077-.175.129-.243a.1.1 0 0 1 .045-.029c.097-.034.278-.032.503-.036a6 6 0 0 0 .581-.036 76 76 0 0 0 1.27-.988 1.8 1.8 0 0 0-.029-.64 8 8 0 0 0-.16-.589 6.5 6.5 0 0 1-.213-.826c-.031-.197.004-.302.091-.263.041.018.092.067.138.111.053.051.101.095.119.082.014-.009.004-.061-.008-.124-.02-.1-.044-.228.01-.265.205-.139.47-.25.729-.362.289-.124.572-.252.761-.415.211-.182.643-.238 1.08-.305.304-.047.61-.098.841-.191.228-.091.377-.317.519-.536.172-.264.333-.518.621-.523.059-.002.223.127.43.288.146.113.315.243.481.354q.376-.268.766-.524l-.022-.087-.001-.002c-.171-.664-.411-1.568.286-1.442.179.032.388.179.577.312.185.13.351.246.448.224.11-.026.127-.205.146-.401.027-.275.053-.58.346-.541l.065.008c.214.024.528.06.978.272.605-.324 1.21-.629 1.834-.942 1.028-.512 2.082-1.022 3.124-1.547.507-.253 1.294-.14 2.234.319.944.457 1.953 1.224 2.83 2.174.884.943 1.559 2.022 1.884 3.038.33 1.012.296 1.854-.07 2.362a72 72 0 0 1-1.836 2.435l-.07.159c-.186.388-.229.892-.285 1.407q-.02.177-.039.35c-.109.886-1.233 1.452-1.859 1.756l-.033.017a3 3 0 0 0-.424.261c-.352.239-.83.568-2.038.963q-.413.33-.844.637c-3.115 2.207-6.679 3.911-10.799 5.085l-.093.048-.061.03c-1.107.564-2.575 1.113-3.577 1.112a11.4 11.4 0 0 1-2.779-.314c-3.801-.094-7.148-1.167-10.132-2.325-.94-.366-1.854-.744-2.754-1.121q-1.241-.522-2.447-1.053c-.52-.105-1.022-.181-1.491-.259-.654-.107-1.236-.213-1.664-.382-1.04-.41-1.986-1.233-2.663-1.837l-.309-.274a128 128 0 0 0-1.913-.84l-.034-.206c-.129-.84-.693-1.208-1.507-1.648q-.09-.048-.18-.098a11.4 11.4 0 0 1-1.909-1.305c-.442-.378-.492-.785-.524-1.106-.009-.095-.016-.184-.032-.264-.052-.274-.346-.296-.698-.34-.453-.052-1.023-.157-1.178-.801-.436-2.022-1.283-2.264-2.044-2.543-.215-.078-.409-.154-.554-.262-.471-.354-.608-1.148-.539-1.779.05-.502-.51-1.184-1.033-1.679-.198-.186-.313-.496-.436-.856-.128-.374-.266-.803-.532-1.22-.667-1.057-.972-1.611-1.221-2.051l-.2-.357a7 7 0 0 1-.155-.288c-.007-.016-.012-.068-.019-.083-.14-.26-.288-.582-.442-.93-.244-.554-.499-1.178-.752-1.67a23.96 23.96 0 0 1 .043-4.263c.065-.676.634-1.301 1.592-1.761s2.223-.73 3.539-.775"/><path fill="#000" d="M233.437 431.448c1.279.115 2.306 2.451 1.956 6.118-.321 3.652-1.889 8.1-4.156 12.224a166 166 0 0 1-4.583 7.804c-2.682 4.32-6.267 8.284-10.292 11.412q-.507.428-1.023.837c-.886.703-1.749 1.372-2.581 2.013-3.937 2.329-5.508 2.329-7.632 2.982q-1.028.265-2.051.49c-5.145 1.163-14.267 1.043-19.235.971l-.274-.004c-1.185-.017-2.298-.012-3.601-.007-2.563.013-5.856.017-11.795-.123a19 19 0 0 0-2.935.106c-1.624.327-3.123.926-4.904 1.921-8.268 5.137-18.57 13.224-28.796 18.907-11.815 7.112-25.89 8.438-36.716 10.256-2.675.484-5.239 1.757-8.056 3.772a57 57 0 0 0-.745.582c-2.61 2.066-5.742 4.979-9.203 7.541-2.655 1.966-5.12 3.839-7.075 5.282-5.329 3.935-8.807 6.77-11.594 9.148-5.404 5.01-10.221 10.346-14.06 16.465-5.981 9.442-10.564 18.964-8.952 29.536.286 2.823.402 5.542.532 8.195.272 5.4.508 10.815 2.018 14.941q.772 2.059 1.42 4.16c1.801 5.742 2.815 12.031 3.24 17.667.191 1.169-.36 3.106-1.348 4.068-.947.994-1.786 1.317-2.43 1.56-.992.354-1.715.444-2.4.514-3.648.051-4.999-.953-6.726-1.642-1.617-.76-3.023-1.567-4.343-2.375a77 77 0 0 1-10.164-7.529c-4.17-3.688-8.335-8.05-11.668-12.866C.77 602.493.634 599.4.307 596.751a50 50 0 0 1-.184-3.453c-.306-5.823.023-11.293.28-16.702q.113-.534.233-1.079c.917-4.489 1.639-10.284 1.094-18.443l-.047-.481c-.705-4.488 1.058-10.547 3.991-14.974 1.939-3.108 3.213-4.362 4.225-5.439.305-.32.582-.605.856-.905.947-1.04 1.644-2.317 2.477-3.83 1.08-1.963 2.374-4.296 4.683-6.954a124 124 0 0 0 2.889-3.437c5.847-6.743 8.744-9.374 10.867-11.974.743-.848 1.42-1.608 2.16-2.336 2.39-2.363 6.198-5.183 9.15-7.165 1.718-1.159 4.449-3.477 6.927-5.791.917-.854 1.806-1.698 2.624-2.489 1.165-1.125 2.842-2.516 4.81-4.153 2.035-1.693 4.38-3.646 6.754-5.856 5.99-5.578 8.845-8.652 10.976-11.147.227-.268.45-.535.66-.792.093-.135.308-.456.544-.851 1.082-1.824 2.932-5.206 5.43-8.115.428-.511 1.83-1.411 2.453-1.648l1.323-.497c4.233-1.582 8.459-3.132 11.615-4.414 8.268-2.777 16.603-5.652 23.474-9.625 3.18-2.575 6.467-4.972 9.253-6.447 2.952-1.569 5.118-2.002 6.07-1.088.943.916.602 3.119-1.038 6.135-1.632 2.985-4.398 6.513-7.933 9.712-.109.089-.44.343-.561.415l-.11.072c-8.545 5.459-17.403 8.781-26.178 12.098-3.578 1.328-7.16 2.599-10.677 3.869-1.52 1.988-2.431 4.029-5.324 7.817-2.43 2.756-4.986 5.237-7.568 7.595-6.042 5.488-12.226 10.422-18.3 15.415q-.937.767-1.875 1.538l-.067.063c-4.965 4.549-9.884 8.836-13.296 11.85-2.835 2.489-4.981 4.149-6.77 5.589-1.23.993-2.294 1.884-3.255 2.868a51 51 0 0 0-1.972 2.141c-.738.849-1.561 1.853-2.281 2.892-3.011 4.331-7.071 9.847-10.838 14.742-2.154 2.831-4.726 6.069-6.075 8.81-.934 1.882-1.256 3.497-1.186 5.398.15 2.821.085 5.069.144 6.566.18 5.067-.4 10.659-.864 15.503-.455 4.623-.767 8.596-.576 10.816.234 2.634.112 4.895.349 7.925.124 1.521.474 3.493 1.138 4.529.422.627.915 1.31 1.465 2.019 2.7 3.441 4.863 5.834 6.7 7.833 2.614 2.79 4.704 4.859 8.266 7.189 1.69 1.088 3.448 2.154 5.086 2.998.5.257 1 .495 1.466.7q-.06-.538-.132-1.093c-.352-2.74-.902-5.57-1.436-8.159-.439-2.13-.737-3.929-1.05-5.516a40 40 0 0 0-.306-1.43l-.056-.148c-.734-1.947-1.18-3.875-1.514-5.766-.096-.312-.194-.632-.293-.973a40 40 0 0 1-1.33-6.342c-.508-4.03-.473-7.477-.666-10.942q-.022-.395-.05-.785c-.195-2.678-.346-5.689-.112-9.099.166-2.577.612-5.5 1.333-8.265 1.06-4.122 2.643-7.897 3.996-10.367.498-.908 1.065-1.637 1.627-2.337l.008-.009.116-.145a117 117 0 0 1 2.672-4.823c2.443-4.243 5.386-8.37 8.551-12.119.366-.479.716-.932 1.09-1.403 1.781-2.256 3.607-4.355 4.718-5.809 1.194-1.583 4.687-5.093 8.527-8.523 2.516-2.26 5.176-4.516 7.328-6.363.88-.754 1.757-1.343 2.715-1.934.386-.232.777-.463 1.173-.703 1.173-.71 2.389-1.499 3.616-2.581.615-.541 1.258-1.173 1.97-1.859a47 47 0 0 1 2.075-1.906c.718-.601 2.417-1.864 4.984-3.29 1.584-.874 3.523-1.784 5.691-2.477a27 27 0 0 1 3.27-.986c4.105-.96 7.954-1.572 11.642-2.337.925-.318 1.702-.663 2.293-1.03.42-.263.769-.549 1.114-.841.475-.399.957-.812 1.646-1.222.536-.319 1.191-.563 1.661-.608.22-.022.397 0 .559.019.185.022.351.041.532-.012.131-.038.253-.125.402-.231.237-.169.55-.39 1.062-.554 1.919-.612 4.046-1.35 6.047-2.216a39.5 39.5 0 0 0 4.629-2.343q.769-.46 1.428-.874c2.024-1.272 5.002-2.915 7.939-4.642 2.056-1.207 4.094-2.453 5.809-3.595 1.682-1.117 3.34-2.436 4.985-3.741 1.974-1.565 3.944-3.118 5.95-4.229.395-.218 1.007-.373 1.757-.537.55-.129 1.16-.257 1.878-.444 2.652-1.501 5.903-2.843 9.255-3.422q.169-.072.345-.145l.005-.003c1.288-.537 2.874-1.075 4.723-1.336a19 19 0 0 1 5.443-.148c1.048.119 1.717.355 2.307.568.591.209 1.114.397 1.872.429.875.036 1.886-.108 2.999-.265 1.563-.221 3.289-.468 5.039-.284l.377.04c1.271.13 3.13.32 4.983.72 5.298-.037 11.449-.04 15.07-.84.266-.058.456-.161.205.003 4.575-2.649 8.282-5.821 11.248-9.989a157 157 0 0 0 4.728-7.014c2.323-3.662 4.676-6.996 6.601-9.39 1.94-2.368 3.331-3.782 4.625-3.65"/><path fill="#000" d="M211.197 291.611c1.364-.703 2.924-.956 4.353-.681s2.604 1.05 3.286 2.177.819 2.53.4 3.922c-.42 1.392-1.366 2.656-2.615 3.535-2.517 1.77-5.028 3.54-7.526 5.283-.943.659-1.888 1.317-2.811 1.964l.133-.087a104 104 0 0 1-6.59 4.458 278 278 0 0 1-6.77 4.08l-.699.407c-1.706 1.429-3.426 2.831-4.683 3.729-1.047.747-1.921 1.083-2.678 1.376-.525.204-.975.377-1.392.651q-.189.126-.45.309c-1.287 1.225-3.227 3.084-5.245 4.54-.977.705-2.165 1.438-3.292 2.153-1.624 1.031-3.114 2.024-3.652 2.726-.964 1.248-2.292 2.406-3.469 3.475-1.116 1.01-2.075 1.918-2.394 2.618-.388.846-.95 1.336-1.8 2.107a22 22 0 0 0-2.14 2.17c-.976 1.14-1.757 1.879-2.415 2.511-.921.886-1.623 1.59-2.164 2.932-.605 1.497-1.293 2.988-2.043 4.034-.345.481-.675 1.066-1.008 1.678-.404.741-.818 1.53-1.298 2.232q-.068.098-.137.194c-.453.633-.971 1.06-1.433 1.447-.143.119-.28.231-.407.345a97 97 0 0 0-.82 1.603q-.011.158-.019.33c-.032.58-.069 1.294-.287 2.069-.35 1.234-.94 2.164-1.547 3.163-.471.776-.953 1.599-1.308 2.613-.241.689-.441 1.509-.621 2.317-.27 1.203-.498 2.393-.835 3.16-.127.289-.359.503-.587.712l-.004.003-.047.043c-.462 2-.824 4.015-1.097 6.046l.013.547c.023.886.065 1.741.24 2.329.145.475.139 1.447.126 2.58-.019.465-.058.964-.1 1.428-.118 1.287-.284 2.508-.367 3.51-.049.585-.344 1.059-.654 1.554-.284.446-.584.924-.694 1.467a7 7 0 0 0-.092.926 9 9 0 0 1-.08.918c-.043.29-.312.896-.653 1.653a63 63 0 0 0-.687 1.57 739 739 0 0 1-1.074 4.679c.047.356.146.685.314.972.12.206.279.401.443.597.223.264.453.538.605.869.118.258.118.524-.004.668a.6.6 0 0 1-.213.142c-.085.041-.161.078-.178.144-.012.048.02.111.061.188.064.124.147.285.095.48-.194.733-.462 1.524-.728 2.319-.292.871-.577 1.732-.732 2.433-.175.788-.656 1.846-1.127 2.896-.332.746-.656 1.475-.881 2.132-.219.639-.292 1.335-.363 2.022-.08.807-.16 1.607-.472 2.204-.064.121-.298.235-.59.379a7 7 0 0 0-.673.368q-.297 1.234-.606 2.465l.061.107.001.002c.465.818 1.104 1.931.312 3.116-.201.304-.485.46-.74.6-.25.137-.474.261-.565.494-.104.264-.042.617.024 1.002l.014.083c.086.531.17 1.081-.137 1.583l-.069.113c-.229.373-.569.936-1.124 1.442-.47 1.751-.946 3.504-1.411 5.25-.777 2.912-1.533 5.819-2.179 8.714-.316 1.408-1.055 2.701-2.108 3.641s-2.335 1.45-3.626 1.363c-1.288-.082-2.5-.763-3.377-1.948-.877-1.18-1.33-2.756-1.28-4.327.084-2.563.239-5.098.45-7.613l-.009-.405c-.012-1-.213-1.946-.406-2.914q-.069-.326-.131-.659c-.32-1.691.522-4.652.999-6.26l.025-.088c.082-.279.151-.553.222-.853l.078-.336c.243-1.038.564-2.434 1.62-5.256.182-.851.373-1.695.576-2.54 2.173-9.098 5.38-17.949 8.506-26.408l.085-.33c.567-2.191 1.198-4.817 1.737-6.275q.414-1.107.667-1.811c.317-1.116.612-2.006.884-2.781 1.759-7.542 4.553-14.838 7.989-21.609 1.068-2.124 2.185-4.198 3.271-6.223l.655-1.227a134 134 0 0 1 2.465-4.461c.542-1.162 1.069-2.293 1.559-3.308.7-1.443 1.355-2.703 1.995-3.695 1.518-2.368 3.677-4.729 5.313-6.412.269-.278.527-.541.756-.775a155 155 0 0 1 3.495-4.344q.181-.084.372-.166c1.583-.693 2.894-2.1 5.039-4.248a77 77 0 0 1 3.373-3.203c.86-.764 1.485-.968 1.996-1.137.151-.05.291-.094.422-.147.452-.184.688-.645.976-1.195.384-.722.807-1.551 1.916-2.118.985-.497 1.757-.971 2.388-1.438.077-.077.347-.252.434-.316 1.698-.89 2.406-1.842 2.969-2.607.235-.317.447-.601.692-.838.811-.778 2.26-1.394 3.431-1.736.926-.269 2.386-1.463 3.421-2.477.388-.382 1.001-.762 1.726-1.212.749-.465 1.611-.999 2.461-1.687 2.152-1.739 3.275-2.647 4.18-3.381.258-.21.496-.404.732-.599.746-.615 1.69-1.342 2.61-2.078l.241-.193c.027-.022.115-.074.142-.094 1.142-.855 2.268-1.684 3.109-2.373 2.647-1.445 5.303-2.821 7.955-4.192M366.608 177.288c1.6 0 3.313.615 4.749 1.712 1.871 1.436 3.699 2.961 5.5 4.855a18 18 0 0 1 1.542 1.936q.202.25.39.505c.93 1.265 1.791 2.395 2.564 3.504q.266.383.513.763c1.312 2.02 1.748 5.585 1.966 7.135l.013.089c.054.384.128.731.217 1.122.109.477.237 1.024.392 1.734.116.641.489 1.723.878 4.099.342 1.381.539 2.956.531 4.431a20.6 20.6 0 0 1-.219 2.929c-2.833 12.28-7.924 19.093-12.565 27.622l-.166.353c-1.08 2.292-2.42 5.108-3.511 6.755a107 107 0 0 1-3.221 4.606l-.561.952c-3.859 6.601-7.943 13.352-12.517 19.729a225 225 0 0 1-6.13 8.187 86 86 0 0 1-3.014 3.63 194 194 0 0 1-2.42 3.197c-1.072 1.38-2.051 2.573-2.922 3.477-2.106 2.186-4.78 4.264-6.761 5.787-.33.254-.627.48-.913.701l-.827.792a718 718 0 0 1-3.481 3.313l-.408.14c-1.729.581-3.294 1.933-5.765 4.046-1.076.92-2.325 1.985-3.831 3.192-.97.777-1.633.98-2.175 1.147-.159.049-.309.095-.452.151-.489.192-.775.673-1.108 1.237-.438.735-.956 1.613-2.128 2.206-3.726 1.882-4.664 3.547-5.364 4.8-.202.365-.393.701-.621.994-.372.477-.926.955-1.518 1.376l.131-.118c-.591.457-1.226.862-1.802 1.182-.931.521-2.244 2.096-3.167 3.397-.344.487-.928 1.035-1.609 1.672-.706.662-1.521 1.423-2.312 2.343-1.981 2.309-3.056 3.531-3.912 4.505l-.697.794c-.731.832-1.638 1.797-2.582 2.799-1.12 1.189-2.255 2.395-3.069 3.358-2.434 2.042-5.213 4.292-7.171 6.009-.047.039-.097.079-.081.04l.152-.188c-.763.709-1.899 1.517-3.205 1.983-1.406.497-2.839.472-3.994-.165-1.15-.64-1.951-1.83-2.19-3.378-.216-1.416.072-3.115 1.136-4.774.027-.031.098-.129.127-.159.135-.183.286-.363.384-.481 2.605-2.961 4.792-5.17 7.204-7.652 2.875-2.935 5.809-5.829 8.814-8.613a543 543 0 0 1 6.362-5.791l.661-.59c1.249-1.523 2.483-3.011 3.539-4.193.038-.03.14-.13.178-.159.261-.271.526-.537.761-.767 1.018-.993 1.921-1.538 2.684-1.994.53-.319.997-.597 1.399-.958.215-.192.511-.47.856-.795 1.433-1.344 3.855-3.609 6.366-5.313 1.113-.756 2.48-1.547 3.783-2.303 1.862-1.08 3.594-2.088 4.284-2.816 1.207-1.277 2.838-2.459 4.269-3.504 1.365-.997 2.553-1.874 3.038-2.59q.158-.233.329-.433c.526-.611 1.152-1.035 2.017-1.628a33 33 0 0 0 2.749-2.052c1.291-1.079 2.291-1.748 3.133-2.319 1.183-.803 2.075-1.419 2.978-2.735 1.004-1.464 2.08-2.903 3.092-3.871.463-.442.934-.996 1.411-1.581.395-.484.794-.989 1.204-1.468a15 15 0 0 1 .777-.851c.585-.587 1.197-.968 1.739-1.309.168-.105.333-.211.485-.315.389-.524.775-1.056 1.152-1.587q.043-.167.088-.35c.149-.609.328-1.357.714-2.164.608-1.274 1.405-2.205 2.237-3.205.646-.777 1.314-1.599 1.905-2.647.404-.714.795-1.568 1.174-2.42.564-1.264 1.1-2.522 1.643-3.303.203-.293.491-.483.777-.672l.004-.002.059-.039a202 202 0 0 0 2.903-6.365l.169-.6c.146-.511.288-1.012.398-1.476.103-.426.176-.816.199-1.144.048-.742.685-2.372 1.349-4.074.438-1.122.889-2.276 1.197-3.243.182-.567.583-.993.993-1.423.383-.406.779-.826 1.011-1.375.117-.276.203-.602.293-.943.08-.301.162-.616.277-.936.108-.302.498-.878 1.001-1.628.311-.466.658-.982 1.012-1.547.68-1.601 1.351-3.193 2.018-4.788.023-.382-.008-.753-.121-1.077-.081-.234-.204-.458-.329-.687-.172-.309-.346-.637-.434-1.008-.068-.29-.02-.568.127-.699.069-.061.157-.09.238-.119.093-.033.176-.061.206-.13.022-.049 0-.122-.025-.21-.041-.14-.092-.321-.006-.517.322-.732.736-1.544 1.133-2.334.44-.877.859-1.738 1.112-2.432.292-.796.911-1.812 1.486-2.815.402-.701.78-1.389 1.027-1.981.243-.582.317-1.202.346-1.736.021-.42.012-.792.048-1.007.023-.144.06-.269.124-.382.039-.069.245-.14.5-.238.181-.071.387-.156.574-.26a6.2 6.2 0 0 0-.137-1.33l-.094-.035h-.002c-.723-.292-1.726-.512-1.824-2.465a2 2 0 0 1-.001-.134c.011-.425.147-.738.273-1.019.136-.304.262-.571.216-.892-.051-.364-.285-.743-.534-1.151-.349-.573-.726-1.206-.665-1.906l.014-.152c.042-.505.113-1.231.408-1.968-.298-1.932-.574-3.614-.965-4.902-.236-.787-.5-1.424-.83-1.981-.978-1.454-2.24-2.968-3.58-4.416-1.029-1.113-1.766-2.499-2.035-3.926-.262-1.427-.049-2.773.634-3.87.679-1.101 2.042-1.711 3.635-1.713"/><path fill="#000" d="M337.543 264.258a5.18 5.18 0 0 1 3.509 1.048 5.6 5.6 0 0 1 2.043 3.154c.335 1.251.028 2.603-.618 3.728a5.29 5.29 0 0 1-2.898 2.339 472 472 0 0 1-5.785 1.811 10 10 0 0 1-.291.135c-.741.327-1.37.818-2.024 1.315a30 30 0 0 1-.44.337c-1.136.849-3.596 1.058-4.949 1.171l-.075.008c-.32.027-.613.073-.965.13-.853.138-1.959.316-4.384.368-.667.14-1.373.279-2.04.404-4.415.822-8.832 1.448-13.303 1.978-3.099.377-6.205.617-9.193.819l-.282.053c-1.834.343-4.053.777-5.495.795a77 77 0 0 1-4.131-.059c-3.539.356-7.06.8-10.607 1.353-2.288.357-4.58.755-6.863 1.2-1.827.357-3.627.739-5.442 1.16-1.661.386-3.327.797-4.978 1.224-.942.361-1.82.733-2.642 1.081-1.148.487-2.176.924-3.042 1.193-2.089.651-4.555 1.01-6.382 1.279l-.842.126a564 564 0 0 0-4.194 1.303 12 12 0 0 1-.326-.084c-1.376-.367-2.861.008-5.202.606-1.02.26-2.196.561-3.603.865-.899.194-1.431.048-1.861-.072-.127-.035-.246-.069-.363-.09-.401-.073-.731.2-1.129.524-.518.421-1.118.921-2.123.866-3.174-.184-4.3.79-5.148 1.525-.251.217-.478.413-.724.553-.793.453-2.071.548-3.09.486-.624-.042-1.645.351-2.525.813a13 13 0 0 0-.699.387c-.384.231-.948.389-1.615.577-.673.188-1.484.417-2.294.788-2.06.94-3.12 1.427-4.006 1.828l-.708.324c-.724.335-1.634.71-2.551 1.095-1.097.46-2.198.935-3.004 1.365-2.272.579-4.502 1.16-6.705 1.825-1.129.339-2.413.242-3.598-.309a5.38 5.38 0 0 1-2.672-2.726 5.26 5.26 0 0 1-.145-3.82 5.08 5.08 0 0 1 2.525-2.864 100 100 0 0 1 7.2-3.223 92 92 0 0 1 8.889-3.073c2.09-.6 4.193-1.152 6.297-1.666l.482-.117.173-.041c1.674-.789 3.335-1.536 4.553-1.966.984-.349 1.794-.382 2.453-.401.461-.015.872-.028 1.264-.144.212-.063.488-.156.828-.269 1.401-.464 3.75-1.239 6.023-1.488 1.012-.112 2.202-.128 3.35-.144 1.631-.02 3.155-.037 3.857-.323 1.227-.501 2.73-.707 4.056-.887 1.265-.171 2.372-.321 2.933-.684.671-.434 1.321-.483 2.288-.555a21 21 0 0 0 2.582-.319c1.253-.239 2.181-.274 2.96-.3 1.107-.04 1.928-.066 3.042-.644 1.227-.64 2.549-1.174 3.656-1.325.506-.069 1.057-.212 1.644-.362.778-.2 1.575-.403 2.356-.46.64-.047 1.192.087 1.7.202q.235.055.451.099c.491-.118.963-.232 1.461-.354q.105-.089.22-.188c.389-.332.843-.733 1.487-1.028 1-.463 1.964-.535 2.961-.604.798-.059 1.586-.109 2.502-.358.609-.166 1.294-.424 1.969-.678l.468-.176c.859-.315 1.643-.58 2.271-.631.277-.022.529.088.795.195l.004.002.054.022c1.714-.488 3.437-.978 5.167-1.461l.436-.209c.706-.337 1.391-.661 1.824-1.017.447-.381 1.729-.792 3.064-1.206.882-.273 1.781-.547 2.521-.833.423-.165.875-.071 1.333.029.429.093.867.189 1.309.079a4 4 0 0 0 .703-.272 7 7 0 0 1 .694-.283c.227-.074.761-.065 1.44-.052.419.008.895.017 1.388.008 1.264-.299 2.506-.595 3.745-.898.241-.187.429-.411.568-.68a4 4 0 0 0 .249-.645c.101-.31.206-.631.382-.903.14-.213.32-.321.467-.27.068.025.128.084.183.136.062.06.117.113.172.102.039-.009.071-.066.111-.134l.036-.06c.062-.096.145-.197.28-.225.613-.129 1.306-.216 1.991-.301.772-.097 1.507-.189 2.089-.333.664-.164 1.61-.15 2.599-.146.682.005 1.349.013 1.931-.042.567-.052 1.103-.255 1.654-.459.655-.243 1.253-.472 1.842-.417.117.012.292.183.51.397.154.152.332.325.525.479.679-.126 1.402-.252 2.086-.365l.058-.096.001-.001c.462-.735 1.067-1.734 2.27-1.431.304.077.523.284.721.471.194.182.362.347.576.348.243.001.493-.18.763-.378.376-.276.798-.586 1.309-.468l.11.025c.367.083.901.207 1.491.549 1.495-.163 3.004-.31 4.513-.445 2.503-.222 5.035-.418 7.539-.62"/><path fill="#000" d="M141.603 175.286a47.5 47.5 0 0 1 8.027.175c1.909.207 3.095.528 4.172.825 1.049.293 1.99.562 3.378.745 1.582.209 3.476.308 5.556.499 2.917.267 6.242.731 9.454 1.918.219.081.455.169.7.263 2.314.878 5.764 2.379 8.879 4.641a35.4 35.4 0 0 1 5.509 3.866c4.725 4.734 5.458 7.786 7.588 11.268 1.864 3.395 3.696 6.739 5.572 10.087q.02.034.039.068c7.048 12.6 13.903 25.22 21.757 36.843.909 1.328 1.797 2.622 2.701 3.932 4.404 6.384 8.316 12.711 10.885 17.607 2.588 4.944 3.518 7.825 2.836 8.821-1.023.968-4.229-.7-8.39-4.515-4.193-3.821-9.155-9.528-13.836-15.812-.961-1.289-1.905-2.562-2.869-3.868-6.788-9.282-12.656-18.844-18.455-28.403-.357-.562-.719-1.133-1.075-1.699a229 229 0 0 0-4.391-6.702c-1.175-1.733-2.343-3.44-3.497-5.134-.605-.891-1.193-1.755-1.795-2.65-1.002-1.482-2.138-3.308-3.327-5.219-1.077-1.796-2.77-4.179-2.722-3.964-3.475-2.982-9.141-5.102-13.199-6.118l-.402-.101c-1.737-.434-3.432-.761-5.453-1.068-3.833-.556-8.49-1.087-17.771-1.252-1.391-.073-3.359.212-5.841 1.116-3.249 1.316-6.702 3.397-10.112 5.706-4.63 3.143-9.252 6.738-13.967 10.367-11.164 8.758-22.179 18.735-32.971 28.592-7.145 6.576-13.674 12.938-18.668 20.492-5.188 8.004-10.754 16.089-13.796 24.362 10.358-5.142 23.088-11.685 31.295-15.453l.224-.103a315 315 0 0 0 15.5-7.806 152 152 0 0 1 3.473-4.378c2.684-3.221 5.943-6.841 10.027-9.861a35 35 0 0 1 1.729-1.197c5.451-3.505 10.973-6.044 15.171-7.49 1.729-.593 3.287-.928 4.843-1.206l.02-.003.318-.056c2.429-.698 4.94-1.272 7.635-1.532.143-.013.322-.031.606-.041.148-.004.324-.007.58.011.284.033.601.018 1.385.317a4.1 4.1 0 0 1 1.636 1.215c.641.726.958 2.012.9 2.67-.122 1.492-.482 1.769-.648 2.12-.372.582-.571.76-.761.968-.696.7-1.108.999-1.58 1.375a62 62 0 0 1-2.617 1.897 222 222 0 0 1-5.121 3.427c-4.041 2.643-8.109 5.308-12.201 7.943-.805.553-1.63 1.116-2.432 1.662-3.958 2.696-7.838 5.278-10.312 7.072-1.929 1.395-6.1 4.065-11.169 7.057-2.514 3.82-4.905 7.779-7.253 11.645l-.56.947c-5.565 9.414-9.213 19.905-10.22 30.686a66 66 0 0 0-.268 4.17 939 939 0 0 0 4.584-5.824c3.827-5.081 7.453-9.929 10.893-14.402 1.5-1.952 2.964-3.834 4.385-5.632 3.155-3.992 6.327-7.761 9.736-10.661 1.344-1.158 2.733-2.226 4.107-3.24 2.084-1.503 4.043-2.979 7.009-4.423.841-.347 1.514-.784 3.499-1.014a6.4 6.4 0 0 1 2.186.188c.986.235 2.377 1.015 3.185 2.159 1.575 2.411 1.117 3.775 1.098 4.577-.253 1.643-.615 2.335-.939 3.128-.34.77-.661 1.389-1.016 2.038-4.409 7.528-9.049 13.346-12.941 18.61-1.164 1.544-2.263 2.99-3.283 4.33-4.677 6.444-9.417 12.839-14.03 19.221a241 241 0 0 0-2.366 3.335c-.398.471-.786.929-1.194 1.416-4.46 5.547-9.778 12.449-13.663 24.413a44 44 0 0 0-.933 3.278c-1.246 5.11-1.8 11.243-1.149 18.277q.076-.098.154-.197c1.43-1.886 2.633-4.087 4.09-6.687 1.576-2.81 3.445-6.093 6.23-9.909q.141-.188.284-.381l.004-.052c1.438-9.996 6.011-16.279 10.106-23.034 3.767-5.82 7.776-11.264 11.948-16.637 4.547-5.793 9.345-10.987 14.27-16.119.998-1.034 1.99-2.049 3.017-3.078.551-.59 1.119-1.19 1.701-1.791.28-.288.589-.604.947-.95l.18-.169c.076-.069.076-.073.246-.218a7 7 0 0 1 .449-.349l.084-.059.049-.032.025-.017q.076-.05.182-.115c.145-.086.325-.194.652-.341.346-.135.773-.372 1.92-.476a5.65 5.65 0 0 1 2.464.374c1.051.38 2.251 1.345 2.861 2.44 1.21 2.298.711 3.596.614 4.242a5.7 5.7 0 0 1-.343.993l-.021.046a5 5 0 0 1-.21.412c-.305.524-.407.624-.511.767l-.16.202c-.289.349-.38.451-.572.669-4.125 4.697-7.251 10.455-10.196 15.61q1.68-1.072 3.397-2.097c8.948-5.32 18.265-9.517 27.691-13.231 5.271-2.07 10.542-3.684 15.145-4.759a72 72 0 0 1 5.63-1.108c5.73-.945 9.595-.205 9.662 1.132.108 1.313-2.511 2.92-7.431 5.637a124 124 0 0 1-4.982 2.524c-4.177 2.011-9.06 4.144-14.074 6.268-8.963 3.801-17.722 8.05-25.777 13.109-4.947 3.117-9.692 6.599-14.255 10.337-5.801 4.752-11.265 9.9-16.571 15.337a155 155 0 0 0-6.196 6.712c-.34.39-.68.783-1.06 1.212-.192.217-.382.431-.66.725-.156.161-.28.301-.644.626-.097.084-.194.169-.396.323a6 6 0 0 1-.341.239q-.095.06-.211.128l-.563.803c-3.828 5.458-7.744 11.41-11.758 17.294-.79 1.135-1.588 2.297-2.66 3.659-.73.828-.994 1.49-3.097 3.024-.644.34-1.463 1.153-4.034 1.138-1.266-.032-2.799-.688-3.634-1.434a6.3 6.3 0 0 1-1.524-1.873c-.9-1.859-.778-2.346-.917-2.937-.619-3.984-.973-8.387-.898-12.582.084-7.43 1.552-14.508 3.386-19.663.788-2.27 1.54-4.275 2.12-5.786 3.178-8.41 8.794-16.665 13.903-23.555a276 276 0 0 1 2-2.659c4.074-5.336 7.555-9.856 9.468-12.74 2.65-3.992 5.173-7.19 8.859-11.975 1.935-2.537 4.267-5.533 6.927-9.336-3.642 2.774-6.318 5.69-9.779 10.136q-.41.526-.828 1.076c-5.156 6.757-10.482 13.882-14.921 19.347-2.043 2.507-4.27 5.377-6.76 8.417a82 82 0 0 1-2.25 2.64c-.41.454-.837.919-1.362 1.422q-.216.208-.444.406a8 8 0 0 1-.633.502 5.52 5.52 0 0 1-.966.562 4.7 4.7 0 0 1-.848.289c-.378.081-.733.157-1.442.099-.81-.062-1.883-.499-2.576-1.21-1.244-1.368-1.176-2.188-1.274-2.814-.225-2.911-.356-6.029-.24-8.923.162-4.212.784-7.66 1.467-10.644.214-.935.437-1.831.658-2.679a80 80 0 0 1 2.449-9.642c.128-.529.261-1.074.41-1.645.744-2.868 1.815-6.4 3.7-10.507a66 66 0 0 1 2.745-5.319l.08-.137a565 565 0 0 0-5.835 3.103c-2.453 1.327-4.9 2.364-7.416 3.432-2.35.998-4.758 2.022-7.312 3.343-1.255.649-2.642 1.418-4.09 2.217a169 169 0 0 1-4.097 2.205c-1.416.686-4.19 2.112-9 3.788-.542.173-1.13.353-1.893.519-.73.101-1.66.51-3.922-.208-1.102-.367-2.408-1.382-3.042-2.405a6.4 6.4 0 0 1-.968-2.438c-.285-2.23.027-2.693.096-3.388.129-.717.384-3.026.795-4.683 2.147-9.545 6.428-17.001 10.662-24.465.783-1.592 1.443-3.017 1.888-4.182.336-.863.536-1.567.778-2.338.338-1.063.645-2.087 1.284-3.491q.062-.135.128-.273c.503-1.043 1.193-2.147 1.77-2.84.294-.351.554-.596.79-.818.272-.254.514-.479.75-.799.17-.23.309-.499.483-.828.28-.525.647-1.208 1.371-2.117 2.698-3.393 6.02-6.894 9.298-10.087a336 336 0 0 1 6.213-5.879c1.368-1.269 2.66-2.47 3.82-3.56 3.131-2.949 7.788-6.951 12.516-10.9 3.299-2.757 6.636-5.49 9.51-7.854 2.72-2.238 5.492-4.654 8.323-6.972l.287-.236c3.351-2.75 6.642-5.433 9.704-7.468.618-.411 1.485-.792 2.581-1.262.777-.332 1.675-.712 2.684-1.17 3.939-2.648 8.109-5.238 13.083-7.184a34 34 0 0 1 .518-.289c2.311-1.221 5.414-2.783 10.204-3.003m-70.105 206.32c-.152.089-.179.143-.214.163-.046.059.079-.037.214-.163m57.521-82.183-.002.003.014-.015.065-.078q.007-.012.003-.007c-.006.006-.006.001-.08.097M379.069.004a52 52 0 0 1 4.43.118c.817.063 1.609.137 2.653.323.513.095 1.146.222 1.958.49.543.19.962.32 1.893.841a8.8 8.8 0 0 1 1.684 1.26 8.34 8.34 0 0 1 2.331 4.014c.61 2.179.194 5.259-.92 7.148-1.085 1.941-2.251 2.9-3.214 3.64-1.88 1.353-3.169 1.815-4.36 2.28q-.325.122-.652.234c-2.818.934-5.026 1.369-7.629 1.844-5.564 1.12-13.865 1.422-26.284 3.313-.82.178-1.634.355-2.481.545-4.138 1.042-9.546 2.585-10.902 3.536a3 3 0 0 0-.172.126q.89.045 1.793.082c18.53.637 37.568.62 56.674 1.728 14.789 1.436 27.006.577 44.824 8.436 9.084 7.998 12.038 15.559 17.131 22.678.351.504.713 1.017 1.076 1.525 1.649 2.3 3.443 4.659 5.27 6.565 4.507 4.864 16.272 6.691 23.214 8.133 7.49 1.431 13.628 2.377 18.852 3.205 3.061.481 5.866.847 8.459 1.167 20.851 2.12 41.884 2.672 63.398 5.036 2.836.411 5.162.568 8.781 1.672.611.276.955.163 2.499 1.42.207.195.387.375.649.725.293.396.59.921.777 1.575.449 1.272-.025 3.209-.584 3.938a5.3 5.3 0 0 1-1.267 1.36 6 6 0 0 1-.774.496c-1.555.771-2.167.817-2.992 1.041-1.55.358-2.922.572-4.301.776-5.476.774-10.79 1.237-16.128 1.702-8.384.71-16.768 1.306-25.143 1.897-12.573.882-25.147 1.724-37.685 2.629l-.255.018c14.155.836 29.917 1.945 41.751 2.794 2.028.145 3.958.283 5.732.408 9.905.486 19.814.967 29.722 1.467q.991.137 1.999.28c8.202 1.178 18.29 1.751 33.956 2.91q.629.047 1.248.096c3.572.282 7.443.596 11.664 1.071 2.134.252 4.327.507 6.834 1.023.634.138 1.257.277 2.093.548.185.061.411.14.655.238.242.099.466.192.814.377q.244.129.506.301c.213.14.468.328.721.562.422.404 1.455 1.424 1.542 3.308.033 1.815-.845 2.853-1.198 3.277-.488.543-.774.738-1.087.966a9.3 9.3 0 0 1-1.371.782c-.76.359-1.437.61-2.07.835-2.121.738-3.771 1.164-5.221 1.539-3.043.772-5.098 1.145-6.881 1.466-.784.141-1.492.264-2.233.405-2.493.472-5.063 1.303-8.088 2.236-3.938 1.21-8.688 2.616-15.152 3.544-10.652 1.513-18.221 2.454-24 3.259a576 576 0 0 0-10.054 1.47c1.681.115 3.265.225 4.846.335 5.194.371 11.511.826 18.163 1.559.392.045.764.088 1.141.134 1.955.244 3.855.491 6.046.961 1.167.307 2.058.335 4.296 1.518.59.39 1.404.744 2.526 2.382.537.814 1.038 2.128 1.044 3.459a6.75 6.75 0 0 1-.686 3.05c-.698 1.357-1.231 1.796-1.615 2.205-.388.381-.672.615-.907.812-4.119 3.574-9.334 5.407-12.931 6.385-4.265 1.03-8.281 1.615-12.309 2.159-.029.005-.114.015-.143.019-12.522 1.339-24.974 2.487-37.476 3.58-3.661.317-7.262.526-10.674.618-4.477.121-8.593.033-12.073-.295-6.149-.569-9.584-1.922-9.575-3.219-.003-1.337 3.328-2.531 9.114-3.893 3.306-.768 7.277-1.529 11.654-2.217a236 236 0 0 1 10.521-1.411c12.361-1.387 24.755-2.838 37.043-4.424 2.319-.364 4.638-.751 6.874-1.202-10.814-1.063-21.887-1.861-32.9-2.934a525 525 0 0 1-7.939-.818c-8.115-.837-16.856-2.431-24.352-3.86-1.754-.29-3.391-.471-5.615-.826a11.063 11.063 0 0 1-.949-.195c-.139-.038-.403-.096-.886-.286a5.734 5.734 0 0 1-1.339-.752c-.079-.07-.865-.591-1.51-1.698-.71-1.048-1.054-3.383-.381-4.872a5.6 5.6 0 0 1 1.556-2.221c.966-.811 1.54-.946 1.659-1.013.433-.17.696-.231.912-.283.138-.031.254-.054.359-.072.224-.039.34-.052.46-.068.114-.014.246-.028.321-.035.704-.064 1.212-.081 1.713-.102 1.024-.039 1.974-.058 2.921-.075l1.134-.018a927 927 0 0 1 3.389-.04c12.157-.471 24.188-1.136 32.632-1.733 6.974-.48 12.046-.721 16.384-.984 2.325-.142 4.441-.294 6.509-.514a76 76 0 0 0 1.755-.205c1.424-.182 3.363-.45 5.701-.805 8.14-1.196 21.067-3.668 33.719-6.588-3.45-.346-6.325-.581-8.43-.682-8.822-.418-18.951-1.202-27.907-1.88-8.534-.645-16.01-1.195-20.276-1.222-5.099-.032-9.425-.388-15.865-.918-4.461-.368-9.956-.819-17.398-1.314a645 645 0 0 1-19.87-1.627l-3.228-.309c-5.83-.56-10.788-.982-17.759-1.323-6.603-.475-12.911-.331-20.037-2.617-.323-.122-.666-.246-1.172-.485-.268-.135-.552-.257-1.085-.648-.262-.208-.649-.483-1.133-1.202a4.3 4.3 0 0 1-.668-1.754c-.132-.789.031-1.728.288-2.309a4.4 4.4 0 0 1 .837-1.304 5 5 0 0 1 1.467-1.086c.434-.213.673-.294.948-.389a13 13 0 0 1 1.219-.335c1.429-.317 2.536-.459 3.677-.605 3.553-.43 7.416-.801 11.508-1.172q.771-.07 1.593-.14c4.877-.423 9.951-.808 14.588-1.041 4.255-.214 7.779-.21 10.895-.207.98.001 1.903.003 2.809-.002q5.066-.367 10.13-.739.815-.12 1.711-.256c2.992-.45 6.673-1.004 11.24-1.482 7.231-.757 13.593-1.09 20.291-1.478 2.017-.117 4.07-.24 6.181-.383-9.312-.467-18.676-.824-28.05-1.301q-1.565-.035-3.132-.08c-5.088-.134-10.054-.325-13.313-.349-1.795-.014-4.96-.178-8.885-.565a470 470 0 0 1-12.747-1.448c-6.079-.777-12.357-1.715-17.677-2.848-3.081-.66-6.036-1.674-9.076-3.106-2.823-1.349-5.848-3.088-8.791-5.787-.32-.294-.645-.607-.962-.928a65 65 0 0 1-2.967-3.2 73 73 0 0 1-3.28-4.062c-1.008-1.33-3.009-4.417-5.408-8.26-1.491-2.37-3.152-5.035-4.956-7.624-1.814-2.428-3.875-4.878-5.443-5.972.264.186.104.073-.038.016a11 11 0 0 0-.608-.251c-.469-.18-1.038-.37-1.593-.54a52 52 0 0 0-3.629-.943c-2.521-.57-5.128-1.025-7.778-1.417-1.761-.133-3.353-.162-4.575-.077-.919.056-1.645.176-2.457.294-1.056.167-2.173.343-3.686.43-1.169.069-2.567.015-3.469-.14-.428-.073-.758-.168-1.059-.255-.332-.097-.631-.184-1.006-.211-.27-.02-.558.007-.914.04-.574.054-1.271.127-2.389.056a628.715 628.715 0 0 0-13.374-.715c-5.135-.22-10.185-.374-14.216-.417-4.514-.049-10.963-.33-17.446-.613-4.523-.2-9.064-.403-13.005-.562a359 359 0 0 0-3.663-.125c-2.779-.093-5.514-.139-8.593-.422-1.247-.137-2.423-.225-4.338-.758-1.012-.475-2.21-.121-5.098-3.338-1.304-1.493-1.818-4.264-1.671-5.925-.76.878-1.506 1.8-2.235 2.776a503 503 0 0 0-5.298 6.647c-5.041 6.432-10.041 12.472-13.788 16.822-3.809 4.339-5.799 6.712-7.031 6.522-1.355-.25-1.359-4.485 1.011-10.15 2.311-5.727 6.521-12.74 11.454-19.503a503 503 0 0 1 5.179-6.968c6.038-9.109 17.492-17.425 28.109-20.626a98 98 0 0 1 2.169-.788c5.19-1.817 10.029-3.414 14.943-4.814 1.139-.323 2.267-.631 3.42-.93 3.528-.917 8.507-1.829 13.864-2.373a94 94 0 0 1 8.324-.499M633.63 127.2c.131.062.147.058.146.053a1.2 1.2 0 0 0-.247-.106q.058.032.101.053m-49.557-35.343-.052.027q.028-.01.046-.017c.042-.019.054-.03.006-.01m-250.727-54.82.039-.075zm49.64-22.443c.098.046.169.073.244.104.134.052.234.083.309.102.246.058.205.01.112-.027a4.6 4.6 0 0 0-.665-.179M408.427 158.298c.614-.084.368-.016.234.022l-.006.002a.2.2 0 0 0-.049.019c-.02.014-.048.032-.434.123q.024.008.027.02c.014.086-.481.256-1.075.441l.01.002c.067.012.149.026-.071.079-.28.068-.541.125-.767.174-.478.149-.905.289-1.075.387q-.08.046-.077.078.006.03.066.051c.135-.01.295-.025.443-.038.208-.019.392-.036.454-.035.148.002-.074.067-.239.116l-.075.021q.131.006.273.009l-.157.028c-.676.125-.665.142-.648.168.008.012.016.025-.03.049a6 6 0 0 1-.517.106l-.173.031c-.165.031.016.007.23-.023.277-.038.61-.083.312-.023-.949.19-.299.1.194.032l.347-.046c.236-.027.006.024-.31.087-.251.05.003.028.323-.011.121-.014.125-.008.129 0 .004.007.009.017.146.005.345-.029.513-.042.647-.052l.109-.009c.115-.009.21-.013.306-.017.115-.004.232-.008.387-.022-.157.054-.352.115-.547.176-.101.031-.683.14-1.643.306a361.977 361.977 0 0 1-7.035 1.144c-.963.146-1.549.227-1.655.229-.211.005-.423.01-.592.007-.206-.003-.35-.016-.355-.052q-.005-.037.075-.089l.016-.01a15 15 0 0 1-.724.06c-.087.002.082-.035.226-.066.1-.022.188-.041.174-.043l-.052-.002c-.1-.001-.27-.003.039-.08.136-.034.408-.091.667-.147.37-.079.714-.153.606-.144-.19.015-.034-.027.104-.066.132-.036.247-.068.03-.041-.261.034-.157.01-.002-.027.107-.025.238-.057.289-.078.059-.025.239-.065.392-.099.215-.047.376-.083.074-.049-.336.039-.551.058-.449.028.047-.014.035-.019.022-.024-.018-.006-.036-.013.082-.042.097-.023.349-.069.571-.111l.195-.037-.019-.015-.132.019c-.234.033-.521.072-.665.088-.227.024-.088-.009.06-.045.115-.028.236-.057.19-.061a3 3 0 0 0-.239.014c-.154.012-.305.025-.211.001.036-.009.193-.037.35-.065l.003-.001.032-.006q-.188-.001-.405.003l-.121.014c-.194.023-.384.045-.651.083-.29.041-.461.054-.641.067-.117.008-.239.016-.401.034-.094.01.069-.022.236-.054.156-.03.316-.06.277-.059a2 2 0 0 0-.162.017l-.174.02c-.038.003.049-.017.161-.043l.212-.051-.298.002a94.368 94.368 0 0 0-1.155.175l-.815.126c-.183.027-.256.037-.18.023l.162-.028c.069-.012.13-.023.129-.024l-.111.017c-.093.014-.213.033-.221.032-.018-.004.02-.02.057-.034.042-.016.082-.031.044-.032-.041-.001.139-.042.318-.082.126-.029.251-.057.301-.073.05-.014-.052-.004-.151.005-.119.012-.235.022-.076-.01.032-.007.229-.04.476-.082l.56-.096q-.001-.013.018-.028l-.082.011-.002.001c-.629.096-1.49.225-.98.129.13-.024.371-.065.587-.102.212-.037.402-.07.442-.079a2 2 0 0 0-.228.028c-.201.027-.425.059-.218.019l.045-.008c.147-.028.365-.07.804-.147.114-.036.249-.076.396-.118.245-.07.526-.145.806-.221.138-.037.734-.148 1.691-.314s2.191-.372 3.467-.579c1.276-.208 2.509-.402 3.471-.548.959-.146 1.559-.23 1.703-.238.23-.014.46-.028.673-.039l.077-.008c.18-.02.54-.07.901-.12z"/><path fill="#000" d="M405.575 150.81c.577-.279.596.134.603.359l.001.011c.001.054.021.09.044.132.055.101.129.236.023.73q.104.093.192.2c.627.777.852 1.913.967 3.181l.033.031c.21.197.475.462.411.788-.086.407-.207.73-.319.999.047.821.131 1.573.247 2.914a5.67 5.67 0 0 1-.397 3.064c-.375.851-.813 1.385-1.183 1.819-.346.397-.661.703-.959.986-.103.253-.189.511-.276.748-.122.332-.247.623-.402.779a1.2 1.2 0 0 1-.451.279c-.408.16-.863.188-1.225.185q-.134 0-.25-.003c-.37.197-.768.375-1.203.523l-.109-.149c-.451-.644-.842-.592-1.593-.652a3.9 3.9 0 0 1-1.172-.275c-.296-.124-.356-.445-.386-.697q-.013-.113-.028-.203c-.04-.202-.223-.086-.464.03-.195.096-.429.191-.613.131-.11-.036-.205-.129-.251-.303-.329-1.477-.916-1.362-1.573-1.415-.181-.013-.341-.023-.454-.072-.368-.158-.338-.645-.132-.997.158-.284-.195-.523-.576-.678-.144-.057-.182-.181-.221-.318-.039-.142-.08-.299-.248-.431-.423-.335-.619-.512-.777-.648q-.066-.06-.128-.114c-.133-.112-.25-.263-.364-.408-.137-.176-.274-.35-.442-.471.125-.379.299-.735.477-1.077.093-.172.673-.374 1.639-.54a24 24 0 0 1 1.468-.203 55 55 0 0 1 .089-.875c.023-.188.393-.684 1.05-1.404a40 40 0 0 1 2.496-2.478c.953-.873 1.91-1.678 2.704-2.249.79-.575 1.343-.868 1.553-.847.339.035.683.078 1.008.129q.044-.012.085-.02c.202-.043.536-.213.875-.378zm-6.026 11.383c-.135.087-.272.15-.184.111.034-.014.181-.078.326-.144l.003-.001.03-.014c-.033.002-.067-.002-.103-.004a1 1 0 0 1-.072.052m2.302-4.245c-.269.039-.578.235-.799.458-.147.143-.257.294-.338.405q.215.003.416.009c.977.032 1.575.116 1.688.225.226.23.455.443.643.633.228.23.398.43.423.562q.004.029.005.053c.241-.162.399-.433.378-.67-.017-.218-.275-.3-.494-.351-.151-.037-.29-.067-.353-.164-.035-.053-.078-.132-.137-.229-.136-.23-.408-.576-.729-.768a1.06 1.06 0 0 0-.703-.163m-1.757 1.541c.026.041.013.035-.006.036-.025 0-.064.014-.006.129.04.078.165.223.297.363a.6.6 0 0 0-.058-.144c-.152-.304-.284-.475-.227-.384M333.057 95.99c.581-.438 1.142.067 1.44.35l.017.015c.069.066.143.109.231.158.212.12.499.28.919.92q.27.105.524.23c1.84.918 3.318 2.387 4.59 3.971l.068.034c.438.215.983.495 1.16.898.229.513.326.915.405 1.259.713 1.003 1.395 1.993 2.124 2.899.43.447.871.971 1.266 1.608a7.7 7.7 0 0 1 1.098 3.085c.122.979.039 1.841-.057 2.508q.06.445.14.786.018.184.03.363c.04.588.017 1.132-.11 1.539-.302.991-1.183 1.837-1.879 2.324q-.171.122-.322.224a10.4 10.4 0 0 1-1.396 1.475 5 5 0 0 1-.201-.061c-.837-.286-1.361.014-2.186.342-.354.14-.757.278-1.217.35-.298.046-.503-.187-.665-.378a3 3 0 0 0-.133-.15c-.142-.142-.213.06-.302.298-.113.308-.265.679-.58.423-.357-.292-.602-.398-.791-.384-.337.023-.504.429-.651.765-.067.154-.129.292-.2.372-.229.26-.614.054-.896-.254-.225-.242-.624.028-.935.356-.116.124-.278.13-.468.134-.194.003-.416.005-.657.138-.605.335-.927.487-1.186.61-.075.034-.141.066-.21.099-.22.104-.485.183-.75.261-.322.093-.641.184-.895.318a20 20 0 0 1-1.756-.739c-.296-.137-.518-.758-.613-1.75-.094-.993-.059-2.269.1-3.577.158-1.308.426-2.555.732-3.501.307-.945.628-1.504.908-1.579.492-.132.973-.267 1.444-.383q-.023-.022-.044-.045c-.102-.11-.202-.216-.315-.237-.128-.025-.194-.273-.259-.518-.046-.172-.097-.344-.166-.44-.067-.093-.211-.054-.35-.014-.168.048-.321.099-.341-.093-.004-.039.064-.229.146-.467.059-.169.126-.362.182-.543a4 4 0 0 1-.348-.197l-.048.069-.001.002c-.375.526-.87 1.255-.831.701.009-.141.082-.376.147-.588.064-.208.12-.394.101-.447-.022-.06-.122.04-.231.149-.153.153-.315.328-.312.101l.001-.05a4 4 0 0 1 .093-.847c-.21-.217-.408-.446-.606-.682-.329-.394-.648-.806-.943-1.187-.139-.186-.133-.808-.055-1.783.088-.975.185-2.223.367-3.503.174-1.28.53-2.494 1.017-3.388.49-.892 1.048-1.383 1.46-1.416.679-.05 1.312-.082 1.931-.086l.115-.04c.269-.096.599-.36.924-.626q.113-.092.226-.18m5.986 16.88a.6.6 0 0 0-.087.109c-.134.225.054.227.184.143.088-.051.156-.129.142-.147a.4.4 0 0 0-.078-.053.7.7 0 0 0-.161-.052m.091-.082q-.049.04-.089.08c.105.008.161-.01.089-.08m-1.723-.637c.251.319.493.601.494.483-.002-.207.096-.079.198.025l.07.07c.046.038.076.048.045-.004a.2.2 0 0 1-.092-.108l-.001-.016c-.081-.102-.064-.086-.001-.037a1.6 1.6 0 0 1 .104-.322l.001-.002.013-.032a16 16 0 0 0-1.066-.346c.077.091.158.191.235.289m1.309.093c-.008-.002-.018.01-.009.03.026-.017.019-.03.009-.03m-5.643-1.298a3 3 0 0 0-.418.418c-.113.134-.24.3-.37.469q-.129.17-.258.334a6 6 0 0 1 1.197-.105 12 12 0 0 1 1.278.11l.122-.136.005-.036c.024-.176.047-.358-.051-.375-.048-.008-.127.021-.211.053-.073.028-.15.059-.216.066-.061.005-.099-.127-.148-.296a3 3 0 0 0-.111-.332c-.28-.059-.546-.11-.819-.17"/></svg>