<svg xmlns="http://www.w3.org/2000/svg" width="456" height="577" fill="none" viewBox="0 0 456 577"><path fill="#000" d="M350.628.606c.599-.282 2.387-.812 4.093-.521a7.6 7.6 0 0 1 4.066 1.96 7.9 7.9 0 0 1 1.589 2.1 7.8 7.8 0 0 1 .778 2.356c.048.282.075.521.093.737.605 8.783 1.052 17.1 1.944 24.189.402 3.232.921 6.488 1.647 9.47.362 1.481.785 2.906 1.247 4.056.222.555.472 1.07.659 1.379q.065.112.119.186a63 63 0 0 0 3.194 2.562 27 27 0 0 0 2.311 1.562c.586-2.434 1.068-6.06 1.728-9.253.375-1.778.978-4.018 2.236-7.034.689-1.6 1.562-3.458 3.059-5.528.335-.43.689-.894 1.059-1.383 5.424-8.004 12.936-21.342 29.048-20.624.598.05 1.266.142 2.04.355.991.253 2.291.703 3.65 1.877l.064.056c2.467 2.016 3.105 6.016 2.523 8.07-3.2 10.976-8.055 19.894-16.564 33.301q-.27.416-.531.81c-2.245 3.382-3.91 5.292-5.39 7.036-1.574 1.837-2.998 3.435-4.768 5.844-.992 1.355-2.024 2.869-2.889 4.364-.176.305-.344.612-.5.91 3.851 2.372 8.226 4.905 12.519 8.284a81 81 0 0 1 3.601 3.019c3.446 3.116 8.388 7.129 13.146 11.654 4.293 4.106 9.051 6.761 12.504 15.409 4.664 12.199 16.58 26.126 19.857 43.974.148.906.298 1.831.445 2.757 1.018 6.46 1.946 12.982 2.371 19.75.197 3.39.297 6.833-.054 10.539-.194 1.863-.471 3.799-1.222 5.992-.751 2.025-2.106 5.289-6.125 6.89-6.817 2.722-18.617 4.231-25.313-4.344-10.305-15.801-9.49-31.436-10.462-46.823-.025-1.121-.091-1.985-.201-2.378-.101-.392-.25-.717-.725-1.329-.773-.956-1.883-2.01-3.131-3.09.056 1.725.027 3.33.036 4.83-.008 1.035-.018 2.019-.022 2.96l-.004-.043c-.014 4.012.635 7.026 1.574 9.219l-.088-.126c1.633 3.039 3.632 5.11 3.032 5.669-.439.441-2.773.181-6.437-3.144l-.057-.08c-2.087-2.327-3.879-6.221-4.649-10.923l-.003-.033a137 137 0 0 1-.457-3.02c-.669-5.138-1.353-10.314-4.101-14.211l-6.519-5.084c-6.133-3.302-12.663-6.609-19.302-8.483-3.383-.944-6.811-1.389-9.548-.897a18 18 0 0 0-.125 1.647c.16 15.315-5.911 31.523-8.933 44.472-2.144 11.126-3.393 22.115 1.253 30.629-.02-.034.151.239.365.513.215.281.489.612.769.937a68 68 0 0 0 1.899 2.087c1.355 1.435 2.766 2.875 4.192 4.339 6.296 6.426 12.572 13.103 18.456 20.117 9.086 10.777 19.65 20.853 29.745 31.444 9.742 10.187 19.365 20.259 28.67 31.248 3.432 4.671 7.66 7.54 10.249 16.135.55 2.613 1.17 5.343.978 8.958-.112 1.517-.387 3.283-1.355 5.201-3.316 5.665-7.052 6.665-10.077 8.545-3.137 1.666-6.229 3.105-9.323 4.505-16.024 7.207-32.068 14.24-47.669 21.832-5.884 2.881-11.711 5.867-17.317 9.045-2.77 1.577-5.502 3.203-7.994 4.896-.442.312-.878.629-1.288.94 1.981 3.495 2.008 5.471 2.985 7.942a217 217 0 0 0 2.851 8.23c5.391 14.167 12.192 27.326 17.407 37.935q.5 1 1.002 1.998c6.955 13.714 12.143 23.844 16.437 32.562 2.971 6.004 5.576 11.333 8.259 16.735 1.439 2.906 3.395 6.851 5.68 11.732 1.604 3.435 3.38 7.338 5.148 11.68 2.295 5.659 4.758 11.883 7.204 18.668 1.217 3.393 2.423 6.886 3.546 10.622.553 1.859 1.097 3.794 1.553 5.886.229 1.076.443 2.153.577 3.541.053.697.133 1.451-.016 2.75a8.4 8.4 0 0 1-.245 1.221 8 8 0 0 1-.276.809 7 7 0 0 1-.581 1.132c-.449.744-1.513 1.953-2.986 2.568a6.65 6.65 0 0 1-3.865.43c-1.88-.399-2.564-1.019-3.142-1.411a10 10 0 0 1-1.18-1.045c-.58-.596-.949-1.06-1.302-1.508-.688-.884-1.223-1.654-1.751-2.409-1.039-1.495-1.99-2.887-2.966-4.206-5.19-6.977-10.817-14.158-15.963-21.468-3.947-6.216-8.698-10.697-11.533-21.76-.92-7.236-4.377-15.739-7.811-23.498-2.492-5.561-5.178-10.961-7.852-16.078-7.564-14.726-13.029-27.57-16.626-34.899-2.252-4.684-4.569-9.556-6.935-14.512-4.559-9.288-8.62-20.68-13.906-26.419-1.629-1.677-5.91-2.358-10.088-2.681-9.272-.635-18.546-.884-26.335-1.503-7.361-.532-13.644-.964-18.226-1.24-10.965-.734-20.323-1.474-34.117-4.375l-1.027-.232a1113 1113 0 0 1-14.482-3.403c-2.694-.647-5.531-1.341-8.512-2.031-1.48-.341-3.025-.689-4.526-.972a28 28 0 0 0-2.149-.334 8 8 0 0 0-.816-.053h-.03a1 1 0 0 0-.308.353c-.057.11-.028.035-.074.182-.319 1.293-.493 4.093-.649 6.23-1.037 15.35-2.701 26.981-5.406 36.89-1.337 4.873-2.919 9.344-4.947 13.577-4.281 9.483-11.505 17.652-15.886 27.638q-.103.297-.187.582c-1.464 12.023 7.194 28.147 13.033 40.075a141 141 0 0 1 4.665 10.03c2.967 7.081 5.872 15.403 8.091 24.249a164 164 0 0 1 3.085 15.267c.298 1.957.552 3.905.781 5.836 4.129 11.631 8.157 22.471 10.523 37.289a4.5 4.5 0 0 1-.944 2.32 4.5 4.5 0 0 1-2.03 1.431c-1.189.373-1.734.254-2.194.223-.866-.115-1.301-.293-1.742-.461a9.6 9.6 0 0 1-2.184-1.232c-3.797-3.094-4.705-6.648-5.668-9.724-2.574-10.472-2.865-20.261-4.051-29.823q-.789-2.024-1.647-4.213c-1.241-3.164-2.583-6.586-4.037-10.285-3.639-9.194-6.957-17.784-10.667-25.745-2.316-4.963-4.783-9.518-7.245-14.966a37 37 0 0 1-1.433-3.859c-3.123-9.164-7.922-19.316-12.717-30.574-2.411-5.582-5.02-11.696-7.59-18.018-1.369-3.377-2.841-6.746-4.278-10.281-.761-1.903-1.523-3.821-2.13-6.056-.466-2.149-1.508-5.214.747-8.979 2.902-3.912 5.645-5.096 6.025-6.21 4.549-7.294 8.468-12.814 10.674-17.761 1.491-3.197 2.28-6.158 1.964-7.624l-.027-.111-.009-.039a29 29 0 0 0-.152-.6c-1.995-5.882-5.479-11.749-9.188-17.29-6.261-9.86-14.664-16.8-20.931-29.667-2.47-8.309-2.905-16.351-.466-24.898.665-2.187 1.634-4.424 3.086-6.493.183-.262.39-.556.578-.822 6.661-9.476 14.807-17.384 20.47-22.12 2.049-1.733 5.246-4.237 9.475-6.94 10.445-6.144 23.499-5.306 34.404-9.235.108-.041.332-.135.584-.256 9.928-6.154 24.719-11.682 36.162-12.324l1.642-.153c6.495-.612 12.66-.934 18.95-1.37 5.07-.39 11.057-.754 15.551-1.908a143 143 0 0 1-.287-4.71c-.151-3.561-.021-7.555.673-11.599l.045-.261c.588-3.573 2.321-11.412 5.073-21.104 1.684-5.999 3.705-12.727 5.764-19.756l.488-1.765c3.621-13.731 7.645-27.936 12.431-41.591a742 742 0 0 1 4.523-12.664c1.286-3.871 2.367-7.242 3.142-9.941.557-1.936.979-3.605 1.418-5.319.598-2.332 1.22-4.742 2.256-8.001.809-2.546 1.91-5.49 2.775-7.42.403-.901.751-1.576 1.065-2.184.365-.711.682-1.324 1.008-2.124.235-.579.427-1.175.677-1.94a62 62 0 0 1 1.871-5.083 445 445 0 0 1 3.107-7.257c1.192-2.707 2.423-5.447 3.825-8.313.704-1.427 1.44-2.891 2.386-4.51.497-.83.987-1.663 1.906-2.831.495-.59 1.008-1.287 2.386-2.308.722-.506 1.764-1.163 3.425-1.542 1.645-.406 3.734-.147 4.897.301.569.216 1.071.424 1.521.626a204 204 0 0 1-.508-6.015c-.49-6.997-.659-16.114.502-25.983.609-4.98 1.562-9.767 3.244-14.926a32 32 0 0 1 .879-2.345c.209-.475.369-.888.883-1.778.124-.208.335-.547.612-.912.189-.248.423-.535.768-.88.248-.237 1.042-1.059 2.472-1.669m6.436 56.805c.315 2.905.682 5.823 1.092 8.754.073.578.151 1.22.113 2.228-.216.976.384 2.626-2.621 5.82-1.594 1.51-3.972 2.036-5.239 1.976-1.346-.028-2.085-.277-2.672-.463-1.128-.396-1.65-.722-2.098-.968-2.065-1.177-4.053-2.417-5.921-3.59q-.241-.152-.491-.307-.246.484-.49.976c-1.235 2.507-2.438 5.163-3.631 7.85-8.543 19.603-16.571 39.862-23.858 60.034-4.833 13.39-8.763 26.73-12.618 40.727-3.511 12.262-7.232 24.341-9.885 36.378a176 176 0 0 0-1.053 5.416c-.95 5.032-.645 10.082-.273 16.659.085 1.582-.47 3.207-1.134 4.226-.653 1.023-1.291 1.598-1.862 2.063-1.053.826-1.901 1.212-2.567 1.512-1.397.6-2.485.895-3.566 1.176-2.105.527-4.05.855-5.952 1.148-3.808.574-7.488.965-11.134 1.325-7.285.707-14.331 1.245-20.979 1.755-7.429.549-14.012 2.227-19.372 4.36-5.052 1.904-8.048 4.163-14.545 6.93-14.568 4.406-26.497 3.805-32.527 7.442a94 94 0 0 0-8.788 5.95c-7.448 5.794-14.091 12.679-19.686 20.337-3.75 5.171-3.846 15.578-1.662 22.897 3.64 7.945 13.174 17.676 19.565 27.693 4.063 6.266 7.929 12.636 10.345 20.49 1.234 16.455-8.563 23.352-13.286 32.225-2.648 4.095-5.712 5.473-6.337 6.483a1.6 1.6 0 0 0-.017.266c-.002.387.097 1.055.278 1.78.364 1.473.983 3.178 1.638 4.883 1.336 3.445 2.836 6.998 4.246 10.611 2.309 6.037 4.79 11.922 7.325 17.811.052-1.608.282-3.303.775-5.124 5.716-13.537 12.707-20.604 16.293-29.308a57 57 0 0 0 .962-2.215c5.355-13.256 6.957-29.51 8.032-45.163.095-1.408.193-2.813.339-4.295.23-1.481.05-3.055 1.469-5.912 1.087-2.041 3.029-3.851 5.366-4.696 2.474-.774 3.389-.462 4.455-.437 1.004.089 1.862.226 2.698.371 1.634.289 3.169.627 4.657.961 2.977.674 5.857 1.37 8.655 2.033 5.609 1.336 11 2.584 16.089 3.704.822.182 1.657.355 2.485.519 4.238.833 8.344 1.438 12.155 1.939 11.993 1.439 24.166 2.234 36.403 3.045 9.439.695 18.558.645 28.618 1.427 1.551.209 3.157.466 4.878.889 2.588.644 5.781 1.736 8.45 4.231 7.877 8.818 10.355 18.397 15.797 29.449 4.712 9.969 9.98 21.479 16.386 34.791 2.196 4.528 4.534 9.261 7.151 14.091 5.549 10.489 11.861 21.96 16.117 36.671.549 2.072.969 4.066 1.206 6.046 2.078 6.86 6.705 12.791 9.022 16.622a199 199 0 0 0 2.708 4.029c3.075 4.458 6.709 8.88 11 14.148q-.321-1.023-.656-2.076c-2.609-8.112-5.302-15.301-7.79-21.729-11.054-26.614-19.422-39.781-25.176-50.431-2.154-3.846-4.115-7.35-6.051-10.969a387 387 0 0 1-6.186-12.071c-4.826-9.858-9.925-20.938-13.61-30.326-.97-2.476-2.181-5.55-3.424-9.054a272 272 0 0 1-2.79-8.313c-.466-1.45-.931-2.939-1.409-4.333-.444-1.346-1.094-2.792-1.291-2.928.079.003-.48-.186-1.519-1.894-.508-.868-.783-2.384-.564-3.445.188-1.062.556-1.724.856-2.23 1.235-1.865 2.153-2.481 3.105-3.321 5.296-4.193 10.481-7.079 15.312-9.887 3.772-2.152 8.494-4.637 13.973-7.339a570 570 0 0 1 9.137-4.393c9.744-4.594 21.076-9.693 33.128-15.238 1.927-.888 3.797-1.75 5.594-2.584 3.312-1.54 6.393-3.034 9.1-4.539 2.689-1.456 5.03-3.212 5.053-3.783.359-.362.09-4.112-.651-6.892-.671-2.973-5.284-7.965-8.122-11.455-2.822-3.326-5.542-6.311-8.087-9.088a783 783 0 0 0-7.919-8.481 1376 1376 0 0 0-12.346-12.877c-5.327-5.493-11.042-11.24-16.828-17.179-4.621-4.749-9.271-9.685-13.545-14.751-7.081-8.398-14.34-15.754-20.639-22.132-2.052-2.317-3.767-3.495-6.464-7.912-6.635-12.813-4.21-26.764-1.991-38.072 4.05-16.283 9.039-27.944 9.22-42.791.101-1.483.107-2.916.821-5.25.37-1.133 1.156-2.876 2.802-4.222 1.65-1.332 3.176-1.673 4.048-1.894 2.609-.578 5.084-.692 7.437-.526-4.193-3.847-5.973-6.183-6-6.996 1.112-.66 4.564.767 11.157 4.359a234 234 0 0 1 7.589 4.366 452 452 0 0 1 8.587 5.293c3.249 1.705 6.288 3.53 9.185 5.319 1.874 1.09 3.66 2.533 5.226 4.19a404 404 0 0 1 8.436 5.971c3.015 2.309 5.974 4.212 9.348 8.09 1.04 1.252 2.194 3.12 2.728 5.133.54 2.005.553 3.564.618 4.779.737 14.317 2.069 30.972 8.627 40.065 1.945 2.634 6.353 2.834 11.627.951.155-.431.338-1.163.455-1.969.285-1.913.332-4.249.257-6.605a90 90 0 0 0-.302-4.334c-.654-6.933-1.929-13.715-3.28-20.388-.657-3.103-1.869-6.317-3.362-9.519a96 96 0 0 0-3.142-6.096c-3.34-6.618-9.069-13.225-14.294-26.562.136.073-1.321-2.181-2.998-3.821-1.712-1.771-3.757-3.59-5.857-5.37-4.224-3.578-8.704-7.01-12.901-10.583-3.011-2.583-6.096-4.681-9.054-6.61q-.448-.292-.903-.587c-2.403-1.559-4.873-3.131-7.447-4.915-3.005-1.692-4.904-6.86-4.46-9.338.164-2.083.614-3.446 1.086-4.609-3.305.188-4.682-.89-6.089-1.403-1.573-.757-2.761-1.527-3.883-2.296-2.22-1.542-4.084-3.1-5.894-4.678zm29.285 13.825q-.031.105-.046.18c-.036.155.008.206.045-.13zm-13.461-20.495c.014-.01-.01-.002-.065.039a.4.4 0 0 0 .065-.039m24.572-23.536c-1.871 2.23-3.709 4.87-5.433 7.692q-.473.736-.957 1.485c-.739 1.098-1.238 2.56-1.657 4.343 2.397-3.912 5.272-8.594 8.047-13.52m10.895-6.71q.024.004.042.005l-.108-.016q.041.005.066.012m-.146-.023-.107-.012z"/><path fill="#000" d="M405.44 325.573c1.004-.82 2.649-.738 4.598-.004 1.957.746 4.106 2.113 6.106 3.783 3.259 2.729 6.748 5.227 10.357 7.488l.596.319c1.47.791 2.96 1.326 4.459 1.826l1.028.338c1.673.553 4.06 1.875 6.257 3.072a46 46 0 0 1 4.168 2.562c.714.493 1.381.947 2.174 1.526a32.4 32.4 0 0 1 3.491 2.91c1.442 1.53 3.278 2.927 5.399 7.582.342.78.704 1.648.936 3.065.388 2.611-.002 4.716-.422 6.388-1.717 5.835-3.978 9.247-4.35 11.451-.408 1.806-.659 2.071-.898 2.666-.246.532-.456.941-.672 1.349a56 56 0 0 1-1.251 2.213 130 130 0 0 1-2.475 3.986 305 305 0 0 1-5.042 7.551c-3.405 4.956-6.872 9.81-10.381 14.654a63 63 0 0 1-1.739 2.308c-.139.193-.277.383-.425.584-2.762 3.858-6.999 8.155-10.052 10.253-3.85 2.701-6.621 4.059-8.823 5.156-3.982 2.246-7.818 4.151-11.099 6.359-5.714 3.745-9.974 8.652-15.626 14.388-1.888 1.798-4.166 2.962-6.49 3.59-1.716.423-3.214.723-5.562.415-.798-.154-1.722-.306-2.987-1.272-1.282-.933-2.053-2.911-2.017-4.102.043-2.335.703-3.212 1.148-4.171.984-1.798 1.965-3.032 2.978-4.308 2.667-3.273 5.394-6.103 8.163-8.965 1.529-1.733 2.97-3.375 4.311-4.888 1.89-2.131 3.579-4.004 5.048-5.486q.578-.583 1.194-1.183c3.189-3.103 6.676-6.357 9.255-8.923.469-.465.922-.919 1.326-1.331 2.113-2.459 4.135-4.965 6-7.523l.514-.405c.971-.772 1.885-1.726 2.805-2.939a21 21 0 0 0 1.313-1.95c.208-.354.392-.695.539-1.011.058-.125.111-.256.143-.343q.038-.55.032-1.145c-.021-1.628-.297-3.523-.987-5.713a6 6 0 0 0-.264-.706c-.462-.985-.953-1.864-1.295-2.55a8 8 0 0 0-.338-.587c-.425-.65-1.164-1.075-2.058-1.562-1.162-.632-2.594-1.372-4.073-2.921-.284-.294-.538-.558-.813-.829-4.33-4.298-7.013-5.557-8.963-6.448-.64-.3-1.21-.564-1.747-.877-1.725-1-3.948-2.945-5.463-4.453-1.276-1.253-4.185-3.047-6.498-4.28-.884-.474-1.976-1.236-3.247-2.106-1.333-.912-2.891-1.962-4.623-2.931a210 210 0 0 0-5.259-2.846c-.7-.368-1.311-.682-1.978-1.057-.348-.199-.666-.376-1.153-.717-.452-.356-1.182-.755-2.094-2.244a6.5 6.5 0 0 1-.632-1.512c-.229-.734-.087-2.529.142-3.263.89-2.331 2.045-3.096 2.731-3.724 2.607-2.01 4.669-2.809 6.98-3.878q.951-.419 1.894-.817c2.019-.852 3.942-1.624 5.465-2.276 5.368-1.677 10.687-3.204 16.005-4.749 2.733-.792 5.5-1.084 7.711-.792 2.21.292 3.683 1.14 4.102 2.389.416 1.25-.253 2.815-1.855 4.374s-4.008 2.978-6.677 3.969c-5.368 1.995-10.749 3.975-16.028 5.979-1.53.582-3.053 1.168-4.528 1.762 3.23 2.102 6.35 4.282 9.448 6.525q.601.435 1.229.896c3.597 2.167 7.084 4.375 9.472 6.028 1.954 1.353 3.279 2.574 4.361 3.582.766.71 1.449 1.344 2.172 1.879.395.293.943.688 1.618 1.178a230 230 0 0 1 3.504 2.575c2.435 1.856 5.234 3.983 7.915 6.947 1.32 1.464 3.266 4.076 3.963 7.035.174.734.323 1.479.444 2.223.531 3.167.433 6.314.156 8.559-.137 1.18-.352 1.614-.511 2.094-.16.433-.308.785-.421 1.063-1.53 3.577-3.771 6.215-5.832 8.674-1.954 2.285-3.737 4.171-4.543 5.429-.966 1.502-2.054 2.554-3.684 4.072-1.129 1.048-2.531 2.33-4.371 4.11-2.128 2.055-3.76 3.368-5.157 4.481l-.034.027c-1.914 1.517-3.353 2.666-5.098 4.772q-.403.483-.81.964a12 12 0 0 1 .763-.368l.108-.048a64 64 0 0 1 3.557-2.959c2.199-1.698 4.457-3.178 6.646-4.586.281-.216.569-.432.848-.644 1.373-1.038 2.665-2.028 3.408-2.802.81-.84 3.096-2.443 5.233-4.26 1.41-1.19 2.761-2.481 3.757-3.626.584-.669 1.296-1.136 2.016-1.636.679-.475 1.367-.981 1.931-1.695.287-.364.548-.782.825-1.241.248-.409.489-.825.772-1.265.26-.406.97-1.198 1.841-2.282l.109-.135c.561-.714 1.172-1.493 1.809-2.334 1.559-2.515 3.122-5.044 4.668-7.559.214-.588.358-1.151.384-1.632a7 7 0 0 0-.042-1.017c-.042-.463-.093-.929-.009-1.493.066-.442.261-.876.495-1.096.111-.105.231-.165.339-.219.124-.062.234-.117.303-.226.049-.078.059-.186.073-.318.022-.21.048-.48.251-.802.738-1.173 1.627-2.488 2.481-3.768.949-1.42 1.862-2.812 2.504-3.946.703-1.245 1.992-3.038 2.862-4.372.111-.169.206-.318.257-.377.026-.03.042-.04.029.032-.01.073-.06.208-.146.7.331-1.37.74-2.511 1.1-3.473.578-1.535 1.083-2.97 1.524-4.237.534-1.521.96-2.783 1.427-3.595.095-.165.359-.309.677-.479.225-.122.477-.258.711-.413a5 5 0 0 0 .093-.412c-.71-.007-1.796-.287-2.701-1.803-.25-.412-.325-.796-.397-1.144-.078-.346-.151-.655-.426-.921-.314-.302-.807-.504-1.356-.711-.772-.291-1.643-.584-2.329-1.233l-.151-.142c-.424-.394-1.039-.943-1.659-1.625a11 11 0 0 1-.416-.431 105 105 0 0 1-9.162-5.819c-4.915-3.491-9.542-7.414-13.753-11.74-2.052-2.105-3.583-4.585-4.218-6.768-.632-2.181-.359-3.871.659-4.661m-33.133 121.829c-.114.229-.189.411-.208.511.03.043.082.058.137-.04.041-.069.084-.222.071-.471m7.283-7.632c-1 1.074-2.013 2.173-2.981 3.147.814-.74 1.672-1.62 2.57-2.66q.202-.237.411-.487M242.166 353.827c2.608-1.849 4.667-1.978 5.6-1.091.982.912.765 2.844.112 5.355q-.14.511-.317 1.062c-.017.021-.065.089-.082.11-.985 2.51-2.671 5.33-4.778 7.945-4.699 5.914-9.904 11.427-13.579 16.958-2.571 7.683-3.896 16.768-5.609 25.664-.731 3.794-1.415 7.558-2.556 11.671-.835 2.916-1.855 5.547-2.824 8.066l-.717 1.858c-1.489 4.413-2.195 9.387-1.703 9.406.008-.017.114.247.221.472 1.019 2.135 2.066 4.224 2.871 5.837.574 1.131 1.111 2.127 1.762 3.069.35.508.842 1.191 1.447 1.996 2.372 3.182 6.662 8.338 10.946 12.209q.388.342.753.698c2.784 2.773 4.694 5.799 6.617 8.613 2.677 4.024 5.15 7.547 6.695 9.093 2.667 2.719 5.591 5.852 8.413 8.331 1.427 1.263 2.816 2.365 4.056 3.217 1.084.746 2.079 1.326 2.86 1.68 2.005.904 3.581 1.918 6.016 3.431a158 158 0 0 0 6.721 3.953 118 118 0 0 1 7.71 4.682c2.776 1.824 4.851 3.221 8.193 4.933 3.709 1.901 7.464 4.181 10.193 6.31 1.238.962 2.689 2.039 4.168 3.19q.488.381.983.774c1.594 1.267 3.212 2.568 4.649 3.841 1.414 1.254 2.504 2.443 3.441 3.469q.451.492.865.931c1.199.937 2.375 1.847 3.584 2.772.214.114.447.237.691.364 1.088.569 2.404 1.254 3.916 2.196-.29-1.16-.599-2.342-.926-3.481-.831-2.956-1.86-5.528-2.572-7.007-.263-.565-.396-1.067-.559-1.551l-.001-.007-.034-.098a6.2 6.2 0 0 0-1.346-1.239c-3.551-2.447-7.2-4.838-10.859-7.277l-1.219-.712c-1.979-1.161-3.904-2.31-5.244-2.954-1.451-.699-4.778-2.919-8.23-5.461a199 199 0 0 1-6.471-4.998c-1.108-.887-1.978-1.947-2.849-3.064-.809-1.039-1.624-2.133-2.639-3.215-.517-.553-1.088-1.111-1.705-1.75a30 30 0 0 1-1.651-1.831c-.511-.628-1.516-2.134-2.617-4.26l-.199-.388a18 18 0 0 0-1.514-2.594c-2.129-2.576-4.94-5.129-7.851-7.774-.694-.461-1.35-.824-1.933-1.046-.419-.16-.819-.256-1.23-.356-.559-.137-1.14-.282-1.825-.618-.535-.262-1.069-.686-1.338-1.064-.125-.176-.193-.341-.255-.49-.07-.17-.133-.323-.265-.455-.096-.095-.23-.161-.394-.243a3.3 3.3 0 0 1-.989-.704 54 54 0 0 1-4.508-5.328 48.3 48.3 0 0 1-4.195-6.774c-1.006-1.954-2.053-4.922-2.467-8.214a23 23 0 0 1-.182-2.133c-.132-3.032.454-5.838.768-7.497.139-.739.223-1.363.237-1.813.05-.91.071-1.867.09-2.818.039-2.045.079-4.072.387-5.775.062-.349.297-.755.595-1.281.211-.37.453-.788.687-1.279.205-2.194.447-4.402.747-6.625l-.052-.251-.001-.004c-.388-1.905-.918-4.581.323-8.132.318-.893.69-1.439 1.024-1.909.331-.474.628-.884.842-1.554.244-.761.366-1.708.546-2.764.251-1.477.622-3.205 1.602-4.815l.219-.353c.498-.795 1.217-1.88 2.245-2.988q.45-.388.95-.79c2.125-3.133 3.754-6.984 5.406-11.196 1.681-4.289 3.454-8.896 5.739-13.341a48.7 48.7 0 0 1 5.379-8.3c2.558-3.206 5.774-5.609 8.569-6.71 2.805-1.122 4.901-.851 5.513.285.634 1.13.202 2.792-.947 5.056-1.154 2.258-2.917 4.93-4.744 7.627a38 38 0 0 0-3.685 6.769c-1.106 2.626-2.054 5.345-2.973 8.201q-.119.448-.241.899c-.608 2.235-.982 4.444-1.452 6.748q-.162.794-.346 1.606c-.617 2.782-2.596 7.467-5.369 11.289-.451.578-.999 1.592-1.381 2.456l-.067.154a21 21 0 0 0-.798 2.207c-.611 2.051-1.436 4.941-2.707 11.692a232 232 0 0 0-.632 6.024c-.344 3.635-.601 7.279-.959 11.152-.58 4.516-.984 5.864-.691 7.604 1.231 10.064 14.951 17.252 24.573 32.329.441.848.952 1.711 1.508 2.557q.214.296.444.6c2.898 3.92 7.809 8.365 10.909 11.23 3.942 3.66 6.825 6.089 9.173 8.099 5.295 4.1 10.814 8.055 16.328 12.247 10.024 9.766 7.438 20.011 10.439 27.37.078.224.16.491.219.846a4.6 4.6 0 0 1-.067 1.836c-.197.97-1.062 2.245-2.113 2.796a4.5 4.5 0 0 1-2.13.582 4.7 4.7 0 0 1-.982-.081 5 5 0 0 1-.466-.108 6 6 0 0 1-.62-.212 8 8 0 0 1-.726-.333 15 15 0 0 1-.529-.286c-.629-.361-1.16-.71-1.651-1.037a84 84 0 0 1-2.843-2.011c-4.668-3.449-9.089-6.966-13.551-10.487a2539 2539 0 0 1-6.994-5.559 122 122 0 0 0-5.186-3.908 125 125 0 0 0-7.132-4.328c-3.177-1.796-6.081-3.302-8.449-4.596-5.704-3.128-12.231-6.764-17.151-9.659q-1.2-.707-2.266-1.35c-2.205-1.194-4.436-2.453-6.654-3.887a66 66 0 0 1-5.275-3.806 57 57 0 0 1-.638-.746c-2.632-3.159-6.201-6.566-11.038-12.379-2.104-2.51-4.413-5.526-7.037-8.814-1.69-2.095-2.364-3.167-2.923-3.994a9 9 0 0 0-.456-.625l-.033-.036c-.824-.904-1.892-1.606-3.123-2.488-1.589-1.141-3.471-2.597-5.211-5.113-5.394-8.042-7.845-11.33-9.958-13.905-.602-.769-1.125-1.459-1.613-2.257-.605-1.032-1.206-2.055-1.795-4.029-.871-3.438-.091-6.133.518-8.102.806-2.602 2.266-7.217 3.191-10.564.343-1.271.959-2.91 1.557-4.773a42 42 0 0 0 .501-1.685c.396-1.451.765-3.208 1.053-5.065.991-6.623 1.445-10.309 1.885-13.225.122-.834.239-1.615.357-2.395.375-2.467.914-5.538 1.583-8.685.718-3.374 1.595-6.84 2.61-9.807.093-.264.484-.974.633-1.212q.28-.459.548-.885c4.956-6.662 10.291-11.606 15.067-17.011 2.147-2.383 4.421-4.476 6.532-5.977l-.103.14q.505-.412 1.011-.765M136.684 252.974c10.579-.152 21.018.215 31.332.331 1.599.017 3.177.05 4.709.093 5.26.141 10.128.535 13.972 1.157 4.976.811 7.842 1.926 7.854 3.219.117 1.289-2.679 2.672-7.623 3.806-3.82.875-8.687 1.544-13.955 1.943-1.596.119-3.22.2-4.854.249-10.503.299-20.863.354-31.045.884-1.062.056-2.088.114-3.142.176l-1.773.154c-4.38.379-8.424.993-12.428 1.683-.919.159-1.833.321-2.759.487-4.388.801-11.701 1.614-17.46 2.829.411.551.657 1.128.807 1.668.226.904.192 1.298.185 1.747-.019.431-.08.824-.153 1.17a10 10 0 0 1-.417 1.415 18 18 0 0 1-.904 2.004 29 29 0 0 1-.898 1.594c-.097.161-.2.321-.298.481.679-.354 1.272-.6 1.588-.743.317-.138.629-.292 1.293-.514.176-.056.379-.119.687-.186.321-.055.678-.177 1.676-.115.478.054 1.297.121 2.416.831 1.171.682 2.108 2.385 2.215 3.326.257 1.998-.146 2.387-.257 2.869-.303.78-.494 1.039-.658 1.318-.164.262-.305.464-.436.646-.261.361-.491.651-.718.932q-1.053 1.3-2.114 2.562c-.414.404-.829.803-1.254 1.208a155 155 0 0 0-8.058 8.335 413 413 0 0 1-2.661 3.911q.287-.29.579-.58c1.271-1.23 2.514-2.424 4.339-3.727.455-.318.995-.67 1.64-1.007.726-.347 1.507-.814 3.28-1.004 1.047-.072 2.42-.013 4.011.936 1.583.989 2.313 2.277 2.71 3.314.313.819.428 1.649.464 2.153.038.502.032.961.004 1.402a34 34 0 0 1-.394 2.867c3.331-2.644 5.548-4.4 9.19-6.957q.122-.073.243-.141c3.863-1.829 5.608-1.127 7.146-1.012 1.459.264 2.269.747 2.417 1.38.139.637-.404 1.409-1.526 2.294-.999.867-3.206 1.96-3.893 3.058l-.042.071c-1.178 2-4.259 5.825-7.214 8.867l-.053.047a124 124 0 0 1-5.506 5.234 549 549 0 0 1-8.964 7.852 87 87 0 0 1-9.921 13.872 823 823 0 0 0-6.626 7.662c-6.397 8.057-12.67 16.214-17.257 21.916-3.822 4.72-6.66 7.931-9.844 10.964-.43.395-.857.789-1.539 1.323-.18.139-.337.256-.58.423-.277.19-.59.39-1.017.605-.2.102-.656.317-1.166.467a6.5 6.5 0 0 1-1.53.266c-.323.017-.682.011-1.074-.036-1.533-.04-3.837-1.603-4.407-2.711A6.23 6.23 0 0 1 44 381.336c-.105-1.599-.187-3.129-.275-4.674a92 92 0 0 1-.165-5.348c.056-2.991.023-6.621 1.17-11.164-1.337-3.231-1.788-6.255-2.025-9.541l-.285.259-.372.335c-1.687 1.524-3.416 3.11-5.143 5.007-.864.95-1.765 2.014-2.725 3.15-.845.999-1.743 2.062-2.703 3.152-.896 1.013-3.008 3.157-5.785 5.908a268 268 0 0 1-5.86 5.651c-1.707 1.678-3.35 3.318-5.669 5.048-1.042.724-2.03 1.487-4.104 2.164-1.035.287-2.583.688-4.768-.002-2.222-.689-3.765-2.673-4.284-3.876-1.087-2.529-.943-3.854-1.007-5.171-.004-1.277.089-2.38.196-3.426.169-1.614.381-3.219.618-4.79.12-1.641.191-3.065.166-4.212-.018-.826-.086-1.534-.152-2.267-.088-.998-.173-2.028-.103-3.417.052-1.076.273-2.329.548-3.128.127-.372.267-.654.392-.904.144-.285.273-.541.356-.874.06-.241.074-.5.094-.819.034-.512.079-1.177.335-2.144.95-3.587 2.195-7.613 3.537-11.513.79-2.297 1.61-4.553 2.403-6.659.7-1.861 1.38-3.625 2.009-5.219 1.506-3.757 4.038-9.387 8.228-14.641a44 44 0 0 1 2.277-2.628 368 368 0 0 1 5.784-6.03c2.374-2.414 4.839-4.966 7.306-7.343 2.959-2.856 5.942-5.48 8.686-7.412.564-.398 1.337-.743 2.34-1.186.693-.299 1.52-.662 2.407-1.076a155 155 0 0 1 10.547-7.033l.332-.304.005-.005c2.528-2.311 6.015-5.495 11.94-8.34 1.516-.726 2.542-1.028 3.48-1.306.915-.27 1.735-.508 2.826-1.063 1.233-.625 2.616-1.526 4.153-2.487 2.17-1.354 4.629-2.832 7.482-3.832q.297-.104.624-.215c1.529-.512 3.589-1.208 6.283-1.641a34 34 0 0 1 2.623-.262c9.083-1.659 17.835-2.275 26.65-2.714 4.111-.191 8.201-.308 12.312-.37m-67.12 86.283c-1.467 2.594-2.894 5.308-4.541 8.672-2.958 5.373-4.193 10.397-10.474 15.957a8 8 0 0 1-.67.384c-.66 2.779-.888 5.437-.897 7.87.696-.966 1.36-1.886 2.075-2.822 3.073-4.032 7.898-9.557 11.67-13.609 1.973-2.124 5.002-5.855 8.017-9.664q-.06-.006-.122-.014a5.8 5.8 0 0 1-1.343-.352 5.7 5.7 0 0 1-1.796-1.133 5.75 5.75 0 0 1-1.764-3.4 17 17 0 0 1-.155-1.889m5.839-57.919c-2.834 1.6-6.238 3.549-10.425 5.98l-.565.353a156 156 0 0 0-8.882 6.007c-8.693 6.317-16.397 13.418-23.628 21.684-4.07 4.423-6.8 10.908-9.488 17.921-3.717 9.824-6.846 20.109-8.81 30.28 2.523-2.48 5.122-5.216 7.6-7.759l1.116-1.208c3.513-3.808 7.451-8.105 11.36-12.159a407 407 0 0 1 9.281-9.344c.35-2.819.89-5.252 1.48-7.421.23-.843.469-1.647.71-2.423a52.4 52.4 0 0 1 2.812-8.731c.159-.477.329-.97.519-1.489a40 40 0 0 1 3.246-6.876c.43-.727.988-1.582 1.504-2.327 3.79-5.364 7.74-9.267 11.967-13.286 3.121-2.934 6.428-5.883 10.203-9.202m-18.699 54.834a616 616 0 0 0-5.977 6.272q.012 1.907.063 3.834c1.864-3.441 3.87-6.782 5.914-10.106m27.899-51.841q-1.38 1.113-2.743 2.258c-6.468 5.467-12.751 11.394-18.304 17.655-1.848 2.103-3.624 4.271-5.081 6.42-2.779 4.076-4.721 8.617-5.944 13.444 4.049-3.729 7.303-6.654 10.082-9.211 2.583-2.511 5.593-5.422 6.996-7.41 5.04-7.663 10.08-15.411 14.994-23.156m8.71 35.119a203 203 0 0 0-3.353 4.219q1.107-.876 2.208-1.761l.164-.331q.52-1.083.98-2.127m4.28-14.231c0-.014-.013-.006-.009.104zM248.969 52.738c2.873-1.189 6.018-2.13 10.264-1.634 1.064.13 1.749.38 2.333.603.596.22 1.103.42 1.883.471.855.058 1.904-.056 3.009-.176.695-.072 1.38-.148 2.136-.188.933-.054 1.922-.049 2.91.096l.373.056c1.267.183 3.104.454 4.945.95 5.496.27 10.967.567 16.451.876 9.138.515 18.267 1.072 27.397 1.606.551.033 1.155.074 1.694.122 3.83.326 7.359.98 10.081 1.869 3.129 1.033 4.697 2.212 4.91 3.457.202 1.323-1.886 2.667-5.019 3.57-2.803.803-6.382 1.287-10.24 1.413-.544.02-1.152.029-1.706.033-7.284.034-14.528.054-21.793.057q-.571.023-1.144.044c-2.833.1-5.465.388-8.101.677-.607.066-1.208.133-1.819.197-2.479.261-6.178.235-9.827.116 4.239 1.04 8.528 1.993 12.567 2.886.167-.051.379-.116.656-.195.35-.094.784-.221 1.574-.323.772-.067 2.071-.266 4.096.55 2.141.818 3.884 3.148 4.312 4.67.515 1.579.472 2.629.422 3.493-.153 1.694-.547 2.763-1.057 3.88a8 8 0 0 1-.718 1.237 9 9 0 0 1-.534.685c-.339.394-.563.612-.818.857-.446.42-.823.728-1.193 1.02-.704.547-1.315.97-1.941 1.393a85 85 0 0 1-3.511 2.215 271 271 0 0 1-6.806 3.931 1188 1188 0 0 1-10.206 5.645c7.311-2.297 14.617-4.738 21.884-7.203 2.202-.69 3.69-1.424 7.185-1.854.295-.016.597-.03 1.084.014.484.095 1.181-.013 2.647 1.025.778.573 1.544 1.742 1.706 2.847.17 1-.017 1.77-.138 2.18-.305.937-.56 1.239-.762 1.556-.802 1.096-1.257 1.424-1.763 1.895-.971.848-1.848 1.504-2.74 2.162a509 509 0 0 0-4.936 3.658c-5.327 4.021-10.562 8.118-14.824 12.72a42 42 0 0 0-2.5 2.965 523 523 0 0 0-8.539 11.509 308 308 0 0 0-5.533 8.532 455 455 0 0 0-5.416 8.9c2.2-.352 4.27-.721 6.151-1.104 1.027-.209 2.011-.425 2.881-.627a94 94 0 0 0 3.862-1.167c4.891-3.246 9.581-6.096 11.928-7.722 1.101-.756 2.205-1.514 3.83-2.324.176-.085.477-.226.784-.345.155-.061.32-.121.505-.179.246-.077.61-.183 1.096-.244.249-.03.541-.052.913-.034.575.032 1.784.17 2.964 1.177a4.85 4.85 0 0 1 1.653 3.254 5 5 0 0 1-.169 1.758c-.289.925-.372.95-.503 1.224a8 8 0 0 1-.36.586 9 9 0 0 1-.511.69c-.149.186-.356.43-.47.559q-.378.429-.835.902c-2.053 2.178-4.605 3.824-6.86 5-3.462 1.787-6.641 2.886-8.948 3.724a452 452 0 0 0-3.353 2.562c-2.627 2.033-4.099 2.9-5.32 3.622-.357.212-.684.406-1.016.621-1.133.731-2.082 1.78-3.169 3.028-1.39 1.613-3.11 3.588-5.487 5.672-.367.324-.731.666-1.026.952-6.278 6.605-7.18 11.462-8.078 14.576-.253 1.003-.465 1.917-.726 2.833-.859 2.966-2.37 7.108-3.473 10.307-.903 2.506-1.738 7.851-1.84 11.813-.044 1.487-.25 3.563-.23 5.688.007.621.049 1.273.114 1.63q.018.098.038.195c3.717-.39 6.594-4.391 8.218-6.541.51-.711.972-1.398 1.423-2.108 1.432-2.234 3.067-5.185 4.716-8.424.315-.609.619-1.205.974-1.868a22.54 22.54 0 0 1 .612-1.09c.133-.221.296-.482.506-.778a8 8 0 0 1 .794-.948c.137-.138.299-.29.511-.463.43-.333 1.021-.815 2.279-1.183.977-.301 3.361-.612 5.52.869 2.041 1.477 2.414 2.965 2.691 3.766.437 1.662.335 2.346.34 3.05-.052 1.319-.206 2.201-.353 3.065-.303 1.688-.647 3.08-.958 4.33q-.17.542-.343 1.066c-1.726 5.182-4.809 8.868-7.815 11.978a67 67 0 0 1-2.76 2.641c.627.195 1.242.384 1.805.561.027.001.107.01.135.012.863.262 1.754.576 2.547.946 3.518 1.747 4.557 3.587 4.229 4.825-.354 1.296-2.644 1.788-5.545 2.179-.631.099-1.289.21-2.054.312l.109.009c-3.156.299-6.795.646-11.624-1.755-1.018-.583-2.19-1.352-3.261-2.855-.178-.277-.364-.729-.516-1.219-2.099.3-4.298.212-6.356-.455-3.848-1.381-4.498-3.731-5.121-4.939-.55-1.352-.774-2.435-.952-3.489-.56-4.769-.033-7.76.369-11.275a91 91 0 0 1 .378-2.532c.737-6.9 2.249-13.633 3.725-18.317 1.214-3.867 2.529-6.567 3.725-8.839.828-1.563 1.607-2.926 2.355-4.343.399-.755.956-1.799 1.682-3.034 1.1-1.865 2.598-4.201 4.63-6.637 1.589-1.857 3.307-3.598 5.096-5.247-1.114.134-2.17.264-3.901-.013-.513-.107-1.122-.239-1.961-.719-.812-.43-1.911-1.594-2.228-2.818-.537-2.443.145-3.14.266-3.701.912-2.099 1.52-2.806 2.206-3.912 2.28-3.425 4.031-5.778 6.282-9.657 2.487-4.267 5.311-8.584 7.792-11.799 1.114-1.444 2.379-3.177 3.669-4.924 1.548-2.099 3.183-4.285 4.807-6.268q.295-.361.595-.707c1.64-1.888 3.213-3.17 4.609-4.256.436-.336.856-.654 1.261-.962a103 103 0 0 1 4.172-3.793l.638-.718q.557-.626 1.219-1.335a58 58 0 0 1-2.469.83c-.96.292-1.805.412-2.653.534l-.011.001-.175.026c-6.047 2.195-12.104 4.355-18.26 6.421-.534.209-1.041.408-1.576.614-2.576.996-5.108 1.931-6.75 2.66-.721.322-1.943.762-3.52 1.233a39 39 0 0 1-2.741.716 17 17 0 0 1-1.889.318 11 11 0 0 1-1.149.055 7.6 7.6 0 0 1-1.112-.107 5 5 0 0 1-.24-.048 5.826 5.826 0 0 1-2.57-1.25c-.511-.41-1.274-1.293-1.647-2.289-.41-.955-.442-2.266-.359-2.768.165-1.283.604-2.035.934-2.562a23 23 0 0 1 2.045-2.793c2.66-3.093 5.559-5.342 7.89-7.17 1.368-1.06 2.814-1.796 4.303-2.516 1.023-.493 2.068-.978 3.136-1.555q.546-.293 1.089-.625a52 52 0 0 0 2.207-1.467c.695-.477 1.408-.969 2.192-1.47.721-.462 2.413-1.336 4.578-2.456a421 421 0 0 0 4.441-2.32c1.912-1.168 3.828-2.338 5.722-3.509q-.753-.166-1.44-.31c-2.45-.514-5.88-1.518-9.316-2.625-2.397-.77-4.798-1.593-6.879-2.295-2.042-.689-4.221-1.308-6.368-2.014-2.559-.84-5.132-1.825-7.295-3.22-.417-.272-.927-.796-1.504-1.472-.442-.503-.905-1.067-1.509-1.8-1.292-1.155-3.075-2.465-4.141-5.999-.572-1.747-.022-4.55.978-5.861.956-1.392 1.808-1.933 2.454-2.363 1.301-.791 2.128-1.027 2.914-1.275a24 24 0 0 1 1.895-.485c.118-.053.247-.109.372-.162zM246.524 219.4c.035.082.072.104-.009-.023zm16.822-17.269c0 .014-.001.042.003.102.004-.077.003-.117-.003-.102m-16.856-95.934c-.07.006-.091.013-.082.018a.9.9 0 0 0 .236.007q.088-.004.2-.015c-.204-.019-.316-.012-.354-.01m41.437-32.123c-.058.034-.137.095-.312.303-.143.176-.452.564-.785 1.292a.7.7 0 0 0-.031.13c-.019.14.01.267.037.4.026.131.047.255.033.447.178-.292.325-.584.453-.87.222-.508.48-1.065.638-1.503.041-.137.072-.252-.033-.199m-37.296-7.526c-.051.009-.083.039.018-.006zM346.96 95.452c1.075-.588 2.371-.696 3.582-.29 1.212.408 2.242 1.282 2.907 2.418a6 6 0 0 1 .778 3.683c-.149 1.227-.679 2.253-1.478 2.91a78 78 0 0 0-2.612 2.256l.056-.043a73 73 0 0 1-2.431 2.108c-2.092 1.732-4.335 3.363-6.774 4.756.404.364.812.751 1.199 1.125 1.067 1.025 2.061 1.99 2.696 2.226 1.117.414 2.23 1.235 3.185 1.951.925.691 1.73 1.298 2.322 1.39.321.051.59.158.851.314.306.183.599.438.964.753.46.397 1.01.875 1.835 1.421.949.628 1.549 1.194 2.064 1.677.721.677 1.267 1.189 2.348 1.471 1.21.319 2.4.769 3.199 1.364.361.269.814.522 1.284.785.615.344 1.273.713 1.796 1.164.431.371.701.829.941 1.234q.111.191.218.36.578.338 1.163.672.125.003.265.002c.464.002 1.032.003 1.629.192.946.299 1.596.853 2.284 1.443.533.458 1.089.937 1.821 1.327.499.266 1.104.509 1.703.751.89.36 1.769.717 2.274 1.139.19.158.284.404.377.648l.001.004.02.05a892 892 0 0 0 4.259 2.157l.417.117c.674.189 1.33.374 1.837.374.546-.003 1.628.476 2.758.982.748.336 1.511.681 2.175.915.389.138.618.483.85.837.213.328.444.673.807.862.183.095.405.159.641.226.207.059.428.121.646.215.201.086.552.426.993.857.274.268.594.578.929.883 1.044.578 2.096 1.177 3.133 1.788.285.021.576-.004.859-.102.202-.069.41-.177.622-.287.288-.149.586-.304.896-.375.243-.055.442-.003.51.14.03.066.029.149.029.225 0 .085.001.162.045.192.033.022.095.006.171-.014.121-.031.278-.071.408.018.475.323 1.014.767 1.511 1.187l.143.122c.48.409.939.792 1.341 1.05.492.315 1.082.985 1.634 1.624.407.462.806.917 1.176 1.255.366.335.855.569 1.312.78.539.249 1.098.514 1.39.928.06.085.041.319.016.611a6 6 0 0 0-.028.682c.519.378.993.732 1.507 1.123l.104-.027.002-.001c.79-.214 1.865-.512 2.359.482.123.251.106.538.098.802-.011.258-.02.489.105.628.143.158.417.191.713.225.423.052.901.115 1.114.523l.047.089c.156.293.41.743.512 1.358a328 328 0 0 1 3.027 2.595c1.67 1.443 3.346 2.905 4.991 4.264.814.671 1.316 1.67 1.453 2.845.126 1.175-.07 2.442-.542 3.645-.458 1.211-1.537 2.118-2.788 2.545-1.256.427-2.556.365-3.631-.134a130 130 0 0 1-5.035-2.471q-.142-.047-.285-.098c-.691-.248-1.45-.325-2.196-.396a20 20 0 0 1-.524-.057c-1.305-.144-2.998-1.637-3.909-2.455l-.051-.045c-.217-.194-.45-.37-.697-.557-.603-.458-1.444-1.093-2.95-2.67a71 71 0 0 1-1.535-1.087c-2.646-1.929-5.197-3.973-7.701-6.095-2.431-2.079-5.042-4.214-7.66-6.327l-.216-.131c-1.397-.846-3.167-1.894-4.119-2.77a54 54 0 0 1-2.676-2.622c-4.181-3.209-8.461-6.327-12.899-9.195q-2.087-1.35-4.226-2.619a174 174 0 0 0-3.971-2.28 65 65 0 0 0-2.396-.895c-1.056-.379-1.999-.718-2.725-1.074-1.761-.864-3.56-2.184-4.896-3.166l-.614-.449-.21-.105a256 256 0 0 0-3.289-1.622l-.146-.269c-.62-1.148-1.795-1.814-3.671-2.854-.804-.446-1.763-.974-2.849-1.629-.693-.419-.935-.862-1.132-1.223a4 4 0 0 0-.175-.296c-.202-.302-.605-.314-1.063-.316-.604-.01-1.324-.016-1.926-.685a8.6 8.6 0 0 0-1.336-1.226q-.351.169-.674.311l.156-.642c-1.014-.575-1.844-.592-2.571-.642-.326-.02-.647-.057-.957-.165-.448-.182-.873-.357-1.765-1.254-3.027-2.464-1.709-6.157 1.881-7.691a6.4 6.4 0 0 1 1.554-.096c.674.038 1.764-.642 2.5-1.306.279-.25.716-.441 1.229-.68.53-.245 1.142-.542 1.726-.994 1.471-1.145 2.218-1.794 2.826-2.31.173-.148.332-.287.491-.427.502-.443 1.144-.964 1.787-1.507.769-.648 1.54-1.33 2.083-1.913q1.13-.681 2.266-1.394c.012-.01.054-.038.066-.05a72 72 0 0 1 3.462-2.028"/><path fill="#000" d="M358.975 125.865c1.292.008 2.538.513 3.513 1.468a5.83 5.83 0 0 1 1.747 3.516c.255 2.162.523 4.34.782 6.5q.043.167.084.336c.2.858.581 1.607.965 2.403.089.185.177.361.263.536.654 1.367.476 4.006.385 5.5l-.005.081c-.022.34-.02.664-.017 1.05.009.93.017 2.171-.283 4.763.043.765.079 1.509.108 2.261.315 8.149.196 16.331.036 24.505l.028.316c.102 1.169.219 2.488.278 3.738.042.896.056 1.723.007 2.382a115 115 0 0 1-.412 4.461c.113 6.327.629 12.676 1.832 18.872a78 78 0 0 0 2.96 10.961c.456.961.924 1.83 1.383 2.668.627 1.129 1.214 2.138 1.625 2.999.97 2.042 1.825 4.472 2.522 6.195.116.286.232.563.331.799.734 1.205 1.624 2.547 2.3 3.328l.039.047q.025.164.049.335c.208 1.429 1.2 2.697 2.867 4.653.728.854 1.59 1.841 2.582 3.047.64.777.782 1.349.897 1.815.033.137.065.266.107.388.144.419.566.621 1.067.863.647.312 1.429.693 1.898 1.698 1.488 3.202 2.933 3.992 4.054 4.631.327.188.622.361.879.584.825.71 1.531 2.136 1.882 3.342.282.942 1.461 2.516 2.341 4.013.261.436.496 1.061.688 1.847l.029.09c.191.582.412 1.133.873 1.739 1.16 1.49 2.045 2.417 2.682 3.119l.05.053c.188.204.366.394.544.58.568.595 1.245 1.342 1.959 2.096.85.897 1.751 1.798 2.494 2.427 1.5 2.004 3.084 4.013 4.729 5.991a5.76 5.76 0 0 1 1.321 3.69c-.004 1.362-.501 2.647-1.414 3.597-.917.946-2.19 1.486-3.58 1.488-1.385.006-2.762-.53-3.823-1.468-2.134-1.891-4.238-3.855-6.251-5.961-1.818-1.904-3.57-3.935-5.162-6.135a40 40 0 0 1-1.631-2.424c-1.023-1.631-2.133-3.833-2.722-5.941-.021-.101-.117-.394-.129-.496a6 6 0 0 0-.26-.968c-.05-.143-.104-.285-.164-.436-.833-1.075-1.983-2.285-2.763-3.193-.644-.749-.974-1.455-1.26-2.058-.202-.42-.383-.788-.657-1.101a24 24 0 0 0-.609-.656c-1.036-1.098-2.884-2.961-4.288-5.028-.62-.914-1.264-2.064-1.878-3.175-.88-1.586-1.69-3.098-2.313-3.688-1.076-1.014-2.016-2.447-2.811-3.772l-.059-.095c-.908-1.52-1.418-2.69-1.981-3.229-.669-.653-.941-1.38-1.307-2.449-.253-.742-.561-1.67-1.033-2.829-.557-1.369-.784-2.383-.981-3.268-.26-1.213-.44-2.121-1.212-3.323-.84-1.291-1.573-2.767-1.856-3.984-.128-.549-.348-1.204-.553-1.828-.278-.849-.567-1.769-.682-2.623-.099-.716-.009-1.356.078-1.906q.04-.26.071-.501c-.147-.544-.295-1.1-.436-1.632q-.093-.115-.199-.244c-.348-.422-.783-.984-1.094-1.68-.495-1.119-.589-2.212-.668-3.329-.064-.891-.119-1.79-.356-2.805-.163-.701-.408-1.467-.646-2.236-.357-1.156-.69-2.278-.718-3.103-.011-.309.109-.595.228-.879l.002-.004.025-.057a228 228 0 0 1-1.16-5.846l-.177-.499c-.285-.804-.557-1.602-.877-2.113-.35-.574-.651-1.962-.95-3.509-.195-.996-.387-2.011-.603-2.862a1.9 1.9 0 0 1-.022-.746 6 6 0 0 1 .177-.718c.133-.454.27-.917.201-1.407a5 5 0 0 0-.207-.785c-.078-.247-.16-.496-.218-.779-.054-.26.003-.848.077-1.591.045-.459.098-.978.135-1.517a392 392 0 0 1-.523-4.304 2.3 2.3 0 0 0-.614-.739 5 5 0 0 0-.612-.372c-.297-.16-.604-.325-.854-.561-.195-.186-.28-.405-.211-.57.032-.076.097-.136.155-.19.067-.062.127-.117.122-.181-.003-.045-.056-.091-.119-.147-.1-.089-.23-.205-.244-.39-.05-.689-.047-1.453-.045-2.216.003-.863.007-1.691-.06-2.34-.075-.723.06-1.82.198-2.863.096-.726.191-1.498.217-2.124.025-.617-.104-1.25-.23-1.882-.15-.756-.293-1.446-.156-2.077.028-.127.221-.291.464-.496.172-.145.369-.311.549-.498-.03-.777-.052-1.55-.066-2.342l-.086-.081-.002-.001c-.659-.614-1.562-1.461-1.085-2.716.122-.316.359-.518.573-.7.21-.173.397-.348.43-.58.038-.264-.105-.569-.259-.896-.217-.46-.46-.965-.266-1.511l.042-.117c.138-.392.343-.947.771-1.524.07-1.689.166-3.32.278-5.013.188-2.763.424-5.56.679-8.358a5.9 5.9 0 0 1 1.692-3.617c.969-.985 2.222-1.496 3.515-1.489"/><path fill="#000" d="M375.018 217.872c1.292-.253 2.61-.152 3.694.323 1.083.472 1.838 1.32 2.088 2.296a69 69 0 0 1 1.452 7.357c.253 1.788.434 3.541.535 5.284.091 1.571.153 3.127.199 4.682l.014.478c.412 1.28.803 2.544.981 3.44.147.739.022 1.295-.085 1.772-.072.329-.136.619-.095.904.022.153.062.359.11.609.197 1.021.546 2.738.434 4.345-.03.418-.099.882-.181 1.355l-.05-.298c-.037.35-.08.709-.123 1.064-.147 1.222-.286 2.367-.078 2.883.369.922.417 2.043.456 3.039.037.946.068 1.78.366 2.2.358.506.336.996.303 1.72-.023.506-.051 1.124.033 1.942.099.953.026 1.635-.036 2.227-.087.833-.156 1.445.284 2.294.487.93.856 1.944.869 2.773.005.378.079.81.153 1.247.098.582.201 1.202.156 1.782-.037.477-.241.894-.422 1.264q-.085.172-.156.333c.051.373.101.736.154 1.106q.073.083.156.173c.274.301.611.679.813 1.164.319.768.256 1.497.184 2.248-.057.587-.118 1.206-.007 1.887.075.465.231.99.382 1.514.224.773.439 1.541.386 2.094-.02.207-.166.393-.312.577l-.002.003-.03.038q.336 1.963.662 3.942l.14.339c.226.551.443 1.091.729 1.438.31.374.523 1.343.735 2.373.14.672.28 1.37.454 1.942.102.333-.058.654-.223.983-.155.307-.314.622-.271.964.022.171.093.357.167.554.066.173.134.356.177.548.039.179-.049.579-.166 1.091-.072.317-.155.674-.225 1.05q.14 1.496.235 2.998c.138.213.321.4.558.552.17.109.374.204.582.302.284.133.578.271.809.457.18.144.248.31.167.417a.5.5 0 0 1-.171.119c-.072.037-.136.071-.136.115 0 .032.049.068.108.111.093.07.213.16.212.289-.006.484-.072 1.03-.141 1.564-.076.593-.155 1.175-.149 1.642.008.522-.23 1.251-.473 1.979-.17.507-.341 1.012-.434 1.451-.069.329-.051.678-.014 1.025q.017.157.037.312c.067.529.133 1.021-.073 1.431-.041.081-.252.165-.514.269a8 8 0 0 0-.598.259 46 46 0 0 1-.2 1.597l.075.067.002.001c.583.505 1.378 1.218.759 1.998-.158.202-.417.308-.651.402-.228.092-.434.174-.494.322-.068.175.036.405.149.651.159.341.334.743.076 1.072l-.057.072c-.183.232-.459.608-.954.921a66.582 66.582 0 0 1-2.981 9.053c-.383.924-1.245 1.705-2.387 2.068-1.143.364-2.45.281-3.66-.169a7.84 7.84 0 0 1-3.021-2.015c-.75-.827-1.128-1.687-1.071-2.485.098-1.305.148-2.665.189-4.046l-.038-.224c-.082-.56-.357-1.106-.634-1.659-.063-.13-.129-.251-.191-.377-.47-.954.026-2.591.287-3.509l.014-.05c.063-.225.098-.424.14-.671.099-.596.232-1.371.817-3.01.043-.502.087-.976.141-1.478q.119-1.105.259-2.239c.555-4.427 1.208-8.886 1.733-13.43l-.011-.203c-.066-1.323-.174-2.964.022-4.006.25-1.32.478-2.234.674-2.979.302-4.255.392-8.547.094-12.827a67 67 0 0 0-.399-4.014q-.241-1.836-.566-3.677a41 41 0 0 0-.741-1.957c-.34-.844-.65-1.614-.813-2.247-.397-1.547-.471-3.346-.537-4.704q-.015-.33-.031-.618a207 207 0 0 0-.835-3.1l.118-.24c.508-1.027.292-2.126-.054-3.861-.15-.751-.326-1.63-.477-2.658-.014-.043-.025-.18-.037-.224l-.002-.019c-.064-.702.16-1.096.343-1.416q.083-.14.143-.269c.132-.3-.085-.571-.341-.893-.332-.416-.729-.922-.504-1.67.72-2.373-.012-3.298-.574-4.014-.165-.21-.313-.4-.403-.6-.292-.65-.133-1.619.136-2.359.212-.588-.121-1.704-.499-2.542-.143-.318-.175-.758-.21-1.274-.037-.536-.077-1.153-.253-1.805-.443-1.644-.66-2.519-.835-3.214l-.142-.569c-.15-.582-.288-1.306-.429-2.027-.05-.252-.102-.516-.154-.761a16 16 0 0 0-.399-1.603c.028-1.71.066-3.386.032-4.991-.015-.826.428-1.695 1.267-2.493.84-.794 2.012-1.409 3.306-1.663"/><path fill="#000" d="M382.211 318.92c.767-.075 1.632.333 2.348 1.166.718.833 1.231 2.008 1.484 3.275.257 1.267.257 2.539.086 3.575-.176 1.037-.519 1.75-1 2.037-.786.467-1.553.974-2.312 1.499q-.053.064-.104.123c-.257.298-.417.759-.566 1.22l-.103.317c-.259.786-1.331 1.018-1.935 1.176l-.034.009a2.5 2.5 0 0 0-.413.159c-.35.163-.814.37-1.969.589-.268.175-.548.352-.821.52-1.624 1-3.306 1.984-5.031 3.001l.969-.897c-1.296 1.152-2.594 2.278-3.861 3.427l-.081.118c-.523.766-1.14 1.724-1.736 2.17a24 24 0 0 1-1.801 1.223c-2.025 2.143-3.835 4.495-5.183 7.122-.422.82-.801 1.67-1.125 2.537a28 28 0 0 0-.788 2.445 17 17 0 0 0 .009 1.48c.025.655.061 1.224.003 1.679-.139 1.09-.644 2.238-1.006 3.119l-.163.402q-.027.299-.051.602l.071-.483c.01.56.023 1.143.04 1.709l-.174.144c-.743.599-.806 1.421-.901 2.709-.042.561-.089 1.219-.2 1.976-.073.499-.364.722-.602.915-.07.056-.136.11-.189.164-.185.187-.019.407.176.673.254.348.559.752.216 1.243-1.091 1.551-.489 2.314-.035 2.897.133.171.254.322.315.475.2.498-.085 1.157-.445 1.653-.285.386-.092 1.225.184 1.869.104.246.084.559.059.933-.025.39-.055.833.046 1.325.257 1.233.378 1.887.475 2.416.027.149.052.289.079.428.083.442.138.986.194 1.537.067.66.136 1.332.254 1.844a135 135 0 0 1-.846 3.875c-.152.663-.787 1.265-1.792 1.669-1.006.405-2.293.582-3.607.488s-2.563-.449-3.502-.992-1.483-1.229-1.54-1.907a132 132 0 0 1-.295-4.097c-.085-1.661-.106-3.317.014-4.966.083-1.152.198-2.307.34-3.456l.044-.354c-.251-.994-.473-1.984-.527-2.674-.044-.571.16-.967.334-1.308.12-.235.226-.439.229-.66.001-.117-.008-.278-.017-.471-.038-.792-.1-2.135.313-3.327.183-.528.508-1.133.821-1.71.446-.821.865-1.596.792-2.007-.129-.727.101-1.522.308-2.234.198-.673.373-1.27.187-1.628l-.02-.039c.025-.087.033-.362.067-.447-.147-.452.028-.786.288-1.265.188-.349.416-.767.612-1.367.227-.694.531-1.144.791-1.528.366-.534.646-.937.54-1.676-.114-.831-.082-1.668.214-2.239.135-.259.228-.581.326-.91.13-.434.276-.902.539-1.27.218-.305.563-.498.868-.661q.144-.076.268-.148l.299-.802-.069-.186c-.124-.322-.27-.728-.249-1.145.033-.661.387-1.107.765-1.566.296-.357.605-.722.801-1.219.133-.339.226-.756.323-1.169.144-.613.302-1.22.59-1.54.108-.12.314-.16.519-.198h.004l.041-.007q.59-1.418 1.228-2.825l.04-.29c.069-.47.141-.926.069-1.306-.077-.412.204-1.135.517-1.889.205-.494.423-1.003.555-1.454.077-.264.356-.362.642-.458.268-.09.542-.181.669-.412.063-.116.095-.269.129-.433.03-.144.063-.296.12-.437.054-.132.313-.315.644-.544.204-.142.439-.305.669-.482q.59-.968 1.215-1.91a1.8 1.8 0 0 0-.176-.677c-.081-.171-.195-.356-.311-.547-.157-.258-.319-.526-.411-.783-.071-.2-.047-.34.065-.35a.5.5 0 0 1 .185.038c.073.023.138.044.158.018.014-.019-.006-.07-.031-.132-.04-.101-.091-.23-.03-.305.104-.13.225-.259.354-.388.244-.189.837-.89 1.113-1.029.182-.123.374-.242.563-.358.387-.236.783-.474 1.047-.711.304-.272.872-.451 1.453-.631.4-.122.806-.244 1.119-.392.304-.142.547-.425.777-.693.276-.323.555-.637.923-.677.076-.009.256.115.478.271.157.111.337.239.518.347.355-.219.731-.435 1.102-.636l-.002-.095v-.002c-.021-.726-.023-1.732.83-1.611.219.03.434.191.625.336.188.143.356.273.485.249.144-.025.235-.224.331-.437.134-.299.293-.636.651-.581l.077.011c.254.04.641.094 1.112.361a31 31 0 0 1 2.692-.766 35 35 0 0 1 4.654-.769"/></svg>